<?xml version="1.0" encoding="utf-8"?>
<!-- Generator: Adobe Illustrator 22.1.0, SVG Export Plug-In . SVG Version: 6.00 Build 0)  -->
<svg version="1.1" id="Layer_1" xmlns="http://www.w3.org/2000/svg" xmlns:xlink="http://www.w3.org/1999/xlink" x="0px" y="0px"
	 viewBox="0 0 500 500" style="enable-background:new 0 0 500 500;" xml:space="preserve">
<style type="text/css">
	.st0{fill:#F5F5F5;}
	.st1{fill:#011627;}
	.st2{fill:#FFFFFF;}
	.st3{opacity:0.1;}
	.st4{fill:#E51F37;}
	.st5{fill:#E0E0E0;}
	.st6{fill:#FFC3BD;}
	.st7{fill:#ED847E;}
	.st8{opacity:0.5;fill:#FFFFFF;enable-background:new    ;}
	.st9{fill:#B55B52;}
	.st10{opacity:0.2;fill:#011627;enable-background:new    ;}
	.st11{fill:#B65B52;}
	.st12{opacity:0.3;fill:#011627;enable-background:new    ;}
	.st13{fill:#A02724;}
</style>
<g id="freepik--Shadow--inject-312">
	<ellipse id="freepik--path--inject-312" class="st0" cx="250" cy="416.2" rx="193.9" ry="11.3"/>
</g>
<g id="freepik--Board--inject-312">
	<rect x="215.6" y="112.4" class="st1" width="192.8" height="140.4"/>
	<path class="st2" d="M266.8,177.2c-1-0.1-2-0.3-2.8-0.8c-0.6-0.3-1.2-0.5-1.9-0.6c-0.7-0.1-1.3-0.1-2-0.1c-1,0.1-1.9,0-2.9-0.4
		c-0.9-0.4-1.7-1.1-2.3-1.8c-0.5-0.5-0.9-0.9-1.5-1.3c-0.6-0.3-1.2-0.6-1.8-0.9c-0.9-0.3-1.8-0.8-2.5-1.4c-0.6-0.7-1.1-1.6-1.4-2.5
		c-0.2-0.6-0.5-1.2-0.9-1.8c-0.4-0.5-0.8-1-1.3-1.5c-0.7-0.6-1.4-1.4-1.8-2.3c-0.3-0.9-0.4-1.9-0.4-2.9c0-0.7,0-1.3-0.1-2
		c-0.2-0.6-0.4-1.3-0.6-1.8c-1-1.7-1-3.9,0-5.7c0.3-0.6,0.5-1.2,0.6-1.9c0.1-0.7,0.1-1.3,0.1-2c-0.1-1,0.1-1.9,0.4-2.9
		c0.4-0.9,1-1.7,1.8-2.3c0.5-0.4,0.9-0.9,1.3-1.5c0.4-0.6,0.6-1.2,0.9-1.8c0.3-0.9,0.8-1.8,1.4-2.5c0.7-0.6,1.6-1.1,2.5-1.4
		c0.6-0.2,1.2-0.5,1.8-0.9c0.5-0.4,1-0.8,1.5-1.3c0.6-0.7,1.4-1.3,2.3-1.8c0.9-0.3,1.9-0.4,2.9-0.4c0.7,0,1.3,0,2-0.1
		c0.6-0.2,1.3-0.4,1.9-0.6c0.9-0.5,1.8-0.7,2.8-0.8c1,0.1,2,0.3,2.8,0.8c0.6,0.3,1.2,0.5,1.8,0.6c0.7,0.1,1.3,0.1,2,0.1
		c1-0.1,1.9,0,2.9,0.4c0.9,0.4,1.7,1,2.3,1.8c0.9,1,2,1.8,3.3,2.2c2,0.5,3.5,2,4,4c0.2,0.6,0.5,1.2,0.9,1.8c0.4,0.5,0.8,1,1.3,1.5
		c0.7,0.6,1.4,1.4,1.8,2.3c0.3,0.9,0.4,1.9,0.4,2.9c0,0.7,0,1.3,0.1,2c0.2,0.6,0.4,1.3,0.6,1.9c1,1.7,1,3.9,0,5.7
		c-0.3,0.6-0.5,1.2-0.6,1.8c-0.1,0.7-0.1,1.3-0.1,2c0.1,1-0.1,1.9-0.4,2.9c-0.4,0.9-1,1.7-1.8,2.3c-0.5,0.4-0.9,0.9-1.3,1.5
		c-0.4,0.6-0.6,1.2-0.9,1.8c-0.5,2-2,3.5-4,3.9c-0.6,0.2-1.2,0.5-1.8,0.9c-0.5,0.4-1,0.8-1.5,1.3c-0.6,0.7-1.4,1.4-2.3,1.8
		c-0.9,0.3-1.9,0.4-2.9,0.4c-0.7,0-1.3,0-2,0.1c-0.6,0.1-1.3,0.4-1.8,0.6C268.8,176.9,267.8,177.1,266.8,177.2z M260.5,175.2
		c0.6,0,1.1,0,1.7,0.1c0.7,0.2,1.3,0.4,1.9,0.7c1.6,1,3.7,1,5.3,0c0.6-0.3,1.3-0.5,1.9-0.7c0.7-0.1,1.4-0.2,2.1-0.1
		c0.9,0.1,1.8,0,2.7-0.3c0.8-0.4,1.5-1,2.1-1.7c0.5-0.5,1-1,1.5-1.4c0.6-0.4,1.2-0.7,1.9-0.9c0.9-0.3,1.7-0.7,2.4-1.3
		c0.6-0.7,1-1.5,1.3-2.4c0.2-0.7,0.6-1.3,0.9-1.9c0.4-0.6,0.9-1.1,1.4-1.6c0.7-0.6,1.3-1.3,1.7-2.1c0.3-0.9,0.4-1.8,0.3-2.7
		c0-0.7,0-1.4,0.1-2.1c0.2-0.7,0.4-1.4,0.7-2c1-1.6,1-3.7,0-5.3c-0.3-0.6-0.5-1.3-0.7-2c-0.1-0.7-0.2-1.4-0.1-2.1
		c0.1-0.9,0-1.8-0.3-2.7c-0.4-0.8-1-1.5-1.7-2.1c-0.5-0.5-1-1-1.4-1.6c-0.4-0.6-0.7-1.2-0.9-1.9c-0.4-1.8-1.9-3.2-3.7-3.7
		c-0.7-0.2-1.3-0.5-1.9-0.9c-0.6-0.4-1.1-0.9-1.5-1.4c-0.6-0.7-1.3-1.3-2.1-1.7c-0.9-0.3-1.8-0.4-2.7-0.3c-1.4,0.1-2.8-0.2-4.1-0.8
		c-1.6-1-3.7-1-5.3,0c-1.3,0.6-2.7,0.9-4.1,0.8c-0.9-0.1-1.8,0-2.7,0.3c-0.8,0.4-1.5,1-2.1,1.7c-0.5,0.5-1,1-1.5,1.4
		c-0.6,0.4-1.2,0.7-1.9,0.9c-0.9,0.3-1.7,0.7-2.4,1.3c-0.6,0.7-1,1.5-1.3,2.4c-0.2,0.7-0.6,1.3-0.9,1.9c-0.4,0.6-0.9,1.1-1.4,1.6
		c-0.7,0.6-1.3,1.3-1.7,2.1c-0.3,0.9-0.4,1.8-0.3,2.7c0,0.7,0,1.4-0.1,2.1c-0.2,0.7-0.4,1.4-0.7,2c-1,1.6-1,3.7,0,5.3
		c0.3,0.6,0.5,1.3,0.7,2c0.1,0.7,0.2,1.4,0.1,2.1c-0.1,0.9,0,1.8,0.3,2.7c0.4,0.8,1,1.5,1.7,2.1c0.5,0.5,1,1,1.4,1.6
		c0.4,0.6,0.7,1.2,0.9,1.9c0.3,0.9,0.7,1.7,1.3,2.4c0.7,0.6,1.5,1,2.4,1.3c0.7,0.2,1.3,0.5,1.9,0.9c0.6,0.4,1.1,0.9,1.5,1.4
		c0.6,0.7,1.3,1.3,2.1,1.7c0.9,0.3,1.8,0.4,2.7,0.3L260.5,175.2z"/>
	<circle class="st2" cx="266.8" cy="152.2" r="14"/>
	<path class="st2" d="M276.9,138.4c-0.1,0-0.1,0-0.2-0.1c-0.1-0.1-0.1-0.3,0-0.4c0,0,0,0,0,0l11-11c0,0,0.1-0.1,0.2-0.1h21.7
		c0.1,0,0.3,0.1,0.3,0.3s-0.1,0.3-0.3,0.3H288l-11,10.9C277,138.4,276.9,138.4,276.9,138.4z"/>
	<path class="st2" d="M249.6,191.8h-21.7c-0.1,0-0.3-0.1-0.3-0.3s0.1-0.3,0.3-0.3h21.6l10.9-10.9c0.1-0.1,0.3-0.1,0.4,0
		c0.1,0.1,0.1,0.2,0,0.3l-11,11C249.7,191.7,249.6,191.7,249.6,191.8z"/>
	<path class="st2" d="M322.2,127.9c-0.1,0-0.1,0-0.2-0.1c-0.1-0.1-0.1-0.2,0-0.3c0.9-0.6,1.8-1.2,2.7-1.7c0.4-0.3,0.9-0.4,1.4-0.4
		l0,0c0.5,0,1,0.2,1.4,0.4c0.2,0.1,0.3,0.1,0.5,0.2c1.4,0.5,3,0.1,4.6-0.3c1.4-0.5,3-0.7,4.5-0.5c0.3,0.1,0.7,0.2,1,0.3l0.6,0.2
		c2.1,0.4,4.3,0.4,6.4-0.1l1.3-0.2c2.3-0.5,4.7-0.3,6.9,0.5c0.3,0.1,0.6,0.3,0.8,0.4c0.6,0.4,1.3,0.6,2.1,0.7c0.8,0,1.7-0.2,2.4-0.5
		l0.8-0.3c2.4-0.7,5.1-0.4,7.7-0.2h0.5c7,0.6,14.1,0.7,21.1,0.2c0.1,0,0.2,0.1,0.2,0.2c0,0,0,0,0,0c0,0.1-0.1,0.2-0.2,0.2
		c-7.1,0.6-14.2,0.5-21.2-0.2h-0.5c-2.5-0.2-5.2-0.5-7.5,0.2c-0.3,0.1-0.5,0.2-0.8,0.3c-0.8,0.3-1.7,0.5-2.6,0.5
		c-0.8-0.1-1.5-0.4-2.2-0.8c-0.3-0.1-0.5-0.3-0.8-0.4c-2.1-0.7-4.4-0.9-6.6-0.5l-1.3,0.2c-2.2,0.5-4.4,0.5-6.6,0.1l-0.6-0.2
		c-0.3-0.1-0.7-0.2-1-0.3c-1.5-0.2-2.9,0-4.3,0.5c-1.6,0.4-3.4,0.9-4.9,0.3l-0.5-0.2c-0.4-0.2-0.8-0.3-1.2-0.4
		c-0.4,0-0.8,0.2-1.2,0.4C324,126.7,323.1,127.2,322.2,127.9C322.2,127.8,322.2,127.8,322.2,127.9z"/>
	<path class="st2" d="M360.1,133.6c-0.9-0.1-1.8-0.3-2.6-0.6c-0.8-0.4-1.7-0.6-2.6-0.6c-0.6,0-1.3,0.1-1.9,0.3
		c-0.4,0.1-0.8,0.2-1.2,0.3c-1.1,0.1-2.2,0.1-3.3,0h-0.1c-4.9-0.5-9.9-0.6-14.7-0.8c-1.7-0.1-3.5,0.2-3.8,1.1c0,0.1-0.1,0.2-0.2,0.2
		c-0.1,0-0.2,0-0.2-0.1c-0.5-0.9-2-1.3-3.3-1.2c-1.3,0.2-2.6,0.5-3.9,1.1c-0.1,0-0.2,0-0.3-0.1c0,0,0,0,0,0c0-0.1,0-0.2,0.1-0.3
		c1.3-0.6,2.6-1,4-1.1c1.3-0.1,2.5,0.3,3.5,1.1c0.7-1.1,3-1.1,4-1.1c4.9,0.2,9.9,0.4,14.8,0.8h0.1c1.1,0.1,2.1,0.1,3.2,0
		c0.4-0.1,0.8-0.2,1.2-0.3c0.6-0.2,1.3-0.3,2-0.4c1,0.1,1.9,0.3,2.8,0.6c1,0.5,2.1,0.6,3.2,0.5c0.3-0.1,0.7-0.2,1-0.4l0.5-0.3
		c1.7-0.6,3.5-0.7,5.3-0.4c1,0.1,2.1,0.1,3.1,0.1c0.1,0,0.2,0.1,0.2,0.2c0,0,0,0,0,0c0,0.1-0.1,0.2-0.2,0.2c-1.1,0.1-2.1,0-3.2-0.1
		c-1.7-0.3-3.5-0.1-5.1,0.4c-0.2,0.1-0.3,0.2-0.5,0.2c-0.3,0.2-0.7,0.3-1.1,0.4C360.7,133.6,360.4,133.6,360.1,133.6z"/>
	<path class="st2" d="M322.2,140.2c-0.1,0-0.2-0.1-0.2-0.2c0-0.1,0.1-0.2,0.1-0.2c1.7-0.7,3.4-1.2,5.1-1.7c0.9-0.3,1.9-0.4,2.9-0.4
		c0.6,0.1,1.2,0.2,1.7,0.4c0.5,0.2,1.1,0.3,1.7,0.3c0.7,0,1.3,0,2-0.1c1-0.2,2-0.2,3,0.1c0.3,0.1,0.6,0.2,0.8,0.4
		c0.2,0.2,0.5,0.3,0.8,0.4c1.3,0.4,2.6-0.1,4-0.8c1.2-0.7,2.5-1,3.9-1c0.9,0.2,1.8,0.5,2.5,1c0.8,0.5,1.8,0.9,2.7,0.9
		c0.5,0,0.9-0.1,1.3-0.3h0.1c3.6-1.1,7.4-1.5,11.2-1.1h0.2c0.5,0.1,1.1,0.1,1.6,0c0.3,0,0.6-0.1,1-0.2l0.7-0.2
		c1.5-0.2,2.9-0.1,4.4,0.3l0.8,0.2c3.7,0.7,7.6,0.5,11.2-0.4c0.1,0,0.2,0.1,0.2,0.2c0,0.1,0,0.2-0.1,0.2c-3.7,0.9-7.6,1-11.4,0.4
		l-0.8-0.2c-1.4-0.4-2.8-0.5-4.2-0.3c-0.2,0-0.5,0.1-0.7,0.1c-0.3,0.1-0.7,0.2-1,0.2c-0.6,0.1-1.1,0.1-1.7,0h-0.2
		c-3.7-0.3-7.5,0.1-11.1,1.1h-0.1c-0.5,0.2-0.9,0.3-1.4,0.3c-1.1,0-2.1-0.3-3-0.9c-0.7-0.5-1.5-0.8-2.4-0.9c-1.3,0-2.6,0.3-3.7,1
		c-1.4,0.6-2.8,1.3-4.3,0.8c-0.3-0.1-0.6-0.2-0.9-0.4c-0.2-0.1-0.5-0.3-0.8-0.4c-0.9-0.2-1.9-0.3-2.8-0.1c-0.7,0.1-1.4,0.1-2.1,0.1
		c-0.6-0.1-1.2-0.2-1.7-0.4c-0.5-0.2-1.1-0.3-1.6-0.3c-0.9,0-1.8,0.1-2.7,0.3c-1.7,0.4-3.4,1-5.1,1.7L322.2,140.2z"/>
	<path class="st2" d="M322.2,145.6c-0.1,0-0.2-0.1-0.2-0.2c0-0.1,0-0.2,0.1-0.3c0,0,0,0,0,0c2-0.5,4-0.8,6-0.9
		c0.6-0.1,1.2,0,1.8,0.1c0.1,0,0.3,0.1,0.4,0.1c0.2,0.1,0.3,0.1,0.5,0.2c0.4,0.1,0.8,0.1,1.2,0c1.8-0.3,3.6-0.4,5.4-0.4
		c0.1,0,0.2,0.1,0.2,0.2c0,0.1-0.1,0.2-0.2,0.2c0,0,0,0,0,0c-1.8,0-3.5,0.1-5.3,0.4c-0.4,0.1-0.9,0.1-1.4,0.1
		c-0.2,0-0.4-0.1-0.6-0.2l-0.3-0.1c-0.5-0.1-1.1-0.2-1.6-0.1C326.2,144.9,324.2,145.2,322.2,145.6L322.2,145.6z"/>
	<path class="st2" d="M345.8,144.9c-0.1,0-0.2,0-0.3-0.2c0-0.1,0-0.2,0.2-0.3c0,0,0.1,0,0.1,0c1.2,0,2.4,0,3.6,0h0.1
		c8.6,0,17.3,0,25.9-0.1l0,0c0.1,0,0.2,0.1,0.2,0.2c0,0.1-0.1,0.2-0.2,0.2c-8.6,0.1-17.3,0.1-25.9,0.1h-0.1
		C348.2,144.9,347,144.9,345.8,144.9L345.8,144.9z"/>
	<g class="st3">
		<path class="st2" d="M374,198.6c0,2.4-1.7,4.6-2.1,6.9s0.2,5-0.7,7.1s-3.3,3.6-4.6,5.5s-1.7,4.7-3.4,6.4s-4.4,2-6.4,3.4
			s-3.3,3.7-5.5,4.6s-4.8,0.2-7.2,0.7s-4.5,2.1-6.9,2.1s-4.6-1.7-6.9-2.1s-5,0.2-7.2-0.7s-3.6-3.3-5.5-4.6s-4.7-1.7-6.4-3.4
			s-2.1-4.4-3.4-6.4s-3.7-3.4-4.6-5.5s-0.2-4.8-0.7-7.1s-2.1-4.5-2.1-6.9s1.6-4.6,2.1-6.9s-0.2-5,0.7-7.1s3.3-3.6,4.6-5.5
			s1.7-4.7,3.4-6.4s4.4-2.1,6.4-3.4s3.4-3.7,5.5-4.6s4.8-0.2,7.2-0.7s4.5-2.1,6.9-2.1s4.6,1.7,6.9,2.1s5-0.2,7.2,0.7
			s3.6,3.3,5.5,4.6s4.7,1.7,6.4,3.4s2,4.4,3.4,6.4s3.7,3.4,4.6,5.5s0.2,4.8,0.7,7.1S374,196.2,374,198.6z"/>
	</g>
	<path class="st4" d="M229.2,242.1h18.6c1.1,0,1.9,0.9,1.9,1.9v3.4c0,1.1-0.9,1.9-1.9,1.9h-18.6c-1.1,0-1.9-0.9-1.9-1.9V244
		C227.2,243,228.1,242.1,229.2,242.1z"/>
	<path class="st2" d="M228.4,239.1h20.2c0.6,0,1.1,0.5,1.1,1.1v0.8c0,0.6-0.5,1.1-1.1,1.1h-20.2c-0.6,0-1.1-0.5-1.1-1.1v-0.8
		C227.2,239.6,227.8,239.1,228.4,239.1z"/>
	<rect x="310.5" y="252" class="st1" width="3" height="158.8"/>
	<path class="st1" d="M307.8,361.4h8.3c0.9,0,1.7,0.8,1.7,1.7v2.2c0,0.9-0.8,1.7-1.7,1.7h-8.3c-0.9,0-1.7-0.8-1.7-1.7v-2.2
		C306.1,362.1,306.9,361.4,307.8,361.4z"/>
	<polygon class="st1" points="282.1,410.8 279.1,410.8 310.5,364.1 313.5,364.1 	"/>
	<polygon class="st1" points="341.9,410.8 344.9,410.8 313.5,364.1 310.5,364.1 	"/>
	<path class="st5" d="M409,113.8H215c-0.8,0-1.4-0.6-1.4-1.4l0,0c0-0.8,0.6-1.4,1.4-1.4h194c0.8,0,1.4,0.6,1.4,1.4c0,0,0,0,0,0l0,0
		C410.4,113.2,409.8,113.8,409,113.8C409,113.8,409,113.8,409,113.8z"/>
	<polygon class="st5" points="416.7,249.4 207.3,249.4 212.2,254.7 411.8,254.7 	"/>
</g>
<g id="freepik--character-2--inject-312">
	<rect x="173.6" y="295.2" class="st4" width="96" height="2.4"/>
	<rect x="205.6" y="294" class="st5" width="32.1" height="1.2"/>
	<rect x="244.2" y="295.2" class="st1" width="25.5" height="2.4"/>
	<path class="st1" d="M230.4,414.3H229l-6-62c-0.5-5.1-3.9-9-7.8-9h-12c-3.9,0-7.3,3.9-7.8,9l-6,62h-1.5L194,352
		c0.6-6.1,4.6-10.7,9.2-10.7h12c4.7,0,8.6,4.6,9.2,10.7L230.4,414.3z"/>
	<path class="st1" d="M185.3,414.3h-1.4l-6.1-62c-0.5-5.1-3.9-9-7.8-9h-12c-3.9,0-7.3,3.9-7.8,9l-6.1,62h-1.4l6.1-62.3
		c0.6-6.1,4.6-10.7,9.2-10.7h12c4.7,0,8.6,4.6,9.2,10.7L185.3,414.3z"/>
	<path class="st6" d="M164.9,270.7l-1.9,14.2c-0.6,4.7-1.2,9.5-1.7,14.1l-0.1,1.7l-0.1,0.9c0-0.1,0-0.3,0-0.4c0-0.1-0.1-0.3-0.1-0.4
		c-0.1-0.2-0.1-0.3-0.2-0.5c-0.1-0.2-0.2-0.2-0.1-0.1c0.1,0.1,0.2,0.2,0.3,0.2c0.4,0.2,0.7,0.5,1.1,0.6c2,0.9,4.1,1.7,6.2,2.3
		c4.4,1.4,9.1,2.5,13.7,3.6l-0.5,4c-4.9-0.2-9.8-0.7-14.7-1.5c-2.6-0.4-5.1-1.1-7.5-2c-0.7-0.3-1.4-0.6-2.1-1
		c-0.4-0.2-0.8-0.5-1.2-0.8c-0.5-0.4-1-0.9-1.4-1.4c-0.3-0.4-0.5-0.8-0.6-1.3c-0.1-0.3-0.2-0.6-0.2-0.8c0-0.3,0-0.6,0-0.9v-0.9v-1.9
		c0.2-4.9,0.6-9.8,1.2-14.6s1.1-9.6,1.9-14.4L164.9,270.7z"/>
	<path class="st6" d="M192.5,311.3l-3.1,2.8c-0.7,0.7-1.8,0.8-2.7,0.4l-3.4-1.6c0,0-5.1-0.2-5.8-3.3l1.3-2.4l7.9-0.9
		c0.8-0.1,1.6,0.1,2.3,0.5l3.2,2c0.7,0.5,1,1.4,0.5,2.2C192.7,311.1,192.6,311.2,192.5,311.3z"/>
	<path class="st6" d="M173.9,241.5c0.8,4.9,1.5,13.8-2,16.9c5.5,3.1,10.3,7.2,14.1,12.2c6-4.7,1-11.8,1-11.8
		c-5.4-1.5-5.1-5.4-4.1-9.2L173.9,241.5z"/>
	<path class="st1" d="M162.3,259.7c-6.1,2-7.4,10.2-6.9,16.6l12.4,7.6c0,0,3-9.3,3-14.3C170.7,264.3,166.5,258.3,162.3,259.7z"/>
	<path class="st1" d="M201.3,271.6c-0.5,7-2.1,18.9-5.9,38.8l-33.1-1c0.9-12.2-0.4-21.3-3.4-42.7c-0.5-3.8,2.2-7.4,6-7.9
		c0.1,0,0.1,0,0.2,0c2.1-0.2,4.5-0.4,7-0.5c5-0.2,10-0.1,15,0.5c1.6,0.2,3.3,0.5,4.9,0.7C197.6,260.6,201.7,265.8,201.3,271.6z"/>
	<path class="st1" d="M189.2,231.7c0.2,0.6,0.7,1,1.1,0.9s0.6-0.8,0.4-1.4s-0.7-1-1.1-0.9S189,231.1,189.2,231.7z"/>
	<path class="st1" d="M189.4,230.4l1.4-0.9C190.8,229.5,190.4,230.9,189.4,230.4z"/>
	<path class="st7" d="M189.6,232.6c1,1.3,2.2,2.4,3.5,3.3c-0.5,0.7-1.3,1.1-2.1,1.1L189.6,232.6z"/>
	<path class="st1" d="M188.2,226.1c0.1-0.1,0.1-0.3,0-0.4c-0.1-0.2-0.4-0.2-0.5-0.1c-1,0.7-1.6,1.9-1.6,3.1c0,0.2,0.2,0.4,0.4,0.4
		c0,0,0,0,0,0c0.2,0,0.4-0.2,0.4-0.4c0,0,0,0,0,0l0,0c0-1,0.5-1.9,1.3-2.5C188.2,226.2,188.2,226.1,188.2,226.1z"/>
	<path class="st6" d="M167.1,235.9c3,7.5,4,10.8,9.2,13.5c7.8,4.1,16.4-1.2,15.7-9.5c-0.6-7.4-5.3-18.5-13.8-19.2
		c-6.1-0.5-11.4,4-11.9,10C166.1,232.5,166.4,234.2,167.1,235.9z"/>
	<path class="st1" d="M185.2,234.1c1.5-0.4,4-3.3-0.4-9.2c2.4-0.4,4.3-4.8-2.2-7.3s-13.6-1.3-17.9,4.7c0,0-13.7,4.1-2.5,18.2
		S187.5,248.9,185.2,234.1z"/>
	<path class="st4" d="M159.6,222.3c0,0.8,0.4,1.6,1.1,2c1.3,1.1,3.2,1.2,4.7,0.3c1.5-1,2.9-2.2,4.1-3.5c1.5-1.6,1.4-4.2-0.2-5.7
		c0,0,0,0-0.1-0.1c-0.2-0.2-0.4-0.3-0.6-0.4C168.6,214.9,160.7,215.2,159.6,222.3z"/>
	<path class="st1" d="M160.7,221.4c4.5-0.7,6.9-4.3,7.1-5.4c-1-2.6-14-19.4-25.1-7.1c-11.7,13,11.2,26.1,3,41.7
		C160,245.8,171.6,235.9,160.7,221.4z"/>
	<path class="st6" d="M181.9,235.7c0.8,1.5,2.1,2.6,3.7,3.2c2.1,0.7,3.3-1.2,2.7-3.3c-0.5-1.8-2.1-4.4-4.3-4.2
		c-1.6,0.2-2.7,1.6-2.5,3.2C181.6,235,181.7,235.3,181.9,235.7z"/>
	<polygon class="st6" points="235.5,401.6 243.3,400.9 238.1,381.6 230.3,382.4 	"/>
	<path class="st1" d="M253.9,406.1c-4.8-1.4-4.6-3.5-9.4-7.4c-0.5-0.4-1.1-0.7-1.7-0.8l-7.8-0.5c-0.3,0-0.6,0.2-0.6,0.5l-1.1,5.4
		c-0.4,1.9,0.8,3.7,2.4,3.7c2.6,0.1,5.8,0.2,8.6,0.4c4.1,0.3,4.2,2.4,9,2.1C256.2,409.5,255.5,406.6,253.9,406.1z"/>
	<polygon class="st6" points="264.6,376.8 269.9,372.2 261.1,358.8 254.4,365 	"/>
	<path class="st1" d="M268.5,369.4l-6.3,5.9c-0.2,0.2-0.3,0.6-0.1,0.9l3,4.6c1,1.4,3,1.7,4.4,0.7c0.1-0.1,0.2-0.2,0.3-0.2
		c2.1-1.6,3.2-4.4,5.7-6.7c3.6-3.3,4.2-3.3,6.4-7.9c1.5-3.1-1.8-3.1-2.9-2.2c-2.9,2.5-1.8,2.6-8.5,4
		C269.7,368.6,269.1,368.9,268.5,369.4z"/>
	<path class="st4" d="M183.8,309.9c0,0,53.6-7.9,59.2,5.8c9.7,23.9,23.6,50.9,23.6,50.9l-6.3,5.8c0,0-24-21.5-32.3-45.5
		c-9.9,3.2-41.5,13.6-53.1,13.6c-12.4,0-17.4-10.5-12.9-28c0.4-1.6,1.8-2.7,3.4-2.6C173.1,309.7,183.8,309.9,183.8,309.9z"/>
	<path class="st8" d="M183.8,309.9c0,0,53.6-7.9,59.2,5.8c9.7,23.9,23.6,50.9,23.6,50.9l-6.3,5.8c0,0-24-21.5-32.3-45.5
		c-9.9,3.2-41.5,13.6-53.1,13.6c-12.4,0-17.4-10.5-12.9-28c0.4-1.6,1.8-2.7,3.4-2.6C173.1,309.7,183.8,309.9,183.8,309.9z"/>
	<path class="st4" d="M188.9,316.9c0,0,44-1.3,44.4,14.3c0.6,25.8,8.5,62.7,8.5,62.7l-8.7,0.8c0,0-13.1-29.4-16.6-54.6
		c-15.7,1-30.1,0.3-41.7,0.3c-13,0-14-14.3-1.4-30.9C181.1,309.5,188.9,316.9,188.9,316.9z"/>
	<path class="st8" d="M188.9,316.9c0,0,44-1.3,44.4,14.3c0.6,25.8,8.5,62.7,8.5,62.7l-8.7,0.8c0,0-13.1-29.4-16.6-54.6
		c-15.7,1-30.1,0.3-41.7,0.3c-13,0-14-14.3-1.4-30.9C181.1,309.5,188.9,316.9,188.9,316.9z"/>
	<path class="st2" d="M161.8,307.5l-0.9,2.9c-0.1,0.2,0.1,0.5,0.5,0.5l34.1,1c0.3,0,0.6-0.1,0.6-0.3l0.4-3c0-0.2-0.2-0.4-0.6-0.4
		l-33.5-1C162.1,307.2,161.9,307.3,161.8,307.5z"/>
	<path class="st1" d="M166.2,311.4h-0.9c-0.2,0-0.3-0.1-0.3-0.2l0.5-3.8c0-0.1,0.2-0.2,0.4-0.2h0.9c0.2,0,0.3,0.1,0.3,0.2l-0.5,3.8
		C166.5,311.3,166.3,311.4,166.2,311.4z"/>
	<path class="st1" d="M192.9,312.2H192c-0.2,0-0.3-0.1-0.3-0.2l0.5-3.8c0-0.1,0.2-0.2,0.4-0.2h0.9c0.2,0,0.3,0.1,0.3,0.2l-0.5,3.8
		C193.2,312.1,193.1,312.2,192.9,312.2z"/>
	<path class="st1" d="M179.5,311.8h-0.9c-0.2,0-0.3-0.1-0.3-0.2l0.5-3.8c0-0.1,0.2-0.2,0.4-0.2h0.9c0.2,0,0.3,0.1,0.3,0.2l-0.5,3.8
		C179.9,311.7,179.7,311.8,179.5,311.8z"/>
	<path class="st6" d="M202.5,275.4c0.1,0.7,0.3,1.6,0.5,2.5s0.4,1.7,0.6,2.5c0.4,1.7,0.9,3.4,1.4,5c0.5,1.6,1.2,3.2,1.9,4.7
		c0.7,1.5,1.5,2.9,2.4,4.2l0.2,0.3l-0.1-0.1c0,0-0.1-0.1-0.1-0.1c-0.1-0.1-0.2-0.2-0.3-0.2c-0.2-0.2-0.5-0.3-0.8-0.3
		c-0.3,0-0.1,0,0.1,0c0.7-0.1,1.4-0.2,2-0.5c1.6-0.6,3.2-1.2,4.8-2c3.2-1.5,6.5-3.2,9.8-4.9l2.4,3.3c-2.8,2.6-5.9,4.9-9.1,7
		c-1.7,1.1-3.4,2.1-5.2,3c-1.1,0.5-2.2,0.9-3.4,1.1c-0.9,0.2-1.8,0.2-2.7,0.1c-0.8-0.1-1.5-0.4-2.1-0.9c-0.2-0.1-0.4-0.3-0.5-0.4
		l-0.3-0.3l-0.2-0.2l-0.3-0.3c-2.6-3.2-4.7-6.8-6.1-10.7c-0.7-1.9-1.3-3.7-1.8-5.7c-0.3-1-0.5-1.9-0.7-2.9s-0.4-1.9-0.5-3
		L202.5,275.4z"/>
	<path class="st1" d="M198.5,263.4c5.8,4.5,5.8,17.6,5.8,17.6l-10,2.8c0,0-7.2-8.7-5.4-12.8C190.9,266.6,195.4,261,198.5,263.4z"/>
	<path class="st1" d="M233.3,286.3c-0.2,0-0.3-0.1-0.4-0.3l-7.9-15.1c-0.1-0.2,0-0.5,0.2-0.6c0,0,0,0,0,0c0.2-0.1,0.5,0,0.6,0.2
		l7.9,15.1c0.1,0.2,0,0.5-0.2,0.6c0,0,0,0,0,0C233.5,286.2,233.4,286.3,233.3,286.3z"/>
	<path class="st6" d="M230,277.6l-3,1.8c-0.8,0.5-1.3,1.2-1.6,2l-2.8,7.3l-1.3,4.6c3,1.1,8.4-6,8.4-6l3.4-2.6
		c0.6-0.4,0.8-1.1,0.6-1.8l-1.2-4.4c-0.2-0.9-1.2-1.5-2.1-1.3C230.3,277.5,230.2,277.5,230,277.6z"/>
	<path class="st4" d="M226.4,337l-22.4-0.9l-5.9-34.5c-3-17.8-18.4-32.1-34.3-32.1h-14c-15.9,0-26.4,14.4-23.4,32.1l4,23.8
		c1.5,8.8,9.1,15.9,17,15.9H236c0.5-0.1,0.8-0.5,0.8-1c0-0.3-0.2-0.5-0.4-0.7C233.3,338.1,229.9,337.2,226.4,337z"/>
	<path class="st1" d="M231.7,340.6h-7.1v-1.8h7.1c17.9,0,32.4-16.2,32.4-36.2v-6.2h1.8v6.2C265.9,323.5,250.5,340.6,231.7,340.6z"/>
</g>
<g id="freepik--character-3--inject-312">
	<polygon class="st9" points="342.3,394 355.1,391.2 357.5,406.5 346.8,408.8 	"/>
	<polygon class="st10" points="342.3,394 355.1,391.2 356.5,399.8 344.8,402.3 	"/>
	<path class="st1" d="M350,335.6c4.3-19.8,13.1-40.5,4.7-59.5l-36.6-0.1c0,0,2.8,43.5,4.1,61.8c1.3,19,20.6,62.2,20.6,62.2l14.6-3.2
		C357.5,396.8,353.3,356.9,350,335.6z"/>
	<path class="st10" d="M350.4,333.8c2.6-11.5,6.5-23.2,7.5-34.7C344.1,283.9,345.8,314.8,350.4,333.8z"/>
	<path class="st1" d="M360.5,410.8l-3.4,0.8l-1-1l-1.2,1.5l-6.2,2.7c-2.3,1-4.7,1.5-7.2,1.5h-5.1c-0.1-1.4,0.2-2.7,0.8-3.9
		c0,0,4.9-0.9,7.5-5c0.3-0.4,0.9-0.7,1.5-0.6c2.4-0.1,8.5-0.4,11.6-2.4c0.3-0.2,0.6-0.1,0.7,0.2c0,0,0,0.1,0.1,0.1
		C359,406.7,359.6,408.8,360.5,410.8z"/>
	<polygon class="st9" points="372,395.9 385.1,396 385.7,411.4 374.7,411.4 	"/>
	<polygon class="st10" points="372,395.9 385.1,396 385.4,404.6 373.5,404.5 	"/>
	<path class="st1" d="M386.3,335.6c1.1-19.8,2.5-49.5-4.1-58.6l-40.8-0.9c0,0,11.4,43.5,15.6,61.8c4.4,19,15.2,64,15.2,64h14.2
		C386.2,401.8,391.6,358.3,386.3,335.6z"/>
	<path class="st11" d="M334.5,217.2l-0.6,0.5l-0.5,0.4l-0.9,0.7c-0.6,0.4-1.2,0.9-1.8,1.3c-1.2,0.8-2.3,1.5-3.6,2.2
		c-2.4,1.3-5,2.4-7.7,3.2c-1.3,0.4-2.7,0.7-4.1,1s-2.8,0.5-4.2,0.6c-2.8,0.3-5.6,0.2-8.4-0.1l-1.1-0.1c-1-0.1-1.9-0.5-2.7-1
		c-2.3-1.5-4.4-3.4-6.1-5.5c-1.5-1.8-2.8-3.8-4-5.9c-1.1-2-2-4-2.8-6.1c-0.4-1-0.7-2.1-1.1-3.1s-0.6-2.1-0.8-3.3
		c-0.6-2.6,1-5.2,3.6-5.8c1.6-0.4,3.3,0.1,4.5,1.3l0.5,0.5c0.6,0.6,1.3,1.4,1.9,2s1.3,1.4,1.9,2.1c1.3,1.4,2.5,2.7,3.8,3.8
		c1.2,1.2,2.5,2.3,3.8,3.3c1,0.8,2.1,1.4,3.3,1.9l-3.8-1.1c1.6-0.1,3.3-0.4,4.9-0.7c1.6-0.4,3.2-0.9,4.7-1.5
		c1.6-0.6,3.1-1.4,4.5-2.2c0.7-0.4,1.5-0.9,2.1-1.3c0.4-0.2,0.7-0.4,1-0.7l0.5-0.3l0.2-0.1h0.1l0,0h-0.1c3.9-3.5,10-3.2,13.5,0.8
		C338.8,207.7,338.4,213.7,334.5,217.2L334.5,217.2z"/>
	<path class="st9" d="M286.9,203.9l3.8-4c2.3-5.3-5.1-7.1-5.1-7.1l-4.6-3.3c-1.2-0.7-2.8-0.5-3.7,0.6l-2.7,2.8
		c-1.2,1.1-1.4,3-0.3,4.2c0,0,0,0,0,0l3.8,3.5c0.7,0.7,1.6,1.2,2.5,1.5L286.9,203.9z"/>
	<path class="st4" d="M338.8,195.3c-8.9-0.5-21.8,9.7-21.8,9.7c-1.2,3.4,1.8,16,7.2,21.5c0,0,6.2,1.5,11.7-5.1
		C341.7,214.3,348.2,195.9,338.8,195.3z"/>
	<path class="st4" d="M340.5,195c12.1-1.1,24.3-1,36.4,0.6c6.7,1,11.3,7.2,10.4,13.9c0,0.2-0.1,0.5-0.1,0.7
		c-5.7,28.5-1.4,60.4-5.1,66.7c0,0-40.4,0.7-64-0.9c-6.5-31,6.2-49.9,12.6-74.1C331.8,197.9,336.3,195.5,340.5,195z"/>
	<path class="st11" d="M390.1,206.8l0.9,1.1l0.8,1c0.5,0.7,1,1.4,1.5,2.1c1,1.4,1.9,2.8,2.8,4.3c1.8,2.9,3.4,6,4.7,9.2
		c1.5,3.3,2.6,6.8,3.3,10.4c0.9,4,1,8.1,0.4,12.2l-0.1,0.8c-0.1,0.7-0.3,1.3-0.7,1.9c-1.2,2.1-2.5,4.1-4,6c-1.4,1.8-2.9,3.6-4.5,5.2
		c-1.6,1.6-3.2,3.2-4.9,4.6c-1.7,1.5-3.6,2.8-5.5,4.1c-2.2,1.5-5.2,0.9-6.7-1.4c-1-1.4-1.1-3.3-0.3-4.8l0.2-0.4
		c0.9-1.7,1.9-3.5,2.8-5.3s1.9-3.5,2.8-5.3s1.7-3.5,2.5-5.2s1.4-3.4,2-5l-0.8,2.7c0-2-0.4-4-1-5.9c-0.4-1.1-0.8-2.3-1.2-3.4
		c-0.5-1.1-1-2.3-1.6-3.5c-1.2-2.3-2.5-4.6-3.9-6.9c-0.7-1.2-1.5-2.3-2.2-3.4l-1.1-1.7l-1-1.5l-0.4-0.5c-3.1-4.3-2.2-10.2,2.1-13.3
		C381.2,201.8,387,202.7,390.1,206.8L390.1,206.8z"/>
	<path class="st4" d="M380.1,196.5c8.4,3,16.2,17.1,16.2,17.1c-0.3,5.1-8.5,16.8-14.3,19.4c-4-3.5-7-8-8.7-13.1
		C370.7,211,375.8,197.8,380.1,196.5z"/>
	<path class="st9" d="M346.3,197.1c0.8-1.5,2.1-2.8,3.7-3.5c0.6-1.5,0.6-3.2,0.1-4.8l17.9-5.7c-1.5,5.9-2.6,10.6-0.4,13.5
		c-3.5,2.2-10,6-17,5.8S345.1,199.6,346.3,197.1z"/>
	<path class="st10" d="M350.2,189.4l13.5-0.8c-4.2,4.5-10.6,6.2-13.5,4.4C350.5,191.8,350.5,190.6,350.2,189.4z"/>
	<path class="st4" d="M350.2,202.5l2.9-2.5l3.9,2C357,202,354.5,204.4,350.2,202.5z"/>
	<path class="st12" d="M350.2,202.5l2.9-2.5l3.9,2C357,202,354.5,204.4,350.2,202.5z"/>
	<path class="st0" d="M360.1,164.6c-0.2-5.5-5.5-8-10.1-5.1s-5,11.7-1.6,16.4S360.1,164.6,360.1,164.6z"/>
	<path class="st9" d="M371.5,174.1c-2.1,7.7-3.8,12.9-9.4,15.4c-11.1,4.9-16-0.3-16.4-8.5c-0.4-7.3,3.2-18.7,12.1-20.4
		S373.7,166.4,371.5,174.1z"/>
	<path class="st5" d="M365.4,170.1c-2.4,2.3-3.3,12.3,0.3,12.1c2.5-0.1,4.9-0.5,7.3-0.9c0,0,4.6-1.7,2.1-8.6
		S365.4,170.1,365.4,170.1z"/>
	<path class="st10" d="M359,173.1c1-0.3,2.1-0.1,3,0.4C361,173.6,360,173.5,359,173.1z"/>
	<path class="st10" d="M358.9,173.9c1-0.1,1.9,0.3,2.5,1C360.5,174.7,359.7,174.4,358.9,173.9z"/>
	<path class="st10" d="M352.2,165c2.5,0,5.1,0.2,7.5,0.8C355.5,165.5,352.2,165,352.2,165z"/>
	<path class="st10" d="M351,165.7c0,0,5.8,0.6,8.4,1.9C356.6,167.1,353.8,166.5,351,165.7z"/>
	<path class="st9" d="M373.1,183.1c-1.5,1.6-3.5,2.5-5.7,2.6c-2.9,0.1-3.6-2.7-2.3-5c1.2-2.1,4.2-4.7,6.8-3.6c1.9,0.8,2.8,3,2,4.8
		C373.8,182.4,373.5,182.8,373.1,183.1z"/>
	
		<ellipse transform="matrix(0.1767 -0.9843 0.9843 0.1767 122.6248 492.3737)" class="st1" cx="355.6" cy="172.9" rx="1.3" ry="0.8"/>
	<path class="st1" d="M349.3,171.9c-0.1,0.7-0.6,1.2-1,1.1s-0.7-0.7-0.6-1.4s0.6-1.2,1-1.1S349.4,171.2,349.3,171.9z"/>
	<path class="st13" d="M351.6,172.9l-1,5.8c-0.7,0-1.4-0.1-2-0.3c-0.4-0.1-0.6-0.6-0.5-1c0.1-0.1,0.1-0.3,0.3-0.4
		C349.7,175.9,350.8,174.5,351.6,172.9z"/>
	<path class="st1" d="M360.5,171.8c0.1,0,0.1,0,0.2,0c0.2-0.1,0.3-0.3,0.2-0.5c0,0,0,0,0,0c-0.6-1.2-1.7-2.1-3-2.3
		c-0.2,0-0.4,0.1-0.5,0.4c0,0,0,0,0,0c0,0.2,0.1,0.4,0.4,0.5l0,0c1,0.2,1.9,0.9,2.3,1.9C360.2,171.7,360.3,171.8,360.5,171.8z"/>
	<path class="st1" d="M346.9,169.5c0.1,0,0.3,0,0.4-0.1c0.7-0.8,1.7-1.2,2.8-1.1c0.2,0,0.4-0.1,0.5-0.3c0-0.2-0.1-0.4-0.3-0.5
		c-1.3-0.2-2.6,0.3-3.5,1.3c-0.2,0.2-0.2,0.4,0,0.6c0,0,0,0,0,0C346.8,169.5,346.8,169.5,346.9,169.5z"/>
	<path class="st2" d="M366.4,192.7c0,0-5.8,7-13.3,7.4c4.4,2.1,5.1,7,5.1,7s9.4-2.9,11.2-12.9C368.7,193.2,367.6,192.7,366.4,192.7z
		"/>
	<path class="st4" d="M350.2,202.5l-3.3-3l-4.2,1.3C342.7,200.7,345.8,204.4,350.2,202.5z"/>
	<path class="st12" d="M350.2,202.5l-3.3-3l-4.2,1.3C342.7,200.7,345.8,204.4,350.2,202.5z"/>
	<path class="st2" d="M350,193.7c0,0-2.9,3.4-3.1,5.8c-3.5,1-5.2,6.2-5.2,6.2s-0.6-7.4,4.9-11.4C347.6,193.8,348.8,193.5,350,193.7z
		"/>
	<path class="st1" d="M387.5,416.2h-2.9l-0.8-1.2l-1.5,1.2h-17.2c-0.1-1.4,0.2-2.7,0.7-3.9c0,0,5.1-0.5,7.1-3
		c0.1-0.2,0.4-0.3,0.6-0.3c1.7,0.4,8.5,1.6,12.3,0.3c0.3-0.1,0.7,0,0.8,0.3c0,0.1,0,0.1,0,0.2C386.9,412,387.1,414.1,387.5,416.2z"
		/>
	<path class="st1" d="M350.3,205.1c0.8-1.3,1.2-2.6,0.3-3.2c-0.6-0.4-2.6-1-3,0.3s-0.4,2.4,0.2,3c0.7,0.7,1.7,0.7,2.4,0
		C350.3,205.1,350.3,205.1,350.3,205.1z"/>
	<path class="st1" d="M350.7,202.1c1.7-2.4,6.7-3.2,6.7-1.3c0,3.7-0.1,7.5-1.7,8.4s-4.1-4.9-5.4-5L350.7,202.1z"/>
	<path class="st1" d="M348,202c-1-2.5-4.2-3.4-4.7-1.5c-1,3.6-1.1,6.5,0,7.5s3.6-3.9,4.6-3.8L348,202z"/>
	<path class="st9" d="M292.1,198.7c1.3-4.6-1.9-7.4-3.7-10.4c-0.3-0.5-1.8-0.2-1.9,0.8c-0.2,1.3,0.1,2.6,0.9,3.7
		c-0.9,1.2-2.3,5.2,0.9,7.9C289.8,200.5,291.2,199.8,292.1,198.7z"/>
	<path class="st2" d="M378.7,195.8c-0.9-0.6-2-0.7-3-0.5c-3.1,3.6-16.7,29.7-11.1,78.2h3.2C362.2,225,375.6,199.4,378.7,195.8z"/>
	<path class="st2" d="M368.1,277.4l-0.3-3.6c0-0.4-0.4-0.7-0.8-0.6l-1.5,0.1c-0.4,0-0.7,0.3-0.7,0.7l0.3,3.6
		c0.1,0.4,0.4,0.7,0.8,0.6l1.5-0.1C367.8,278.1,368.1,277.8,368.1,277.4C368.1,277.4,368.1,277.4,368.1,277.4z"/>
	<path class="st1" d="M368.2,275.1h-3.4c-0.4,0-0.7-0.3-0.8-0.6l-0.2-1.4c-0.1-0.3,0.1-0.6,0.4-0.6c0,0,0.1,0,0.1,0h3.4
		c0.4,0,0.7,0.3,0.8,0.6l0.2,1.4c0.1,0.3-0.1,0.6-0.4,0.6C368.2,275.1,368.2,275.1,368.2,275.1z"/>
	<path class="st2" d="M341.4,195c-0.6-0.5-2.5-0.2-3.4,0.3c-3.3,3.6-18,29.7-14.6,78.2h3.2C323.2,225,338.1,198.6,341.4,195z"/>
	<path class="st2" d="M326.7,277.4l-0.1-3.6c0-0.4-0.4-0.7-0.7-0.6c0,0,0,0,0,0l-1.5,0.1c-0.4,0-0.7,0.3-0.7,0.7l0.1,3.6
		c0,0.4,0.4,0.7,0.8,0.6l1.5-0.1C326.4,278.1,326.7,277.8,326.7,277.4z"/>
	<path class="st1" d="M326.9,275.1h-3.4c-0.4,0-0.7-0.3-0.7-0.6l-0.2-1.4c0-0.3,0.2-0.6,0.5-0.6c0,0,0.1,0,0.1,0h3.4
		c0.4,0,0.7,0.3,0.7,0.6l0.2,1.4C327.5,274.8,327.3,275.1,326.9,275.1C327,275.1,327,275.1,326.9,275.1z"/>
	<path class="st0" d="M358.8,154.3c-3.9-3.1-10.3,5.2-1.8,9.8c10.6,5.8,9.4,15.1,23.1,12.3c-5.9-4.1-2.1-7.3-4.6-13.2
		C372.7,156.5,365.1,159.3,358.8,154.3z"/>
	<path class="st0" d="M352.9,159.3c1.3,4.6,2.8,5.7,4.2,6.9c-1-1.6-1.7-3.3-2.1-5.2L352.9,159.3z"/>
	<path class="st1" d="M347.2,180.8c0,0,3-0.2,11.1,1c-1.3,2.3-3.4,4-7.5,3.4c-2.1-0.1-3.7-1.9-3.6-4
		C347.2,181.1,347.2,180.9,347.2,180.8z"/>
	<path class="st13" d="M353,183.5c-1.6-0.3-3.2-0.2-4.7,0.5c0.7,0.6,1.6,1,2.5,1.1c1.6,0.3,3.2,0.2,4.7-0.5
		C354.8,184,353.9,183.6,353,183.5z"/>
	<path class="st2" d="M347.6,180.8c0.1,0.6,0.5,1.2,1.1,1.4c2.4,0.4,4.8,0.5,7.3,0.5c0.8,0,1.5-0.3,2-0.9
		C354.5,181.2,351.1,180.9,347.6,180.8z"/>
	<path class="st0" d="M347,186.8c0.1,2.2,2.3,4,1.7,5.4c2.7,0.2,5.4-0.4,7.7-1.7c0.5-0.4,0.6-1.1,0.2-1.6c-0.2-0.2-0.4-0.4-0.7-0.4
		c-1.7-0.2-3.4-0.8-4.8-1.7c-0.4-0.3-0.9-0.3-1.3,0C348.2,188,347,186.8,347,186.8z"/>
	<polygon class="st1" points="384.3,277 333.5,241.6 334.1,240.8 385.3,275.4 	"/>
	<path class="st9" d="M379.9,262.4l4.9,2.5c3.9,4.3-2.5,8.4-2.5,8.4l-2.3,3.2c-0.9,1.1-2.5,1.4-3.7,0.7l-3.5-1.7
		c-1.5-0.6-2.3-2.4-1.7-3.9c0,0,0,0,0,0l1.5-3.1c0.4-0.9,1.1-1.7,1.9-2.3L379.9,262.4z"/>
</g>
</svg>
