<?xml version="1.0" encoding="utf-8"?>
<!-- Generator: Adobe Illustrator 22.1.0, SVG Export Plug-In . SVG Version: 6.00 Build 0)  -->
<svg version="1.1" id="Layer_1" xmlns="http://www.w3.org/2000/svg" xmlns:xlink="http://www.w3.org/1999/xlink" x="0px" y="0px"
	 viewBox="0 0 500 500" style="enable-background:new 0 0 500 500;" xml:space="preserve">
<style type="text/css">
	.st0{fill:#F5F5F5;}
	.st1{fill:#011627;}
	.st2{opacity:0.2;}
	.st3{fill:#FFFFFF;}
	.st4{opacity:0.2;fill:#FFFFFF;enable-background:new    ;}
	.st5{fill:#E71D36;}
	.st6{opacity:0.3;fill:#FFFFFF;enable-background:new    ;}
	.st7{opacity:0.6;fill:#FFFFFF;enable-background:new    ;}
	.st8{opacity:0.5;fill:#FFFFFF;enable-background:new    ;}
	.st9{opacity:0.2;fill:#011627;enable-background:new    ;}
	.st10{opacity:0.4;fill:#FFFFFF;enable-background:new    ;}
	.st11{fill:none;stroke:#011627;stroke-width:2;stroke-miterlimit:10;}
	.st12{fill:#E4897B;}
	.st13{opacity:0.4;}
	.st14{fill:#FFB573;}
	.st15{opacity:0.5;}
	.st16{fill:#ED893E;}
</style>
<g id="freepik--Shadow--inject-1">
	<ellipse id="freepik--path--inject-1" class="st0" cx="250" cy="416.2" rx="193.9" ry="11.3"/>
</g>
<polygon class="st1" points="350,377.5 350,267 339,267 339,377.5 332,379.7 332,383 357,383 357,379.7 "/>
<polygon class="st1" points="210,267 199,267 199,377.5 192,379.7 192,383 217,383 217,379.7 210,377.5 "/>
<g class="st2">
	<polygon class="st3" points="350,280 339,280 339,377.5 332,379.7 332,383 357,383 357,379.7 350,377.5 	"/>
	<polygon class="st3" points="210,280 199,280 199,377.5 192,379.7 192,383 217,383 217,379.7 210,377.5 	"/>
</g>
<rect x="165" y="93" class="st1" width="219" height="178"/>
<rect x="165" y="93" class="st4" width="219" height="178"/>
<rect x="169.9" y="97.9" class="st5" width="209.3" height="168"/>
<rect x="169.9" y="97.9" class="st6" width="209.3" height="168"/>
<rect x="169.9" y="97.9" class="st7" width="209.3" height="168"/>
<g id="freepik--Table--inject-1">
	<polygon class="st5" points="194.5,414 195.3,289.8 187.2,289.8 188,414 	"/>
	<polygon class="st8" points="188,414 194.5,414 195.2,314.7 195.3,290 187.2,290 187.4,314.7 	"/>
	<polygon class="st9" points="195.3,290 195.2,315 187.4,315 187.2,290 	"/>
	<polygon class="st5" points="257.7,414 250.4,289.8 242.2,289.8 251.2,414 	"/>
	<polygon class="st8" points="251.2,414 257.7,414 250.8,297.4 250.4,290 242.2,290 242.8,297.4 	"/>
	<polygon class="st9" points="250.8,297 242.8,297 242.2,290 250.4,290 	"/>
	<polygon class="st5" points="131.4,414 140.3,289.8 132.2,289.8 124.9,414 	"/>
	<polygon class="st6" points="131.4,414 139.8,297.4 140.3,290 132.2,290 131.7,297.4 124.9,414 	"/>
	<polygon class="st9" points="132.2,290 140.3,290 139.8,297 131.7,297 	"/>
	<path class="st5" d="M125.7,285.9h131.1l0,0v5.5c0,1.2-1,2.2-2.2,2.2l0,0H127.9c-1.2,0-2.2-1-2.2-2.2l0,0
		C125.7,291.4,125.7,285.9,125.7,285.9z"/>
	<path class="st10" d="M125.7,285.9h131.1l0,0v5.5c0,1.2-1,2.2-2.2,2.2l0,0H127.9c-1.2,0-2.2-1-2.2-2.2l0,0
		C125.7,291.4,125.7,285.9,125.7,285.9z"/>
	<rect x="125.7" y="285.9" class="st9" width="131.1" height="3.8"/>
	<path class="st5" d="M260.6,286.9H121.9c-1.2,0-2.2-1-2.2-2.2l0,0c0-1.2,1-2.2,2.2-2.2h0h138.7c1.2,0,2.2,1,2.2,2.2l0,0l0,0
		C262.8,285.9,261.8,286.9,260.6,286.9z"/>
	<path class="st10" d="M260.6,286.9H121.9c-1.2,0-2.2-1-2.2-2.2l0,0c0-1.2,1-2.2,2.2-2.2h0h138.7c1.2,0,2.2,1,2.2,2.2l0,0l0,0
		C262.8,285.9,261.8,286.9,260.6,286.9z"/>
	<path class="st5" d="M183.8,285.9v4.3c0,1.9,1.5,3.4,3.4,3.4c0,0,0,0,0,0h68.5c1.2,0,2.2-1,2.2-2.2v-5.5H183.8z"/>
	<path class="st7" d="M183.8,285.9v4.3c0,1.9,1.5,3.4,3.4,3.4c0,0,0,0,0,0h68.5c1.2,0,2.2-1,2.2-2.2v-5.5H183.8z"/>
	<rect x="183.8" y="285.9" class="st9" width="74.1" height="3.8"/>
	<path class="st5" d="M261.5,282.6h-79.6c-1.2,0-2.2,1-2.2,2.2l0,0c0,1.2,1,2.2,2.2,2.2c0,0,0,0,0,0h79.7c1.2,0,2.2-1,2.2-2.2
		c0-0.1,0-0.2,0-0.2C263.6,283.4,262.6,282.6,261.5,282.6z"/>
	<path class="st7" d="M261.5,282.6h-79.6c-1.2,0-2.2,1-2.2,2.2l0,0c0,1.2,1,2.2,2.2,2.2c0,0,0,0,0,0h79.7c1.2,0,2.2-1,2.2-2.2
		c0-0.1,0-0.2,0-0.2C263.6,283.4,262.6,282.6,261.5,282.6z"/>
</g>
<g id="freepik--Student--inject-1">
	<g id="freepik--group--inject-1">
		<line class="st11" x1="199.6" y1="264.6" x2="190.8" y2="280.8"/>
		<path class="st12" d="M117.1,247c0,0,7.9-14.1,9.2-16.8s4.8-22.1,4.8-22.1c-0.3-0.9-0.5-1.9-0.6-2.9c0-1,0.6-5.6,0.6-5.6
			s0-0.4,2.5-1.1s5.3-1.8,5.5-0.6s-0.4,8.9-1.1,9.6c-0.6,0.6-1.1,1.3-1.6,2c0,0-2.1,20.7-3.1,23.7s-8.8,19.3-8.8,19.3L117.1,247z"/>
		<path class="st12" d="M154,264.4c0,0,19.7,8.6,22.6,9.6s11.4,1.2,11.4,1.2c0.9-0.4,1.8-0.7,2.8-0.9c1-0.1,5.6,0.1,5.6,0.1
			s0.4,0,1.3,2.4s2.2,5.1,1.1,5.4s-8.9,0.4-9.7-0.3l-0.8-0.7c0,0-11,2.6-14.1,1.9s-25-7-25-7L154,264.4z"/>
		<path class="st5" d="M127.7,249.4c-0.7,3.5-2.2,6.8-4.3,9.7c-4.2,6-10.2,9.9-11.8,3.7c-2.4-9.3,7.9-21,7.9-21L127.7,249.4z"/>
		<path class="st9" d="M127.7,249.4c-0.7,3.5-2.2,6.8-4.3,9.7c-1-0.9-1.5-2.3-1.3-3.6C122.6,251.3,127.7,249.4,127.7,249.4z"/>
		<path class="st12" d="M148.6,242.4c-0.6,2.1-1.7,3.9-3.3,5.3c-2.4,2.1-5.4,3.3-8.6,3.4c-3.1,0.1-6.2-1.1-8.5-3.1
			c-4.6-4.1-4.4-8.9-5-17s8.3-14.3,17.2-11S150.6,235.2,148.6,242.4z"/>
		<path class="st1" d="M137.6,214.8c0,0,6.2-2.3,10.6,1.4s4.1,12.4,0,16.5c0,0,1.1-1.5-2.1-5.1S137.6,214.8,137.6,214.8z"/>
		<path class="st9" d="M145.3,247.8c-2.4,2.1-5.4,3.3-8.6,3.4c0.6-1.4,1.5-2.5,2.8-3.4C141.4,248.7,143.7,248.3,145.3,247.8z"/>
		<polygon class="st12" points="146.9,380.3 145.8,386.9 144.9,393 136,393 136.8,385.2 137.5,377.7 		"/>
		<path class="st1" d="M144.4,389.5l-9-0.6c-0.3,0-0.6,0.2-0.6,0.5c0,0,0,0,0,0l0,0l-0.9,7.1c0,0.8,0.5,1.4,1.3,1.5
			c3.1,0.1,4.6,0.1,8.6,0.3c2.4,0.1,7.2,0.7,10.6,0.3s2.9-3.6,1.5-3.8c-3.4-0.4-8-2.9-10.1-4.8C145.3,389.7,144.9,389.6,144.4,389.5
			z"/>
		<path class="st5" d="M147.1,391.1c-0.7-0.1-1.4-0.2-2.1-0.4c-0.1,0-0.1-0.1-0.1-0.1c0-0.1,0-0.1,0.1-0.2c0.3-0.2,2.6-1.6,3.6-1.1
			c0.2,0.1,0.4,0.3,0.4,0.6c0.1,0.4,0,0.7-0.3,1C148.2,391,147.7,391.2,147.1,391.1z M148.4,389.6c-0.5-0.2-1.9,0.4-2.9,0.9
			c1.4,0.4,2.5,0.4,2.9,0c0.2-0.2,0.2-0.4,0.2-0.7C148.6,389.7,148.5,389.6,148.4,389.6L148.4,389.6z"/>
		<path class="st5" d="M145,390.6C145,390.7,144.9,390.7,145,390.6c-0.1,0-0.2-0.1-0.2-0.1c0-0.1,0-2.4,0.8-3.1
			c0.2-0.2,0.5-0.3,0.8-0.2c0.3,0,0.6,0.3,0.6,0.6c0.1,0.9-1.2,2.5-2,2.9C145.1,390.7,145,390.7,145,390.6z M146.3,387.5
			c-0.2,0-0.3,0-0.4,0.1c-0.5,0.7-0.7,1.6-0.7,2.5c0.8-0.6,1.3-1.4,1.5-2.3c0-0.1-0.1-0.3-0.3-0.3L146.3,387.5z"/>
		<polygon class="st9" points="146.9,380.3 145.8,386.9 136.8,385.2 137.5,377.7 		"/>
		<path class="st1" d="M157.7,329.9c-4.1-5.4-14.7-8.2-23.3-9.5l-2.9,21.5c5.3,1.1,7.5,4,7.8,5.2c1.4,5.7-5.3,35.7-5.3,35.7
			l13.8,3.3C147.8,386,165,339.5,157.7,329.9z"/>
		<path class="st9" d="M157.7,329.9c-4.1-5.4-14.7-8.2-23.3-9.5l-2.9,21.5c5.3,1.1,7.5,4,7.8,5.2c1.4,5.7-5.3,35.7-5.3,35.7
			l13.8,3.3C147.8,386,165,339.5,157.7,329.9z"/>
		<polygon class="st12" points="171.9,380.3 170.8,386.9 169.9,393 161,393 161.8,385.2 162.5,377.7 		"/>
		<path class="st1" d="M169.4,389.5l-9-0.6c-0.3,0-0.6,0.2-0.6,0.5c0,0,0,0,0,0l0,0l-0.9,7.1c0,0.8,0.5,1.4,1.3,1.5
			c3.1,0.1,4.6,0.1,8.6,0.3c2.4,0.1,7.2,0.7,10.6,0.3s2.9-3.6,1.5-3.8c-3.4-0.4-8-2.9-10.1-4.8C170.3,389.7,169.9,389.6,169.4,389.5
			z"/>
		<path class="st5" d="M172.1,391.1c-0.7-0.1-1.4-0.2-2.1-0.4c-0.1,0-0.1-0.1-0.1-0.1c0-0.1,0-0.1,0.1-0.2c0.3-0.2,2.6-1.6,3.6-1.1
			c0.2,0.1,0.4,0.3,0.4,0.6c0.1,0.4,0,0.7-0.3,1C173.2,391,172.7,391.2,172.1,391.1z M173.4,389.6c-0.5-0.2-1.9,0.4-2.9,0.9
			c1.4,0.4,2.5,0.4,2.9,0c0.2-0.2,0.2-0.4,0.2-0.7C173.6,389.7,173.5,389.6,173.4,389.6L173.4,389.6z"/>
		<path class="st5" d="M170,390.6C170,390.7,169.9,390.7,170,390.6c-0.1,0-0.2-0.1-0.2-0.1c0-0.1,0-2.4,0.8-3.1
			c0.2-0.2,0.5-0.3,0.8-0.2c0.3,0,0.6,0.3,0.6,0.6c0.1,0.9-1.2,2.5-2,2.9C170.1,390.7,170,390.7,170,390.6z M171.3,387.5
			c-0.2,0-0.3,0-0.4,0.1c-0.5,0.7-0.7,1.6-0.7,2.5c0.8-0.6,1.3-1.4,1.5-2.3c0-0.1-0.1-0.3-0.3-0.3L171.3,387.5z"/>
		<polygon class="st9" points="171.9,380.3 170.8,386.9 161.8,385.2 162.5,377.7 		"/>
		<path class="st12" d="M128.5,246.6c0,4.8-0.6,9.3-3.5,11.4c4.1,3.5,8.6,6.3,13.4,8.5c5.2-3.7,2.8-6.7,2.8-6.7
			c-4.6-2.5-3.1-8.3-1.7-12c0,0-1.1-1.8-7.5-1.8C129.2,245.9,128.5,246.6,128.5,246.6z"/>
		<path class="st1" d="M103.9,315.2c0,0-9.3,26.3,17.1,26.3s28.5-10.3,26.3-22.4L103.9,315.2z"/>
		<path class="st1" d="M147.2,319c0,0,28.1,1.2,35.4,10.9s-9.9,56.1-9.9,56.1l-13.8-3.3c0,0,7.6-31.7,4.7-35.8s-18.4-4.4-39.4-5.5
			S147.2,319,147.2,319z"/>
		<path class="st5" d="M122.4,257.3l2.6-6.1c0,0,14.9,0.5,19.5,7.4C149,265.3,122.4,257.3,122.4,257.3z"/>
		<path class="st5" d="M152.9,266.6c0.4,7.7,0,23.5-5.6,52.5l-43.3-3.9c0.3-6.1,9.4-27.1,7.5-54.8c-0.3-4.1,2.8-7.7,6.9-8
			c0,0,0,0,0,0h0.3c2.1-0.1,15.1,3.8,21.2,4.7c2.4,0.4,4.6,1,6.6,1.5C150,259.6,152.6,262.8,152.9,266.6z"/>
		<path class="st9" d="M152.9,266.6c0.4,7.7,0,23.5-5.6,52.5l-43.3-3.9c0.3-6.1,9.4-27.1,7.5-54.8c-0.3-4.1,2.8-7.7,6.9-8
			c0,0,0,0,0,0h0.3c2.1-0.1,15.1,3.8,21.2,4.7c2.4,0.4,4.6,1,6.6,1.5C150,259.6,152.6,262.8,152.9,266.6z"/>
		<path class="st5" d="M146.4,258.6c-4.8-1-5.3,12.9-1.8,16.9s21.9,7,21.9,7l3.4-12.5C169.9,270,154.7,260.4,146.4,258.6z"/>
		<path class="st1" d="M126.6,246.1c0,0-6.1-1.7-8.9-14.7s9.6-18.9,23.7-16.1s7.2,23-5.1,30.8C133.2,247.2,129.7,247.2,126.6,246.1z
			"/>
		<path class="st12" d="M142,235.5c0.3,1.6,1.3,3.1,2.6,4c1.7,1.1,3.1-0.6,3-2.8c-0.1-2-1.1-5.1-3-5.3S141.5,233.4,142,235.5z"/>
	</g>
</g>
<g id="freepik--Chair--inject-1">
	<polygon class="st5" points="125.2,414 131.5,414 132.7,361.6 133,346 123.6,346 124,361.6 	"/>
	<polygon class="st10" points="125.2,414 131.5,414 132.7,361.6 133,346 123.6,346 124,361.6 	"/>
	<polygon class="st9" points="133,346 132.7,362 124,362 123.6,346 	"/>
	<polygon class="st5" points="161.4,414 157.4,347.1 149.3,347.1 154.8,414 	"/>
	<polygon class="st8" points="154.8,414 161.4,414 157.9,354.7 157.4,347 149.3,347 149.9,354.7 	"/>
	<polygon class="st9" points="149.3,347 149.9,355 157.9,355 157.4,347 	"/>
	<polygon class="st5" points="101.9,414 107.4,347.1 99.3,347.1 95.3,414 	"/>
	<polygon class="st8" points="101.9,414 106.8,354.7 107.4,347 99.3,347 98.8,354.7 95.3,414 	"/>
	<polygon class="st9" points="107.4,347 106.8,355 98.8,355 99.3,347 	"/>
	<path class="st5" d="M99.9,338.3h56.9c2.8,0,5,2.2,5,5v6.7l0,0H94.9l0,0v-6.7C94.9,340.6,97.1,338.3,99.9,338.3z"/>
	<rect x="121.1" y="274" transform="matrix(0.9907 -0.1357 0.1357 0.9907 -40.9507 19.6389)" class="st5" width="5" height="72.3"/>
	<rect x="90.1" y="274" transform="matrix(0.9907 -0.1357 0.1357 0.9907 -41.2371 15.4313)" class="st5" width="5" height="72.3"/>
	<g class="st13">
		
			<rect x="121.1" y="274" transform="matrix(0.9907 -0.1357 0.1357 0.9907 -40.9507 19.6389)" class="st3" width="5" height="72.3"/>
	</g>
	<g class="st13">
		<rect x="90.1" y="274" transform="matrix(0.9907 -0.1357 0.1357 0.9907 -41.2371 15.4313)" class="st3" width="5" height="72.3"/>
	</g>
	<path class="st5" d="M93.7,344.2H163c1.1,0,2,0.9,2,2v1.8c0,1.1-0.9,2-2,2H93.7c-1.1,0-2-0.9-2-2v-1.8
		C91.7,345.1,92.6,344.2,93.7,344.2z"/>
	<path class="st7" d="M93.7,344.2H163c1.1,0,2,0.9,2,2v1.8c0,1.1-0.9,2-2,2H93.7c-1.1,0-2-0.9-2-2v-1.8
		C91.7,345.1,92.6,344.2,93.7,344.2z"/>
	<polygon class="st5" points="128.1,298.3 83.6,298.3 80,270.5 124.5,270.5 	"/>
	<polygon class="st7" points="128.1,298.3 83.6,298.3 80,270.5 124.5,270.5 	"/>
</g>
<g>
	<path class="st5" d="M245.3,136.5c0,0.8-0.1,1.5-0.2,2.2c-0.1,0.7-0.2,1.5-0.3,2.2s-0.2,1.5-0.3,2.3s-0.2,1.5-0.3,2.3
		c0,0.2,0,0.4,0,0.5c0,0.2,0,0.4,0,0.5c0,0.2,0,0.3,0,0.5c0,0.2,0,0.4-0.1,0.5c0,0.2-0.1,0.4-0.1,0.6c-0.1,0.2-0.2,0.4-0.3,0.6
		c-0.1,0.2-0.2,0.4-0.4,0.6c-0.2,0.2-0.4,0.3-0.6,0.3c-0.3,0.1-0.6,0-0.9-0.1c-0.3-0.1-0.5-0.4-0.7-0.6c-0.1-0.2-0.1-0.4-0.2-0.6
		c0-0.2,0-0.4-0.1-0.6c0-0.2,0-0.4,0-0.7c0-0.2,0-0.4,0-0.7c0.1-0.7,0.1-1.3,0.2-2c0.1-0.7,0.2-1.3,0.3-2s0.2-1.4,0.3-2.1
		c0.1-0.7,0.2-1.4,0.3-2.1c0-0.2,0-0.4,0-0.6c0-0.2,0-0.4,0-0.6c0-0.2,0-0.4,0-0.6c0-0.2-0.1-0.4-0.1-0.5c-0.1-0.1-0.3-0.2-0.4-0.4
		c-0.1-0.1-0.3-0.3-0.4-0.4c-0.1-0.1-0.2-0.3-0.2-0.5c0-0.2,0-0.4,0-0.6c0-0.3,0.1-0.5,0.2-0.8c0.1-0.2,0.2-0.5,0.4-0.7
		c0.2-0.2,0.4-0.4,0.6-0.5c0.2-0.1,0.5-0.2,0.8-0.3c0.1,0,0.3,0.1,0.4,0.1l0.4,0.2c0.3,0.2,0.6,0.4,0.8,0.7c0.2,0.3,0.4,0.6,0.6,0.9
		c0.2,0.3,0.3,0.7,0.4,1c0.1,0.4,0.1,0.7,0.1,1.1c0,0.1,0,0.2,0,0.3L245.3,136.5z"/>
	<path class="st5" d="M257.2,140.9c0,0.2-0.1,0.4-0.2,0.5c-0.1,0.2-0.2,0.3-0.3,0.4c-0.1,0.1-0.3,0.2-0.4,0.3
		c-0.2,0.1-0.3,0.1-0.5,0.1c-0.3,0-0.6,0-0.9,0c-0.3,0-0.6,0-0.9,0c0,0.3-0.1,0.5-0.1,0.8c0,0.3,0,0.5-0.1,0.8
		c0,0.2-0.1,0.4-0.3,0.6c-0.1,0.2-0.3,0.3-0.4,0.4c-0.2,0.1-0.4,0.3-0.6,0.3c-0.2,0.1-0.4,0.1-0.6,0.1c-0.3,0-0.5-0.2-0.7-0.4
		c-0.2-0.2-0.3-0.5-0.3-0.8c-0.1-0.3-0.1-0.6-0.1-0.9c0-0.3,0-0.6,0-0.9H250h-0.8c-0.2,0-0.4-0.1-0.6-0.2c-0.2-0.1-0.3-0.2-0.4-0.4
		c-0.1-0.2-0.2-0.3-0.3-0.5c-0.1-0.2-0.1-0.4-0.1-0.6c0.1-0.3,0.3-0.6,0.5-0.8c0.3-0.2,0.5-0.3,0.9-0.4c0.3-0.1,0.7-0.1,1-0.2
		l0.9-0.1v-0.2c0-0.3,0.1-0.6,0.1-0.9c0.1-0.3,0.2-0.6,0.3-0.9c0.1-0.3,0.3-0.5,0.6-0.7c0.3-0.2,0.6-0.3,0.9-0.3
		c0.2,0,0.3,0,0.5,0.1c0.2,0.1,0.3,0.2,0.4,0.3c0.1,0.1,0.2,0.2,0.3,0.4c0.1,0.2,0.1,0.3,0.1,0.5c0,0.3-0.1,0.6-0.1,0.9
		c0,0.3,0,0.6-0.1,0.9h0.3c0.3,0,0.6,0,0.9,0c0.3,0,0.6,0.1,0.9,0.2c0.3,0.1,0.5,0.3,0.7,0.5C257.2,140.2,257.3,140.6,257.2,140.9z"
		/>
	<path class="st5" d="M264.9,136.5c0,0.8-0.1,1.5-0.2,2.2c-0.1,0.7-0.2,1.5-0.3,2.2c-0.1,0.8-0.2,1.5-0.3,2.3s-0.2,1.5-0.3,2.3
		c0,0.2,0,0.4,0,0.5c0,0.2,0,0.4,0,0.5c0,0.2,0,0.3,0,0.5c0,0.2,0,0.4-0.1,0.5c0,0.2-0.1,0.4-0.1,0.6c-0.1,0.2-0.2,0.4-0.3,0.6
		c-0.1,0.2-0.2,0.4-0.4,0.6c-0.2,0.2-0.4,0.3-0.6,0.3c-0.3,0.1-0.6,0-0.9-0.1c-0.3-0.1-0.5-0.4-0.7-0.6c-0.1-0.2-0.1-0.4-0.2-0.6
		c0-0.2,0-0.4,0-0.6c0-0.2,0-0.4,0-0.7c0-0.2,0-0.4,0-0.7c0.1-0.7,0.1-1.3,0.2-2c0.1-0.7,0.2-1.3,0.3-2s0.2-1.4,0.3-2.1
		c0.1-0.7,0.2-1.4,0.3-2.1c0-0.2,0-0.4,0-0.6c0-0.2,0-0.4,0-0.6c0-0.2,0-0.4,0-0.6c0-0.2-0.1-0.4-0.1-0.5c-0.1-0.1-0.3-0.2-0.4-0.4
		c-0.1-0.1-0.3-0.3-0.4-0.4c-0.1-0.1-0.2-0.3-0.2-0.5c0-0.2,0-0.4,0-0.6c0-0.3,0.1-0.5,0.2-0.8c0.1-0.2,0.2-0.5,0.4-0.7
		c0.2-0.2,0.4-0.4,0.6-0.5c0.2-0.1,0.5-0.2,0.8-0.3c0.1,0,0.3,0.1,0.4,0.1l0.4,0.2c0.3,0.2,0.6,0.4,0.8,0.7c0.2,0.3,0.4,0.6,0.6,0.9
		c0.2,0.3,0.3,0.7,0.4,1c0.1,0.4,0.1,0.7,0.1,1.1c0,0.1,0,0.2,0,0.3L264.9,136.5z"/>
	<path class="st5" d="M277.5,142.9c-0.1,0.2-0.2,0.4-0.3,0.6c-0.1,0.2-0.3,0.3-0.5,0.4c-0.2,0.1-0.4,0.2-0.6,0.3
		c-0.2,0.1-0.4,0.1-0.6,0.1c-1,0.1-1.9,0.1-2.9,0.1c-1,0-1.9,0-2.9-0.1c-0.2,0-0.4-0.1-0.6-0.2c-0.2-0.1-0.3-0.2-0.5-0.3
		c-0.1-0.2-0.3-0.3-0.4-0.5c-0.1-0.2-0.1-0.4-0.1-0.6c0-0.2,0-0.3,0.1-0.4c0.1-0.1,0.2-0.2,0.3-0.3c0.1-0.1,0.3-0.2,0.4-0.2l0.4-0.2
		c0.3-0.1,0.7-0.2,1-0.2c0.3,0,0.7-0.1,1-0.1h0.5l0.5,0.1c0.4,0,0.8,0,1.1,0h0.6h0.3c0.1,0,0.2,0,0.3,0h0.6c0.2,0,0.4,0,0.6,0.1
		c0.2,0,0.4,0.1,0.6,0.2c0.2,0.1,0.3,0.2,0.5,0.3c0.1,0.1,0.2,0.3,0.3,0.4C277.5,142.5,277.5,142.7,277.5,142.9z M278,138.9
		c0,0.2,0,0.4-0.1,0.6c-0.1,0.2-0.2,0.3-0.4,0.4c-0.2,0.1-0.3,0.2-0.5,0.3c-0.2,0-0.4,0-0.6,0h-6.5c-0.2,0-0.4,0-0.6-0.1
		c-0.2-0.1-0.3-0.2-0.4-0.3c-0.1-0.1-0.2-0.3-0.2-0.5c-0.1-0.2-0.1-0.4,0-0.6c0-0.2,0.1-0.3,0.2-0.5c0.1-0.1,0.2-0.2,0.4-0.3
		c0.1-0.1,0.3-0.2,0.4-0.3l0.4-0.2c0.3-0.1,0.7-0.2,1-0.3l1-0.1h0.5c0.2,0,0.3,0,0.5,0c0.3,0,0.7,0,1,0h0.3c0.1,0,0.2,0,0.3,0h0.3
		h0.3c0.3,0,0.6,0,0.9,0.1c0.3,0.1,0.6,0.2,0.8,0.3c0.2,0.1,0.5,0.3,0.6,0.6C277.9,138.3,278,138.6,278,138.9L278,138.9z"/>
	<path class="st5" d="M293.2,147.1c-0.3,0.3-0.6,0.5-0.9,0.7c-0.3,0.2-0.7,0.4-1,0.5c-0.4,0.1-0.7,0.3-1.1,0.4
		c-0.4,0.1-0.7,0.2-1.1,0.3c-0.8,0.2-1.6,0.4-2.4,0.5c-0.8,0.1-1.6,0.2-2.5,0.1c-0.3,0-0.5-0.1-0.7-0.2c-0.2-0.1-0.4-0.3-0.5-0.5
		c-0.1-0.2-0.2-0.5-0.3-0.7c0-0.3,0-0.5,0-0.8c0-0.3,0.1-0.7,0.2-1c0.1-0.3,0.2-0.7,0.3-1c0.1-0.3,0.3-0.6,0.5-0.9
		c0.2-0.3,0.4-0.6,0.5-0.9l1.4-2l1.4-2c0.2-0.3,0.4-0.6,0.6-0.9c0.2-0.3,0.4-0.6,0.5-0.9c0.1-0.3,0.3-0.7,0.4-1
		c0.1-0.3,0.2-0.7,0.2-1c0-0.1,0-0.2,0-0.3c0-0.1-0.1-0.2-0.1-0.3c-0.1-0.1-0.1-0.1-0.2-0.2c-0.1-0.1-0.2-0.1-0.3-0.1
		c-0.3,0-0.5,0-0.8,0.1c-0.3,0.1-0.5,0.1-0.8,0.2l-0.7,0.3c-0.2,0.1-0.4,0.3-0.6,0.5l-0.1,0.2l-0.1,0.2l-0.1,0.2
		c0,0.2-0.1,0.3-0.3,0.5c-0.1,0.1-0.2,0.3-0.4,0.4c-0.1,0.1-0.3,0.2-0.5,0.2c-0.2,0.1-0.3,0.1-0.5,0.1c-0.2,0-0.5,0-0.7-0.1
		c-0.2-0.1-0.4-0.3-0.4-0.6c-0.1-0.2-0.2-0.4-0.2-0.7c0-0.2,0-0.5,0-0.7c0.1-0.4,0.2-0.7,0.4-1c0.2-0.3,0.5-0.6,0.7-0.9
		c0.3-0.3,0.6-0.5,0.9-0.7c0.3-0.2,0.7-0.4,1-0.5c0.7-0.3,1.4-0.5,2.2-0.7c0.7-0.1,1.5-0.2,2.3-0.2c0.5,0,0.9,0.2,1.3,0.5
		c0.3,0.3,0.6,0.7,0.8,1.1c0.2,0.4,0.3,0.9,0.4,1.4c0.1,0.5,0.1,1,0.1,1.4c0,0.6-0.2,1.2-0.4,1.7c-0.2,0.6-0.5,1.1-0.8,1.6l-1.2,1.7
		c-0.4,0.6-0.8,1.1-1.2,1.6s-0.7,1.1-1.1,1.6c-0.3,0.5-0.6,1.1-0.8,1.7c0.8-0.1,1.6-0.3,2.5-0.5c0.8-0.2,1.6-0.3,2.5-0.4
		c0.2,0,0.4,0,0.6,0.2c0.2,0.1,0.3,0.3,0.4,0.4c0.1,0.1,0.2,0.3,0.3,0.5C293.2,146.7,293.2,146.9,293.2,147.1z"/>
	<path class="st5" d="M246.4,236.2c-0.3,0.3-0.5,0.5-0.9,0.7c-0.3,0.2-0.7,0.3-1,0.5c-0.4,0.1-0.7,0.3-1.1,0.4l-1.1,0.3
		c-0.8,0.2-1.6,0.4-2.4,0.5c-0.8,0.1-1.6,0.2-2.5,0.1c-0.3,0-0.5-0.1-0.7-0.2c-0.2-0.1-0.4-0.3-0.5-0.5c-0.1-0.2-0.2-0.5-0.3-0.7
		c0-0.3,0-0.5,0-0.8c0-0.3,0.1-0.7,0.2-1c0.1-0.3,0.2-0.7,0.3-1c0.1-0.3,0.3-0.6,0.5-0.9c0.2-0.3,0.4-0.6,0.5-0.9l1.4-2l1.4-2
		l0.6-0.9c0.2-0.3,0.3-0.6,0.5-0.9c0.1-0.3,0.3-0.7,0.4-1c0.1-0.3,0.2-0.7,0.2-1c0-0.1,0-0.2,0-0.3c0-0.1-0.1-0.2-0.1-0.3
		c-0.1-0.1-0.1-0.1-0.2-0.2c-0.1-0.1-0.2-0.1-0.3-0.1c-0.3,0-0.5,0-0.8,0.1c-0.3,0.1-0.5,0.1-0.8,0.2c-0.2,0.1-0.5,0.2-0.7,0.3
		c-0.2,0.1-0.4,0.3-0.6,0.5l-0.1,0.2l-0.1,0.2l-0.1,0.2c-0.1,0.2-0.1,0.3-0.3,0.5c-0.1,0.1-0.2,0.3-0.4,0.4
		c-0.1,0.1-0.3,0.2-0.5,0.3c-0.2,0.1-0.3,0.1-0.5,0.1c-0.2,0-0.5,0-0.7-0.1c-0.2-0.1-0.4-0.3-0.4-0.6c-0.1-0.2-0.2-0.4-0.2-0.6
		c0-0.2,0-0.5,0-0.7c0.1-0.4,0.2-0.7,0.4-1c0.2-0.3,0.5-0.6,0.7-0.9c0.3-0.3,0.6-0.5,0.9-0.7c0.3-0.2,0.7-0.4,1-0.5
		c0.7-0.3,1.4-0.5,2.2-0.7c0.7-0.1,1.5-0.2,2.3-0.2c0.5,0,0.9,0.2,1.3,0.5c0.3,0.3,0.6,0.7,0.8,1.1c0.2,0.4,0.4,0.9,0.4,1.4
		c0.1,0.5,0.1,1,0.1,1.4c0,0.6-0.2,1.2-0.4,1.7c-0.2,0.6-0.5,1.1-0.8,1.6l-1.2,1.7c-0.4,0.6-0.8,1.1-1.2,1.6s-0.7,1.1-1.1,1.6
		c-0.3,0.5-0.6,1.1-0.8,1.7c0.8-0.1,1.7-0.3,2.5-0.5s1.6-0.3,2.5-0.4c0.2,0,0.4,0,0.6,0.1c0.2,0.1,0.3,0.3,0.4,0.4
		c0.1,0.1,0.2,0.3,0.3,0.5C246.4,235.8,246.5,236,246.4,236.2z"/>
	<path class="st5" d="M258.9,230c0,0.2-0.1,0.4-0.2,0.5c-0.1,0.2-0.2,0.3-0.3,0.4c-0.1,0.1-0.3,0.2-0.5,0.3
		c-0.2,0.1-0.3,0.1-0.5,0.1c-0.3,0-0.6,0-0.9,0s-0.6,0-0.9,0c0,0.3,0,0.5-0.1,0.8c0,0.3,0,0.5-0.1,0.8c0,0.2-0.1,0.4-0.3,0.6
		c-0.1,0.2-0.3,0.3-0.4,0.4c-0.2,0.1-0.4,0.3-0.6,0.4c-0.2,0.1-0.4,0.1-0.6,0.1c-0.3,0-0.5-0.2-0.7-0.4c-0.2-0.2-0.3-0.5-0.3-0.8
		c-0.1-0.3-0.1-0.6-0.1-0.9c0-0.3,0-0.6,0-0.9h-0.7H251c-0.2,0-0.4-0.1-0.6-0.2c-0.2-0.1-0.3-0.2-0.4-0.4c-0.1-0.2-0.2-0.3-0.3-0.5
		c-0.1-0.2-0.1-0.4-0.1-0.6c0.1-0.3,0.3-0.6,0.5-0.8c0.3-0.2,0.5-0.3,0.8-0.4c0.3-0.1,0.7-0.1,1-0.2l0.9-0.1v-0.2
		c0-0.3,0.1-0.6,0.1-0.9c0.1-0.3,0.2-0.6,0.3-0.9c0.1-0.3,0.3-0.5,0.6-0.7c0.3-0.2,0.6-0.3,0.9-0.3c0.2,0,0.3,0,0.5,0.1
		c0.2,0.1,0.3,0.2,0.4,0.3c0.1,0.1,0.2,0.2,0.3,0.4c0.1,0.2,0.1,0.3,0.1,0.5c0,0.3-0.1,0.6-0.1,0.9c0,0.3,0,0.6-0.1,0.9h0.3
		c0.3,0,0.6,0,0.9,0.1c0.3,0,0.6,0.1,0.9,0.2c0.3,0.1,0.5,0.3,0.7,0.5C258.9,229.3,259,229.7,258.9,230z"/>
	<path class="st5" d="M273.2,236.2c-0.3,0.3-0.5,0.5-0.9,0.7c-0.3,0.2-0.7,0.3-1,0.5c-0.4,0.1-0.7,0.3-1.1,0.4l-1.1,0.3
		c-0.8,0.2-1.6,0.4-2.4,0.5c-0.8,0.1-1.6,0.2-2.5,0.1c-0.3,0-0.5-0.1-0.7-0.2c-0.2-0.1-0.4-0.3-0.5-0.5c-0.1-0.2-0.2-0.5-0.3-0.7
		c0-0.3,0-0.5,0-0.8c0-0.3,0.1-0.7,0.2-1c0.1-0.3,0.2-0.7,0.3-1c0.1-0.3,0.3-0.6,0.5-0.9c0.2-0.3,0.4-0.6,0.5-0.9l1.4-2l1.4-2
		c0.2-0.3,0.4-0.6,0.5-0.9c0.2-0.3,0.4-0.6,0.5-0.9c0.1-0.3,0.3-0.7,0.4-1c0.1-0.3,0.2-0.7,0.2-1c0-0.1,0-0.2,0-0.3
		c0-0.1-0.1-0.2-0.1-0.3c-0.1-0.1-0.1-0.1-0.2-0.2c-0.1-0.1-0.2-0.1-0.3-0.1c-0.3,0-0.5,0-0.8,0.1c-0.3,0.1-0.5,0.1-0.8,0.2
		c-0.2,0.1-0.4,0.2-0.7,0.3c-0.2,0.1-0.4,0.3-0.6,0.5l-0.1,0.2l-0.1,0.2l-0.1,0.2c-0.1,0.2-0.1,0.3-0.3,0.5
		c-0.1,0.1-0.2,0.3-0.4,0.4c-0.1,0.1-0.3,0.2-0.5,0.3c-0.2,0.1-0.3,0.1-0.5,0.1c-0.2,0-0.5,0-0.7-0.1c-0.2-0.1-0.4-0.3-0.4-0.6
		c-0.1-0.2-0.2-0.4-0.2-0.6c0-0.2,0-0.5,0-0.7c0.1-0.4,0.2-0.7,0.4-1c0.2-0.3,0.5-0.6,0.7-0.9c0.3-0.3,0.6-0.5,0.9-0.7
		c0.3-0.2,0.7-0.4,1-0.5c0.7-0.3,1.4-0.5,2.2-0.7c0.7-0.1,1.5-0.2,2.3-0.2c0.5,0,0.9,0.2,1.3,0.5c0.3,0.3,0.6,0.7,0.8,1.1
		c0.2,0.4,0.4,0.9,0.4,1.4c0.1,0.5,0.1,1,0.1,1.4c0,0.6-0.2,1.2-0.4,1.7c-0.2,0.6-0.5,1.1-0.8,1.6l-1.2,1.7
		c-0.4,0.6-0.8,1.1-1.2,1.6s-0.7,1.1-1.1,1.6c-0.3,0.5-0.6,1.1-0.8,1.7c0.8-0.1,1.7-0.3,2.5-0.5s1.6-0.3,2.5-0.4
		c0.2,0,0.4,0,0.6,0.1c0.2,0.1,0.3,0.3,0.4,0.4c0.1,0.1,0.2,0.3,0.3,0.5C273.2,235.8,273.3,236,273.2,236.2z"/>
	<path class="st5" d="M286.5,232c-0.1,0.2-0.2,0.4-0.3,0.6c-0.1,0.2-0.3,0.3-0.5,0.4c-0.2,0.1-0.4,0.2-0.6,0.3
		c-0.2,0.1-0.4,0.1-0.6,0.1c-1,0.1-1.9,0.1-2.9,0.1s-1.9,0-2.9-0.1c-0.2,0-0.4-0.1-0.6-0.2c-0.4-0.2-0.7-0.5-0.8-0.9
		c-0.1-0.2-0.1-0.4-0.1-0.6c0-0.2,0-0.3,0.1-0.4c0.1-0.1,0.2-0.2,0.3-0.3c0.1-0.1,0.3-0.2,0.4-0.2l0.4-0.1c0.3-0.1,0.7-0.2,1-0.2
		c0.3,0,0.7-0.1,1-0.1h0.5l0.5,0.1c0.4,0,0.7,0,1.1,0h0.6h0.3c0.1,0,0.2,0,0.3,0h0.6c0.2,0,0.4,0,0.6,0.1c0.2,0,0.4,0.1,0.6,0.2
		c0.2,0.1,0.3,0.2,0.5,0.3c0.1,0.1,0.2,0.3,0.3,0.4C286.5,231.6,286.5,231.8,286.5,232z M286.9,228c0,0.2,0,0.4-0.1,0.6
		c-0.1,0.2-0.2,0.3-0.4,0.4c-0.2,0.1-0.3,0.2-0.5,0.3c-0.2,0-0.4,0-0.6,0h-6.5c-0.2,0-0.4,0-0.6-0.1c-0.2-0.1-0.3-0.2-0.4-0.3
		c-0.1-0.1-0.2-0.3-0.2-0.5c0-0.2,0-0.4,0-0.6c0-0.2,0.1-0.3,0.2-0.5c0.1-0.1,0.2-0.2,0.4-0.3c0.1-0.1,0.3-0.2,0.4-0.3l0.5-0.2
		c0.3-0.1,0.7-0.2,1-0.3l1-0.1h0.5c0.2,0,0.3,0,0.5,0c0.3,0,0.7,0,1,0h0.3c0.1,0,0.2,0,0.3,0h0.3h0.3c0.3,0,0.6,0,0.9,0.1
		c0.3,0.1,0.6,0.2,0.8,0.3c0.2,0.1,0.5,0.3,0.6,0.6C286.9,227.3,287,227.7,286.9,228L286.9,228z"/>
	<path class="st5" d="M301.1,230.9c-0.1,0.3-0.2,0.6-0.4,0.9c-0.2,0.3-0.4,0.5-0.7,0.6c0,0.1-0.1,0.2-0.1,0.4l-0.1,0.4
		c0,0.3,0,0.5,0,0.8l-0.1,0.8c0,0.3,0,0.5,0,0.8s0,0.5-0.1,0.8c0,0.2-0.1,0.5-0.2,0.7c-0.1,0.2-0.2,0.5-0.3,0.7
		c-0.1,0.2-0.3,0.4-0.5,0.5c-0.5,0.3-1.1,0.4-1.7,0.1c-0.3-0.1-0.5-0.4-0.6-0.7c-0.1-0.3-0.2-0.7-0.2-1c0-0.4,0-0.8,0.1-1.1
		s0.1-0.8,0.1-1.2c0-0.2,0.1-0.4,0.1-0.6l0.1-0.6c0-0.1,0-0.2,0-0.3c0-0.1,0-0.2,0-0.3c-0.1,0-0.3,0-0.5,0h-0.4
		c-0.5,0-1.1,0-1.6-0.1c-0.5,0-1.1-0.1-1.6-0.3l-0.7-0.2c-0.2-0.1-0.5-0.2-0.7-0.3c-0.2-0.1-0.4-0.2-0.6-0.4
		c-0.2-0.2-0.4-0.3-0.5-0.5c-0.1-0.2-0.1-0.4-0.2-0.6c0-0.2,0-0.4,0-0.6c0.1-0.5,0.2-1,0.3-1.5c0.2-0.5,0.3-1,0.5-1.5
		c0.2-0.5,0.5-1,0.7-1.5s0.5-0.9,0.8-1.4c0.1-0.2,0.3-0.5,0.5-0.7c0.2-0.2,0.4-0.4,0.5-0.6c0.2-0.2,0.3-0.4,0.5-0.6
		c0.2-0.2,0.4-0.3,0.6-0.4c0.2,0,0.5,0,0.7,0.1c0.2,0.1,0.4,0.2,0.5,0.4c0.2,0.2,0.3,0.4,0.4,0.6c0.1,0.2,0.2,0.4,0.2,0.7
		c-0.1,0.4-0.3,0.9-0.5,1.3c-0.2,0.4-0.5,0.8-0.7,1.2s-0.5,0.9-0.7,1.4c-0.2,0.5-0.4,0.9-0.6,1.4c0.5,0.1,1,0.2,1.5,0.2l1.5,0.2
		c0.1-0.4,0.1-0.7,0.2-1.1l0.1-1.1c0-0.3,0.1-0.7,0.1-1s0-0.7,0.1-1.1s0.1-0.8,0.1-1.1c0.1-0.4,0.2-0.8,0.3-1.2
		c0-0.2,0.1-0.3,0.2-0.5c0.1-0.2,0.2-0.3,0.4-0.4c0.1-0.1,0.3-0.2,0.5-0.3c0.2-0.1,0.4-0.1,0.5-0.1c0.2,0,0.5,0.1,0.7,0.2
		c0.2,0.1,0.4,0.3,0.5,0.4c0.1,0.2,0.2,0.4,0.3,0.6c0.1,0.2,0.1,0.5,0.1,0.7c0,0.4,0,0.9-0.1,1.4s-0.1,0.9-0.1,1.4s-0.1,0.9-0.1,1.4
		s-0.1,0.9-0.1,1.4c0,0.1,0,0.3,0,0.4c0,0.1,0,0.3,0,0.4c0.3,0.1,0.6,0.4,0.7,0.6C301.1,230.4,301.2,230.7,301.1,230.9z"/>
</g>
<g id="freepik--character-1--inject-4">
	<path class="st1" d="M397.6,161.7c0.5,2.2,1.5,4.3,2.9,6c1.5,1.6,3.9,2.6,6.1,1.9c1.6-0.6,2.9-1.8,3.4-3.4c0.6-1.6,0.8-3.3,0.6-5
		c-0.1-2.2-0.8-4.3-2-6.1c-1.2-1.8-3.2-3-5.4-3.2C398.1,151.6,396.5,157.7,397.6,161.7z"/>
	<path class="st1" d="M370,413.1c1-0.6,2.1-1,3.2-1.2l0,0c0,0,5.7-2.5,9.3-11.6l5.9-0.9c1,0.6,1.7,1.5,2,2.6c0,1-0.1,2-0.2,3
		c-0.3,3.2-1.2,10.3-1.2,10.3l-0.8-0.1c0.2-2.2,0.2-4.3,0.1-6.5c-0.2-2.1-1.9,0.2-2.9,2.5c-1,2.3-4.5,4.4-9.3,4.1
		C370.6,414.7,368.3,414.2,370,413.1z"/>
	<path class="st14" d="M382.6,400.2c-3.6,9.1-9.3,11.6-9.3,11.6c2,1.2,4.5,1.4,6.7,0.6c2.8-1,3.4-4.8,4.6-5.6
		c1.6-1.2,2.8-2.7,3.6-4.5C388.6,400.8,382.6,400.2,382.6,400.2z"/>
	<path class="st1" d="M401.5,415.1c0.7-0.9,1.5-1.8,2.5-2.4l0,0c0,0,4.3-4.6,3.9-14.4l5.1-3.1c1.1,0.1,2.2,0.7,2.9,1.6
		c0.4,0.9,0.7,1.9,1,2.9c1,3,3,9.9,3,9.9l-0.7,0.2c-0.7-2.1-1.6-4.1-2.5-6c-1-1.8-1.6,1-1.6,3.4c0,2.5-2.3,5.9-6.9,7.4
		C402.7,416.5,400.5,416.9,401.5,415.1z"/>
	<path class="st14" d="M407.9,398.3c0.4,9.7-3.9,14.4-3.9,14.4c2.3,0.3,4.7-0.5,6.4-2.2c2.1-2,1.2-5.7,2-6.9c1-1.7,1.5-3.6,1.5-5.6
		C413.8,396.5,407.9,398.3,407.9,398.3z"/>
	<path class="st14" d="M372,207.4c-0.3,0.4-0.4,0.6-0.6,0.8l-0.5,0.7c-0.4,0.4-0.7,0.8-1.1,1.2c-0.7,0.8-1.5,1.5-2.3,2.2
		c-1.6,1.4-3.2,2.7-4.9,3.8c-1.7,1.2-3.5,2.2-5.3,3.2c-0.9,0.5-1.8,1-2.8,1.4l-1.4,0.6l-0.8,0.3c-2,0.8-4.2,0.8-6.1,0
		c-1.2-0.5-2.4-1.2-3.4-2c-1.7-1.4-3.2-3.1-4.4-4.9c-2.3-3.4-4.2-7.1-5.6-10.9l1-3.7c2,3.1,7,7.4,9.4,10.2c1.1,1.3,4.6,4.7,5.2,4.9
		c0.3,0.1,0.6,0.1,0.9-0.1l1.9-1c0.8-0.4,1.5-0.9,2.4-1.4c1.5-1,3.1-2,4.5-3.1c1.4-1.1,2.8-2.2,4.1-3.4c0.6-0.6,1.3-1.2,1.9-1.8
		c0.3-0.3,0.6-0.6,0.9-0.9l0.4-0.4l0.3-0.4L372,207.4z"/>
	<path class="st14" d="M333,203.8c-2.3,1.5-6.7-0.8-6.7-0.8l-0.5-7.8l8,5L333,203.8z"/>
	<polygon class="st14" points="325.8,195.2 326.3,203.1 319.5,201.3 320.1,194.7 	"/>
	
		<rect x="306.3" y="149.5" transform="matrix(0.711 -0.7031 0.7031 0.711 -39.8029 268.4734)" class="st1" width="0.9" height="66.3"/>
	<path class="st14" d="M329.3,201.9l0.4-0.3v-2.5l-1.2-1.6l-4.1,2.3l-0.9,0.3c-0.5,0.1-0.8,0.6-0.7,1.1l0.6,0.5
		c0.6,0.1,1.3,0.1,1.9,0.1l1.3-0.1l0,0C327.3,202.3,328.4,202.5,329.3,201.9z"/>
	<path class="st1" d="M378.6,202c0.8,4.2-24.1,21.6-24.1,21.6l-6.8-9.9c0,0,22.8-19.8,26-19.2C378.4,195.3,377.8,197.7,378.6,202z"
		/>
	<path class="st9" d="M359.1,220.4c0,0,9.3-7.2,11.9-9.2l-0.2-10.3L359.1,220.4z"/>
	<polygon class="st14" points="386.5,382.2 378.8,383 381.5,402.5 388.1,402.2 	"/>
	<polygon class="st9" points="386.5,382.2 387.2,391.4 380.1,392.1 378.8,383 	"/>
	<polygon class="st14" points="413.1,380.7 405.4,381.4 407.8,399.2 413.9,398 	"/>
	<polygon class="st9" points="413.1,381 413.5,390.2 406.7,391.2 405.4,381.7 	"/>
	<path class="st3" d="M368.8,203.6c1.6-4.6,3.4-8.6,4.9-9.1c2.3-0.9,4.6-1.6,7-2.2l0.5-0.1c4.7-1,9.5-1.8,14.3-2.2
		c3-0.3,6-0.4,8.4-0.4c0.3,0,0.6,0,0.8,0.1c2.1,0.5,3.5,2.6,3,4.7c-5.1,23.5-5.2,33.2-4.7,45.2l-23.1-0.1h-5.7
		C369.8,217.3,364.5,211,368.8,203.6z"/>
	<path class="st5" d="M395.1,240.6c0,0-7.4,46.5-8.5,71.6c-0.7,15.3,5.1,27.8,7,44.5c1,8.4-4.6,29.4-4.6,29.4l-10.3,0.6
		c0,0-12.9-8.8-16.1-22.6c-3.9-16.9-4.9-40.9-5.1-53.8c-0.4-22.5,15.8-69.3,15.8-69.3L395.1,240.6z"/>
	<path class="st9" d="M376.2,284.6l-4.2,32c-0.5,38.1,10.1,59.7,19.3,59.7c0.1,0,0.1,0.1,0.1,0.1L376.2,284.6z"/>
	<path class="st5" d="M403.7,241.1c0,0-1.7,47.1,0.2,72.1c1.1,15.3,8.4,27,12.3,43.3c2,8.2-1,29.8-1,29.8l-10.2,1.9
		c0,0-13.9-7.2-18.7-20.5c-5.9-16.3-9.8-40-11.6-52.8c-3.1-22.3,6.7-73.7,6.7-73.7H403.7z"/>
	<polygon class="st1" points="391.4,383.7 375.1,385.2 376.4,389.6 391,388.8 	"/>
	<polygon class="st1" points="415.9,382.4 399.8,385.6 401.6,389.8 416.1,387.4 	"/>
	<path class="st5" d="M402.7,237.9l-29.2,0c-0.3,0-0.5,0.2-0.5,0.4l0.3,2.8c0,0.2,0.3,0.3,0.5,0.3l29.7,0c0.4,0,0.6-0.2,0.5-0.4
		l-0.8-2.8C403.1,238,402.9,237.9,402.7,237.9z"/>
	<g class="st15">
		<path class="st3" d="M402.7,237.9l-29.2,0c-0.3,0-0.5,0.2-0.5,0.4l0.3,2.8c0,0.2,0.3,0.3,0.5,0.3l29.7,0c0.4,0,0.6-0.2,0.5-0.4
			l-0.8-2.8C403.1,238,402.9,237.9,402.7,237.9z"/>
	</g>
	<path class="st5" d="M397.1,241.4l-0.4-3.6c0-0.1,0.1-0.2,0.3-0.2h0.9c0.2,0,0.3,0.1,0.3,0.2l0.4,3.6c0,0.1-0.1,0.2-0.3,0.2h-0.9
		C397.3,241.6,397.2,241.5,397.1,241.4z"/>
	<path class="st5" d="M375.7,241.4l-0.4-3.6c0-0.1,0.1-0.2,0.3-0.2h0.9c0.2,0,0.3,0.1,0.3,0.2l0.4,3.6c0,0.1-0.1,0.2-0.3,0.2H376
		C375.8,241.6,375.7,241.5,375.7,241.4z"/>
	<path class="st5" d="M385.5,241.4l-0.4-3.6c0-0.1,0.1-0.2,0.3-0.2h0.9c0.2,0,0.3,0.1,0.3,0.2l0.4,3.6c0,0.1-0.1,0.2-0.3,0.2h-0.9
		C385.7,241.6,385.5,241.5,385.5,241.4z"/>
	<path class="st14" d="M385.3,183c0.9,3.4,1,7.1-4.1,9.1c0,0-4.9,5.4,4.5,3.9c8.5-1.3,9.8-6.1,9.8-6.1c-3.2-2.6-2.3-11-1.4-15.7
		L385.3,183z"/>
	<path class="st9" d="M391.1,180.7c-0.2,2.1-3.4,4.2-5.3,4.8c-0.1-0.8-0.2-1.6-0.4-2.4l5.2-5.2C390.9,178.7,391.1,179.7,391.1,180.7
		z"/>
	<path class="st14" d="M399.9,168.3c0.5-1.5,0.6-3.2,0.4-4.8c-0.8-5.7-6.2-9.6-11.9-8.8c-8,1.2-11.8,11.9-11.8,19
		c-0.1,7.8,8.4,12.3,15.4,7.9C396.8,178.8,397.6,175.6,399.9,168.3L399.9,168.3z"/>
	<path class="st16" d="M381.6,171.5c-0.8,0-1.6-0.3-2.1-0.9c1.1-1,2.1-2.2,2.9-3.4L381.6,171.5z"/>
	<path class="st1" d="M387.1,174.3c0.1-0.1,0.1-0.2,0-0.3c-0.1-0.1-0.2-0.1-0.3,0c-1.2,1-2.9,1.3-4.4,0.9c-0.1,0-0.2,0-0.2,0.1l0,0
		c0,0,0,0,0,0c0,0.1,0,0.2,0.1,0.2c0.3,0.1,0.6,0.1,0.9,0.2C384.7,175.6,386.1,175.2,387.1,174.3z"/>
	<path class="st5" d="M401,158.4c0.5,1,1,1.9,1.7,2.8l1.7,2.6c0.4,0.6,0.8,1.1,1.5,1.1c0.4-0.1,0.8-0.3,1-0.7
		c0.2-0.4,0.2-0.8,0.2-1.3c-0.1-2.3-1.3-4.4-3.2-5.7C402.8,156.6,400.4,156.7,401,158.4z"/>
	<path class="st1" d="M388.8,150.7c-2.2,0.2-4.3,0.9-6.1,2.2c-1.1,0.9-2.2,2.3,0,3.3c0.7,0.2,1.5,0.2,2.2-0.1
		c2.8-0.5,4.6,2.5,6.6,4.5c2,2,7.1,7,6.1,9.7c-1.5,4.1-5.2,7.4-2.9,9.1c13.4-4.1,11.4-18.7,6.8-24
		C398.3,152,393.6,150.2,388.8,150.7z"/>
	<path class="st5" d="M398.6,170.4L398.6,170.4l-0.2,0.4c-0.3-0.2-4.5-1.5-7.1-2.3l0.3-0.9c7.5,2.4,7.5,2.4,7.5,2.8l-0.4,0.4
		L398.6,170.4z"/>
	<path class="st14" d="M401.1,173.5C401.1,173.5,401.1,173.5,401.1,173.5c0.3-1.3-0.5-2.7-1.8-3.1c-1.9-0.4-3.6,1.6-4.2,3.1
		c-0.7,1.7,0.1,3.5,2,3.2c1.5-0.3,2.7-1.1,3.6-2.3C400.9,174.2,401.1,173.9,401.1,173.5z"/>
	<path class="st1" d="M380.9,153.6c-3.7,2.1-1,7.4,0.4,5.7c2.2-2.8,5.2-2.4,6.3-5.1C389.2,150,384.6,151.5,380.9,153.6z"/>
	<path class="st1" d="M390.8,165.4h0.1c0,0,0,0,0,0c0.2-0.1,0.3-0.3,0.2-0.5c-0.9-1.9-3.3-2.4-3.4-2.4c-0.2,0-0.4,0.1-0.4,0.3
		c0,0,0,0,0,0c0,0.2,0.1,0.4,0.3,0.4c0,0,2.1,0.4,2.9,2C390.5,165.3,390.6,165.4,390.8,165.4L390.8,165.4z"/>
	<path class="st1" d="M379.8,162.2c0.8-0.5,1.7-0.7,2.6-0.4l0,0c0,0,0,0,0,0c0.2,0.1,0.4,0,0.5-0.2c0.1-0.2,0-0.4-0.2-0.5
		c-1.1-0.4-2.3-0.2-3.3,0.4l0,0c-0.1,0.1-0.2,0.2-0.2,0.3c0,0.2,0.2,0.3,0.4,0.3C379.6,162.2,379.7,162.2,379.8,162.2z"/>
	<path class="st1" d="M345.4,224.2c4,2.6,9.1-0.6,9.1-0.6l-5.3-11.3l-5-2.9C344.1,209.4,341.4,221.6,345.4,224.2z"/>
	<path class="st1" d="M380.5,166.4c-0.1,0.6-0.5,1.1-1,1c-0.4-0.1-0.6-0.7-0.6-1.3c0.1-0.6,0.5-1.1,1-1
		C380.3,165.2,380.6,165.8,380.5,166.4z"/>
	<path class="st1" d="M380.1,165.2l-1.5-0.7C378.6,164.5,379.2,165.8,380.1,165.2z"/>
	<path class="st1" d="M387.7,167.9c-0.1,0.6-0.5,1.1-1,1c-0.4-0.1-0.6-0.7-0.6-1.3c0.1-0.6,0.5-1.1,1-1
		C387.5,166.7,387.8,167.3,387.7,167.9z"/>
	<path class="st1" d="M387.3,166.7l-1.5-0.7C385.9,166,386.4,167.3,387.3,166.7z"/>
	<path class="st1" d="M407.9,157.8c-0.9,0.5-1.9,0.4-2.7-0.2c-0.7-0.6-1.2-1.5-1.3-2.5c-0.2-1-0.2-2-0.1-3c0.2-0.9,0.4-1.9,0.8-2.8
		c-0.1,0.9-0.1,1.8-0.1,2.7c0.1-2,1-3.9,2.5-5.2c-0.5,1.4-0.8,2.9-1,4.4c0.2-1.5,1-2.8,2.1-3.7c-0.5,1.3-0.9,2.7-1,4.1
		c0.2-0.4-0.2-1.3,1.6-2.7c-1,1.3-0.2,3.3-0.1,5C408.6,155.4,410,156.6,407.9,157.8z"/>
	<path class="st5" d="M384.5,169.8l-1.3-1.6c-0.4-0.5-0.5-1.1-0.3-1.7l0.1-0.2c0.3-0.9,1.2-1.4,2.2-1.2l5.2,1.1
		c1,0.2,1.7,1.2,1.5,2.2c-0.1,0.8-0.7,1.3-1.5,1.5l-4,0.8c-0.1,0-0.2,0-0.4,0C385.4,170.5,384.9,170.2,384.5,169.8z M384.8,165.7
		c-0.4,0-0.9,0.3-1,0.7l-0.1,0.2c-0.1,0.3-0.1,0.7,0.2,0.9l1.3,1.6c0.2,0.3,0.6,0.5,1,0.4l4-0.8c0.4-0.1,0.7-0.4,0.8-0.8l0,0
		c0.1-0.5-0.3-1.1-0.8-1.2l-5.2-1.1C384.9,165.7,384.9,165.7,384.8,165.7L384.8,165.7z"/>
	<path class="st5" d="M377.6,167.8l-1.9-2.3c-0.5-0.5-0.7-1.4-0.4-2.1l0,0c0.4-0.9,1.5-1.4,2.4-1l4,1.5c0.9,0.4,1.3,1.4,1.1,2.3
		l-0.1,0.2c-0.2,0.6-0.7,1.1-1.3,1.3l-2,0.6c-0.2,0.1-0.4,0.1-0.6,0.1C378.5,168.4,378,168.2,377.6,167.8z M376.1,163.7
		c-0.2,0.4-0.1,0.8,0.2,1.1l1.9,2.3c0.3,0.3,0.7,0.4,1,0.3l2-0.6c0.3-0.1,0.6-0.4,0.7-0.7l0.1-0.2c0.1-0.5-0.1-1-0.6-1.2l-4-1.5
		c-0.1-0.1-0.3-0.1-0.4-0.1C376.6,163.1,376.3,163.4,376.1,163.7z"/>
	<path class="st1" d="M410.8,206.9c0.6-4.6,5.2-11,1.4-14.7c-3.6-3.4-18.4-4.7-18.4-4.7c-2,3.7-5.1,14.2-5.9,20.9
		c-2.2,16.9-2.6,34-3,51.1c3.4,0.8,6.8,1.7,10.3,1.4c3.4-0.3,7-2,8.6-5.1c0.7-1.7,1.2-3.5,1.3-5.3C407.1,236,409,221.4,410.8,206.9z
		"/>
	<path class="st1" d="M368.3,203.5c1.6-4.6,3.9-8.5,5.4-9.1c2.4-0.8,5.8-2.4,9.3-3.2c-1.6,6.2-3.9,15-3.9,26.1
		c0,7.9-0.3,29.8-0.7,42.4l-4.3-0.7c-3.5-0.6-6-3.8-5.6-7.3l1.5-14.1C369.6,226.5,363.9,210.9,368.3,203.5z"/>
	<path class="st1" d="M426.4,213.2c-5.6-7.1-14.7-21.4-17.9-21.5c-4.4-0.1-8.4,2.4-8.6,6.2c-0.1,2.6,11.6,16.2,16.3,21.5
		c1.1,1.3,1.4,3.1,0.7,4.7l-0.4,0.9l12.8-0.3C429.2,224.7,431.3,219.5,426.4,213.2z"/>
	<path class="st14" d="M428,226.6c-0.8,3.1-2.4,6-4.5,8.4C420,238.8,405,249,405,249l-4.7-3.1l2.6-3c4.9-6.5,10.6-12.4,17-17.4
		L428,226.6z"/>
	<path class="st1" d="M426.6,232.6c5.4-3.3,3-9,3-9l-12.9,1.5l-3.6,5.1C413,230.1,422.5,235.1,426.6,232.6z"/>
	<path class="st14" d="M408.9,245c-0.4,2.7-5,4.6-5,4.6l-6.3-4.7l9-2.8L408.9,245z"/>
	<polygon class="st14" points="397.7,244.9 404,249.6 398.2,253.6 393.6,248.9 	"/>
</g>
</svg>
