<?xml version="1.0" encoding="utf-8"?>
<!-- Generator: Adobe Illustrator 22.1.0, SVG Export Plug-In . SVG Version: 6.00 Build 0)  -->
<svg version="1.1" id="Layer_1" xmlns="http://www.w3.org/2000/svg" xmlns:xlink="http://www.w3.org/1999/xlink" x="0px" y="0px"
	 viewBox="0 0 2227 1080" style="enable-background:new 0 0 2227 1080;" xml:space="preserve">
<style type="text/css">
	.st0{fill:#ED985F;}
	.st1{fill:#E9F3FE;}
	.st2{fill:#FFB27D;}
	.st3{fill:#E71D36;}
	.st4{fill:#EF890F;}
	.st5{fill:#CC1736;}
	.st6{fill:#FF9F1C;}
	.st7{fill:#FFFFFF;}
	.st8{fill:#FCECDB;}
	.st9{fill:#F4D2B8;}
	.st10{fill:#2EC4B6;}
	.st11{fill:#F1A34F;}
	.st12{opacity:0.5;}
	.st13{opacity:0.6;}
	.st14{fill:#AFCDFB;}
	.st15{fill:#E49963;}
	.st16{fill:#163560;}
	.st17{fill:#1FAA99;}
	.st18{fill:#D68D5D;}
	.st19{fill:#F4A269;}
	.st20{fill:#C65447;}
	.st21{clip-path:url(#SVGID_2_);fill:#FFB27D;}
	.st22{clip-path:url(#SVGID_2_);fill:#E71D36;}
	.st23{clip-path:url(#SVGID_2_);fill:#CC1736;}
	.st24{clip-path:url(#SVGID_2_);fill:#E8945B;}
	.st25{clip-path:url(#SVGID_2_);fill:#011627;}
	.st26{clip-path:url(#SVGID_2_);fill:#D35C2B;}
	.st27{clip-path:url(#SVGID_2_);fill:#FCECDB;}
	.st28{clip-path:url(#SVGID_2_);fill:#F4D2B8;}
	.st29{clip-path:url(#SVGID_2_);}
	.st30{fill:#BC3F3F;}
	.st31{fill:#E58638;}
	.st32{fill:#EE9849;}
	.st33{fill:#A02E2E;}
	.st34{fill:#E8945B;}
	.st35{fill:#2C3A64;}
	.st36{fill:#D35C2B;}
	.st37{fill:#1C468A;}
</style>
<g id="illustration_1_">
	<g id="girl_2_1_">
		<path class="st0" d="M431.8,590.4c0,0-60,26.1-70.9,25.7c-10.9-0.5-78-20.4-78-20.4l1.7,11.5c0,0,51.8,29.8,69.9,31.5
			c17.8,1.7,78.7-16,84.6-19.7C445,615.1,448.9,594.1,431.8,590.4z"/>
		<path class="st1" d="M440.8,494.3c0,0,22.1-4.2,33.1,3.8c20,14.6,21,64.8,28.5,72.3c7.5,7.5,25.5,4.3,27.1,43
			c1.6,38.7-7.2,42,3.3,59.3c10.5,17.3-4.4,34.6-4.4,34.6s6.1-9.5,3.5-16.4c0,0-2.5,15.2-12.2,18.8c-9.7,3.6-11.1,6.2-12.6,11.4
			c0,0-82.4-42.2-82.5-72.2c-0.1-29.9-16.2-59.6-8.3-72.6c0,0-3.5,5.6-4,11.7c0,0-4.8-9.1,3.5-17.6c8.2-8.5-9.7-26-7-46.3
			C410.6,510.1,420.4,494.9,440.8,494.3z"/>
		<path class="st2" d="M424.5,618.9c5.3,3.7,11.9,6.7,20.2,8.6c31.1,7.2,43-19.1,47.5-37.1c-4.2-2.4-8.2-3-10.5-3.2
			c-2.2-0.3-4.6-0.4-6.6-0.5c-3.5-2.7-8.7-13.6-9.8-30.6l-1.5,0.4l-24.5,6.7c0,0,1.1,7.8,1.7,15.1c0.4,5.8,0.5,11.3-0.6,12.6
			c-1.9,0.4-3.1,0.7-3.1,0.7s0,0,0,0C436.9,592.1,429.8,603.8,424.5,618.9z"/>
		<path class="st0" d="M439.2,563.1c0,0,1.1,7.8,1.7,15.1c13.9-1.4,20.3-14.6,22.8-21.8L439.2,563.1z"/>
		<path class="st2" d="M435.1,570.4c0,0,32.9-1.8,31.5-22.3c-1.4-20.5,1.8-34.5-19.3-34.2c-21.1,0.3-24.6,8.4-25.8,15.4
			C420.3,536.2,426.5,570.4,435.1,570.4z"/>
		<path class="st1" d="M421.6,517.8c4.6-6.5,8.6-5.5,10.9-3.8c17.3-11.2,29.9,2.6,29.9,2.6c3.3,14.5,14.5,22.2,14.5,22.2
			s-5.7,4.1-19.8,1.6c-4.3-0.8-8.3-3.5-11.8-6.9c6.3,9,14.4,15.2,14.4,15.2c-17.1-6.4-25.3-28.9-26.2-31.3
			c-1.9,1.9-5.6,6.1-6.5,10.1c-1.3,5.3-6.7,13.7-9.9,13.5C417.2,540.9,414.7,527.5,421.6,517.8z"/>
		<path class="st3" d="M501.5,685.9c3-15.2,12.7-75.9,3-95.5c-3.5-7-17.1-7.7-32.1-7c-4.7,3-22.4,14.4-29.7,13c-0.1,0-0.2,0-0.4-0.1
			c-3.4-0.9-4.7-3.3-1.9-5.4c0,0-7.4-0.7-16.6,1c-5.2,1-19.3,8.2-19.3,8.2s7.1,12.8,17.5,17.2c-1.8,15.9,0.9,22.9,17.3,59.5
			c13.9,31-1.9,58.9-1.9,58.9s81.9,65.8,82.3,32.3C520,742.8,497.7,705.3,501.5,685.9z"/>
		<g>
			<path class="st4" d="M433.3,807.3c-4.5-0.5-8.5-2.9-11-6.7c-0.4-0.6-0.8-1.2-1.3-1.9c-9.3-14.1-12.9-57.3-33.9-103.4
				c-5.1-11.2-23.4-13.2-28.4-25.9c0,0-12.3-41.1,23.5-42.3c35.9-1.2,96,114.3,97,126.4C480.1,765.3,502.9,815.2,433.3,807.3z"/>
		</g>
		<path class="st5" d="M290.8,806.4h51c0,0,1.9-8.1-1.4-13.7c-3-4.9-1.8-7.7,0.4-11.7c-2.3,0.9-5.3,1.8-8.6,1.6
			c-2.5-0.1-5.2-1.3-7.6-2.7c-2.2,2.5-11.6,13.2-14.5,15.3C306.7,797.6,291.8,796.7,290.8,806.4z"/>
		<path class="st5" d="M496.1,606.3c0,0,6.6,60.4-36.4,73.1c-43.1,12.7-55.3-55.6-20.5-60.5C473.9,614,496.1,606.3,496.1,606.3z"/>
		<g>
			<path class="st4" d="M357.5,639.1c-3.1,23-15.1,95.7-36.2,131.2c-6.8,11.4,17.2,17.8,17.3,17.8c3.2-0.8,8.6-6,11.1-8.2
				c17.2-15.5,52.1-59.3,52.1-94.5c0-17.1,0.3-49.9-12.2-58.2C381.9,622.1,358.8,629.9,357.5,639.1z"/>
		</g>
		<g>
			<path class="st6" d="M463.7,806.4c0,0-1.9-2.6-5.2-7.6c-3.9-5.9-8.3-17.6-13.5-32.6c-5.5-15.7-12.1-35.1-20.3-55.3
				c-2.5-6.2-5.2-12.5-8.1-18.8c-5.1-11.2-19.2-9.7-24.2-22.3c0,0-19.5-43.9,16.3-45.1c35.9-1.2,104,117.5,107.9,129
				C521,766.2,541.9,818.4,463.7,806.4z"/>
		</g>
		<path class="st3" d="M328.2,806.4h51c0,0,1.9-8.1-1.4-13.7c-3-4.9-1.8-7.7,0.4-11.7c-2.3,0.9-5.3,1.8-8.6,1.6
			c-2.5-0.1-5.2-1.3-7.6-2.7c-2.2,2.5-11.6,13.2-14.5,15.3C344.1,797.6,329.3,796.7,328.2,806.4z"/>
		<g>
			<path class="st4" d="M445,766.1c-5.5-15.7-12.1-35.1-20.3-55.3c2.1-15.3,6.8-28.6,14.5-34C439.2,676.8,458.1,735.3,445,766.1z"/>
		</g>
		<g>
			<path class="st6" d="M387.3,637.4c-3.1,23-7.4,97.4-28.6,132.9c-6.8,11.4,17.2,17.8,17.3,17.8c3.2-0.8,8.6-6,11.1-8.2
				c17.2-15.5,52.1-59.3,52.1-94.5c0-17.1-20.1-48.5-32.6-56.8C398.9,623.4,388.5,628.3,387.3,637.4z"/>
		</g>
		<g>
			<path class="st5" d="M276.9,565.9l52.3-5.6c1.5-0.2,3,0.7,3.5,2.2l18.7,49.1c0.8,2.2-0.7,4.5-3,4.6l-51.9,2.1
				c-1.4,0.1-2.7-0.8-3.2-2.1l-19.1-45.7C273.2,568.5,274.6,566.1,276.9,565.9z"/>
			<path class="st3" d="M272.3,566.4l52.3-5.6c1.5-0.2,3,0.7,3.5,2.2l18.7,49.1c0.8,2.2-0.7,4.5-3,4.6l-51.9,2.1
				c-1.4,0.1-2.7-0.8-3.2-2.1L269.6,571C268.7,568.9,270.1,566.6,272.3,566.4z"/>
			<path class="st5" d="M301.3,589.3c-0.6-1.8,0.3-3.2,2-3.2c1.8,0,3.7,1.4,4.3,3.2c0.6,1.8-0.3,3.2-2,3.2S301.9,591.1,301.3,589.3z
				"/>
			<path class="st5" d="M273.9,571c-0.3-0.9,0.1-1.6,1-1.6s1.8,0.7,2.1,1.6c0.3,0.9-0.1,1.6-1,1.6S274.2,571.9,273.9,571z"/>
		</g>
		<path class="st2" d="M492.1,590.4c0,0-72.4,26.7-83.3,26.1c-7-0.4-65.5-20.9-65.5-20.9s-4.3-6.7-9.1-8.1c0,0-8.3-3.8-10.7-4.5
			c-2.4-0.7-1.9,0-1.2,2.3c0.4,1.2,1.7,2.3,2.9,3.2c-4,1.1-7.9,2.6-9.8,2.9c-3.1,0.6-11.9,3.4-9.3,7.7c2.6,4.3,14.7,5.2,20,4.3
			c5.2-1,11.9,2.1,11.9,2.1s56.9,36.6,72.6,36.4c30.9-0.4,83-19.3,88.9-23C505.3,615.1,509.2,594.1,492.1,590.4z"/>
		<path class="st2" d="M277.7,591.3c0,0,5.2-8.3,7-8.6c5.2-1,5.2,5.9,4.1,10.3c-1.2,4.8-5.2,9.3-6.3,8.9
			C281.3,601.4,276.5,595.7,277.7,591.3z"/>
		<path class="st2" d="M277.5,593c0,0-1.7,9.3,7.2,14.2L277.5,593z"/>
		<path class="st5" d="M454.8,603.5c0,0,6.5,20.5,28.7,25.2c0,0,36.7-11.3,18.4-36.3C501.9,592.3,483.9,578.9,454.8,603.5z"/>
	</g>
	<g>
		<g>
			<g>
				<g>
					<path class="st7" d="M437.2,337.8c0-2.1,0-4.2,0.1-6.3c0.6-15.5,3.2-30.7,7.8-45.3c-3.9,0.1-7.6,0.4-11.2,0.6
						c-3.7,12.4-5.9,25.3-6.8,38.3c-0.3,3.9-0.4,7.7-0.5,11.6v1c0,3.9,0.1,7.8,0.4,11.7c3.5,1.7,7.2,3.2,11,4.8
						c-0.4-3.7-0.6-7.4-0.7-11.1C437.3,341.3,437.2,339.6,437.2,337.8z M775.2,267.2c-9.1-21.6-22.2-41-38.9-57.6
						c-16.7-16.7-36.1-29.7-57.6-38.9c-22.4-9.4-46.1-14.2-70.6-14.2c-24.5,0-48.3,4.8-70.6,14.2c-2.7,1.2-5.3,2.3-7.9,3.6
						c-4.3,2.1-8.5,4.3-12.6,6.7c-13.5,7.8-26,17.4-37.2,28.6c-2.3,2.3-4.6,4.7-6.8,7.2c-2.8,3-5.4,6.2-7.9,9.4
						c-4.1,5.2-7.8,10.5-11.2,16.1c-1.9,3.1-3.7,6.3-5.5,9.4c-2.7,5-5.2,10.2-7.4,15.5c-1.7,4-3.2,8-4.6,12.1
						c-0.9,2.5-1.7,5-2.4,7.5c-3.7,12.4-5.9,25.3-6.8,38.3c-0.3,3.9-0.4,7.7-0.5,11.6v1c0,3.9,0.1,7.8,0.4,11.7
						c0.2,3.2,0.5,6.4,0.9,9.5c1.9,17,6.3,33.5,13,49.4c9.1,21.6,22.2,41,38.9,57.7c16.7,16.6,36.1,29.7,57.6,38.9
						c22.4,9.4,46.1,14.2,70.6,14.2c24.5,0,48.2-4.8,70.6-14.2c21.6-9.2,41-22.2,57.6-38.9c16.2-16.2,29.1-35.1,38.1-56
						c0.2-0.6,0.5-1.2,0.7-1.7c1-2.4,2-4.8,2.9-7.2c7.6-20.2,11.4-41.5,11.4-63.4C789.5,313.3,784.7,289.5,775.2,267.2z M765.6,404
						c0,0.1,0,0.1-0.1,0.2c-1.2,2.7-2.3,5.3-3.6,8c-8.3,17.2-19.4,32.7-33,46.4c-15.7,15.7-33.9,28-54.3,36.6
						c-21.1,8.9-43.4,13.4-66.5,13.4c-23.1,0-45.4-4.5-66.5-13.4c-20.4-8.6-38.6-20.9-54.3-36.6c-15.7-15.7-28-34-36.7-54.3
						c-5.5-13.1-9.3-26.7-11.4-40.7c-0.5-3.1-0.9-6.2-1.2-9.3c-0.4-3.7-0.6-7.4-0.7-11.1c0-1.8-0.1-3.5-0.1-5.3c0-2.1,0-4.2,0.1-6.3
						c0.6-15.5,3.2-30.7,7.8-45.3c0.8-2.5,1.6-4.9,2.5-7.4c0.9-2.5,1.9-5.1,2.9-7.6c1.5-3.5,3.1-7,4.8-10.3c1.6-3.2,3.3-6.4,5.1-9.4
						c5-8.6,10.8-16.7,17.2-24.3c2.7-3.1,5.4-6.2,8.3-9.1c0.4-0.4,0.8-0.8,1.2-1.2c13-13,27.8-23.7,44-31.9
						c3.4-1.7,6.8-3.3,10.3-4.7c0.9-0.4,1.9-0.8,2.8-1.2c20.2-8.1,41.7-12.3,63.7-12.3c23.1,0,45.4,4.5,66.5,13.4
						c20.4,8.6,38.6,20.9,54.3,36.6c15.7,15.7,28,34,36.7,54.3c8.9,21,13.4,43.4,13.4,66.5C778.9,360.8,774.5,383.1,765.6,404z"/>
				</g>
				<g>
					<path class="st7" d="M809,374.3l-14-0.3c4.5,5.8,5.5,11.2,2.7,15.8c-2.8,4.7-9.5,8.5-19.6,11.4c-3.7,1.1-7.8,2-12.4,2.9
						c-12.3,2.2-27.6,3.5-45.5,3.7c-45.3,0.6-101.6-5.6-158.4-17.3c-38.3-7.9-73.6-17.6-103.2-28.3c-4.5-1.6-8.9-3.3-13.1-4.9
						c-2.5-1-4.9-2-7.3-3c-3.8-1.6-7.5-3.1-11-4.8c-2.5-1.1-4.9-2.3-7.2-3.4c-32.6-15.9-47.6-31.3-40.9-42.2c5.4-8.8,25-14.8,55-17
						c3.6-0.2,7.3-0.5,11.2-0.6c0.8-2.5,1.6-4.9,2.5-7.4c-3.9,0.1-7.7,0.3-11.3,0.5c-37.8,2.3-58.1,8.9-65.5,21
						c-8.6,14,3.1,32.9,40.6,51.2c5.2,2.5,10.7,5,16.5,7.5c3.6,1.5,7.4,3,11.3,4.6c1.8,0.7,3.6,1.4,5.4,2.1
						c4.4,1.7,8.9,3.3,13.6,4.9c29.1,10.1,63,19.2,99.4,26.7c50.9,10.4,101.4,16.6,144.7,17.6c6.4,0.2,12.5,0.2,18.5,0.1
						c15.5-0.2,29.3-1.1,41.2-2.8c4.5-0.6,8.7-1.3,12.6-2.2c18.5-3.8,30.6-9.8,35.5-17.7C813.3,386.9,812.9,380.8,809,374.3z"/>
				</g>
				<g>
					<path class="st7" d="M731.4,369.9c-0.2,0.3-0.4,0.7-0.6,1c-5.6,8.8-18,13.4-35.4,13.4c-8.3,0-17.8-1-28.3-3.2
						c-34.3-7-74.8-24.4-114.1-49.2c-38.6-24.3-71.4-52.8-92.6-80.3c-0.4-0.5-0.7-1-1.1-1.4c-2-2.7-3.9-5.3-5.6-7.8
						c-15.4-22.9-20-42.3-12.7-54c5.6-8.8,18-13.4,35.4-13.4c8.3,0,17.8,1,28.3,3.2c4,0.8,8,1.7,12.1,2.8c4.7,1.2,9.5,2.6,14.3,4.2
						c3.4-1.7,6.8-3.3,10.3-4.8c0.9-0.4,1.9-0.8,2.8-1.1c-5-1.8-10-3.5-14.8-5c-7.8-2.4-15.4-4.3-22.7-5.8
						c-37-7.5-63.3-2.3-73.9,14.6c-10.2,16.1-4.6,40.4,15.5,68.6c1,1.4,2.1,2.9,3.2,4.4c1.2,1.6,2.5,3.3,3.8,4.9
						c21.8,27.3,54.4,55.3,92.4,79.2c40.3,25.4,82,43.3,117.4,50.5c11.1,2.2,21.2,3.4,30.2,3.4c21.1,0,36.3-6.1,43.8-18
						c1.2-2,2.2-4,3-6.2H731.4z"/>
				</g>
				<g>
					<path class="st7" d="M544.1,504.1c-2.1,0-4.2-0.4-6.2-1.1c-31.1-11.3-16.7-103.3,12.6-184.2c27.1-74.8,71-150.5,102.3-150.5
						c2.1,0,4.2,0.4,6.2,1.1c17.7,6.4,18.8,38.1,16.6,63.6c-3,34-13.3,76.9-29.2,120.6C619.2,428.3,575.4,504.1,544.1,504.1z
						 M652.8,177.8c-19.7,0-60.9,55.1-93.2,144.2c-15.6,43-25.8,84.9-28.7,118.2c-3.1,35.7,3.3,51.2,10.3,53.7
						c0.9,0.3,1.8,0.5,2.9,0.5c19.7,0,60.9-55.1,93.2-144.2c15.6-43,25.8-84.9,28.7-118.2c3.1-35.7-3.3-51.2-10.3-53.7
						C654.8,178,653.8,177.8,652.8,177.8z"/>
				</g>
				<g>
					<path class="st7" d="M729.7,304.8c-34.7,0-66.3-3.3-94.6-9.9c-33.8-7.9-62.9-20.4-86.4-37.2c-40.5-29-50.4-60.5-50.8-61.9
						l9.2-2.8c0.1,0.3,9.7,30.2,47.9,57.3c35.5,25.2,103.6,53,226.5,42.5l0.8,9.6C764,304,746.5,304.8,729.7,304.8z"/>
				</g>
				<g>
					<path class="st7" d="M695.6,493.5c-67.2-50-133.6-72.4-177.4-82.4c-47.4-10.8-79.1-9.8-79.4-9.8l-0.4-9.6
						c1.3-0.1,33.3-1.1,81.9,10c44.7,10.2,112.5,33,181,84.1L695.6,493.5z"/>
				</g>
			</g>
		</g>
	</g>
	<g>
		<g>
			<path class="st6" d="M1972.1,850.4c0,10.5-4.2,20-11.1,26.8c-6.9,6.9-16.3,11.1-26.8,11.1h-309v-73.5h311.3
				c1.9,0,3.9,0.2,5.7,0.5C1959.2,818,1972.1,832.7,1972.1,850.4z"/>
		</g>
		<path class="st8" d="M1682.6,851.1c0,10.2-4.1,19.5-10.8,26.2c0,0-0.1,0.1-0.1,0.1c-6.7,6.7-16,10.9-26.3,10.9h-351.1v-73.5h351.9
			c10.2,0,19.4,4.2,26.1,11C1678.6,832.3,1682.6,841.3,1682.6,851.1z"/>
		<g>
			<path class="st4" d="M1711.8,882.8c0,1.5-0.6,2.9-1.6,3.9c-1,1-2.4,1.6-3.9,1.6h-424.4c-3,0-5.5-2.5-5.5-5.5
				c0-1.5,0.6-2.9,1.6-3.9c1-1,2.4-1.6,3.9-1.6h424.4C1709.3,877.3,1711.8,879.8,1711.8,882.8z"/>
		</g>
		<g>
			<path class="st4" d="M1711.8,820.3c0,1.5-0.6,2.9-1.6,3.9c-1,1-2.4,1.6-3.9,1.6h-424.4c-3,0-5.5-2.5-5.5-5.5
				c0-1.5,0.6-2.9,1.6-3.9c1-1,2.4-1.6,3.9-1.6h424.4C1709.3,814.8,1711.8,817.2,1711.8,820.3z"/>
		</g>
		<polygon class="st9" points="1294.4,851.5 1341.4,852.8 1294.4,853.5 		"/>
		<polygon class="st9" points="1294.4,863.1 1406.3,864.3 1294.4,865.1 		"/>
		<g>
			<path class="st4" d="M1942.3,815.2l-101.6,73.1h-215.4v-73.5h311.3C1938.5,814.8,1940.4,814.9,1942.3,815.2z"/>
		</g>
	</g>
	<g>
		<g>
			<g>
				<path class="st10" d="M729.2,888.3H514.7v-86.5h216.8c18.6,0,33.6,15.1,33.6,33.6v17C765,872.3,749,888.3,729.2,888.3z"/>
			</g>
			<path class="st8" d="M520.9,888.3H275.8v-86.5h245.9c19,0,34.3,15.4,34.3,34.3v17C556.1,872.6,540.3,888.3,520.9,888.3z"/>
			<g>
				<path class="st10" d="M571.9,888.3H268c-2.9,0-5.2-2.3-5.2-5.2v-2.5c0-2.9,2.3-5.2,5.2-5.2h303.9c2.9,0,5.2,2.3,5.2,5.2v2.5
					C577.1,886,574.8,888.3,571.9,888.3z"/>
			</g>
			<g>
				<path class="st10" d="M571.9,814.8H268c-2.9,0-5.2-2.3-5.2-5.2V807c0-2.9,2.3-5.2,5.2-5.2h303.9c2.9,0,5.2,2.3,5.2,5.2v2.5
					C577.1,812.4,574.8,814.8,571.9,814.8z"/>
			</g>
		</g>
		<polygon class="st9" points="275.8,845.1 309.8,846.5 275.8,847.4 		"/>
		<polygon class="st9" points="275.8,858.6 356.7,860.1 275.8,861 		"/>
	</g>
	<g>
		<path class="st4" d="M846.9,490.4l-31.5,375.1c0,0-3.3,22.7,13.6,22.8c27.8,0.1,138.4,0,138.4,0s-20.9-4.7-20.7-15.4
			c0.3-12.6,36.9-386,36.9-386L846.9,490.4z"/>
	</g>
	<g>
		<path class="st6" d="M976.3,881.5c-5.5,0-111.1,0.3-138.2,0c-11.8-0.1-13.9-10.5-14-17.2c0-3.2,0.4-5.6,0.4-5.6l0.8-9.7l2.1-24.8
			l1.8-22l2.4-28.2l2-23.8l22.4-266.5l136.7-3.5c0,0-15.4,156.3-26.3,270.1c-1.2,12.7-2.4,24.8-3.4,36.2c-0.3,3.6-0.7,7.2-1,10.6
			c-1,10.8-1.9,20.6-2.7,29.4c-0.4,4.6-0.8,8.9-1.2,12.8c-1.4,15.3-2.2,25.1-2.2,27c0,1.1,0.1,2.1,0.3,3
			C958.4,881.1,974.3,881.5,976.3,881.5z"/>
	</g>
	<g>
		<polygon class="st6" points="515,286.3 591.8,595 602.4,637.2 638.2,781 1303,781 1171.1,286.3 		"/>
	</g>
	<g>
		<polygon class="st4" points="515,286.3 504.4,289.9 624,791.7 638.2,781 		"/>
	</g>
	<g>
		<polygon class="st4" points="624,791.7 1284.8,791.7 1303,781 638.2,781 		"/>
	</g>
	<g>
		<rect x="856" y="881.6" class="st4" width="143.1" height="6.8"/>
	</g>
	<polygon class="st11" points="1270.8,689.8 1162.9,292.8 513.9,292.8 513.9,286.3 1171.1,286.3 1278.7,688.9 	"/>
	<g>
		<polygon class="st4" points="962.7,791.7 962,796.9 827.5,824.1 829.3,802.1 830.2,791.7 		"/>
	</g>
	<g>
		<path class="st6" d="M976.3,881.5c-5.5,0-111.1,0.3-138.2,0c-11.8-0.1-13.9-10.5-14-17.2l133.9-25.2c-1.4,15.3-2.2,25.1-2.2,27
			c0,1.1,0.1,2.1,0.3,3C958.4,881.1,974.3,881.5,976.3,881.5z"/>
	</g>
	<g>
		<polygon class="st6" points="930.2,680.8 638.2,781 602.4,637.2 		"/>
	</g>
	<g>
		<polygon class="st10" points="515,286.3 1171.1,286.3 1277.6,683.9 610.6,683.9 		"/>
	</g>
	<g>
		<path class="st4" d="M988.2,734.1c-1.9-9.8-11.3-17.7-21.1-17.7c-9.7,0-16.1,7.9-14.2,17.7c1.9,9.8,11.3,17.7,21.1,17.7
			S990.1,743.9,988.2,734.1z"/>
	</g>
	<polygon class="st1" points="1246.6,666.6 632.3,666.6 562.7,389.5 557.4,368.2 552.9,350.1 542.2,307.6 1147.7,307.6 
		1159.4,350.1 1164.4,368.2 1170.2,389.5 	"/>
	<g class="st12">
		<polygon class="st10" points="1159.4,350.1 552.9,350.1 542.2,307.6 1147.7,307.6 		"/>
	</g>
	<path class="st1" d="M567.2,326.8c-0.7-2.9,1.1-5.3,4-5.3c2.9,0,5.9,2.4,6.6,5.3c0.7,2.9-1.1,5.3-4,5.3
		C570.9,332.1,568,329.7,567.2,326.8z"/>
	<path class="st1" d="M584.9,326.8c-0.7-2.9,1.1-5.3,4-5.3c2.9,0,5.9,2.4,6.6,5.3c0.7,2.9-1.1,5.3-4,5.3
		C588.6,332.1,585.6,329.7,584.9,326.8z"/>
	<path class="st1" d="M603.9,326.8c-0.7-2.9,1.1-5.3,4-5.3c2.9,0,5.9,2.4,6.6,5.3c0.7,2.9-1.1,5.3-4,5.3
		C607.6,332.1,604.6,329.7,603.9,326.8z"/>
	<g>
		<g>
			<path class="st10" d="M645.5,624.3c0-12.3,10.3-22.2,22.9-22.2s22.9,9.9,22.9,22.2c0,12.3-10.3,22.2-22.9,22.2
				S645.5,636.6,645.5,624.3z"/>
		</g>
		<path class="st1" d="M666.6,611.2l13.2,11.4c1.2,1,1.1,2.8,0,3.8l-13,10.9c-1.7,1.4-4.3,0.3-4.3-1.9l-0.2-22.3
			C662.3,610.9,664.9,609.8,666.6,611.2z"/>
		<g class="st12">
			<path class="st10" d="M1185.5,626.9c0,1.2-0.5,2.2-1.2,3c-0.8,0.8-1.8,1.2-3,1.2h-468c-2.3,0-4.2-1.9-4.2-4.2
				c0-1.1,0.5-2.2,1.2-3c0.8-0.8,1.8-1.2,3-1.2h468C1183.6,622.7,1185.5,624.6,1185.5,626.9z"/>
		</g>
		<g>
			<path class="st10" d="M765.4,622.7v8.4h-52.1c-2.3,0-4.2-1.9-4.2-4.2c0-1.1,0.5-2.2,1.2-3c0.8-0.8,1.8-1.2,3-1.2H765.4z"/>
		</g>
	</g>
	<g>
		<polygon class="st10" points="1127.7,588.3 720.8,588.3 674.8,421.8 671.2,409 668.2,398.1 661.2,372.6 1062.1,372.6 
			1069.9,398.1 1073.2,409 1077.1,421.8 		"/>
	</g>
	<g>
		<polygon class="st1" points="1065.5,465 931.7,465 916.6,410.2 915.4,406 914.4,402.5 912.1,394.1 1043.9,394.1 1046.5,402.5 
			1047.6,406 1048.8,410.2 		"/>
		<g class="st12">
			<g class="st13">
				<polygon class="st10" points="986.7,451.4 940.4,451.4 935.1,432.4 934.7,431 934.4,429.7 933.6,426.8 979.3,426.8 980.2,429.7 
					980.5,431 981,432.4 				"/>
			</g>
			<g class="st13">
				<polygon class="st10" points="1045.8,451.4 999.4,451.4 994.2,432.4 993.8,431 993.4,429.7 992.6,426.8 1038.3,426.8 
					1039.2,429.7 1039.6,431 1040,432.4 				"/>
			</g>
			<g>
				<path class="st10" d="M1012.6,404.5h-84.8c-0.7,0-1.2-0.5-1.2-1.2l0,0c0-0.7,0.5-1.2,1.2-1.2h84.8c0.7,0,1.2,0.5,1.2,1.2l0,0
					C1013.8,403.9,1013.2,404.5,1012.6,404.5z"/>
			</g>
			<g>
				<path class="st10" d="M1015.7,411h-84.8c-0.7,0-1.2-0.5-1.2-1.2l0,0c0-0.7,0.5-1.2,1.2-1.2h84.8c0.7,0,1.2,0.5,1.2,1.2l0,0
					C1016.9,410.5,1016.4,411,1015.7,411z"/>
			</g>
		</g>
	</g>
	<path class="st14" d="M1030.4,420.5h-95.4c-0.7,0-1.4-0.6-1.4-1.4l0,0c0-0.7,0.6-1.4,1.4-1.4h95.4c0.7,0,1.4,0.6,1.4,1.4l0,0
		C1031.7,419.9,1031.1,420.5,1030.4,420.5z"/>
	<g>
		<polygon class="st1" points="1090.5,550.6 956.7,550.6 941.6,495.8 940.4,491.6 939.4,488.1 937.1,479.7 1068.9,479.7 
			1071.5,488.1 1072.5,491.6 1073.8,495.8 		"/>
		<g class="st13">
			<g class="st13">
				<polygon class="st10" points="1011.7,537 965.4,537 960.1,518 959.7,516.6 959.4,515.3 958.6,512.4 1004.3,512.4 1005.2,515.3 
					1005.5,516.6 1006,518 				"/>
			</g>
			<g class="st13">
				<polygon class="st10" points="1070.8,537 1024.4,537 1019.2,518 1018.8,516.6 1018.4,515.3 1017.6,512.4 1063.3,512.4 
					1064.2,515.3 1064.6,516.6 1065,518 				"/>
			</g>
			<g>
				<path class="st10" d="M1037.6,490.1h-84.8c-0.7,0-1.2-0.5-1.2-1.2l0,0c0-0.7,0.5-1.2,1.2-1.2h84.8c0.7,0,1.2,0.5,1.2,1.2l0,0
					C1038.8,489.5,1038.2,490.1,1037.6,490.1z"/>
			</g>
			<g>
				<path class="st10" d="M1040.7,496.6h-84.8c-0.7,0-1.2-0.5-1.2-1.2l0,0c0-0.7,0.5-1.2,1.2-1.2h84.8c0.7,0,1.2,0.5,1.2,1.2l0,0
					C1041.9,496.1,1041.4,496.6,1040.7,496.6z"/>
			</g>
			<g>
				<path class="st10" d="M1043,503.1h-84.8c-0.7,0-1.2-0.5-1.2-1.2l0,0c0-0.7,0.5-1.2,1.2-1.2h84.8c0.7,0,1.2,0.5,1.2,1.2l0,0
					C1044.2,502.6,1043.7,503.1,1043,503.1z"/>
			</g>
		</g>
	</g>
	<g>
		<g>
			<path class="st6" d="M382.4,842c0,0-7.4,3.5-9.8,9.4c-0.4,1-0.7,2.1-0.8,3.3c-0.4,7.7,0,25.3,0,25.3l-21.8-8.8l-21.8,8.8v-23.8
				c0-4.5,1.9-8.9,5.3-11.7c1.7-1.4,3.7-2.4,6-2.4H382.4z"/>
		</g>
		<g>
			<path class="st4" d="M382.4,842c0,0-7.4,3.5-9.8,9.4l-43.7,0.3c0,0,1.7-8.4,10.7-9.7H382.4z"/>
		</g>
	</g>
	<g>
		<path class="st3" d="M1445.3,815.4h263V703.5h-265.9c-24,0-43.5,19.5-43.5,43.5v22C1399,794.7,1419.7,815.4,1445.3,815.4z"/>
		<path class="st8" d="M1702.7,815.4h300.8V703.5h-301.8c-24.5,0-44.4,19.9-44.4,44.4v22C1657.2,795.1,1677.6,815.4,1702.7,815.4z"
			/>
		<path class="st3" d="M1637.9,815.4h374.9c3.7,0,6.7-3,6.7-6.7v-3.3c0-3.7-3-6.7-6.7-6.7h-374.9c-3.7,0-6.7,3-6.7,6.7v3.3
			C1631.2,812.4,1634.2,815.4,1637.9,815.4z"/>
		<path class="st3" d="M1637.9,720.3h374.9c3.7,0,6.7-3,6.7-6.7v-3.3c0-3.7-3-6.7-6.7-6.7h-374.9c-3.7,0-6.7,3-6.7,6.7v3.3
			C1631.2,717.2,1634.2,720.3,1637.9,720.3z"/>
		<polygon class="st9" points="2003.4,759.5 1961.5,761.3 2003.4,762.5 		"/>
		<polygon class="st9" points="2003.4,733.7 1903.6,735.6 2003.4,736.7 		"/>
		<g>
			<path class="st3" d="M1904.6,735.2c0,0,6.6,3.5,8.8,9.4c0.4,1,0.6,2.1,0.7,3.3c0.4,7.7,0,25.3,0,25.3l19.5-8.8l19.4,8.8v-23.8
				c0-4.5-1.7-8.9-4.8-11.7c-1.5-1.4-3.3-2.4-5.4-2.4H1904.6z"/>
			<path class="st5" d="M1904.6,735.2c0,0,6.6,3.5,8.8,9.4l39,0.3c0,0-1.5-8.4-9.6-9.7H1904.6z"/>
		</g>
	</g>
	<g>
		<path class="st15" d="M1366.1,578.5c0,0-13.9,7.9-17.8,7.9c-3.9,0-19.2-3-23.4-0.8c-4.3,2.2-12,10.9-13.4,13.8
			c-2.6,5.1,10.5,2.9,16.6-1.5c0.9-0.6,2-0.9,3.1-0.6c3.2,0.7,9.8,1.9,13.1,0.7c4.3-1.6,27-3.4,27-3.4L1366.1,578.5z"/>
		<path class="st16" d="M1350.4,863.9c0,0-1.5,24.1-6.2,24.5c-0.6,0-23.7,0-23.7,0l-29.4-0.2c0,0,0.2-7.1,8.8-8.6
			c8.6-1.5,23-7.5,28.2-18.9C1333.6,848.8,1350.4,863.9,1350.4,863.9z"/>
		<g>
			<path class="st4" d="M1471.8,470.8c0,0-14.4,102.4-38.3,111.6c-11.8,4.5-63.8,14.8-79.2,15.8c0,0-3.8-3.1-2.9-15.5
				c0,0,54.5-20,62.2-30.9c11.5-16.2-7.2-66.2,7.3-81.4C1435.5,455.2,1459.9,448.7,1471.8,470.8z"/>
		</g>
		<g>
			<path class="st17" d="M1467,686.6c-4.2,7.1-9.1,13.8-14.1,20.1c-15.5,19.5-32.3,35.7-35.3,50.9c-0.6,3-1.5,6.3-2.7,9.8
				c-1.2,3.5-2.7,7.2-4.5,11c-6.6,14.3-16.4,30.3-26.2,44.8c-17,25.1-32.9,46.1-32.9,46.1L1322,868c1.2-2.9,13.9-37.6,31-80
				c6.9-17.2,14.3-35.5,21.4-53.2c0.9-2.4,1.9-4.7,2.8-7c2.2-5.4,4.3-10.7,6.4-15.9c16-39.8,28.8-71.5,28.8-71.5s64-24.3,70.7-8.5
				C1488.6,644.7,1484.2,657.4,1467,686.6z"/>
		</g>
		<path class="st16" d="M1418.1,794.9c0,0,20.3,13.1,18.4,17.3c-0.3,0.6-11.5,20.7-11.5,20.7l-14.5,25.6c0,0-6.1-3.6-3.2-11.9
			c2.9-8.2,4.6-23.8-2.8-33.9C1396.7,802.2,1418.1,794.9,1418.1,794.9z"/>
		<g>
			<path class="st10" d="M1408.1,817.9c0,0,12.7-11.2,15-19.4c0,0-52.4-62.8-63.8-76.8c-0.5-0.6-0.4-1.4,0.3-2.1
				c8.6-9.7,103.9-29.3,116.4-48.7c4.3-6.7,6.7-13,8-18.6c2.8-11.8,0.6-20,0.6-20l-95.2-2.8c0,0-79.3,49.4-88.2,83
				C1292.2,746.1,1408.1,817.9,1408.1,817.9z"/>
		</g>
		<g>
			<path class="st17" d="M1359.6,719.5c8.6-9.7,103.9-29.3,116.4-48.7c4.3-6.7,6.7-13,8-18.6v-12l-40.5-6.4c0,0-11.5,35.3-45.5,48.5
				C1366.3,694.8,1360.3,716.8,1359.6,719.5z"/>
		</g>
		<path class="st15" d="M1415.5,464.4c19.3,5,51.2-12.9,51.2-12.9s-12.4-8.3-17-26.6c-0.2-0.9-0.4-1.9-0.6-2.8
			c-2-0.4-5.8-1.2-9.9-2.1l-14.7,13.2c0,0,0.3,5.5,2.2,14.9c0.3,1.6,0.7,3.4,1.1,5.3C1419.8,458.2,1415.5,464.4,1415.5,464.4z"/>
		<g>
			<path class="st6" d="M1487.1,544.2c-2.8,37.1,0.9,93.5-2.3,103.3c-2.7,8.4-33.5,3.4-45.8,0.6c-4.5-1-10.1-2.5-15.7-4.3
				c-15.9-4.9-33.1-11.9-35-17.1c-0.1-0.2-0.1-0.4-0.2-0.6c-0.2-0.8-0.1-1.5,0-2.2c0.6-2.7,3-5.5,3.3-12.1c0.3-7.3,0.3-16,0.5-25.3
				c0-1,0-2.2,0.1-3.2l0-0.4c0-0.2,0-0.4,0-0.6c0.3-10.4,0.8-21.3,1.4-32.1c0.4-6.8,0.9-13.5,1.4-19.9c1.4-16.6,3.2-31.4,5.7-40.7
				c4-15.2,12.9-25.2,21-32.4l5.9-5c6.5,1.4,14.3,0.5,21.2-2.8c7.6-3.6,10.2-6.2,11.5-5.2C1477.8,457.6,1490.3,498.9,1487.1,544.2z"
				/>
		</g>
		<g>
			<path class="st4" d="M1423.3,643.8c-15.9-4.9-33.1-11.9-35-17.1c-0.1-0.2-0.1-0.4-0.2-0.6c0-0.7,0-1.5,0-2.2
				c0.6-2.7,3-5.5,3.3-12.1c0.3-7.3,0.3-16,0.5-25.3c0-1,0-2.2,0.1-3.2l0-0.4c0-0.2,0-0.4,0-0.6l64.1-81.7
				C1456.3,500.6,1499.4,590.4,1423.3,643.8z"/>
		</g>
		<path class="st18" d="M1424.5,433.1c0,0,0.3,5.5,2.2,14.9c14.4-4.6,20.9-17.6,23.1-23.1c-0.2-0.9-0.4-1.9-0.6-2.8
			c-2-0.4-5.8-1.2-9.9-2.1L1424.5,433.1z"/>
		<path class="st15" d="M1422.5,441.4c0,0,31.3-5.2,27.8-24.7c-3.6-19.5-1.9-33.2-22.1-30.7c-20.2,2.5-22.7,10.6-23.1,17.4
			C1404.8,410.2,1414.3,442.3,1422.5,441.4z"/>
		<g>
			<g>
				
					<rect x="1284.6" y="534.2" transform="matrix(0.9511 -0.309 0.309 0.9511 -113.8717 425.4452)" class="st10" width="2.9" height="76.1"/>
			</g>
			<g>
				
					<rect x="1296.4" y="603.2" transform="matrix(0.9998 -2.135566e-02 2.135566e-02 0.9998 -12.6274 28.6757)" class="st10" width="79.8" height="4.8"/>
			</g>
		</g>
		<path class="st15" d="M1374.6,610.9c0,0-25.6,6.8-35.3,6.1c-9.6-0.7-17.6-5.3-18.8-7.7c-1.2-2.4-3.8-6.6,2.8-5.8
			c6.5,0.8,15.5,2.2,15.8,0.9c0.3-1.3-5.3-1.1-5.3-1.1s-1.7-2.5,0.4-2.6c2.1-0.1,8.4-1.8,10.7-0.6c2.3,1.2,4.5,5.4,6.1,5.3
			c1.7-0.2,21.5-8.9,21.5-8.9L1374.6,610.9z"/>
		<g>
			<path class="st6" d="M1465.5,475c0,0-3,103.4-25.7,115.1c-11.2,5.8-61.8,21.7-77,24.4c0,0-4.1-2.6-4.5-15.1
				c0,0,52-25.9,58.5-37.6c9.7-17.4-14.4-65-1.7-81.7C1427.7,463.5,1451.2,454.3,1465.5,475z"/>
		</g>
		<g>
			<path class="st10" d="M1449.7,424.9c0,0,0.4-6.7-3.8-10.5c0,0,1.4-6.7-1.2-7.8c-2.6-1.1-3.2,4.5-4.4,3.6
				c-1.2-0.9-6.6-5.1-8.9-11.3c-2.3-6.2-23.5,1.3-26,2.4c-2.5,1.1-10.4-3-12-6.3c0,0,4.4-3.5,6.4-6.2c2-2.6,15.9-20.5,35.3-15.4
				c19.4,5.1,22.1,14.3,21,22.3C1455,403.7,1457.6,422.2,1449.7,424.9z"/>
		</g>
	</g>
	<path class="st19" d="M1660.2,510.7c0,0,9.9,14.7,15.6,45.6c5,27.1,9.3,37.1,16.5,42.6c7.2,5.6,47.1,22,47.1,22l-3,7
		c0,0-58.6-8-65.2-17.8c-6.6-9.8-31.7-67.6-29.7-81C1643.6,515.9,1660.2,510.7,1660.2,510.7z"/>
	<path class="st2" d="M1803.7,833.8c-0.5,5.7,7.4,7.1,16.6,7.6c9.2,0.5,6.4,2.3,19.1,4.6c12.6,2.3,17.7-1.2,18.6-2.9
		c0.8-1.5-5.1-3.9-11.3-6.6c-0.8-0.3-1.6-0.7-2.4-1c-7-3.1-11-9.4-16.5-15.3c-5.2-5.5-10.1-23.3-10.1-23.3l-17.2-3.7
		c0,0,4.8,16,6.5,22.8c1,4-0.5,8.5-1.8,11.9C1804.5,829.9,1803.8,831.8,1803.7,833.8z"/>
	<path class="st20" d="M1820.3,841.4c9.2,0.5,6.4,2.3,19.1,4.6c12.6,2.3,17.7-1.2,18.6-2.9c0.8-1.5-5.1-3.9-11.3-6.6l-0.1,0.1
		c0,0-8.9,3-19.1,0.2c-8.4-2.3-16.4-7.3-22.2-8.9c-0.7,1.9-1.4,3.8-1.6,5.8C1803.1,839.5,1811.1,840.9,1820.3,841.4z"/>
	<g>
		<path class="st17" d="M1632.8,630.4c0,0,114-8.6,135.4,5c21.5,13.5,55.9,171.3,55.9,171.3s-2.1,1.7-6.9,2.2
			c-4.4,0.5-14.1-2.1-14.1-2.1s-49.5-70.6-52.9-88.4c-3.5-17.8-2.6-33.6-10.6-34.1c-7.9-0.4-106.8,12-121.8-14.3
			c-15-26.4-2.6-52.4-2.6-52.4L1632.8,630.4z"/>
	</g>
	<path class="st2" d="M1760,852.1c-0.5,5.7,7.4,7.1,16.6,7.6c9.2,0.5,6.4,2.3,19.1,4.6c12.6,2.3,17.7-1.2,18.6-2.9
		c0.8-1.5-5.1-3.9-11.3-6.6c-0.8-0.3-1.6-0.7-2.4-1c-7-3.1-11-9.4-16.5-15.3c-5.2-5.5-10.1-23.3-10.1-23.3l-17.2-3.7
		c0,0,4.8,16,6.5,22.8c1,4-0.5,8.5-1.8,11.9C1760.9,848.2,1760.2,850.1,1760,852.1z"/>
	<path class="st20" d="M1776.7,859.7c9.2,0.5,6.4,2.3,19.1,4.6c12.6,2.3,17.7-1.2,18.6-2.9c0.8-1.5-5.1-3.9-11.3-6.6l-0.1,0.1
		c0,0-8.9,3-19.1,0.2c-8.4-2.3-16.4-7.3-22.2-8.9c-0.7,1.9-1.4,3.8-1.6,5.8C1759.5,857.8,1767.5,859.2,1776.7,859.7z"/>
	<g>
		<path class="st10" d="M1610.5,637.4c0,0,101.3,4.8,122.2,19.2c20.9,14.4,49.2,173.3,49.2,173.3s-2.2,1.6-6.9,1.9
			c-4.4,0.3-14-2.7-14-2.7s-46.7-72.5-49.5-90.4c-2.8-17.9-1.3-33.7-9.2-34.5c-7.9-0.7-107.2,7.9-121.1-19.1
			C1567.1,658.4,1610.5,637.4,1610.5,637.4z"/>
	</g>
	<path class="st3" d="M1646.6,414.6c-4.5-3-10.1-3.6-14-3.7c1.1-1,3.1-1.2,3.1-1.2c-2.4-0.5-8,1.5-8,1.5
		c-32.9-15.3-41.5,34.1-41.6,45.7c-0.1,11.6-0.9,24.9-18.4,34.1c-34.5,18.2-8.9,55.6-8.9,55.6c0.3,0.2,23,30.3,23,30.3
		c-0.2-9.4,36.8-59.2,60.3-72.4c6-7.7,8.9-21.8,9.1-22.9c-1.7,11.2-4,17.4-6,20.9C1665.4,486.3,1658.5,422.5,1646.6,414.6z"/>
	<path class="st2" d="M1606.3,493.7c0,0,9.4-0.9,18.9,0c6.4,0.6,12.8,2.6,16.4,4.1c8.9,3.7,8,19.5-10.7,16.6
		C1612,511.5,1604.9,498.4,1606.3,493.7z"/>
	<path class="st2" d="M1640.7,505.2c0.1,0.1,2.7,13.6-9.6,13.1c-8-0.4-25.4-10.1-23.9-17c0.7-3.3,6.8-11.8,8-31.2l1.5,0.4l24.6,6.6
		c0,0-1.1,7.8-1.6,15.2C1639.3,498.6,1639.3,504.5,1640.7,505.2z"/>
	<path class="st19" d="M1641.4,477.1c0,0-1.1,7.8-1.6,15.2c-13.9-1.3-20.5-14.6-23-21.8L1641.4,477.1z"/>
	<path class="st3" d="M1614.3,467.6c0,0-6.6-12.1-7.6-22.1c-0.8-7.1,4.6-33.1,30.6-27.6c0,0,7.6,1.3,14.4,6.6
		c5.5,4.2,13.1,13.1,2.4,35.3l-2.9,7.6L1614.3,467.6z"/>
	<path class="st2" d="M1645.6,484.4c0,0-33.1-1.7-31.7-22.3c1.3-20.6-2-34.7,19.2-34.5c21.2,0.2,24.8,8.3,26,15.3
		C1660.2,450,1654.2,484.3,1645.6,484.4z"/>
	<path class="st3" d="M1648.1,428.2c0,0-10.7,23.6-24.8,26.2c-14.1,2.6-19.9-1.5-19.9-1.5s11.2-7.8,14.4-22.4
		C1617.8,430.6,1642,416.3,1648.1,428.2z"/>
	<path class="st3" d="M1645.7,430c0,0,6.4,5.8,7.7,11.2c1.3,5.4,1.3,16.2,4.5,16c0,0,7.9-16,0.9-25.8
		C1651.3,421.1,1645.7,430,1645.7,430z"/>
	<g>
		<path class="st10" d="M1678.7,632.1c-2.7,3.2-11,4.2-20,5.7c-7,1.2-14.4,2.6-19.7,5.7c-11.9,7-50.9,30.7-62.3,29.6
			c-4.4-0.4-3.6-8.9-0.9-20.1c4.2-17.7,13.1-42.3,13.1-53c0-5.8,1.9-19.7,4.5-35.4c0.2-1.3,0.4-2.6,0.6-3.9
			c5.1-30.7,12.2-66.9,12.2-66.9s7.9,17.3,23.4,17.3c15.4,0,11.9-13.2,11.9-13.2s14.1,1.7,17.4,5.2c3.3,3.6,11.8,19.1,13.5,23.3
			c0,0,0.3,5.4-13,7.9c0,0,3.2,14.6,3.6,24.3c0.3,7.2-4.9,29.7-6.4,43.7c-0.5,5-0.6,8.8,0.2,10.6c1,2.3,4.4,4.5,8.2,6.7
			C1672.5,624.1,1681.8,628.3,1678.7,632.1z"/>
	</g>
	<g>
		<path class="st17" d="M1665,619.7c8.5,14.6-23.2,19-28.4,22c-11.9,7-48.4,32.4-59.8,31.3c-4.4-0.4-3.6-8.9-0.9-20.1
			c4.2-17.7,13.1-42.3,13.1-53c0-5.8,1.9-19.7,4.5-35.4l13.7-13.2c0,0,14.7,38.1,28.8,44.3c7.4,3.3,15,5.4,20.7,6.7
			c-0.5,5-0.6,8.8,0.2,10.6C1657.8,615.2,1661.2,617.5,1665,619.7z"/>
	</g>
	<rect x="1682.2" y="630.5" class="st5" width="31.9" height="3.8"/>
	<path class="st5" d="M1707.3,633.7c0.3-1.2,29.3-46.8,29.3-46.8h64.5l-32.4,45.6L1707.3,633.7z"/>
	<path class="st3" d="M1710.1,634.3c0.3-1.2,29.4-47.3,29.4-47.3h61.7l-30.8,47.3H1710.1z"/>
	<path class="st5" d="M1764.5,610.8c-0.6,1.8-2.6,3.3-4.5,3.3c-1.8,0-2.8-1.5-2.2-3.3c0.6-1.8,2.6-3.3,4.5-3.3
		C1764.1,607.4,1765.1,608.9,1764.5,610.8z"/>
	<path class="st2" d="M1691.7,614.3c-1.8-0.8-15.8,1.8-19.8,2.5c-12.7-2.5-54.3-10.8-56.3-13.4c-2.4-3.1-7.6-96.7-13.6-98.3
		c0,0-11.8-7.1-23.1,6.4c-11.4,13.5,8.1,110.4,24.9,115.3c18.7,5.5,72.8-0.9,72.8-0.9v0c4.4,1.5,12.2,2.4,16.3,3.7
		c5.4,1.8,10.3,0.3,11.5-1.8C1705.6,625.8,1693.8,615.2,1691.7,614.3z"/>
	<g>
		<path class="st10" d="M1606.3,493.7c0,0-24.1,2.2-31.2,10.1c-7,7.9-9.1,29.5-9.1,29.5s21.3,17.2,46.9,10.5L1606.3,493.7z"/>
	</g>
	<path class="st1" d="M2130.6,893.5H78.8c-1.2,0-2.2-1-2.2-2.2v-1.1c0-1.2,1-2.2,2.2-2.2h2051.8c1.2,0,2.2,1,2.2,2.2v1.1
		C2132.8,892.5,2131.8,893.5,2130.6,893.5z"/>
	<g>
		<defs>
			<polygon id="SVGID_1_" points="1127.7,588.3 720.8,588.3 674.8,421.8 671.2,409 668.2,398.1 661.2,372.6 1062.1,372.6 
				1069.9,398.1 1073.2,409 1077.1,421.8 			"/>
		</defs>
		<clipPath id="SVGID_2_">
			<use xlink:href="#SVGID_1_"  style="overflow:visible;"/>
		</clipPath>
		<path class="st21" d="M908.5,480c0,0,2.3-8.9,6-9.4c3.8-0.5,9.4-2.9,10.6,0.1c1.2,3-9,18.5-13,14.7
			C908.1,481.6,908.5,480,908.5,480z"/>
		<path class="st21" d="M812.7,454.6c0,0,5.9,14.1,6.1,18.3c0.2,4.2-13.2,6.5-20,3c-6.8-3.5-5.7-6.6-5.7-6.6s-3.1-14.3-2.6-15.5
			C791,452.8,812.7,454.6,812.7,454.6z"/>
		<path class="st22" d="M906.9,478.3c0,0-24,29.8-25,33.7c-13.8-16-35-36.2-35.9-37c-2.7-2.2-7.6-3.5-12.5-4.4
			c-6.8-1.1-13.6-1.2-15.2-1.3c-0.2,0-0.3,0-0.3,0c0.6,2.4-2,6.8-7.6,7.2c-6.7,0.4-16.2-3.2-17.3-7.2c-0.1-0.2-15.8,0.8-13,30.2
			c0,0.4,0.1,0.8,0.1,1.3c1.1,9.9,4.2,22.8,10.5,39.8c2.3,6.1,9.8,51.4,12,51.5c0,0,1.9,1,6.2,2.2c2.2,0.6,5.2,1.3,8.8,2
			c7.6,1.4,18.4,2.7,32.9,2.7c26.5,0,33.2-7.5,33.2-7.5c1.4,0-14.7-36.5-23.2-67.8c8.8,5.1,18.1,10,19.1,10.6
			c4.4,2.7,7.5,3.8,9.7,3.9c0,0,0,0,0,0s0.1,0,0.3,0c1.3,0,2.2-0.3,2.9-0.9c2-1,4.7-3.4,7.5-8.4c3.6-6.7,8-20.2,11.7-29.3
			c2.1-5,3.6-10.5,5.7-15C917.4,484.8,912.3,479.3,906.9,478.3z"/>
		<path class="st23" d="M820.9,551.8c5.3,21.9-4.8,35.9-12,42.6c-4.3-1.2-6.2-2.2-6.2-2.2c-2.2,0-9.7-45.4-12-51.5
			c-6.3-17-9.5-29.9-10.5-39.8c0.6-0.7,0.9-1,0.9-1S813.1,519.2,820.9,551.8z"/>
		<path class="st24" d="M813.3,456.2c0,0-3.4,7.7-9.1,7.7c-5.7,0.1-13.6-7.6-13.6-7.6L813.3,456.2z"/>
		<path class="st21" d="M813.8,455.9c-1.2,1.2-4.1,2.8-6.6,3.9c-1.9,0.8-4.2,0.9-6.5,0.1c-3.5-1.1-8.7-2.8-10.1-3.5
			c-3.3-1.7-4.1-5.3-5.6-10.2c-1.7-5.8-3.5-10.4-3.8-13.7c-0.3-4,1.6-6.3,8.6-6.9c12.8-1.1,19.1,2.1,20.5,6.5
			c0.4,1.2,0.7,2.3,1.1,3.4C815.5,449.1,815.7,453.9,813.8,455.9z"/>
		<path class="st25" d="M810.8,433.7c0,0-3-3.2-6.7-1.9c-3.7,1.2-3.2,4.7-10.2,4.1c-7-0.5-9.5-3.8-10.3-2.2
			c-0.8,1.6,1.1,11.2,1.1,11.2s-22.2-31.5,5.7-31.5c0,0,28.4-1.7,23.1,30.3L810.8,433.7z"/>
		<path class="st21" d="M869.6,463.5L869.6,463.5C869.6,463.5,869.6,463.5,869.6,463.5z"/>
		<path class="st26" d="M872.6,418.5c0.1-0.5,0.2-0.9,0.2-0.9C872.7,417.9,872.7,418.2,872.6,418.5z"/>
		<polygon class="st25" points="917.2,514.7 912.6,514 925.5,441.1 925.5,441.1 		"/>
		<path class="st21" d="M910.8,477.3c0,0,4.2,4.2,4.9,1.9c0.7-2.3,6.1-4.9,6.5-6c0.4-1.1-6.2-1.5-7.1-1.6
			C914.1,471.6,910.1,475.8,910.8,477.3z"/>
		<path class="st25" d="M802.7,475.7c0.4,0.1,5.3-1.2,12-0.4c0,0,0.5,6.1-1.2,6.6c-1.7,0.5-5.4,0.1-6.2,0
			C806.6,481.7,802.7,475.7,802.7,475.7z"/>
		<path class="st25" d="M807.3,481.8c0,0,20.4,85.7,25.8,91.1c5.4,5.5,9.7,7.2,9.7,7.2s4.3-5.2,4.2-7.7
			c-0.1-2.5-33.6-90.6-33.6-90.6H807.3z"/>
		<path class="st21" d="M835.9,565.4c0,0,13.9,4.5,18,4.7c4.2,0.2,9.1-7,7.5-9.1c-0.5-0.6-6.5,2.2-8.3,1.2c-2.6-1.4-6-0.3-8.1-0.1
			c-2.1,0.2-10.2-4.3-10.2-4.3L835.9,565.4z"/>
		<path class="st22" d="M840.8,557.9c-22.5-15.9-38.4-23.9-43.3-26.3c1.4-11.8,0.8-30.5-4.4-62.2c0,0-21.9,2.4-24.2,10.1
			c-3.4,11,4.6,41.7,11.1,66.2c0,0,0.1,0.1,0.3,0.2c0.5,0.8,1.1,1.6,2.1,2.4c9.3,7.5,58.6,21.8,58.6,21.8
			C844.6,564.9,840.8,557.9,840.8,557.9z"/>
		<polygon class="st27" points="850.9,560 813.9,549 812.7,554.3 852.3,565.5 		"/>
		<polygon class="st28" points="869.6,545.8 850.9,560 852.3,565.5 873.8,550.8 		"/>
		<polygon class="st25" points="852.7,567.1 810.5,554.2 810.7,553.1 852.3,565.5 		"/>
		<polygon class="st25" points="852.7,567.1 876.6,550.5 875.7,549.5 852.3,565.5 		"/>
		<path class="st25" d="M802.7,475.7c0,0-9.7-10-10.5-9.4c-0.8,0.7-1.8,2.9-1.3,3.5c0.5,0.6,13,7.7,13,7.7L802.7,475.7z"/>
		<path class="st25" d="M814.8,475.2c0,0,1.9-10,2.3-9.6c0.3,0.4,3.4,3.1,3.6,3.8c0.1,0.7-3.9,6.3-5.8,6.8
			C812.9,476.7,814.8,475.2,814.8,475.2z"/>
		<g class="st29">
			<path class="st2" d="M2914.8,465.3c0,0,5.4-10.3,9.8-10.8c4.5-0.5,11.7-3.3,12.2,0.2c0.4,3.5-16.1,21.4-19.6,16.9
				C2913.7,467.2,2914.8,465.3,2914.8,465.3z"/>
			<path class="st30" d="M2813.7,453.1c0,0,7.1,28.8,17.7,50.4c3,6,31.6,23.3,33.3,24.5c18,13.1,17.7-6.1,17.7-6.1
				c1-12.7-36.8-61-38.1-62.3c-2.4-2.5-7.6-4.1-13.1-5C2822.7,453.1,2813.7,453.1,2813.7,453.1z"/>
			<path class="st16" d="M2776.2,809.5c0,0,3.4,5.5,3.5,11.9c0,1.4-1.1,2.6-2.6,2.6h-21.3c-2.1,0-3.6-1.9-3.1-3.9
				c1-3.9,3.1-9.8,7.4-13.3C2766.9,801,2776.2,809.5,2776.2,809.5z"/>
			<path class="st16" d="M2809.8,803.8c0,0,1.2,19.7,5,20c0.5,0,19.3,0,19.3,0l24.3,0c0,0-0.4-5.9-7.4-7.2
				c-7-1.2-18.8-6.2-23.1-15.5C2823.5,791.5,2809.8,803.8,2809.8,803.8z"/>
			<g>
				<path class="st31" d="M2799.6,682c0.9,11,1,19.6-0.2,23.7c-5,18.3,9,101.1,9,101.1c10.4,5,25.1-0.1,25.1-0.1
					c-0.9-11.5,4.6-114.1,9.6-176.8c2.1-26.3,3.7-44.7,3.7-44.7l-62.1-7.2C2784.9,578.1,2796.7,644,2799.6,682z"/>
				<path class="st31" d="M2784.9,578.1c0,0,11.8,65.9,14.8,103.9l43.6-52c2.1-26.3,3.7-44.7,3.7-44.7L2784.9,578.1z"/>
			</g>
			<path class="st32" d="M2815.3,592.1c0,0-31.4,182.9-36.8,218.4c0,0-11.8,3.3-23.8-1.8c0,0-1.6-85,2.6-110.6
				c4.1-25.6-2.2-104.8,4.4-112.1C2768.3,578.6,2815.3,592.1,2815.3,592.1z"/>
			<path class="st2" d="M2812.1,436.1c0,0,2.4,16.3,1.4,21.1c-1.1,4.9-17.2,7.5-24,3.5c-6.8-4-4.6-7.6-4.6-7.6s0.9-16.5,1.8-17.9
				C2787.7,434,2812.1,436.1,2812.1,436.1z"/>
			<path class="st30" d="M2851.7,594c0,0-10.1,8.7-40.6,8.7c-16.7,0-28.7-1.5-37.1-3.1c-3.9-0.8-7.1-1.6-9.5-2.3
				c-4.6-1.4-6.5-2.6-6.5-2.6c-2.6,0,2.8-52.3,2.1-59.4c-2.1-19.6-1.6-34.5,0.2-45.9c0-0.5,0.1-1,0.2-1.5
				c5.9-33.9,24.4-35.1,24.4-34.8c0,4.6,9.8,8.8,17.7,8.3c6.7-0.5,11-5.5,11-8.3c0-0.1,2.2,0.3,5.5,0.8c16.9,2.9,26.7,28,26.7,61.5
				C2845.9,551.6,2853.3,594,2851.7,594z"/>
			<path class="st33" d="M2791.6,548.1c-0.7,25.3-16.6,41.4-27,49.2c-4.6-1.4-6.5-2.6-6.5-2.6c-2.6,0,2.8-52.3,2.1-59.4
				c-2.1-19.6-1.6-34.5,0.2-45.9c0.9-0.8,1.4-1.2,1.4-1.2S2792.6,510.6,2791.6,548.1z"/>
			<path class="st34" d="M2812.3,438c0,0-6.3,8.8-12.9,8.9c-6.6,0.1-13.4-8.8-13.4-8.8L2812.3,438z"/>
			<path class="st2" d="M2813,437.5c-1.7,1.4-5.6,3.2-8.8,4.5c-2.4,0.9-5.1,1-7.5,0.2c-3.7-1.3-9.2-3.2-10.6-4.1
				c-3.3-2-3.1-6.1-3.3-11.7c-0.2-6.7-0.9-12-0.1-15.8c0.9-4.6,3.8-7.2,12-8c15.1-1.3,21.3,2.5,21.6,7.5c0.1,1.4,0.1,2.6,0.2,3.9
				C2817,429.7,2815.8,435.3,2813,437.5z"/>
			<path class="st35" d="M2816.4,411.9c0,0-2.5-3.6-7.1-2.2c-4.6,1.4-5.1,5.4-13,4.8c-7.9-0.6-9.8-4.4-11.2-2.5
				c-1.4,1.9-2.2,12.9-2.2,12.9s-15.9-36.3,16.3-36.3c0,0,33.3-2,17.3,34.9V411.9z"/>
			<path class="st30" d="M2784.9,453.1c0,0-26,2.8-31,11.6c-7.3,12.7-7.6,48.1-7.6,76.4c0,0,11,8.4,18.6-4
				C2772,525.4,2779.6,503.4,2784.9,453.1z"/>
			<path class="st2" d="M2875,446.3L2875,446.3C2875,446.4,2875,446.3,2875,446.3z"/>
			<path class="st36" d="M2892.4,394.5c0.3-0.6,0.5-1,0.5-1C2892.6,393.7,2892.5,394.1,2892.4,394.5z"/>
			<g>
				<polygon class="st35" points="2922.9,498.5 2918.4,497.8 2934,413.5 2935.5,413.7 				"/>
			</g>
			<path class="st2" d="M2917.6,465.9c0,0,6.1,1.8,6.3-0.9c0.1-2.7,5.6-8.4,5.7-9.7c0.1-1.3-7.6,1.9-8.7,2.4
				C2919.8,458.2,2916.4,464.8,2917.6,465.9z"/>
			<path class="st30" d="M2923.5,470.9c0,0-4.2-6.3-10-7.5c0,0-12.8,13.6-27.8,25.3c-11,8.6-14.2,18.7-15.4,25
				c-2.9,14.7,4.4,18.9,4.4,18.9s5.8,0.7,15.1-10.7c6.3-7.7,15.4-23.3,22.5-33.8C2916.2,482.4,2919.7,476.1,2923.5,470.9z"/>
			<path class="st37" d="M2794.1,460.4c0.4,0.1,6.5-1.4,14-0.5c0,0-1.3,7-3.5,7.6c-2.2,0.6-6.3,0.1-7.1,0S2794.1,460.4,2794.1,460.4
				z"/>
			<path class="st37" d="M2797.5,467.5c0,0-3,98.8,1.6,105.1c4.6,6.3,9,8.3,9,8.3s6.5-6,7.2-8.8c0.7-2.9-10.7-104.5-10.7-104.5
				H2797.5z"/>
			<path class="st2" d="M2804.6,563.9c0,0,14.6,5.2,19.4,5.4c4.8,0.2,12.6-8,11.4-10.5c-0.4-0.7-8.2,2.5-9.9,1.4
				c-2.6-1.7-6.8-0.4-9.3-0.1c-2.5,0.3-10.4-4.9-10.4-4.9L2804.6,563.9z"/>
			<path class="st30" d="M2769.1,523.9c0,0,17.8,8.8,43.5,31.2c0,0,2.2,8.1-3.6,14.1c0,0-52.4-16.6-60.8-25.2
				C2739.8,535.4,2761.2,522.2,2769.1,523.9z"/>
			<g>
				<polygon class="st8" points="2823.5,557.7 2784.3,545 2781.3,551.1 2823.5,563.9 				"/>
				<polygon class="st9" points="2849.5,541.2 2823.5,557.7 2823.5,563.9 2852.9,547 				"/>
				<g>
					<polygon class="st35" points="2823.5,565.7 2778.8,550.9 2779.3,549.6 2823.5,563.9 					"/>
				</g>
				<g>
					<polygon class="st35" points="2823.5,565.7 2856.2,546.6 2855.4,545.5 2823.5,563.9 					"/>
				</g>
			</g>
			<path class="st37" d="M2794.1,460.4c0,0-8.1-11.6-9.2-10.8c-1.1,0.8-2.9,3.3-2.6,4c0.3,0.7,12.6,8.8,12.6,8.8L2794.1,460.4z"/>
			<path class="st37" d="M2808.1,459.9c0,0,5.3-11.5,5.6-11.1c0.3,0.4,3,3.6,2.9,4.4c-0.1,0.8-6.4,7.3-8.7,7.8
				C2805.6,461.5,2808.1,459.9,2808.1,459.9z"/>
		</g>
	</g>
</g>
</svg>
