<?xml version="1.0" encoding="utf-8"?>
<!-- Generator: Adobe Illustrator 22.1.0, SVG Export Plug-In . SVG Version: 6.00 Build 0)  -->
<svg version="1.1" id="Layer_1" xmlns="http://www.w3.org/2000/svg" xmlns:xlink="http://www.w3.org/1999/xlink" x="0px" y="0px"
	 viewBox="0 0 500 500" style="enable-background:new 0 0 500 500;" xml:space="preserve">
<style type="text/css">
	.st0{fill:#F89E23;}
	.st1{opacity:0.1;fill:#011627;enable-background:new    ;}
	.st2{fill:#FFFFFF;}
	.st3{fill:#C7C7C7;}
</style>
<g id="freepik--Clock--inject-229">
	<polygon class="st0" points="142.7,389.2 128.4,427.7 145.1,427.7 176.1,406.6 	"/>
	<polygon class="st1" points="142.7,389.2 128.4,427.7 145.1,427.7 176.1,406.6 	"/>
	<polygon class="st0" points="357.3,389.2 371.6,427.7 354.9,427.7 323.9,406.6 	"/>
	<polygon class="st1" points="357.3,389.2 371.6,427.7 354.9,427.7 323.9,406.6 	"/>
	<circle class="st0" cx="250" cy="260" r="171"/>
	<circle class="st1" cx="247.9" cy="257.2" r="163.2"/>
	<circle class="st2" cx="250" cy="259.3" r="152.9"/>
	<rect x="248.5" y="117.5" class="st3" width="2.9" height="23.2"/>
	<rect x="183.4" y="134.9" transform="matrix(0.866 -0.5 0.5 0.866 -48.4732 112.0815)" class="st3" width="3" height="23.2"/>
	<rect x="135.7" y="182.6" transform="matrix(0.5 -0.866 0.866 0.5 -99.5956 215.8606)" class="st3" width="2.9" height="23.2"/>
	<rect x="108.2" y="257.8" class="st3" width="23.2" height="3"/>
	<rect x="125.6" y="322.9" transform="matrix(0.866 -0.5 0.5 0.866 -143.8168 112.0656)" class="st3" width="23.2" height="3"/>
	
		<rect x="173.3" y="370.6" transform="matrix(0.4995 -0.8663 0.8663 0.4995 -229.7669 346.4114)" class="st3" width="23.2" height="3"/>
	<rect x="248.5" y="377.9" class="st3" width="2.9" height="23.2"/>
	<rect x="313.6" y="360.4" transform="matrix(0.866 -0.5 0.5 0.866 -143.7926 207.3824)" class="st3" width="3" height="23.2"/>
	<rect x="361.3" y="312.8" transform="matrix(0.5 -0.866 0.866 0.5 -99.5004 476.3797)" class="st3" width="3" height="23.2"/>
	<rect x="368.6" y="257.8" class="st3" width="23.2" height="3"/>
	<rect x="351.2" y="192.7" transform="matrix(0.866 -0.5 0.5 0.866 -48.466 207.4)" class="st3" width="23.2" height="2.9"/>
	<rect x="303.5" y="145" transform="matrix(0.4995 -0.8663 0.8663 0.4995 30.7708 346.295)" class="st3" width="23.2" height="3"/>
	<polygon class="st0" points="390.7,261.2 242.4,265.4 242.5,250.9 390.7,257.3 	"/>
	<polygon class="st0" points="251,155 257.4,267.8 242.9,267.6 247.1,154.9 	"/>
	<circle class="st0" cx="250" cy="259.3" r="5"/>
</g>
<g id="freepik--speech-bubble--inject-229">
	<path class="st2" d="M402.7,110.3c-1.8,17.8-17.8,30.7-35.5,28.9c-6.9-0.7-13.5-3.7-18.6-8.4l-16.2,2.4l8.1-14
		c-2-4.9-2.8-10.3-2.2-15.6c1.7-17.8,17.5-30.9,35.4-29.2c17.8,1.7,30.9,17.5,29.2,35.4C402.7,109.9,402.7,110.1,402.7,110.3
		L402.7,110.3z"/>
	<path class="st0" d="M402.7,110.3c-0.6,6-2.9,11.7-6.5,16.4c-0.9,1.2-1.9,2.3-2.9,3.4c-1.1,1-2.2,2-3.4,2.9c-2.4,1.8-5,3.3-7.8,4.4
		c-4.2,1.6-8.7,2.4-13.1,2.2c-1.5,0-3-0.2-4.5-0.5c-6-1.1-11.5-3.8-16-7.9l0.4,0.1l-16.2,2.5l-1.2,0.2l0.6-1l8.1-14v0.5
		c-6.8-16.8,1.2-35.9,18-42.7c7.2-2.9,15.2-3.2,22.6-0.8c4.7,1.6,9,4.2,12.5,7.7C400.2,90.5,403.7,100.4,402.7,110.3z M402.7,110.3
		c1.9-17.6-10.9-33.4-28.5-35.3c-2.7-0.3-5.5-0.2-8.2,0.2c-4.8,0.7-9.4,2.5-13.4,5.2c-4,2.8-7.3,6.4-9.7,10.6
		c-4.8,8.5-5.5,18.8-1.8,27.8l0.1,0.3l-0.1,0.3l-8.2,14l-0.6-0.8l16.2-2.3h0.2l0.2,0.2c4.3,4.1,9.7,6.8,15.5,8
		c1.4,0.3,2.9,0.5,4.4,0.5c1.5,0.1,3,0.1,4.4,0c3-0.2,5.9-0.9,8.7-1.9c2.8-1,5.4-2.4,7.8-4.2c1.2-0.9,2.3-1.8,3.4-2.9
		c1.1-1.1,2-2.2,2.9-3.3C399.8,121.9,402,116.2,402.7,110.3z"/>
	<polygon class="st0" points="366.7,125.4 352.8,111.4 357.5,106.8 365.6,115 382.4,88.7 387.9,92.2 	"/>
</g>
</svg>
