<?xml version="1.0" encoding="utf-8"?>
<!-- Generator: Adobe Illustrator 22.1.0, SVG Export Plug-In . SVG Version: 6.00 Build 0)  -->
<svg version="1.1" id="Layer_1" xmlns="http://www.w3.org/2000/svg" xmlns:xlink="http://www.w3.org/1999/xlink" x="0px" y="0px"
	 viewBox="0 0 500 500" style="enable-background:new 0 0 500 500;" xml:space="preserve">
<style type="text/css">
	.st0{fill:#F5F5F5;}
	.st1{fill:#E51F37;}
	.st2{opacity:0.6;fill:#FFFFFF;enable-background:new    ;}
	.st3{opacity:0.1;}
	.st4{fill:#FFFFFF;}
	.st5{opacity:0.3;fill:#FFFFFF;enable-background:new    ;}
	.st6{opacity:0.6;fill:#011627;enable-background:new    ;}
	.st7{opacity:0.5;fill:#011627;enable-background:new    ;}
	.st8{opacity:0.4;fill:#FFFFFF;enable-background:new    ;}
	.st9{opacity:0.5;fill:#FFFFFF;enable-background:new    ;}
	.st10{opacity:0.3;fill:#011627;enable-background:new    ;}
	.st11{opacity:0.2;fill:#011627;enable-background:new    ;}
	.st12{fill:#011627;}
	.st13{opacity:0.8;fill:#FFFFFF;enable-background:new    ;}
	.st14{opacity:0.7;fill:#FFFFFF;enable-background:new    ;}
	.st15{opacity:0.2;fill:#FFFFFF;enable-background:new    ;}
	.st16{fill:#B97964;}
	.st17{opacity:0.1;fill:#FFFFFF;enable-background:new    ;}
	.st18{fill:#A24E3F;}
	.st19{fill:none;stroke:#011627;stroke-width:0.7247;stroke-linecap:round;stroke-linejoin:round;}
	.st20{fill:#DE5753;}
	.st21{fill:none;stroke:#011627;stroke-width:0.5;stroke-linecap:round;stroke-linejoin:round;}
	.st22{fill:none;}
	.st23{opacity:0.8;}
</style>
<g id="freepik--Shadow--inject-35">
	<ellipse id="freepik--path--inject-35" class="st0" cx="250" cy="416.2" rx="193.9" ry="11.3"/>
</g>
<g id="freepik--Screen--inject-35">
	<path class="st1" d="M228.7,90.2v296.5c0,2.4-1.9,4.3-4.3,4.3c0,0-0.1,0-0.1,0h-138c-1,0-2-0.4-2.8-1.1c-0.8-0.8-1.2-1.8-1.2-2.9
		V89.8c-0.1-1.9,1.4-3.6,3.4-3.6c0,0,0,0,0,0h39.2c1.1,0,2.1,0.7,2.5,1.8l1.6,4c0.4,1,1.4,1.7,2.5,1.8h47.9c1.1,0,2.1-0.7,2.5-1.8
		l1.6-4c0.4-1,1.4-1.7,2.5-1.8h38.6C227,86.3,228.6,88.1,228.7,90.2z"/>
	<rect x="100.5" y="95.4" class="st2" width="2" height="2.7"/>
	<rect x="97.2" y="94.5" class="st2" width="2" height="3.6"/>
	<rect x="93.9" y="93.6" class="st2" width="2" height="4.5"/>
	<rect x="90.6" y="92.7" class="st2" width="2" height="5.4"/>
	<rect x="208.8" y="94.4" class="st2" width="1.2" height="2.7"/>
	<rect x="210.8" y="93.4" class="st2" width="9.6" height="4.7"/>
	<g class="st3">
		<path class="st4" d="M148.2,93.7l-42.1,157.8l0,0l-0.5,1.8l0,0l-0.8,2.8l0,0l-0.5,1.8l-22,82.4v-99.7l41.2-154.3h1.3
			c1.1,0,2.1,0.7,2.5,1.8l1.6,4c0.4,1,1.4,1.7,2.5,1.7L148.2,93.7z"/>
		<polygon class="st4" points="228.7,174.3 228.7,274 202.4,372.4 201.8,374.8 197.4,391 170.8,391 175.1,374.8 175.8,372.2 
			179.3,359.1 180,356.5 181.4,351.3 182.1,348.7 183.5,343.5 184.2,340.9 206.1,258.9 206.1,258.9 207.1,255.1 207.1,255.1 		"/>
		<path class="st4" d="M162.6,93.7l-41.9,156.8l-0.3,0.9l-2.3,8.6l-0.2,1L83.5,389.9c-0.8-0.8-1.2-1.8-1.2-2.9v-15.1L112,261
			l0.3-0.9l2.3-8.6l0.3-0.9l41.8-156.8H162.6z"/>
	</g>
	<rect x="82.4" y="105.5" class="st5" width="146.3" height="272.4"/>
	<rect x="90.6" y="131.8" class="st6" width="130" height="82.4"/>
	<rect x="90.6" y="211.5" class="st7" width="130" height="2.7"/>
	<rect x="90.6" y="211.5" class="st2" width="45.1" height="2.7"/>
	<path class="st4" d="M139.1,212.9c0,1.7-1.4,3.2-3.2,3.2c-1.7,0-3.2-1.4-3.2-3.2c0-1.7,1.4-3.2,3.2-3.2c0,0,0,0,0,0
		C137.7,209.8,139.1,211.2,139.1,212.9C139.1,212.9,139.1,212.9,139.1,212.9z"/>
	<path class="st2" d="M93,228.8h64.2c1.3,0,2.4,1.1,2.4,2.4v0.2c0,1.3-1.1,2.4-2.4,2.4H93c-1.3,0-2.4-1.1-2.4-2.4v-0.2
		C90.6,229.8,91.7,228.8,93,228.8z"/>
	<path class="st2" d="M93,221h78.6c1.3,0,2.4,1.1,2.4,2.4v0.2c0,1.3-1.1,2.4-2.4,2.4H93c-1.3,0-2.4-1.1-2.4-2.4v-0.2
		C90.6,222.1,91.7,221,93,221z"/>
	<polygon class="st8" points="207.8,221 213,226.2 218.2,221 	"/>
	<rect x="90.6" y="247.5" class="st8" width="130" height="56.5"/>
	<path class="st9" d="M167.4,252.8h10.3c1.2,0,2.2,1,2.2,2.2v0.1c0,1.2-1,2.2-2.2,2.2h-10.3c-1.2,0-2.2-1-2.2-2.2V255
		C165.2,253.8,166.1,252.8,167.4,252.8z"/>
	<path class="st9" d="M167.4,260h39.2c1.2,0,2.2,1,2.2,2.2v0.1c0,1.2-1,2.2-2.2,2.2h-39.2c-1.2,0-2.2-1-2.2-2.2v-0.1
		C165.2,261,166.1,260,167.4,260z"/>
	<rect x="96.7" y="252.8" class="st10" width="59.1" height="45.9"/>
	<rect x="90.6" y="311.3" class="st8" width="130" height="56.5"/>
	<path class="st9" d="M167.4,316.6h10.3c1.2,0,2.2,1,2.2,2.2v0.1c0,1.2-1,2.2-2.2,2.2h-10.3c-1.2,0-2.2-1-2.2-2.2v-0.1
		C165.2,317.6,166.1,316.6,167.4,316.6z"/>
	<path class="st9" d="M167.4,323.9h39.2c1.2,0,2.2,1,2.2,2.2v0.1c0,1.2-1,2.2-2.2,2.2h-39.2c-1.2,0-2.2-1-2.2-2.2v-0.1
		C165.2,324.9,166.1,323.9,167.4,323.9z"/>
	<rect x="96.7" y="316.6" class="st10" width="59.1" height="45.9"/>
	<polygon class="st2" points="142.4,158.5 142.4,184.7 168.6,171.6 	"/>
	<polygon class="st1" points="219.4,126 214.8,122 210.2,126 210.2,115 219.4,115 	"/>
	<path class="st1" d="M202.8,115h-7c-1,0-1.7,0.8-1.7,1.7v4.8c0,1,0.8,1.7,1.7,1.7h2.4v2.8l1.8-2.8h2.8c1,0,1.7-0.8,1.7-1.7v-4.8
		C204.5,115.8,203.7,115,202.8,115z"/>
	<path class="st1" d="M188.8,116.3c-1.3-2.1-3.8-1.3-5.1,0.3c-1.3-1.6-3.7-2.5-5.1-0.4c-2.2,3.5,2.3,6.8,4.4,8.2l0.6,0.4l0.6-0.4
		C186.4,123.2,191,119.9,188.8,116.3z"/>
	<path class="st1" d="M93,122.8h44.2c1.3,0,2.4,1.1,2.4,2.4v0.2c0,1.3-1.1,2.4-2.4,2.4H93c-1.3,0-2.4-1.1-2.4-2.4v-0.2
		C90.6,123.8,91.7,122.8,93,122.8z"/>
	<path class="st1" d="M93,115h58.6c1.3,0,2.4,1.1,2.4,2.4v0.2c0,1.3-1.1,2.4-2.4,2.4H93c-1.3,0-2.4-1.1-2.4-2.4v-0.2
		C90.6,116.1,91.7,115,93,115z"/>
</g>
<g id="freepik--Plant--inject-35">
	<path class="st1" d="M81,389c0,0-5.7-12.3,0.8-24.5s8.3-15,4.2-17.5s-6,9.7-6,9.7s-3.5-8.4-0.6-17.2s4.7-23.1,0.8-24.6
		s-0.8,17.9-4.1,24.5c-1.7-4.6-2.8-9.5-3.3-14.4c-0.5-7.1,0.3-18.3-2.8-21.2s-5.1-0.9-2,14.7c1.8,9.3,2.8,18.8,3,28.3
		c0,0-6.7-20.4-11.2-21s-4.5,6-0.6,11.8s11.3,16,12.5,21.3c0,0-7.4-15.4-14-10.7s5.8,14,11.3,17.4s9.3,24.4,9.3,24.4L81,389z"/>
	<path class="st11" d="M81,389c0,0-5.7-12.3,0.8-24.5s8.3-15,4.2-17.5s-6,9.7-6,9.7s-3.5-8.4-0.6-17.2s4.7-23.1,0.8-24.6
		s-0.8,17.9-4.1,24.5c-1.7-4.6-2.8-9.5-3.3-14.4c-0.5-7.1,0.3-18.3-2.8-21.2s-5.1-0.9-2,14.7c1.8,9.3,2.8,18.8,3,28.3
		c0,0-6.7-20.4-11.2-21s-4.5,6-0.6,11.8s11.3,16,12.5,21.3c0,0-7.4-15.4-14-10.7s5.8,14,11.3,17.4s9.3,24.4,9.3,24.4L81,389z"/>
	<path class="st1" d="M76.6,394c0,0,5.5-12.4-1.1-24.5s-8.5-14.9-4.4-17.4s6.1,9.6,6.1,9.6s3.4-8.5,0.4-17.2s-4.9-23-1-24.6
		s1,17.8,4.4,24.4c1.7-4.7,2.7-9.5,3.1-14.5c0.4-7.1-0.5-18.3,2.6-21.3s5.1-1,2.2,14.7c-1.7,9.3-2.6,18.8-2.7,28.3
		c0,0,6.4-20.5,11-21.2s4.6,6,0.8,11.8s-11.2,16.2-12.3,21.5c0,0,7.2-15.5,13.8-10.9s-5.5,14.1-11.1,17.5s-9.1,24.5-9.1,24.5
		L76.6,394z"/>
	<polygon class="st12" points="101.9,385.2 56.5,385.2 60.2,417.7 98.3,417.7 	"/>
</g>
<g id="freepik--Books--inject-35">
	<rect x="372.7" y="329.5" class="st1" width="62.5" height="27.1"/>
	<rect x="372.7" y="329.5" class="st13" width="62.5" height="27.1"/>
	<polygon class="st11" points="377.7,332.1 435.2,332.1 435.2,329.5 377.8,329.5 	"/>
	<polygon class="st11" points="377.7,334.4 429.5,335.5 377.7,336.6 	"/>
	<polygon class="st11" points="377.7,344.4 432.6,345.4 377.7,346.1 	"/>
	<polygon class="st11" points="377.7,350.3 432.1,351.4 377.7,352.5 	"/>
	<polygon class="st11" points="435.2,338.3 382.5,339.9 435.2,341 	"/>
	<path class="st12" d="M295.7,342.9c0,6.8,5.5,12.3,12.3,12.3h130c0.5,0,0.9,0.4,0.9,0.9v1c0,0.5-0.4,0.9-0.9,0.9c0,0,0,0,0,0H307.3
		c-8.3,0-15.1-6.7-15.1-15.1c0,0,0-0.1,0-0.1c0.2-8.4,7.1-15.1,15.5-15H438c0.5,0,0.9,0.4,0.9,0.9v1c0,0.5-0.4,0.9-0.9,0.9
		c0,0,0,0,0,0H308.4C301.6,330.6,295.7,336.1,295.7,342.9z"/>
	<path class="st8" d="M295.7,342.9c0,6.8,5.5,12.3,12.3,12.3h130c0.5,0,0.9,0.4,0.9,0.9v1c0,0.5-0.4,0.9-0.9,0.9c0,0,0,0,0,0H307.3
		c-8.3,0-15.1-6.7-15.1-15.1c0,0,0-0.1,0-0.1c0.2-8.4,7.1-15.1,15.5-15H438c0.5,0,0.9,0.4,0.9,0.9v1c0,0.5-0.4,0.9-0.9,0.9
		c0,0,0,0,0,0H308.4C301.6,330.6,295.7,336.1,295.7,342.9z"/>
	<path class="st1" d="M248.3,343L248.3,343c0,7.5,6.1,13.6,13.6,13.6h115.8v-27.1H261.9C254.4,329.5,248.3,335.5,248.3,343z"/>
	<path class="st14" d="M377.7,329.5v27.1H261.9c-7.5,0-13.6-6.1-13.6-13.6s6.1-13.6,13.6-13.6H377.7z"/>
	<polygon class="st11" points="377.7,336.6 377.7,334.4 262.2,335.3 	"/>
	<polygon class="st11" points="377.7,346.1 377.7,344.4 325.9,346.3 	"/>
	<polygon class="st11" points="377.7,352.5 377.7,350.3 294.1,351.6 	"/>
	<path class="st11" d="M261.7,332.1c-2.2,0-4.4,0.8-6,2.3c0.7,1.4,1.3,2.9,1.7,4.4l115.8,0.9L257.6,340c0.4,2,0.4,4.1-0.1,6.2
		l78,1.7l-78.8,0.9c-0.7,1.9-1.6,3.7-2.6,5.4c-6.2-4.3-7.7-12.7-3.5-18.9c2.5-3.7,6.7-5.9,11.2-5.9h115.9v2.6L261.7,332.1z"/>
	<path class="st12" d="M249.4,342.9c0,6.8,5.5,12.3,12.3,12.3c0,0,0,0,0,0h118c0.5,0,0.9,0.4,0.9,0.9v1c0,0.5-0.4,0.9-0.9,0.9
		c0,0,0,0,0,0H261c-8.3,0-15.1-6.7-15.1-15.1c0,0,0-0.1,0-0.1c0.2-8.4,7.1-15.1,15.5-15h118.3c0.5,0,0.9,0.4,0.9,0.9v1
		c0,0.5-0.4,0.9-0.9,0.9c0,0,0,0,0,0H262C255.2,330.6,249.4,336.1,249.4,342.9z"/>
	<polygon class="st1" points="262.2,339.4 262.2,350.3 266.2,346.4 270,350.2 270,339.4 	"/>
	<rect x="259.1" y="389.3" class="st1" width="168.6" height="27.1"/>
	<rect x="259.1" y="389.3" class="st14" width="168.6" height="27.1"/>
	<polygon class="st11" points="427.8,396.4 427.8,394.2 312.3,395.1 	"/>
	<polygon class="st11" points="427.8,405.9 427.8,404.2 375.9,406.1 	"/>
	<polygon class="st11" points="427.8,412.3 427.8,410.1 344.2,411.4 	"/>
	<path class="st11" d="M296.8,389.3l-2.5,20.2l2.9-3.1c1,3.7,2.8,7.1,5.3,10c1.8-2.4,3.2-5,4.3-7.8l78.8-0.9l-78-1.7
		c0.2-1.1,0.4-2.2,0.4-3.4c0-0.9-0.1-1.9-0.3-2.8l115.6-0.3l-115.8-0.9c-0.4-1.5-1-3-1.7-4.4c1.6-1.5,3.8-2.3,6-2.3h116v-2.6
		L296.8,389.3z"/>
	<path class="st1" d="M299.4,402.7c0,6.8,5.5,12.3,12.3,12.3h118c0.5,0,0.9,0.4,0.9,0.9c0,0,0,0,0,0v1c0,0.5-0.4,0.9-0.9,0.9l0,0
		H246.1c-8.3,0-15.1-6.8-15.1-15.1c0,0,0-0.1,0-0.1c0.2-8.4,7.1-15,15.4-15h183.2c0.5,0,0.9,0.4,0.9,0.9c0,0,0,0,0,0v1
		c0,0.5-0.4,0.9-0.9,0.9l0,0H312.1C305.3,390.4,299.4,395.9,299.4,402.7z"/>
	<path class="st11" d="M299.4,402.7c0,6.8,5.5,12.3,12.3,12.3h118c0.5,0,0.9,0.4,0.9,0.9c0,0,0,0,0,0v1c0,0.5-0.4,0.9-0.9,0.9l0,0
		H246.1c-8.3,0-15.1-6.8-15.1-15.1c0,0,0-0.1,0-0.1c0.2-8.4,7.1-15,15.4-15h183.2c0.5,0,0.9,0.4,0.9,0.9c0,0,0,0,0,0v1
		c0,0.5-0.4,0.9-0.9,0.9l0,0H312.1C305.3,390.4,299.4,395.9,299.4,402.7z"/>
	<path class="st1" d="M299.4,402.7c0,6.8,5.5,12.3,12.3,12.3h118c0.5,0,0.9,0.4,0.9,0.9c0,0,0,0,0,0v1c0,0.5-0.4,0.9-0.9,0.9l0,0
		H311c-8.3,0-15-6.8-15-15.2c0,0,0,0,0,0c0.2-8.4,7.1-15,15.5-15h118.2c0.5,0,0.9,0.4,0.9,0.9c0,0,0,0,0,0v1c0,0.5-0.4,0.9-0.9,0.9
		l0,0H312.1C305.3,390.4,299.4,395.9,299.4,402.7z"/>
	<polygon class="st1" points="312.3,399.2 312.3,410.1 316.2,406.1 320,410 320,399.2 	"/>
	<path class="st15" d="M299.4,402.7c0,6.8,5.5,12.3,12.3,12.3h118c0.5,0,0.9,0.4,0.9,0.9c0,0,0,0,0,0v1c0,0.5-0.4,0.9-0.9,0.9l0,0
		H311c-8.3,0-15-6.8-15-15.2c0,0,0,0,0,0c0.2-8.4,7.1-15,15.5-15h118.2c0.5,0,0.9,0.4,0.9,0.9c0,0,0,0,0,0v1c0,0.5-0.4,0.9-0.9,0.9
		l0,0H312.1C305.3,390.4,299.4,395.9,299.4,402.7z"/>
	<rect x="272.3" y="359.4" class="st1" width="168.6" height="27.1"/>
	<rect x="272.3" y="359.4" class="st13" width="168.6" height="27.1"/>
	<polygon class="st11" points="441,366.5 441,364.3 325.5,365.2 	"/>
	<polygon class="st11" points="441,376 441,374.3 389.1,376.2 	"/>
	<polygon class="st11" points="441,382.4 441,380.2 357.4,381.5 	"/>
	<path class="st11" d="M310,359.4l-2.5,20.2l2.9-3.1c1,3.7,2.8,7.1,5.3,10c1.8-2.4,3.2-5,4.3-7.8l78.8-0.9l-78-1.7
		c0.2-1.1,0.4-2.2,0.4-3.4c0-0.9-0.1-1.9-0.3-2.8l115.6-0.3l-115.8-0.9c-0.4-1.5-1-3-1.7-4.4c1.6-1.5,3.8-2.3,6-2.3H441v-2.6H310z"
		/>
	<path class="st1" d="M312.6,372.8c0,6.8,5.5,12.2,12.3,12.2h118c0.5,0,0.9,0.4,0.9,0.9c0,0,0,0,0,0v1c0,0.5-0.4,0.9-0.9,0.9l0,0
		H268.6c-8.3,0-15.1-6.7-15.1-15.1c0,0,0-0.1,0-0.1c0.2-8.4,7.1-15,15.5-15h173.9c0.5,0,0.9,0.4,0.9,0.9c0,0,0,0,0,0v1
		c0,0.5-0.4,0.9-0.9,0.9l0,0H325.3C318.5,360.5,312.6,366,312.6,372.8z"/>
	<path class="st8" d="M312.6,372.8c0,6.8,5.5,12.2,12.3,12.2h118c0.5,0,0.9,0.4,0.9,0.9c0,0,0,0,0,0v1c0,0.5-0.4,0.9-0.9,0.9l0,0
		H268.6c-8.3,0-15.1-6.7-15.1-15.1c0,0,0-0.1,0-0.1c0.2-8.4,7.1-15,15.5-15h173.9c0.5,0,0.9,0.4,0.9,0.9c0,0,0,0,0,0v1
		c0,0.5-0.4,0.9-0.9,0.9l0,0H325.3C318.5,360.5,312.6,366,312.6,372.8z"/>
	<path class="st1" d="M312.6,372.8c0,6.8,5.5,12.2,12.3,12.2h118c0.5,0,0.9,0.4,0.9,0.9c0,0,0,0,0,0v1c0,0.5-0.4,0.9-0.9,0.9l0,0
		H324.3c-8.3,0-15.1-6.7-15.1-15c0,0,0-0.1,0-0.1c0.2-8.4,7.1-15,15.5-15h118.3c0.5,0,0.9,0.4,0.9,0.9c0,0,0,0,0,0v1
		c0,0.5-0.4,0.9-0.9,0.9l0,0H325.3C318.5,360.5,312.6,366,312.6,372.8z"/>
	<polygon class="st12" points="334.9,365.5 334.9,376.3 338.8,372.4 342.6,376.2 342.6,365.5 	"/>
	<path class="st2" d="M312.6,372.8c0,6.8,5.5,12.2,12.3,12.2h118c0.5,0,0.9,0.4,0.9,0.9c0,0,0,0,0,0v1c0,0.5-0.4,0.9-0.9,0.9l0,0
		H324.3c-8.3,0-15.1-6.7-15.1-15c0,0,0-0.1,0-0.1c0.2-8.4,7.1-15,15.5-15h118.3c0.5,0,0.9,0.4,0.9,0.9c0,0,0,0,0,0v1
		c0,0.5-0.4,0.9-0.9,0.9l0,0H325.3C318.5,360.5,312.6,366,312.6,372.8z"/>
	<rect x="363.4" y="269.6" class="st1" width="62.5" height="27.1"/>
	<rect x="363.4" y="269.6" class="st14" width="62.5" height="27.1"/>
	<polygon class="st11" points="368.4,272.3 425.9,272.3 425.9,269.6 368.5,269.6 	"/>
	<polygon class="st11" points="368.4,274.6 420.3,275.7 368.4,276.8 	"/>
	<polygon class="st11" points="368.4,284.6 423.3,285.6 368.4,286.3 	"/>
	<polygon class="st11" points="368.4,290.5 422.8,291.6 368.4,292.7 	"/>
	<polygon class="st11" points="425.9,278.5 373.3,280.1 425.9,281.2 	"/>
	<path class="st1" d="M286.4,283.1c0,6.8,5.5,12.3,12.3,12.3h130c0.5,0,0.9,0.4,0.9,0.9v1c0,0.5-0.4,0.9-0.9,0.9c0,0,0,0,0,0H298
		c-8.3,0-15.1-6.8-15.1-15.1c0,0,0-0.1,0-0.1c0.2-8.4,7.1-15,15.4-14.9h130.3c0.5,0,0.9,0.4,0.9,0.9v1c0,0.5-0.4,0.9-0.9,0.9
		c0,0,0,0,0,0H299.1C292.3,270.8,286.4,276.3,286.4,283.1z"/>
	<path class="st8" d="M286.4,283.1c0,6.8,5.5,12.3,12.3,12.3h130c0.5,0,0.9,0.4,0.9,0.9v1c0,0.5-0.4,0.9-0.9,0.9c0,0,0,0,0,0H298
		c-8.3,0-15.1-6.8-15.1-15.1c0,0,0-0.1,0-0.1c0.2-8.4,7.1-15,15.4-14.9h130.3c0.5,0,0.9,0.4,0.9,0.9v1c0,0.5-0.4,0.9-0.9,0.9
		c0,0,0,0,0,0H299.1C292.3,270.8,286.4,276.3,286.4,283.1z"/>
	<path class="st1" d="M239,283.2L239,283.2c0,7.5,6.1,13.6,13.6,13.6h0h115.9v-27.1H252.6C245.1,269.6,239,275.7,239,283.2z"/>
	<path class="st9" d="M368.4,269.6v27.1H252.6c-7.5-0.2-13.4-6.4-13.2-13.9c0.2-7.2,6-13,13.2-13.2H368.4z"/>
	<polygon class="st11" points="368.4,276.8 368.4,274.6 253,275.5 	"/>
	<polygon class="st11" points="368.4,286.3 368.4,284.6 316.6,286.5 	"/>
	<polygon class="st11" points="368.4,292.7 368.4,290.5 284.9,291.8 	"/>
	<path class="st11" d="M252.4,272.3c-2.2,0-4.4,0.8-6,2.3c0.7,1.4,1.3,2.9,1.7,4.4l115.8,0.9l-115.6,0.3c0.4,2,0.4,4.1-0.1,6.2
		l78,1.7l-78.8,0.9c-0.7,1.9-1.6,3.7-2.6,5.4c-6.2-4.3-7.7-12.7-3.4-18.9c2.5-3.7,6.7-5.8,11.1-5.8h115.8v2.6L252.4,272.3z"/>
	<path class="st1" d="M240.1,283.1c0,6.8,5.5,12.3,12.3,12.3c0,0,0,0,0,0h118c0.5,0,0.9,0.4,0.9,0.9v1c0,0.5-0.4,0.9-0.9,0.9
		c0,0,0,0,0,0H251.7c-8.3,0-15.1-6.7-15.1-15.1c0,0,0-0.1,0-0.1c0.2-8.4,7.1-15,15.4-15h118.3c0.5,0,0.9,0.4,0.9,0.9v1
		c0,0.5-0.4,0.9-0.9,0.9c0,0,0,0,0,0H252.7C246,270.8,240.1,276.3,240.1,283.1z"/>
	<polygon class="st1" points="253,279.6 253,290.5 256.9,286.6 260.7,290.4 260.7,279.6 	"/>
	<rect x="286.9" y="299.5" class="st1" width="168.6" height="27.1"/>
	<rect x="286.9" y="299.5" class="st14" width="168.6" height="27.1"/>
	<polygon class="st11" points="455.6,306.7 455.6,304.5 340.1,305.4 	"/>
	<polygon class="st11" points="455.6,316.2 455.6,314.5 403.7,316.4 	"/>
	<polygon class="st11" points="455.6,322.6 455.6,320.4 372,321.7 	"/>
	<path class="st11" d="M324.6,299.5l-2.4,20.2l2.9-3.1c1,3.7,2.8,7.1,5.3,10c1.8-2.4,3.2-5,4.3-7.8l78.8-0.9l-78-1.7
		c0.3-1.1,0.4-2.2,0.4-3.4c0-0.9-0.1-1.9-0.3-2.8l115.6-0.3l-115.8-0.9c-0.4-1.5-1-3-1.7-4.4c1.6-1.5,3.8-2.3,6-2.3h116v-2.6
		L324.6,299.5z"/>
	<path class="st12" d="M327.2,313c0,6.8,5.5,12.3,12.3,12.3c0,0,0,0,0,0h118c0.5,0,0.9,0.4,0.9,0.9v1c0,0.5-0.4,0.9-0.9,0.9
		c0,0,0,0,0,0H273.9c-8.3,0-15.1-6.7-15.1-15.1c0,0,0-0.1,0-0.1c0.2-8.4,7.1-15,15.5-15h183.2c0.5,0,0.9,0.4,0.9,0.9v1
		c0,0.5-0.4,0.9-0.9,0.9c0,0,0,0,0,0H339.9C333.1,300.7,327.2,306.2,327.2,313z"/>
	<path class="st15" d="M327.2,313c0,6.8,5.5,12.3,12.3,12.3c0,0,0,0,0,0h118c0.5,0,0.9,0.4,0.9,0.9v1c0,0.5-0.4,0.9-0.9,0.9
		c0,0,0,0,0,0H273.9c-8.3,0-15.1-6.7-15.1-15.1c0,0,0-0.1,0-0.1c0.2-8.4,7.1-15,15.5-15h183.2c0.5,0,0.9,0.4,0.9,0.9v1
		c0,0.5-0.4,0.9-0.9,0.9c0,0,0,0,0,0H339.9C333.1,300.7,327.2,306.2,327.2,313z"/>
	<path class="st12" d="M327.2,313c0,6.8,5.5,12.3,12.3,12.3c0,0,0,0,0,0h118c0.5,0,0.9,0.4,0.9,0.9v1c0,0.5-0.4,0.9-0.9,0.9
		c0,0,0,0,0,0H338.8c-8.3,0-15.1-6.7-15.1-15.1c0,0,0-0.1,0-0.1c0.2-8.4,7.1-15,15.5-15h118.3c0.5,0,0.9,0.4,0.9,0.9v1
		c0,0.5-0.4,0.9-0.9,0.9c0,0,0,0,0,0H339.9C333.1,300.7,327.2,306.2,327.2,313z"/>
	<polygon class="st12" points="340.1,309.5 340.1,320.4 344,316.5 347.9,320.3 347.9,309.5 	"/>
	<path class="st8" d="M327.2,313c0,6.8,5.5,12.3,12.3,12.3c0,0,0,0,0,0h118c0.5,0,0.9,0.4,0.9,0.9v1c0,0.5-0.4,0.9-0.9,0.9
		c0,0,0,0,0,0H338.8c-8.3,0-15.1-6.7-15.1-15.1c0,0,0-0.1,0-0.1c0.2-8.4,7.1-15,15.5-15h118.3c0.5,0,0.9,0.4,0.9,0.9v1
		c0,0.5-0.4,0.9-0.9,0.9c0,0,0,0,0,0H339.9C333.1,300.7,327.2,306.2,327.2,313z"/>
</g>
<g id="freepik--Character--inject-35">
	<polygon class="st16" points="238.5,326.5 245.1,328.1 248.4,319 251.4,310.8 243.9,307.6 241,317.6 	"/>
	<polygon class="st11" points="241,317.6 248.4,319 251.4,310.8 243.9,307.6 	"/>
	<path class="st1" d="M241.7,312.8l9.1,3.4c0,0,24.3-60.8,29.3-61s55.9,23.2,68.7,10.2s-5.7-44.2-5.7-44.2s-30.7-4.4-33,2.6
		c-0.6,2-1,4.1-1.3,6.2c-0.4,2.1-0.6,3.9-0.6,3.9l0,0c-1-0.2-31.8-8.2-43.9,0C252,242.1,241.7,312.8,241.7,312.8z"/>
	<polygon class="st16" points="294.2,352.5 300.7,350.8 299.5,341.4 298.3,332.8 290.2,333.5 292.3,343.5 	"/>
	<polygon class="st11" points="292.3,343.8 299.5,341.6 298.3,332.9 290.2,333.5 	"/>
	<polygon class="st12" points="254.6,312.8 241.3,308.3 240.7,313.8 250.8,317.3 	"/>
	<path class="st1" d="M326.8,268.5c0,0-2.1,0-34.3-1.5c0,0,4.8,40.2,7.4,70.4l-9.6,1.6c0,0-23-64.5-22.8-74.8s12-13.3,12-13.3
		S302.5,264.3,326.8,268.5z"/>
	<path class="st11" d="M326.8,268.5c0,0-2.1,0-34.3-1.5c0,0,4.8,40.2,7.4,70.4l-9.6,1.6c0,0-23-64.5-22.8-74.8s12-13.3,12-13.3
		S302.5,264.3,326.8,268.5z"/>
	<polygon class="st12" points="301.4,334.5 288.1,336 290.7,341.2 301.4,339.8 	"/>
	<path class="st11" d="M308.3,233.8l18,3.7c0,0-9.9-5.5-17.4-7.6C308.5,232,308.3,233.8,308.3,233.8z"/>
	<polygon class="st12" points="342.4,216.4 343.1,221.1 310.1,223.7 309.3,218 	"/>
	
		<rect x="331.6" y="215.9" transform="matrix(0.9948 -0.1023 0.1023 0.9948 -20.7674 35.1463)" class="st1" width="1.6" height="8.4"/>
	
		<rect x="317.4" y="216" transform="matrix(0.9982 -5.989229e-02 5.989229e-02 0.9982 -12.5252 19.6198)" class="st4" width="7.3" height="5.5"/>
	
		<rect x="311.3" y="216.8" transform="matrix(0.9948 -0.1023 0.1023 0.9948 -20.9639 33.0802)" class="st1" width="1.6" height="8.4"/>
	<path class="st12" d="M227.6,339.3c1-0.5,2.1-0.7,3.2-0.8l0,0c0,0,3.8-2.2,7.6-10.9h4.2c1.5,0,2.8,0.9,3.3,2.3
		c0.1,0.2,0.1,0.4,0.1,0.6c0,1-0.1,2-0.3,3c-0.6,3.4-1.4,6.7-2.5,10l-0.7-0.2l1.3-6.3c0.4-2.1-1.8-0.1-2.9,2.1s-2.6,4.3-7.3,3.3
		C228.1,341.1,225.9,340.3,227.6,339.3z"/>
	<path class="st16" d="M239.1,325.3c0,0-5.3,11.1-8.3,13.2c0,0,4.1,2.4,8.3-3c5.5-7,6.8-5,6.8-5c-0.1-1.2-0.3-2.4-0.7-3.6
		C244.4,324.6,239.1,325.3,239.1,325.3z"/>
	<path class="st12" d="M285.8,365.6c0.9-0.7,1.8-1.2,2.9-1.5l0,0c0,0,3.2-3.1,4.8-12.4l4.1-1c1.4-0.3,2.9,0.3,3.7,1.5
		c0.1,0.2,0.2,0.4,0.3,0.5c0.2,1,0.3,2,0.4,3c0.2,3.4,0.2,6.8,0,10.3h-0.7l-0.2-6.4c-0.1-2.2-1.8,0.4-2.3,2.7s-1.5,4.8-6.3,4.9
		C286.7,367.3,284.4,367,285.8,365.6z"/>
	<path class="st16" d="M293.7,349.3c0,0-2.5,12-5,14.8c0,0,4.5,1.4,7.4-4.9c3.7-8.1,5.4-6.5,5.4-6.5c-0.4-1.2-0.9-2.3-1.5-3.3
		C298.7,347.4,293.7,349.3,293.7,349.3z"/>
	<path class="st16" d="M371.9,250.4l4.8,10.7c0,0,9.6,3.8,9.6,5s-4.1,3.5-4.5,3.5s-9-0.9-9.9-1.7s-0.6-4.5-0.6-4.5l-5.5-11.2
		L371.9,250.4z"/>
	<path class="st16" d="M241.2,143.2l-9.4-6.7c0,0-1.5-5.4-2.5-5.5s-10.1-3.7-11.5-3.7s-1.4,8.1,0,9.8s7.7,4.6,9.3,4.3l10.5,8.6
		L241.2,143.2z"/>
	<path class="st12" d="M304.7,164.5c0,0-32.8-5.6-39-9.6s-32.1-18.7-32.1-18.7l-2.9,10.3c0,0,26.5,22.3,36.5,26.5
		s36.8,13.7,36.8,13.7L304.7,164.5z"/>
	<path class="st17" d="M304.7,164.5l-0.2,8.6l-0.5,13.6l-7.9-2.9c-9.5-3.5-24.7-9.1-28.9-10.8c-10-4.2-36.5-26.5-36.5-26.5l2.9-10.3
		c0,0,25.8,14.8,32,18.7S304.7,164.5,304.7,164.5z"/>
	<path class="st11" d="M304.5,173.1l-0.5,13.6l-7.9-2.9c1.6-4.9,4.3-9.4,7.9-13.2L304.5,173.1z"/>
	<path class="st12" d="M340.5,144.5c0,0,1.5,13.8-3.7,17.2s-30.3-0.6-33.2-6.1s7.9-20.7,7.9-20.7L340.5,144.5z"/>
	<path class="st1" d="M304.7,164.5c6.2,1.7,12.6,2.4,19,2.1c10.6-0.5,23.3,4.6,23.3,4.6l-4.5,45.2l-33.1,1.6
		C309.3,218,298.1,180.3,304.7,164.5z"/>
	<path class="st2" d="M304.7,164.5c6.2,1.7,12.6,2.4,19,2.1c10.6-0.5,23.3,4.6,23.3,4.6l-4.5,45.2l-33.1,1.6
		C309.3,218,298.1,180.3,304.7,164.5z"/>
	<path class="st12" d="M310,138.9c0,0,1.9-22,20.2-14c23,10,4.7,36.7-6.5,31.3S310,138.9,310,138.9z"/>
	<path class="st11" d="M315.1,167.8l0.5,12.4l4.1-5.8c0,0-1.5,13.7-0.6,21.2c0,0,0.8-13.4,2.6-21.2l4.4,5.8l6.3-12.3
		C332.5,167.9,322.3,164.2,315.1,167.8z"/>
	<path class="st16" d="M320.8,170.1l9.5-2.7c-5.8-4-2.9-13-2.9-13l-9.4,3.3c0.4,1.3,0.8,2.6,1,4c1,5.9-1.7,6.3-1.7,6.3L320.8,170.1z
		"/>
	<path class="st11" d="M318,157.7c0.4,1.3,0.8,2.6,1,4c4.5-1.8,8.4-7.3,8.4-7.3L318,157.7z"/>
	<path class="st16" d="M324.1,129.6c-8.3-1.8-12,2-14.5,10.5c-3.1,10.6-2.5,18.7,8.5,18.7C333,158.8,338,132.6,324.1,129.6z"/>
	<path class="st18" d="M315.1,140.8c-0.9,1.1-2,2.1-3.2,2.9c0.3,0.8,1.1,1.4,2,1.4L315.1,140.8z"/>
	<path class="st12" d="M320.4,141.2c-0.2,0.7,0.1,1.3,0.5,1.4s1-0.4,1.1-1s-0.1-1.3-0.5-1.4S320.5,140.5,320.4,141.2z"/>
	<path class="st12" d="M321.7,140.3l-1.3-0.9C320.4,139.3,320.8,140.7,321.7,140.3z"/>
	<path class="st12" d="M312,139c-0.2,0.7,0.1,1.3,0.5,1.4s1-0.3,1.1-1s-0.1-1.3-0.5-1.4S312.1,138.3,312,139z"/>
	<path class="st12" d="M313.3,138l-1.3-0.9C311.9,137.1,312.4,138.5,313.3,138z"/>
	<path class="st19" d="M321.7,135.5c1.4,0.1,2.6,0.9,3.3,2.1"/>
	<path class="st19" d="M315.8,133.8c-1.1-0.5-2.4-0.5-3.5,0"/>
	<path class="st12" d="M330.1,145.6c0,0-2.4-7.7-0.6-12.9c0,0-15-10.4-19.5,6.2c0,0,1.7-15.2,16.1-12.4s9.7,23.8,0.9,28.3
		C327,154.9,331.6,150.4,330.1,145.6z"/>
	<path class="st16" d="M328.4,147.1c0.6-2,2.7-3.1,4.7-2.5c2.5,0.9,2.6,6.4-4.1,6.3C328,150.9,327.7,149.8,328.4,147.1z"/>
	<path class="st12" d="M312.5,148.3c0.2,1,0.4,2.1,0.4,3.1h0.5c2.5,0.2,3.7-0.5,4.3-1.4c0.3-0.4,0.5-0.9,0.5-1.4c0-0.3,0-0.6,0-0.9
		c-1.6,0.6-3.3,0.8-5,0.6C312.8,148.3,312.5,148.3,312.5,148.3z"/>
	<path class="st4" d="M313.3,148.3l0.1,0.9c2.3,0.2,4,0,4.8-0.6c0-0.3,0-0.6,0-0.9C316.7,148.3,315,148.5,313.3,148.3z"/>
	<path class="st20" d="M313.4,151.4c2.5,0.2,3.7-0.5,4.3-1.4c-0.9-0.1-1.9,0-2.8,0.3C314.3,150.5,313.8,150.9,313.4,151.4z"/>
	<path class="st12" d="M324.2,130.2c0,0,0.3,14.4,9,16.2s-0.8-18.6-0.8-18.6s-12.9-8.4-21.5-2.5s-0.9,13.6-0.9,13.6
		S311.8,128.2,324.2,130.2z"/>
	<path class="st21" d="M324.5,129.3c0,0-3.1,9.1,3,13.9"/>
	<path class="st22" d="M310.5,135.7c-1.9,0-3.5,1.6-3.5,3.5c0,1.9,1.6,3.5,3.5,3.5c1.9,0,3.5-1.6,3.5-3.5c0,0,0,0,0,0
		C314,137.3,312.4,135.7,310.5,135.7C310.5,135.7,310.5,135.7,310.5,135.7z"/>
	<path class="st22" d="M319.5,138.2c-1.9,0-3.5,1.5-3.5,3.5c0,1.9,1.5,3.5,3.5,3.5c1.9,0,3.5-1.5,3.5-3.5l0,0
		C323,139.8,321.4,138.2,319.5,138.2z"/>
	<path class="st12" d="M331.4,144.4l-8-2c0.1-0.3,0.1-0.5,0.1-0.8c-0.1-2.2-2-3.9-4.2-3.8c-1.5,0.1-2.9,1-3.5,2.5
		c-0.2-0.3-0.5-0.5-0.9-0.6c-0.2,0-0.3,0-0.5,0.1c0-0.2,0.1-0.4,0.1-0.6c0-2.2-1.7-4-3.9-4.1c-2.2,0-4,1.7-4.1,3.9
		c0,2.2,1.7,4,3.9,4.1c1.7,0,3.2-1,3.8-2.6c0.2-0.2,0.4-0.3,0.6-0.3c0.3,0,0.5,0.3,0.8,0.8c0,0.2-0.1,0.4-0.1,0.6
		c0.1,2.2,2,3.9,4.2,3.8c1.5-0.1,2.9-1,3.5-2.5l8,2h0.1c0.1,0,0.3-0.1,0.3-0.2S331.5,144.4,331.4,144.4L331.4,144.4L331.4,144.4z
		 M310.5,142.7c-1.9,0-3.5-1.6-3.5-3.5s1.6-3.5,3.5-3.5c1.9,0,3.5,1.6,3.5,3.5S312.4,142.7,310.5,142.7L310.5,142.7z M319.5,145.1
		c-1.9,0-3.5-1.5-3.5-3.5c0-1.9,1.5-3.5,3.5-3.5c1.9,0,3.5,1.5,3.5,3.5l0,0C323,143.6,321.4,145.1,319.5,145.1L319.5,145.1z"/>
	<g class="st23">
		<path class="st4" d="M331.4,144.4l-8-2c0.1-0.3,0.1-0.5,0.1-0.8c-0.1-2.2-2-3.9-4.2-3.8c-1.5,0.1-2.9,1-3.5,2.5
			c-0.2-0.3-0.5-0.5-0.9-0.6c-0.2,0-0.3,0-0.5,0.1c0-0.2,0.1-0.4,0.1-0.6c0-2.2-1.7-4-3.9-4.1c-2.2,0-4,1.7-4.1,3.9
			c0,2.2,1.7,4,3.9,4.1c1.7,0,3.2-1,3.8-2.6c0.2-0.2,0.4-0.3,0.6-0.3c0.3,0,0.5,0.3,0.8,0.8c0,0.2-0.1,0.4-0.1,0.6
			c0.1,2.2,2,3.9,4.2,3.8c1.5-0.1,2.9-1,3.5-2.5l8,2h0.1c0.1,0,0.3-0.1,0.3-0.2S331.5,144.4,331.4,144.4L331.4,144.4L331.4,144.4z
			 M310.5,142.7c-1.9,0-3.5-1.6-3.5-3.5s1.6-3.5,3.5-3.5c1.9,0,3.5,1.6,3.5,3.5S312.4,142.7,310.5,142.7L310.5,142.7z M319.5,145.1
			c-1.9,0-3.5-1.5-3.5-3.5c0-1.9,1.5-3.5,3.5-3.5c1.9,0,3.5,1.5,3.5,3.5l0,0C323,143.6,321.4,145.1,319.5,145.1L319.5,145.1z"/>
	</g>
	<polygon class="st1" points="327.8,164 321.8,169.8 324.2,177 332.5,167.9 	"/>
	<polygon class="st1" points="319.2,165.2 320.1,169.7 317.1,176 315.1,167.8 	"/>
	<path class="st12" d="M313.4,166.2c0,0-2.3,10.6,5.9,13s15.9-12.1,15.9-12.1s9,2.1,12.7,4.5c0,0-2.1,35.6-5.5,44.8l-33,2.8
		c0,0-15.4-37.6-4.8-54.7L313.4,166.2z"/>
	<path class="st17" d="M347.9,171.6c0,0-0.7,11.2-1.9,22.7c-0.6,6.2-1.4,12.3-2.6,18.3c-0.3,1.3-0.6,2.5-1.1,3.8l-33,2.8
		c0,0-15.4-37.6-4.8-54.7l8.8,1.7c0,0-2.3,10.6,5.9,13s15.9-12.1,15.9-12.1S344.2,169.2,347.9,171.6z"/>
	<path class="st11" d="M346.1,194.3c-0.6,6.2-1.4,12.3-2.6,18.3c-3.8-10-0.1-21.9-0.1-21.9L346.1,194.3z"/>
	<path class="st12" d="M347.9,171.6c8.7,5,14.9,42.7,15.9,45.6c0.6,1.8,11.8,37.5,11.8,37.5l-9,4.2c0,0-16.1-29-18.7-36.6
		c-1.7-4.9-3-9.9-4-15c0,0-2.3-15.5-1-22C344.1,180.5,345.7,175.9,347.9,171.6z"/>
	<path class="st17" d="M347.9,171.6c8.7,5,14.9,42.7,15.9,45.6c0.6,1.8,11.8,37.5,11.8,37.5l-9,4.2c0,0-16.1-29-18.7-36.6
		c-1.7-4.9-3-9.9-4-15c0,0-2.3-15.5-1-22C344.1,180.5,345.7,175.9,347.9,171.6z"/>
	<polygon class="st2" points="327.8,164 321.8,169.8 324.2,177 332.5,167.9 	"/>
	<polygon class="st2" points="319.2,165.2 320.1,169.7 317.1,176 315.1,167.8 	"/>
</g>
</svg>
