<?xml version="1.0" encoding="utf-8"?>
<!-- Generator: Adobe Illustrator 22.1.0, SVG Export Plug-In . SVG Version: 6.00 Build 0)  -->
<svg version="1.1" id="Layer_1" xmlns="http://www.w3.org/2000/svg" xmlns:xlink="http://www.w3.org/1999/xlink" x="0px" y="0px"
	 viewBox="0 0 1379.4 1080" style="enable-background:new 0 0 1379.4 1080;" xml:space="preserve">
<style type="text/css">
	.st0{fill:#FFFFFF;}
	.st1{opacity:0.5;}
	.st2{fill:#2EC4B6;}
	.st3{fill:#3CBDB2;}
	.st4{fill:#67D3C6;}
	.st5{fill:#EF890F;}
	.st6{fill:#FF9F1C;}
	.st7{fill:#F1A34F;}
	.st8{fill:#E9F3FE;}
	.st9{fill:#E71D36;}
	.st10{fill:#011627;}
	.st11{fill:#C65447;}
	.st12{fill:#FFB27D;}
	.st13{fill:#E2915A;}
	.st14{fill:#CC1736;}
	.st15{fill:#F99746;}
	.st16{fill:#D3D3D3;}
	.st17{fill:#ED975D;}
</style>
<g>
	<g>
		
			<rect x="156.3" y="696.2" transform="matrix(0.7358 -0.6772 0.6772 0.7358 -461.0925 360.2163)" class="st0" width="149.7" height="149.7"/>
		<g class="st1">
			
				<rect x="156.3" y="696.2" transform="matrix(0.7358 -0.6772 0.6772 0.7358 -461.0925 360.2163)" class="st2" width="149.7" height="149.7"/>
		</g>
		<g>
			
				<rect x="115.8" y="712" transform="matrix(0.7358 -0.6772 0.6772 0.7358 -442.0061 321.1913)" class="st3" width="149.7" height="30.1"/>
		</g>
	</g>
	<g>
		<g>
			<polygon class="st3" points="557.1,231.5 632.6,242.2 582.5,208.1 580,219 561.6,222.4 			"/>
		</g>
		<g>
			<polygon class="st4" points="632.6,242.2 569.8,209.8 508.2,206.7 			"/>
		</g>
		<g>
			<polygon class="st4" points="582.5,208.1 632.6,242.2 593.8,188.9 			"/>
		</g>
	</g>
	<g>
		<path class="st0" d="M979.4,380.4l-19,13.6l-19.1-13.5c4.2-6,11.2-9.9,19.1-9.9C968.2,370.7,975.2,374.5,979.4,380.4z"/>
		<g>
			<path class="st0" d="M960.4,337.5c-19.1,0-36,9.5-46.2,24l12.1,8.5c7.6-10.7,20.1-17.7,34.2-17.7c14,0,26.4,6.9,34,17.5l12-8.6
				C996.1,346.8,979.3,337.5,960.4,337.5z"/>
		</g>
		<g>
			<path class="st0" d="M960.4,274.4c-40.4,0-76.1,20.1-97.8,50.8l12.1,8.5c19-26.9,50.3-44.5,85.7-44.5c35.1,0,66.2,17.3,85.3,43.8
				l12-8.6C1035.9,294.1,1000.5,274.4,960.4,274.4z"/>
		</g>
		<g>
			<path class="st0" d="M960.4,308.9c-28.7,0-54.2,14.2-69.7,36l12.1,8.5c12.8-18,33.9-29.7,57.7-29.7c23.6,0,44.5,11.6,57.4,29.3
				l12-8.6C1014.2,322.9,988.9,308.9,960.4,308.9z"/>
		</g>
	</g>
	<g>
		<path class="st3" d="M566.4,463.2l-17.4-0.4c5.6,7.3,6.9,13.9,3.4,19.6c-3.5,5.8-11.8,10.5-24.3,14.1
			c9.4-25.1,14.2-51.5,14.2-78.6c0-58.7-22.8-116.1-65.9-159c-41.7-41.7-98-65.9-159-65.9c-34.2,0-67.3,7.6-97.4,22.1c0,0,0,0,0,0
			c-9.7-3-19.1-5.4-28.2-7.2c-45.9-9.3-78.5-2.9-91.7,18.1c-12.6,20-5.7,50,19.2,85.1c0,0,0,0,0,0c-5.6,10.3-11,22.5-14.9,34.3
			c-46.9,2.8-72.1,11.1-81.2,26c-10.6,17.4,3.9,40.8,50.3,63.5c6.4,3.1,13.2,6.2,20.4,9.3c5.6,48.9,27.8,96.2,64.3,132.7
			c20.7,20.6,44.7,36.8,71.5,48.2c82,34.6,179.8,18.4,246.6-48.2c20.1-20.1,36-43.5,47.3-69.4c22.9-4.7,38-12.2,44-22
			C571.8,478.7,571.3,471.1,566.4,463.2z M512.7,500c-15.2,2.7-34.3,4.3-56.5,4.6c-34.5,0.4-74-2.3-115.8-7.8
			c3.5-7.6,7-15.5,10.3-23.5c12.9,4.3,25.5,7.8,37.5,10.2c13.7,2.8,26.2,4.2,37.4,4.2c26.2,0,45-7.6,54.3-22.3
			c1.5-2.4,2.8-5,3.7-7.7h-13.4c-0.2,0.4-0.5,0.8-0.7,1.2c-6.9,10.9-22.3,16.6-43.9,16.6c-10.3,0-22.1-1.3-35-3.9
			c-11.3-2.3-23.1-5.5-35.3-9.5c3.2-8,6.3-16.2,9.4-24.6c8.1-22.5,15.1-44.7,20.8-66.1c45.7,6.7,93.4,6.9,139.3,3.5
			c2.9,14.1,4.4,28.5,4.4,43.1C529.2,446.3,523.6,473.9,512.7,500z M234.4,611.5c-6.5-2.4-9.8-11.7-11.4-19.1
			c-2.6-11.7-3-28.1-1.3-47.6c0.9-9.8,2.2-20.2,4.1-31.2c26.6,7.1,53,16.2,78.7,27.2c-5.8,10-11.6,19.2-17.5,27.6
			c-11.1,16-22,28.3-31.5,35.6C249.4,608.8,240.9,613.8,234.4,611.5z M310.3,530.5c-26.9-11.6-54.5-21.2-82.4-28.5
			c1-5.1,2.1-10.2,3.2-15.5c7.8,1.8,15.6,3.5,23.6,5.1c23.3,4.8,46.6,8.8,69.4,12.1C319.5,513,314.9,522,310.3,530.5z M259.8,483.1
			c-9-1.9-17.9-3.8-26.6-5.8c4.1-17.1,9.2-34.9,15-53.1c30.6,18.8,61.8,34.1,91.3,45c-3.7,8.8-7.5,17.4-11.4,25.8
			C305.7,491.8,282.8,487.9,259.8,483.1z M185,252.4c17,34.9,49.8,63.6,85.1,82.7c-8.6,18.6-16.7,38.5-24.2,59.2
			c-1.4,3.9-2.8,7.7-4.1,11.5c-44.7-29.1-82.6-62.5-107.5-94.9c0,0,0,0,0,0C147.5,288.5,164.6,268.7,185,252.4z M376.3,220.1
			c6.5,2.4,9.8,11.7,11.4,19.1c2.6,11.7,3,28.1,1.3,47.6c-1.8,21.2-6.1,45.4-12.4,71c-31.1-5.4-62.2-14.2-90.8-28.1
			c12.2-25.4,25.1-48.1,38-66.6c11.1-16,22-28.3,31.5-35.6c4.9-3.8,11.6-7.9,17.4-7.9C374,219.5,375.2,219.7,376.3,220.1z
			 M373.7,369.3c-5.5,20.7-12.3,42.2-20.1,63.9c-3,8.4-6.2,16.6-9.4,24.7c-29.6-10.9-61-26.4-91.9-45.6c1.6-4.7,3.2-9.4,4.9-14
			c7.3-20.2,15.3-39.6,23.6-57.8C309.9,354.6,341.5,363.7,373.7,369.3z M467.1,268c27.5,27.5,45.7,60.5,54.9,95
			c-48.8,3.6-93.6,2.4-133.6-3.3c6.3-25.9,10.6-50.3,12.5-71.9c2.1-23.8,1.8-52-7.8-67.8C421.1,230.7,446,246.9,467.1,268z
			 M317.4,205.9c14.7,0,29.1,1.5,43.2,4.4c-16.6,7.2-33.6,27.4-46.5,45.9c-13.2,18.9-26.4,42.1-38.8,68
			C241.6,306,209.9,278,194.7,245C230.1,219.8,272.7,205.9,317.4,205.9z M110.4,232.4c6.9-10.9,22.3-16.6,43.9-16.6
			c10.3,0,22.1,1.3,35,3.9c4.9,1,9.9,2.2,15,3.5c0,0,0,0,0,0c-30.9,17.8-58,43.7-78.3,76c0,0,0,0,0,0C107,271,101.2,247,110.4,232.4
			z M128,322.6C128,322.6,128,322.6,128,322.6c26.2,32.7,64.7,66.1,109.8,95.1c-6.4,19.4-11.8,38.6-16.2,56.9
			c-37.4-9-80.8-21.8-115.1-36.3c-2.8-28.4,0.3-57.2,8.8-84.4C118.6,343.3,123,332.5,128,322.6z M83.9,428.1
			c-40.5-19.8-59-38.8-50.7-52.4c6.7-11,31-18.4,68.2-21.1c-7.5,25.3-10.1,51.7-8.6,77.7C89.8,431,86.8,429.5,83.9,428.1z
			 M219.5,483.8c-1.2,5.1-2.2,10.2-3.2,15.2c-2.6-0.6-5.2-1.2-7.8-1.8c-43.9-10-76.9-12-92.2-12.4c-3.8-11.4-6.6-23.1-8.3-35
			C137.9,461.3,171.6,472.4,219.5,483.8z M120.7,496.9c16.3,0.7,46.5,3.1,85.1,11.9c2.8,0.6,5.5,1.3,8.3,2
			c-2,11.6-3.5,22.7-4.4,33.1c-1.7,19.7-1.8,42.5,3.7,58.7c-16.7-9.4-32.1-21.1-45.9-34.9C147,547.1,131.2,523,120.7,496.9z
			 M253.1,619.8c15.7-8.2,31.4-27.1,43.5-44.5c6.3-9,12.5-18.9,18.7-29.6c35.6,16.1,69.8,35.9,101.9,59
			C364.3,633,304.6,636.2,253.1,619.8z M467.1,567.6c-11.7,11.7-24.6,21.9-38.5,30.5c-33.8-24.7-69.8-45.8-107.4-62.9
			c5.2-9.5,10.3-19.5,15.2-29.9c34.4,4.6,67.5,7.3,97.6,8c7.9,0.2,15.5,0.2,23,0.2c19.2-0.2,36.4-1.4,51-3.4
			C497.8,531.4,484,550.7,467.1,567.6z"/>
	</g>
	<g>
		<g>
			<g>
				<path class="st5" d="M462.3,498.3l-31.1,369.8c0,0-3.3,22.4,13.4,22.5c27.4,0.1,136.5,0,136.5,0s-20.6-4.7-20.4-15.2
					c0.3-12.4,36.4-380.6,36.4-380.6L462.3,498.3z"/>
			</g>
			<g>
				<path class="st6" d="M589.9,883.8c-5.4,0-109.5,0.3-136.2,0c-11.6-0.1-13.7-10.3-13.8-16.9c0-3.2,0.4-5.5,0.4-5.5l0.8-9.6
					l2.1-24.5l1.8-21.6l2.3-27.8l2-23.5l22.1-262.8l134.7-3.5c0,0-15.2,154.1-25.9,266.3c-1.2,12.5-2.3,24.5-3.4,35.7
					c-0.3,3.6-0.7,7.1-1,10.5c-1,10.6-1.9,20.4-2.7,29c-0.4,4.5-0.8,8.7-1.2,12.6c-1.4,15.1-2.2,24.8-2.2,26.6c0,1.1,0.1,2.1,0.3,3
					C572.2,883.4,587.9,883.8,589.9,883.8z"/>
			</g>
			<g>
				<polygon class="st6" points="135.1,297 210.9,601.3 221.2,643 256.5,784.7 912,784.7 782,297 				"/>
			</g>
			<g>
				<polygon class="st5" points="135.1,297 124.6,300.5 242.6,795.3 256.5,784.7 				"/>
			</g>
			<g>
				<polygon class="st5" points="242.6,795.3 894,795.3 912,784.7 256.5,784.7 				"/>
			</g>
			<g>
				<rect x="471.3" y="884" class="st5" width="141.1" height="6.7"/>
			</g>
			<polygon class="st7" points="880.3,694.9 773.9,303.5 134,303.5 134,297 782,297 888,694 			"/>
			<g>
				<polygon class="st5" points="576.5,795.3 575.8,800.4 443.1,827.2 445,805.6 445.8,795.3 				"/>
			</g>
			<g>
				<polygon class="st5" points="544.5,686 256.5,784.7 221.2,643 				"/>
			</g>
			<g>
				<polygon class="st3" points="135.1,297 782,297 886.9,689 229.3,689 				"/>
			</g>
		</g>
		<g>
			<path class="st5" d="M601.6,738.5c-1.9-9.6-11.2-17.4-20.8-17.4c-9.6,0-15.9,7.8-14,17.4c1.9,9.6,11.2,17.4,20.8,17.4
				C597.2,755.9,603.5,748.2,601.6,738.5z"/>
		</g>
		<polygon class="st8" points="856.4,672 250.7,672 182.2,398.8 176.9,377.8 172.4,359.9 168.8,345.6 161.9,318 758.8,318 
			759.3,319.5 766.4,345.6 770.4,359.9 775.3,377.8 781.1,398.8 		"/>
		<polygon class="st0" points="856.4,672.9 250.7,672.9 182.2,399.7 176.9,378.7 172.4,360.9 168.8,346.5 161.9,318.9 758.8,318.9 
			759.3,320.5 766.4,346.5 770.4,360.9 775.3,378.7 781.1,399.7 		"/>
		<g class="st1">
			<polygon class="st2" points="766.4,345.6 168.8,345.6 161.9,318 758.6,318 759.3,319.5 			"/>
		</g>
		<g>
			<path class="st0" d="M178.5,331.8c-0.7-2.9,1-5.2,3.9-5.2s5.8,2.3,6.5,5.2c0.7,2.9-1,5.2-3.9,5.2S179.2,334.7,178.5,331.8z"/>
			
				<ellipse transform="matrix(0.662 -0.7495 0.7495 0.662 -180.7136 262.9304)" class="st0" cx="201.1" cy="331.8" rx="4.6" ry="5.9"/>
			<path class="st0" d="M214.6,331.8c-0.7-2.9,1-5.2,3.9-5.2s5.8,2.3,6.5,5.2c0.7,2.9-1,5.2-3.9,5.2
				C218.3,337.1,215.4,334.7,214.6,331.8z"/>
		</g>
		<g>
			<path class="st9" d="M439.4,672.9h-59.9c-0.6-4.7-1.1-9.6-1.5-14.8c-0.8-9.3-1.4-19.2-1.9-29.6c-0.1-2.4-0.2-4.8-0.3-7.2
				c-0.1-3.1-0.2-6.2-0.3-9.4c-0.1-5.3-0.3-10.7-0.3-16.2c0,0,0,0,0,0c-0.1-6.9-0.2-13.9-0.2-20.8c0,0,0,0,0,0c0-1.7,0-3.5,0-5.2v0
				c0-1.6,0-3.2,0-4.9c0.1-14.9,0.3-29.6,0.6-43.2c0.7-30.1,1.8-55.3,2.4-67.3v0c0.2-5,0.4-7.7,0.4-7.7c0,0,0,0,0,0
				c0.1,0,1,0.2,2.5,0.5c1,0.3,2.4,0.6,3.9,1.1h0c1.4,0.4,2.9,0.9,4.5,1.5c0,0,0,0,0,0c2.7,1,5.6,2.4,8.3,4c0,0,0.1,0,0.1,0.1
				c4.5,2.8,8.5,6.5,10.4,11.3c1.6,4.1,5.3,26.3,9.8,55.8c0.1,0.8,0.3,1.7,0.4,2.5c2.4,15.6,4.9,33.2,7.5,51.1
				c2.7,19,5.4,38.4,7.9,56.4C435.8,646.4,437.8,660.8,439.4,672.9z"/>
			<path class="st10" d="M422.7,672.9h-69.7c-1.3-5.8-2.6-11.3-3.7-16.5c-3.1-14.3-5.1-26.1-5-32.4c0.1-3,1.2-5.3,3.1-7.1
				c1.3-1.2,3-2.2,5-2.9c5.9-2.2,14.3-2.6,23.2-2c3,0.2,6.1,0.5,9.1,0.8c16.6,2,31.9,6.1,31.9,6.1s1,4.2,2.2,11.4
				c0.9,5.5,1.9,12.7,2.7,21.2c0.4,4.9,0.8,10.3,1,16.1C422.5,669.4,422.6,671.1,422.7,672.9z"/>
			<path class="st11" d="M390.5,624.1l-0.7,5l-3.4,24.5l-0.6,4.2l-2.1,15.2h-72.6c-0.6-10-1.1-19.8-1.2-28.3c0-0.9,0-1.9,0-2.8
				c0-12.8,1.1-22.3,4.8-24.7c4.2-2.7,18-2,32.7-0.2c1.5,0.2,2.9,0.4,4.4,0.6c8.6,1.2,17.2,2.6,24.1,3.8c3.6,0.6,6.7,1.2,9.1,1.7
				C388.4,623.7,390.5,624.1,390.5,624.1z"/>
			<path class="st0" d="M309.9,459.2c0,0,39.9-25.8,68.5-12.6c4.6,2.1,9.8,8,13.5,12.1c10.3,11.4,30.6,192.5,30.6,192.5
				s-57.4,19.4-112.6-6.6V459.2z"/>
			<path class="st9" d="M380.7,446c0,0,40.4,16.6,45.9,29.3c5.5,12.7,23.3,90.9,23.3,100c0,9.2-31,2-36-12.7
				c-4.1-12.3-18.1-50-25.5-73.8L380.7,446z"/>
			<g>
				<path class="st12" d="M372.3,458.6c-8.8,1.7-21.8-0.1-31.3-6.4c4.3-10.2,6-18.3,6.7-23.5c0-0.3,0.1-0.5,0.1-0.8
					c0.3-2.7,0.2-4.5,0.1-5.4h22.8c0,0,6.2,2.9,6.2,4.8c0,1.1,0,2.1,0,3c0,2.6,0.2,4.9,0.3,6.9c0.4,6.4,1.2,9.4,1.2,9.4
					S381.2,456.8,372.3,458.6z"/>
				<path class="st13" d="M377.2,437.2c-17.3,3.3-27.3-6.1-29.6-8.5c-0.3-0.3-0.5-0.6-0.5-0.6c0.2-0.1,0.4-0.2,0.6-0.3
					c6.4-2.6,21-0.5,29.2,2.5C377,433,377.1,435.3,377.2,437.2z"/>
				<path class="st12" d="M342,418.7c3.1,16.6,24.5,16.1,33.8,15c2.6-0.3,4.2-0.6,4.2-0.6c2.9-0.8,4.6-5.4,5.3-11.5
					c1.5-12-0.4-29.6-2.4-34.1c-3.1-6.8-8.8-14.1-30.4-8.8C331,384,338.1,397.5,342,418.7z"/>
				<path class="st10" d="M383.8,378.3c-3-4.1-9.2-9.1-14.9-12.2c-12.2-6.6-27.8,0.2-27.9,0.2c-17.6,7.8-22.2,21.2-12.9,42.3
					c9.9,22.2,19.3,19.7,19.3,19.7s-2-1.2-1.8-8.2c0-0.4,0-0.7,0-1c0.1-1.4-0.4-2.8-1.5-3.8c-2.2-2-3.3-7.9-1.4-9.5
					c2.2-2,5.3,0.4,6.3,2.3c0.9,1.3,2.4,1.8,3.9,0.9c5.5-3.5,1.9-10.4,7.2-14.7c5.2-4.2,15.9-0.7,23.8-4.1
					C394.2,386.4,386,381.3,383.8,378.3z"/>
			</g>
			<path class="st9" d="M386.6,672.9h-86.9c0.6-18,1.4-39.5,2.3-61.3c0.2-5.6,0.4-11.3,0.7-16.9c0.1-2.4,0.2-4.8,0.3-7.1
				c1.9-48.4,3.8-92.1,4.2-94.4c0.9-5.3,1.8-9.9,2.7-13.8c2.7-11.5,6.1-17.7,13.5-23.2c0.7-0.5,6.6-3.5,11.9-6.1c4.3-2.1,8-4,8.2-4
				v0h0c0.9,0.4,1.8,1.6,2.8,3.4c1,1.8,2.1,4.1,3.1,6.9c4,10.2,8.3,25.8,11.2,37.5c0,0,0,0,0,0c0,0,0,0,0,0c0,0,0,0,0,0
				c1.9,7.5,3.3,13.4,3.7,15.1c0.7,2.8,1.5,8.3,2.6,15.8v0c1.4,10.2,3.1,23.9,4.9,39.6v0c0.2,1.6,0.4,3.2,0.5,4.9
				c0.2,1.9,0.4,3.8,0.6,5.7v0c0.1,0.6,0.1,1.2,0.2,1.8v0c0.7,6.2,1.4,12.6,2.1,19.1c0,0,0,0,0,0c0.6,5.4,8.7,9.2,9.3,14.7
				c0,0.4,0.1,1.2,0.1,2.3c0.1,2.3,0.2,6,0.4,10.2c0.1,1.9,0.1,3.9,0.2,5.9c0.3,9.1,0.7,19,1.2,23.8c0,0.2,0,0.5,0.1,0.9
				c0.1,1,0.1,2.4,0.1,4.1C386.6,661.5,386.6,666.8,386.6,672.9z"/>
			<path class="st14" d="M327.4,512.6c0,0.1-1.4,48.9,35.3,54.8c36.7,5.9,12.3,7.5,12.3,7.5s-69.1-2.9-70.2-4.8
				C303.6,568.4,327.4,512.6,327.4,512.6z"/>
			<path class="st14" d="M358.4,588.4c0,0-0.7,0.5-2,1.3c0,0,0,0-0.1,0c-5.6,3.6-22.2,13.3-46.4,19.9c-2.5,0.7-5.2,1.3-7.9,1.9
				c0.2-5.6,0.4-11.3,0.7-16.9c-3.2-0.3-6.3-0.7-9.1-1.3c0.1-0.7,0.2-1.5,0.3-2.2c3.1-1.3,6.1-2.5,9.1-3.6c2.4-0.9,4.7-1.8,6.9-2.7
				c9.9-3.8,17.3-6.3,17.3-6.3l29.4,9.3L358.4,588.4z"/>
			<path class="st9" d="M366.2,587.6c0,0-3.8,0.9-9.8,2.2c0,0,0,0-0.1,0c-11.1,2.2-29.8,5.4-46.4,5.2c-2.5,0-4.9-0.1-7.2-0.3
				c-3.2-0.3-6.3-0.7-9.1-1.3c-6.1-1.3-11.2-3.5-14.5-6.9c-24.8-25.3,13.5-115.9,21.6-124.7c9.4-10.3,26.6-13.9,36.1-15.2
				c0.4-0.1,0.8-0.1,1.1-0.1c3.3-0.4,5.5-0.5,5.6-0.5c0,0,0,0,0,0s-0.7,2.4-2,6.4c-0.5,1.6-1,3.4-1.7,5.4
				c-5.8,19.1-17.1,56.6-22,77.7c-1.8,7.7-2.8,13.3-2.3,14.9c1.9,7.2,22,10.9,34.7,12.6c5.3,0.7,9.3,1,10.2,1.1c0.1,0,0.1,0,0.2,0
				l0.7,3l1.8,7.2l1.7,7.1L366.2,587.6z"/>
			<polygon class="st15" points="435.3,631.1 350.2,627.5 367.4,521.3 452.6,524.9 			"/>
			<path class="st12" d="M360.5,564.2c0,0,16.6-1.2,17.4,2.7c1.9,9-14.3,16.4-19.5,15.9C353.1,582.3,356.7,563.6,360.5,564.2z"/>
			<path class="st12" d="M447.9,546.5c0,0-15.9-5-17.6-1.4c-4,8.3,10.1,19.3,15.3,20C450.9,565.8,451.8,546.8,447.9,546.5z"/>
			<path class="st14" d="M345.1,440.7c0,0-7,3.3-10.5,8.3c0,0,26.1,45.3,26,44.8C360.5,493.5,351.8,446.5,345.1,440.7z"/>
			<path class="st14" d="M377.6,441.3c2.3,0.9,6.7,5.4,7.7,7.9l3.1,39.5c0,0-6.6-29-10-42.1C377.6,443.3,377.7,442.3,377.6,441.3z"
				/>
			<path class="st11" d="M395.7,522.5c0,0,0.7-2.9,4.5-2.6c3.9,0.3,25.7,1.4,25.7,1.4s4.2-0.1,3.8,2.6L395.7,522.5z"/>
			<path class="st0" d="M370.7,422.5c0,0,2.8,2.6,7.4,1.8c2.7-0.5,4.2-4,4.2-4S377.1,419.3,370.7,422.5z"/>
		</g>
		<g>
			<g>
				<g class="st1">
					<polygon class="st2" points="774.2,455.5 711.3,455.8 690.9,377.7 753.8,377.4 					"/>
				</g>
				<g>
					<g class="st1">
						<polygon class="st2" points="738.2,387.7 711.9,387.8 711.6,386.6 737.9,386.5 						"/>
					</g>
					<g class="st1">
						<polygon class="st2" points="742.4,390.9 709.3,391 709,389.9 742.1,389.7 						"/>
					</g>
					<g>
						<g class="st1">
							<polygon class="st2" points="751.5,406.8 708.5,406.9 708.2,405.8 751.2,405.6 							"/>
						</g>
						<g class="st1">
							<polygon class="st2" points="752.5,410.6 709.5,410.8 709.2,409.6 752.2,409.4 							"/>
						</g>
						<g class="st1">
							<polygon class="st2" points="753.5,414.4 710.5,414.6 710.2,413.4 753.2,413.3 							"/>
						</g>
						<g class="st1">
							<polygon class="st2" points="754.5,418.2 711.5,418.4 711.2,417.2 754.2,417.1 							"/>
						</g>
						<g class="st1">
							<polygon class="st2" points="755.5,422 712.5,422.2 712.2,421 755.2,420.9 							"/>
						</g>
					</g>
					<g>
						<g class="st1">
							<polygon class="st2" points="757.9,431.3 714.9,431.4 714.6,430.3 757.6,430.1 							"/>
						</g>
						<g class="st1">
							<polygon class="st2" points="758.9,435.1 715.9,435.3 715.6,434.1 758.6,433.9 							"/>
						</g>
						<g class="st1">
							<polygon class="st2" points="759.9,438.9 716.9,439.1 716.6,437.9 759.6,437.7 							"/>
						</g>
						<g class="st1">
							<polygon class="st2" points="760.9,442.7 717.9,442.9 717.6,441.7 760.6,441.6 							"/>
						</g>
						<g class="st1">
							<polygon class="st2" points="761.9,446.5 718.9,446.7 718.6,445.5 761.6,445.4 							"/>
						</g>
					</g>
				</g>
			</g>
			<g>
				<g class="st1">
					<polygon class="st2" points="799.6,552.6 736.7,552.8 716.3,474.7 779.2,474.5 					"/>
				</g>
				<g>
					<g class="st1">
						<polygon class="st2" points="763.6,484.7 737.2,484.8 736.9,483.7 763.3,483.6 						"/>
					</g>
					<g class="st1">
						<polygon class="st2" points="767.8,487.9 734.7,488.1 734.4,486.9 767.5,486.8 						"/>
					</g>
					<g>
						<g class="st1">
							<polygon class="st2" points="776.9,503.8 733.9,504 733.6,502.8 776.6,502.7 							"/>
						</g>
						<g class="st1">
							<polygon class="st2" points="777.9,507.6 734.9,507.8 734.6,506.6 777.6,506.5 							"/>
						</g>
						<g class="st1">
							<polygon class="st2" points="778.9,511.5 735.9,511.6 735.6,510.5 778.6,510.3 							"/>
						</g>
						<g class="st1">
							<polygon class="st2" points="779.9,515.3 736.9,515.4 736.6,514.3 779.6,514.1 							"/>
						</g>
						<g class="st1">
							<polygon class="st2" points="780.9,519.1 737.9,519.2 737.6,518.1 780.6,517.9 							"/>
						</g>
					</g>
					<g>
						<g class="st1">
							<polygon class="st2" points="783.3,528.3 740.3,528.5 740,527.3 783,527.2 							"/>
						</g>
						<g class="st1">
							<polygon class="st2" points="784.3,532.1 741.3,532.3 741,531.1 784,531 							"/>
						</g>
						<g class="st1">
							<polygon class="st2" points="785.3,535.9 742.3,536.1 742,535 785,534.8 							"/>
						</g>
						<g class="st1">
							<polygon class="st2" points="786.3,539.8 743.3,539.9 743,538.8 786,538.6 							"/>
						</g>
						<g class="st1">
							<polygon class="st2" points="787.3,543.6 744.3,543.7 744,542.6 787,542.4 							"/>
						</g>
					</g>
				</g>
			</g>
			<g>
				<g class="st1">
					<polygon class="st2" points="825.1,650.3 762.2,650.5 741.8,572.4 804.7,572.2 					"/>
				</g>
				<g>
					<g class="st1">
						<polygon class="st2" points="789.1,582.4 762.7,582.5 762.4,581.4 788.8,581.3 						"/>
					</g>
					<g class="st1">
						<polygon class="st2" points="793.3,585.6 760.2,585.8 759.9,584.6 793,584.5 						"/>
					</g>
					<g>
						<g class="st1">
							<polygon class="st2" points="802.4,601.5 759.4,601.7 759.1,600.5 802.1,600.4 							"/>
						</g>
						<g class="st1">
							<polygon class="st2" points="803.4,605.3 760.4,605.5 760.1,604.3 803.1,604.2 							"/>
						</g>
						<g class="st1">
							<polygon class="st2" points="804.4,609.1 761.4,609.3 761.1,608.2 804.1,608 							"/>
						</g>
						<g class="st1">
							<polygon class="st2" points="805.4,613 762.4,613.1 762.1,612 805.1,611.8 							"/>
						</g>
						<g class="st1">
							<polygon class="st2" points="806.4,616.8 763.4,616.9 763.1,615.8 806.1,615.6 							"/>
						</g>
					</g>
					<g>
						<g class="st1">
							<polygon class="st2" points="808.8,626 765.8,626.2 765.5,625 808.5,624.9 							"/>
						</g>
						<g class="st1">
							<polygon class="st2" points="809.8,629.8 766.8,630 766.5,628.8 809.5,628.7 							"/>
						</g>
						<g class="st1">
							<polygon class="st2" points="810.8,633.6 767.8,633.8 767.5,632.6 810.5,632.5 							"/>
						</g>
						<g class="st1">
							<polygon class="st2" points="811.8,637.5 768.8,637.6 768.5,636.5 811.5,636.3 							"/>
						</g>
						<g class="st1">
							<polygon class="st2" points="812.8,641.3 769.8,641.4 769.5,640.3 812.5,640.1 							"/>
						</g>
					</g>
				</g>
			</g>
			<g>
				<g>
					<g class="st1">
						<polygon class="st2" points="742.4,650.9 522.4,651.7 459,409.3 487.7,378.4 671,377.8 						"/>
					</g>
					<g class="st1">
						<polygon class="st2" points="610.4,418.7 532.9,419 532,415.6 609.5,415.3 						"/>
					</g>
					<g class="st1">
						<polygon class="st2" points="622.8,428.2 525.5,428.5 524.6,425.1 621.9,424.8 						"/>
					</g>
					<g>
						<g class="st1">
							<polygon class="st2" points="649.6,474.9 523.1,475.4 522.2,472 648.7,471.5 							"/>
						</g>
						<g class="st1">
							<polygon class="st2" points="652.5,486.1 526.1,486.6 525.2,483.2 651.6,482.7 							"/>
						</g>
						<g class="st1">
							<polygon class="st2" points="655.4,497.3 529,497.8 528.1,494.4 654.5,493.9 							"/>
						</g>
						<g class="st1">
							<polygon class="st2" points="658.4,508.5 531.9,509 531,505.6 657.5,505.1 							"/>
						</g>
						<g class="st1">
							<polygon class="st2" points="661.3,519.7 534.8,520.1 533.9,516.7 660.4,516.3 							"/>
						</g>
					</g>
					<g>
						<g class="st1">
							<polygon class="st2" points="668.4,546.9 541.9,547.4 541.1,544 667.5,543.5 							"/>
						</g>
						<g class="st1">
							<polygon class="st2" points="671.3,558.1 544.9,558.6 544,555.2 670.4,554.7 							"/>
						</g>
						<g class="st1">
							<polygon class="st2" points="674.2,569.3 547.8,569.8 546.9,566.4 673.4,565.9 							"/>
						</g>
						<g class="st1">
							<polygon class="st2" points="677.2,580.5 550.7,581 549.8,577.6 676.3,577.1 							"/>
						</g>
						<g class="st1">
							<polygon class="st2" points="680.1,591.7 553.6,592.2 552.7,588.8 679.2,588.3 							"/>
						</g>
					</g>
				</g>
				<g class="st1">
					<polygon class="st2" points="459,409.3 495.7,409.2 487.7,378.4 					"/>
				</g>
			</g>
		</g>
	</g>
	<g>
		<g>
			<g>
				<path class="st0" d="M982.9,841h-173v-63.3h173.7c17.3,0,31.3,14,31.3,31.3v0C1014.8,826.7,1000.5,841,982.9,841z"/>
				<g>
					<path class="st4" d="M1167.7,803.8v9.5c0,5.1-1.4,9.8-3.8,13.9c-4.8,8.2-13.7,13.8-24,13.8H804.4c-2.2,0-4-1.8-4-4v-1.4
						c0-2.2,1.8-4,4-4H1009c1.1-1.3,2.1-2.8,2.9-4.3c1.9-3.6,3-7.7,3-12.1v-12.1c0-2.2-0.3-4.4-0.8-6.4c-0.9-3.5-2.6-6.7-4.7-9.4
						H804.4c-2.2,0-4-1.8-4-4v-1.4c0-2.2,1.8-4,4-4h337.3c11.9,0,21.9,8,25,18.9C1167.4,798.9,1167.7,801.3,1167.7,803.8z"/>
				</g>
				<g>
					<path class="st3" d="M1166.7,796.6H1014c-0.9-3.5-2.6-6.7-4.7-9.4H804.4c-2.2,0-4-1.8-4-4v-1.4c0-2.2,1.8-4,4-4h337.3
						C1153.6,777.8,1163.6,785.8,1166.7,796.6z"/>
				</g>
			</g>
			<polygon class="st16" points="809.9,809.4 834.7,810.5 809.9,811.1 			"/>
			<polygon class="st16" points="809.9,819.3 869,820.4 809.9,821 			"/>
		</g>
		<g>
			<g>
				<g>
					<path class="st9" d="M852.6,890.1h190.7v-49.2H851c-13.2,0-23.8,10.7-23.8,23.8v0C827.2,878.8,838.6,890.1,852.6,890.1z"/>
					<path class="st0" d="M1032.4,890.1h216.9v-49.2h-217.5c-13.4,0-24.3,10.9-24.3,24.3v0C1007.5,879,1018.7,890.1,1032.4,890.1z"
						/>
					<path class="st9" d="M993,890.1h263.8c2,0,3.7-1.6,3.7-3.7l0,0c0-2-1.6-3.7-3.7-3.7H993c-2,0-3.7,1.6-3.7,3.7l0,0
						C989.4,888.5,991,890.1,993,890.1z"/>
					<path class="st9" d="M993,848.3h263.8c2,0,3.7-1.6,3.7-3.7l0,0c0-2-1.6-3.7-3.7-3.7H993c-2,0-3.7,1.6-3.7,3.7l0,0
						C989.4,846.6,991,848.3,993,848.3z"/>
				</g>
				<polygon class="st16" points="1249.3,865.5 1220,866.3 1249.3,866.8 				"/>
				<polygon class="st16" points="1249.3,854.2 1179.6,855 1249.3,855.5 				"/>
			</g>
			<g>
				<g>
					<path class="st4" d="M1180.3,854.9c0,0,3,2.1,4,5.6c0.2,0.6,0.3,1.3,0.3,1.9c0.2,4.6,0,15.1,0,15.1l8.8-5.2l8.8,5.2v-14.2
						c0-2.7-0.8-5.3-2.2-7c-0.7-0.8-1.5-1.4-2.4-1.4H1180.3z"/>
				</g>
				<g>
					<path class="st3" d="M1180.3,854.9c0,0,3,2.1,4,5.6l17.7,0.2c0,0-0.7-5-4.3-5.8H1180.3z"/>
				</g>
			</g>
		</g>
		<g>
			<g>
				<g>
					<path class="st0" d="M1017.8,777.9h187.1v-72.3h-188c-19.7,0-35.7,16-35.7,35.7v0C981.2,761.6,997.6,777.9,1017.8,777.9z"/>
					<g>
						<path class="st5" d="M985.8,733.7v15.6c0,6.6,3.7,12.4,9.1,15.5c2.7,1.5,5.7,2.4,9,2.4h211.6c2.5,0,4.5,2,4.5,4.5v1.8
							c0,2.5-2,4.5-4.5,4.5H850c-10.5,0-19.8-5.2-25.4-13.2c-3.5-5-5.6-11.1-5.6-17.8v-12.3c0-4.5,1-8.8,2.9-12.6
							c4.7-9.7,14.7-16.4,26.2-16.4h367.4c2.5,0,4.5,2,4.5,4.5v1.8c0,2.5-2,4.5-4.5,4.5h-212.2c-5.1,0-9.7,2.2-12.9,5.6
							C987.6,725.1,985.8,729.2,985.8,733.7z"/>
					</g>
				</g>
				<polygon class="st16" points="1204.9,741.8 1177.8,743 1204.9,743.7 				"/>
				<polygon class="st16" points="1204.9,725.1 1140.4,726.3 1204.9,727.1 				"/>
			</g>
			<g>
				<g>
					<path class="st6" d="M1141.1,726.1c0,0,4.3,2.3,5.7,6.1c0.2,0.7,0.4,1.4,0.4,2.1c0.2,5,0,16.3,0,16.3l12.6-5.7l12.5,5.7v-15.4
						c0-2.9-1.1-5.7-3.1-7.6c-1-0.9-2.1-1.6-3.5-1.6H1141.1z"/>
				</g>
				<g>
					<path class="st5" d="M1141.1,726.1c0,0,4.3,2.3,5.7,6.1l25.2,0.2c0,0-1-5.4-6.2-6.3H1141.1z"/>
				</g>
			</g>
		</g>
	</g>
	<g>
		<g>
			<path class="st14" d="M1013.5,678.8c11.2,19.4,25.2,26.9,25.2,26.9h58.3C1097,705.7,1005,664,1013.5,678.8z"/>
			<g>
				<path class="st12" d="M1058.3,829c1.5,1.7,1.7,3.7,1,5.8c0,0,0,0,0,0c-1.4,3.8-6,8.1-11.3,12.4c-0.7,0.6-1.3,1.1-1.8,1.5
					c-0.1,0.1-0.3,0.2-0.4,0.4c-0.1,0.1-0.2,0.2-0.3,0.3c-5,4.6-3.1,5.6-12.1,15c-10.2,10.6-17.2,10.8-19.2,9.8
					c-1.7-0.8,1.7-6.5,5.5-12.8c0.2-0.3,0.4-0.6,0.6-0.9c0.5-0.8,1-1.7,1.5-2.5c4.5-7.6,3.3-11.2,2.3-22.5
					c-0.9-9.2-14.3-51.5-14.3-51.5l19.6-3.4c0,0,5.9,33.6,12.4,38.8c3.5,2.8,7.4,2.8,10.7,4.8c0.2,0.1,0.5,0.3,0.7,0.4
					C1054.9,825.9,1056.8,827.2,1058.3,829z"/>
				<path class="st10" d="M1058.3,829c1.5,1.7,1.7,3.7,1,5.8c0,0,0,0,0,0c-1.7,3.8-6.2,8.1-11.3,12.4c-0.7,0.6-1.3,1.1-1.8,1.6
					c-0.1,0.1-0.3,0.2-0.4,0.4c-0.1,0.1-0.2,0.2-0.3,0.3c-5,4.6-3.1,5.6-12.1,15c-10.2,10.6-17.2,10.8-19.2,9.8
					c-1.7-0.8,1.7-6.5,5.5-12.8c2-0.7,11.2-4.5,18.2-13.4c6.1-7.8,10.2-17.9,14.4-23.7c0.2,0.1,0.5,0.3,0.7,0.4
					C1054.9,825.9,1056.8,827.2,1058.3,829z"/>
				<path class="st12" d="M900.7,816.8c-1.2,6-9.8,5-19.4,2.7c-9.6-2.3-7.3,0.4-21-1.1c-13.7-1.5-17.8-6.6-18.2-8.6
					c-0.4-1.8,6.4-2.4,13.6-3.3c0.9-0.1,1.8-0.2,2.7-0.3c8.2-1,14.2-6.3,21.6-10.6c7-4.1,17.6-20.8,17.6-20.8l18.8,1.5
					c0,0-9.8,15-13.7,21.5c-2.2,3.8-2.1,8.9-1.8,12.8C901,812.5,901.1,814.6,900.7,816.8z"/>
				<path class="st10" d="M881.3,819.4c-9.6-2.3-7.3,0.4-21-1.1c-13.7-1.5-17.8-6.6-18.2-8.6c-0.4-1.8,6.4-2.4,13.6-3.3l0.1,0.1
					c0,0,8.2,5.8,19.6,6.1c9.3,0.2,19.1-2.4,25.5-2.3c0.1,2.1,0.3,4.3-0.1,6.4C899.5,822.8,890.9,821.8,881.3,819.4z"/>
				<path class="st14" d="M972.6,696.8l17.5,47.2l22.9,61.6c0,0,6.2,0.6,12.2-1.1c5.5-1.6,11.8-5.7,11.8-5.7s-6.4-66.2-18.2-104.1
					c-3-9.7-6.4-17.6-10.2-22.1C990.1,650.9,972.6,696.8,972.6,696.8z"/>
				<path class="st9" d="M990.4,621.9c11.5-3.7,44.3,1.1,77.2,7.5l6.9-11.4l71.1-5.6c0,0,23.5,52,10.6,85.2c-1.9,4.9-5.6,8-12,8.1
					c0,0-1,0-1,0c0,0-42.3,0-56.1,0c-35.4,0-74.8-24.3-79.9-25.3c-8.4-1.7-11.7,15-20.1,32.6c-8.4,17.5-78.6,77.7-78.6,77.7
					s-10.8,0.1-15.2-1.6c-4.8-1.8-6.5-4.1-6.5-4.1S964.5,630.2,990.4,621.9z"/>
				<path class="st16" d="M1074.9,520.1c25.3,13.9,76.7,42.8,76.9,42.6c0,0,18.9,7.1,29.6,0c17.8-11.9,27.4-43.8-5.2-71.2
					c-16.3-13.7-27.8-17-29.6-38.9c-1-11.9-17.2-51-44.1-47.4c-2.3,0.3-16.1,0.9-25.2,5.7C1054,423.2,1036.9,514.7,1074.9,520.1z"/>
				<path class="st12" d="M1096.1,508.2c-0.1,0.1,12.5,4.4,20.9,0.6c7.9-3.5,13.9-16.5,13.8-16.5c-3.6-0.2-7.5-3.3-10.6-23.9
					l-1.5,0.5l-25.7,9.3c0,0,1.9,8.3,3.1,16.1C1096.9,501,1097.5,507.3,1096.1,508.2z"/>
				<path class="st17" d="M1092.9,478.3c0,0,1.9,8.3,3.1,16.1c14.8-2.7,20.6-17.4,22.7-25.4L1092.9,478.3z"/>
				<path class="st12" d="M1089,486.5c0,0,35.2-4.7,31.9-26.6c-3.3-21.9-0.9-37.2-23.6-35.2c-22.6,2.1-25.7,11.1-26.4,18.7
					C1070.3,450.9,1079.8,487.1,1089,486.5z"/>
				<path class="st0" d="M1072.3,431.4c0,0,22.6,19.4,37.9,21c15.3,1.6,21.1-3.4,21.1-3.4s-9-7.5-14.5-19.6c-1.6-3.6-5-6-8.9-6.4
					C1097,422.1,1076.2,421.6,1072.3,431.4z"/>
				<path class="st0" d="M1086.3,429.6c0,0-7.5,7.3-9.9,12.7c-2.3,5.2-3,17.7-1.2,22.7c0,0-11.8-22.9-5.1-34
					C1077.2,419.3,1086.3,429.6,1086.3,429.6z"/>
				<path class="st0" d="M1066.4,560.1c1.1,71.3,0.3,56.4,8.1,63.2c1.9,1.6,7.2,2.6,14.1,3.1c21.9,1.5,60.3-2.2,61.8-6.2
					c5-14,1.5-18.3,5.7-39.7c0.4-2.3,1-4.7,1.6-7.4c3.5-14.7,6.9-19.7-5.5-43.3c-11.3-21.4-23-38.8-24.1-38.1
					c-29.8,17.7-32.2,2.8-32.2,2.8S1065.9,525.4,1066.4,560.1z"/>
				<path class="st9" d="M990.1,744l22.9,61.6c0,0,6.2,0.6,12.2-1.1c5.5-1.6,11.8-5.7,11.8-5.7s-6.4-66.2-18.2-104.1L990.1,744z"/>
				<path class="st0" d="M1095.9,494.4c0,0-30.6,5.2-34.2,18.4c-3.6,13.2-24.8,90.8-24.8,90.8s15.6,2.8,22.8-4.4
					c7.2-7.2,25-66.8,25-66.8L1095.9,494.4z"/>
				<path class="st16" d="M1088.6,626.4c21.9,1.5,60.3-2.2,61.8-6.2c5-14,1.5-18.3,5.7-39.7l-10.5-29.7c0,0,1.7,33.1-8,41.8
					c-9.7,8.7-39.9,16.8-44.7,24.1C1090.6,620.1,1089.1,623.6,1088.6,626.4z"/>
				<path class="st12" d="M1113.7,612.5c0,0-21.6-4.8-25.1-2.9c-3.5,1.9-12,8.9-13.1,11.3c-1.1,2.4,7.7-1.8,10.6-2.6
					c1.9-0.5,6.7,1.2,9.2,2c10.2,3.4,16.4,1.6,16.4,1.6L1113.7,612.5z"/>
				<path class="st0" d="M1128.1,491.6c0,0,29,1.8,39,15.8c14.1,19.7,42.1,103.6,26.1,114.8c-18.1,12.6-82.2,3.3-82.2,3.3
					s-2.1-10,0.8-14.8c3-4.8,51.3-12.6,53.5-14.9c2.2-2.2-27.9-43.5-27.9-50.1C1137.4,538.9,1128.1,491.6,1128.1,491.6z"/>
				<path class="st12" d="M1087.6,615.6c0,0-4.5,5.8-6,6.5c-1.5,0.7-2.4,0.5-2.4,0.5l3-5.5L1087.6,615.6z"/>
				<path class="st12" d="M1088.6,609.6l-13.1,6.4c0,0,0.6,0.9,2.2,0.8c1.6-0.1,5.7-1.6,5.7-1.6L1088.6,609.6z"/>
			</g>
			<g>
				<g>
					<g>
						<polygon class="st6" points="1081.6,631 977.6,631 946.4,553.3 1050.2,553.3 						"/>
					</g>
					<g>
						<polygon class="st5" points="976.4,628 1113.7,628 1113.7,631 977.6,631 						"/>
					</g>
				</g>
				<path class="st0" d="M1003.9,592.2c-0.8-2.7,0.8-4.9,3.5-4.9s5.6,2.2,6.4,4.9c0.8,2.7-0.8,4.9-3.5,4.9
					C1007.5,597.1,1004.7,594.9,1003.9,592.2z"/>
			</g>
		</g>
	</g>
	<g>
		<g>
			<path class="st0" d="M136.9,661.6l-2.2,1.5c-2.4,1.6-5.6,1-7.3-1.3l-12.9-18.6c-1.6-2.4-1-5.6,1.3-7.3l3.2-2.2
				c0.5-0.3,1.1-0.2,1.4,0.3c0.3,0.5,0.2,1.1-0.3,1.4l-3.2,2.2c-1.4,1-1.8,3-0.8,4.4l12.9,18.6c1,1.4,3,1.8,4.4,0.8l2.2-1.5
				c1.4-1,1.8-3,0.8-4.4l-8.5-12.3c-0.3-0.5-0.2-1.1,0.3-1.4c0.5-0.3,1.1-0.2,1.4,0.3l8.5,12.3C139.9,656.7,139.3,659.9,136.9,661.6
				z"/>
		</g>
		<g>
			<path class="st0" d="M151.1,679.9l-4,2.8c-3.7,2.6-8.9,1.4-11.6-2.5l-19.4-27.9c-0.3-0.5-0.2-1.1,0.3-1.4
				c0.5-0.3,1.1-0.2,1.4,0.3l19.4,27.9c2.1,3,6,3.9,8.8,2l4-2.8c2.8-1.9,3.3-5.9,1.2-9l-22-31.8c-2.1-3-6-3.9-8.8-2
				c-0.5,0.3-1.1,0.2-1.4-0.3c-0.3-0.5-0.2-1.1,0.3-1.4c3.7-2.6,8.9-1.4,11.6,2.5l22,31.8C155.5,672.1,154.7,677.3,151.1,679.9z"/>
		</g>
	</g>
	<g>
		<g>
			<path class="st0" d="M177.7,825.8l0.5,3.9c0.5,4.2-2.5,8-6.7,8.5l-33,4c-4.2,0.5-8-2.5-8.5-6.7l-0.7-5.6
				c-0.1-0.8,0.5-1.6,1.3-1.7c0.8-0.1,1.6,0.5,1.7,1.3l0.7,5.6c0.3,2.6,2.6,4.4,5.2,4.1l33-4c2.6-0.3,4.4-2.6,4.1-5.2l-0.5-3.9
				c-0.3-2.6-2.6-4.4-5.2-4.1l-21.9,2.7c-0.8,0.1-1.6-0.5-1.7-1.3c-0.1-0.8,0.5-1.6,1.3-1.7l21.9-2.7
				C173.3,818.6,177.2,821.6,177.7,825.8z"/>
		</g>
		<g>
			<path class="st0" d="M211.2,820l0.9,7.1c0.8,6.5-4.3,12.6-11.3,13.4l-49.6,6c-0.8,0.1-1.6-0.5-1.7-1.3c-0.1-0.8,0.5-1.6,1.3-1.7
				l49.6-6c5.4-0.7,9.3-5.2,8.7-10.1l-0.9-7.1c-0.6-4.9-5.4-8.4-10.8-7.7l-56.5,6.9c-5.4,0.7-9.3,5.2-8.7,10.1
				c0.1,0.8-0.5,1.6-1.3,1.7c-0.8,0.1-1.6-0.5-1.7-1.3c-0.8-6.5,4.3-12.6,11.3-13.4l56.5-6.9C204.1,808.8,210.4,813.4,211.2,820z"/>
		</g>
	</g>
	<g>
		
			<ellipse transform="matrix(0.2298 -0.9732 0.9732 0.2298 224.5648 1001.0657)" class="st6" cx="744.7" cy="358.7" rx="4.6" ry="4.6"/>
	</g>
	<path class="st0" d="M1362.5,893.3H28.7c-1,0-1.8-0.8-1.8-1.8v0c0-1,0.8-1.8,1.8-1.8h1333.8c1,0,1.8,0.8,1.8,1.8v0
		C1364.3,892.5,1363.5,893.3,1362.5,893.3z"/>
</g>
</svg>
