<?xml version="1.0" encoding="utf-8"?>
<!-- Generator: Adobe Illustrator 22.1.0, SVG Export Plug-In . SVG Version: 6.00 Build 0)  -->
<svg version="1.1" id="Layer_1" xmlns="http://www.w3.org/2000/svg" xmlns:xlink="http://www.w3.org/1999/xlink" x="0px" y="0px"
	 viewBox="0 0 500 500" style="enable-background:new 0 0 500 500;" xml:space="preserve">
<style type="text/css">
	.st0{fill:#FFFFFF;}
	.st1{fill:#F89E23;}
</style>
<g>
	<path class="st0" d="M276.4,366.1c-6.4,60.7-60.8,104.8-121.5,98.4c-23.6-2.5-45.8-12.5-63.2-28.6l-55.4,8.3L64,396.4
		c-6.9-16.8-9.5-35.1-7.6-53.3c5.9-60.8,60-105.3,120.8-99.3c60.8,5.9,105.3,60,99.3,120.8c0,0.5-0.1,1-0.2,1.5H276.4z"/>
	<path class="st1" d="M276.4,366.1c-2.1,20.4-9.9,39.8-22.3,56.1c-3.1,4-6.4,7.9-10,11.5c-3.7,3.5-7.6,6.8-11.7,9.9
		c-8.1,6.2-17.1,11.2-26.7,14.9c-9.5,3.7-19.6,6.1-29.8,7.1c-5.1,0.5-10.3,0.6-15.4,0.3c-5.1-0.1-10.3-0.6-15.3-1.6
		c-20.4-3.7-39.4-13.1-54.8-27l1.3,0.4l-55.3,8.5l-4,0.7l2-3.7l27.5-48v1.9c-23.5-57,3.8-122.3,60.8-145.8s122.3,3.8,145.8,60.8
		c7,17.1,9.7,35.6,7.8,53.9h0.1V366.1z M276.4,366.1c6.3-60.2-37.4-114.1-97.6-120.3c-9.2-1-18.6-0.7-27.8,0.6
		c-16.4,2.4-32,8.6-45.7,18c-13.5,9.5-24.8,21.8-33.1,36.1c-8.2,14.3-13,30.4-14.1,46.8c-1,16.5,1.7,33,7.9,48.4l0.4,1l-0.5,0.9
		L38,445.3l-2-2.9l55.4-7.7h0.8l0.5,0.5c14.8,13.8,33.1,23.3,53,27.3c4.9,1,10,1.6,15,1.8c5,0.3,10.1,0.3,15.1,0
		c10.1-0.8,20.1-3,29.5-6.5c9.5-3.4,18.5-8.3,26.7-14.4c4.1-3,8-6.3,11.7-9.8c3.6-3.6,6.9-7.4,10-11.4
		C266.3,406,274.2,386.6,276.4,366.1z"/>
	<path class="st1" d="M228,358c0,7.4-6,13.4-13.4,13.4s-13.4-6-13.4-13.4s6-13.4,13.4-13.4l0,0C222,344.6,228,350.6,228,358L228,358
		z"/>
	<path class="st1" d="M180.1,358c0,7.4-6,13.4-13.4,13.4s-13.4-6-13.4-13.4s6-13.4,13.4-13.4c0,0,0,0,0.1,0
		C174.1,344.6,180.1,350.6,180.1,358L180.1,358z"/>
	<path class="st1" d="M132.1,358c0,7.4-6,13.4-13.4,13.4s-13.4-6-13.4-13.4s6-13.4,13.4-13.4l0,0C126.1,344.6,132.1,350.6,132.1,358
		z"/>
</g>
<path class="st0" d="M223.7,144.8c6.4,60.7,60.8,104.8,121.6,98.4c23.6-2.5,45.7-12.5,63.2-28.5l55.3,8.1L436.1,175
	c23-56.6-4.1-121.1-60.7-144.1S254.3,35,231.3,91.6C224.4,108.4,221.8,126.7,223.7,144.8L223.7,144.8z"/>
<path class="st1" d="M256.8,53.5c24.4-24.1,58.6-35.4,92.6-30.8c16.9,2.2,33,8.3,47.2,17.7c44.3,29.5,61.6,86.2,41.5,135.4V174
	l27.5,48l2,3.7l-4-0.6l-55.3-8.5l1.3-0.4c-15.4,13.9-34.4,23.3-54.8,27c-5.1,0.9-10.2,1.5-15.3,1.6c-5.1,0.3-10.2,0.2-15.3-0.3
	c-20.5-2-40-9.5-56.5-21.9c-4.1-3.1-8-6.3-11.7-9.9c-3.6-3.6-6.9-7.5-10-11.5c-34.3-44.8-29.6-108.1,10.8-147.4L256.8,53.5z
	 M246.3,200.7c3.1,4,6.5,7.8,10,11.4c3.7,3.5,7.6,6.7,11.7,9.8c8.1,6.1,17.1,11,26.7,14.4c9.5,3.5,19.4,5.7,29.5,6.5
	c5,0.3,10.1,0.3,15.2,0c5-0.2,10-0.8,15-1.8c19.8-4,38.2-13.4,53-27.3l0.5-0.5h0.8l55.4,7.7l-2,2.9L434.2,176l-0.5-0.9l0.4-1
	c12.6-30.9,10.3-65.9-6.2-95c-8.3-14.3-19.6-26.6-33.1-36.1c-13.6-9.4-29.3-15.6-45.7-18c-59.7-9.2-115.5,31.7-124.8,91.4
	c-4.6,29.9,3.3,60.3,22,84.1L246.3,200.7z"/>
<path class="st1" d="M343.5,146.9v13.8c0.1,5.6-4.3,10.3-10,10.4c-0.1,0-0.3,0-0.4,0c-5.7,0-10.4-4.7-10.4-10.4v-21.9
	c0-0.2,0.2-0.2,0.2-0.4s-0.2-0.2-0.2-0.4c0.2-5.7,4.7-10.3,10.4-10.4c13.1,1,24.6-8.8,25.6-21.9S349.9,81,336.8,80
	c-1.2-0.1-2.5-0.1-3.7,0c-8.4,0-16.2,4.4-20.4,11.7c-3,5-9.4,6.7-14.4,3.7c-0.1,0-0.1-0.1-0.2-0.1c-4.9-2.9-6.6-9.3-3.7-14.2l0,0
	c12.3-21.4,39.6-28.7,61-16.4s28.7,39.6,16.4,61c-6.2,10.7-16.5,18.4-28.5,21.2H343.5z M343.5,193.4v3.7c0.1,5.6-4.3,10.3-9.9,10.4
	c-0.2,0-0.3,0-0.5,0c-5.7,0-10.4-4.7-10.4-10.4l0,0v-3.7c0.1-5.7,4.7-10.3,10.4-10.4c5.7-0.1,10.3,4.5,10.4,10.2
	C343.5,193.2,343.5,193.3,343.5,193.4z"/>
</svg>
