<?xml version="1.0" encoding="utf-8"?>
<!-- Generator: Adobe Illustrator 22.1.0, SVG Export Plug-In . SVG Version: 6.00 Build 0)  -->
<svg version="1.1" id="Layer_1" xmlns="http://www.w3.org/2000/svg" xmlns:xlink="http://www.w3.org/1999/xlink" x="0px" y="0px"
	 viewBox="0 0 1379.4 1080" style="enable-background:new 0 0 1379.4 1080;" xml:space="preserve">
<style type="text/css">
	.st0{fill:#081928;}
	.st1{fill:#E62137;}
	.st2{fill:#3DBEB3;}
	.st3{fill:#E28526;}
	.st4{fill:#F99F23;}
	.st5{fill:#E2DDE7;}
	.st6{fill:#FAE0B2;}
	.st7{fill:#FFFFFF;}
	.st8{fill:#58C7D8;}
	.st9{fill:#FDFEFC;}
	.st10{fill:#5C417C;}
	.st11{fill:#FAB17E;}
	.st12{fill:#E89D6B;}
	.st13{fill:#EE3452;}
	.st14{fill:#35BED1;}
	.st15{fill:#F3F3F3;}
</style>
<g>
	<g>
		<polygon class="st0" points="1039.5,307 1041.8,322.4 1017.4,328.9 1017.9,352 1000.4,359.8 1004.3,368.6 1027.8,358.2 
			1027.2,336.3 1052.8,329.7 1049.3,306.4 		"/>
	</g>
	<g>
		<path class="st1" d="M1156.5,574.1l-7-16.5l-17.6-3.6c-2-0.4-2.7-3-1.1-4.3l13.5-11.7l-2-17.8c-0.3-2,2-3.4,3.8-2.4l15.4,9.2
			l16.3-7.4c1.9-0.8,3.9,0.8,3.4,2.8l-4.1,17.4l12,13.2c1.4,1.5,0.4,3.9-1.6,4.1l-17.8,1.5l-8.9,15.5
			C1159.9,576.2,1157.3,576,1156.5,574.1z"/>
	</g>
	<g>
		<path class="st1" d="M196.2,555.2l-4.3-10.3l-10.9-2.3c-1.2-0.3-1.6-1.9-0.7-2.7l8.4-7.3l-1.2-11.1c-0.1-1.2,1.2-2.2,2.3-1.5
			l9.6,5.8l10.1-4.6c1.2-0.5,2.4,0.5,2.2,1.8l-2.6,10.8l7.6,8.2c0.8,0.9,0.3,2.4-0.9,2.6l-11.1,0.9l-5.5,9.7
			C198.2,556.4,196.6,556.4,196.2,555.2z"/>
	</g>
	<g>
		<polygon class="st2" points="1100.6,384.4 1093.6,394 1076.8,384.5 1064.9,397.4 1051.1,392.2 1048.6,399.3 1066.9,406 
			1078.3,393.9 1095.7,403.7 1106.2,389.1 		"/>
	</g>
	<path class="st3" d="M1204.2,344.5l-91.8-48.1c-1.9-0.9-2.6-3.2-1.6-5.1l32.3-61.7c0.9-1.9,3.2-2.6,5.1-1.6L1240,276
		c1.9,0.9,2.6,3.2,1.6,5.1l-32.3,61.7C1208.4,344.7,1206.1,345.5,1204.2,344.5z"/>
	<path class="st3" d="M1180.8,255.3l-28-14.6c-1.9-0.9-2.6-3.2-1.6-5.1l4.9-9.5c0.9-1.9,3.2-2.6,5.1-1.6l28,14.6
		c1.9,0.9,2.6,3.2,1.6,5.1l-4.9,9.5C1185,255.6,1182.7,256.4,1180.8,255.3z"/>
	<g>
		<path class="st4" d="M1209.5,343.4c-1.1,1.6-3.2,2.2-4.9,1.4l-92.4-48.3c-1.8-0.9-2.4-3-1.8-4.7l23.1-57.1
			c0.4-0.9,1.2-1.8,2.2-2.2s2.2-0.3,3.1,0.1l102.6,53.7c0.9,0.5,1.6,1.4,1.9,2.4c0.3,1.1,0.1,2.2-0.5,3L1209.5,343.4z"/>
	</g>
	<g>
		<path class="st2" d="M121.3,672.6l11.3,10.8c26.9,25.7,48.8,55.9,64.6,89.5l1.8,3.6c0,0,29.7,2.6,33.9-24.3l0,0
			c-26.1-29.4-47.5-60.9-65.2-95.9l-5.4-12.6L121.3,672.6z"/>
	</g>
	<path class="st5" d="M162.2,643.8c1.5,2-6.5,10.1-17.8,18.1c-11.3,7.8-21.7,12.7-23.1,10.5c-1.4-2.2,6.6-10.3,17.8-18.1
		C150.3,646.5,160.7,641.8,162.2,643.8z"/>
	<path class="st5" d="M162.2,644L162.2,644c0,0-22.7,19.2-32,21.1l2.8,3.9c3.4-1.9,7.3-4.2,11.2-7
		C155.4,654.1,163.4,646.1,162.2,644z"/>
	<g>
		<g>
			<path class="st1" d="M192.4,699.6c0,3.2-1.2,17.6-25,23.5c1.6,2.2,3.1,4.3,4.6,6.5c15-4.5,21.7-12.2,24.8-18
				c0.5-0.9,1.1-2.2,1.5-3.1C196.3,705.4,194.3,702.6,192.4,699.6z"/>
		</g>
		<g>
			<polygon class="st1" points="169.6,718.9 134.8,717.6 143,724.6 138,733.7 171.1,725.1 			"/>
		</g>
		<g>
			<polygon class="st1" points="172.8,727 160.4,748.6 169.1,745.3 172.4,752.2 178.2,729.5 			"/>
		</g>
		<g>
			<path class="st1" d="M177.6,732.8c-6.1,0.4-11.5-4.3-11.9-10.7c-0.4-6.3,4.2-11.7,10.3-12.2s11.5,4.3,11.9,10.7
				C188.2,726.9,183.6,732.4,177.6,732.8z"/>
		</g>
	</g>
	<path class="st6" d="M462.5,841.6H235.3c-15.7,0-28.4,13.1-28.4,29.4l0,0c0,16.2,12.7,29.4,28.4,29.4h227.2
		C451.8,882.2,451.8,859.5,462.5,841.6z"/>
	<g>
		<g>
			<path class="st0" d="M18.3,917.3L18.3,917.3c0,2.4,1.5,4.3,3.5,4.3h1339.3v-8.8H21.8C19.8,912.9,18.3,914.9,18.3,917.3z"/>
		</g>
	</g>
	<g>
		<polygon class="st1" points="363.3,446.8 353,445.1 347.1,453.7 335.7,451 332.2,462.2 319.3,459.8 314.8,469.7 302,469.3 
			302.1,464.4 311.7,464.8 316.4,454.3 329,456.7 332.5,445.2 344.9,448.3 350.9,439.8 360.3,441.3 363,435 367.5,436.8 		"/>
	</g>
	<g>
		<path class="st2" d="M951.9,293.7c17.2-0.9,27,19.7,15.4,32.5c-2,2.3-3.2,5.3-3.2,8.4l-0.3,10.7c-0.1,3-2.4,5.4-5.3,5.5l-6.5,0.4
			c-3,0.1-5.5-1.9-5.9-4.9c-1.5-10.7-1.2-14.7-5.7-18.6C927.3,316.2,934.7,294.6,951.9,293.7z"/>
	</g>
	<g>
		<path class="st7" d="M959.2,338.4c-0.8-8.6-1.5-18.2-1.6-21.7c-3.2,0.4-6.3,0.3-9.5-0.5c1.1,7.2,1.9,14.3,2.7,21.5l-0.9,0.1
			c-0.7-7.3-1.6-14.6-2.7-21.9c-1.9-0.5-4.1-1.2-5.1-3c-0.5-0.8-0.7-1.8-0.4-2.7c0.7-2.3,3.5-2.3,4.9-0.4c0.9,1.2,1.1,3,1.5,5.3
			c3.1,0.8,6.5,1.1,9.6,0.7c0-1.8,0.3-3.5,1.2-5c3.5-5,9.3,4.2-0.3,5.8c0.1,2.8,0.7,12.6,1.6,21.7L959.2,338.4z M959.6,311.2
			c-0.8,1.2-1.1,2.7-1.1,4.3c2-0.4,3.4-1.1,4.1-2.2C963.6,311.5,961.3,308.5,959.6,311.2z M943.2,309.5c-0.9,0.5-1.1,2-0.4,2.8
			c0.8,1.4,2.6,1.9,4.2,2.4c-0.3-1.8-0.4-3.4-1.2-4.5C945.1,309.6,943.4,309.5,943.2,309.5z"/>
	</g>
	<g>
		<path class="st1" d="M964,334.3c0,0.1,0,0.1,0,0.3l-0.3,10.7c-0.1,3-2.4,5.4-5.3,5.5l-6.5,0.4c-3,0.1-5.5-1.9-5.9-4.9
			c-0.7-4.7-0.9-8.1-1.5-10.8L964,334.3z"/>
	</g>
	<g>
		<path class="st8" d="M962.6,283.3l3-10.1c0.3-0.9-0.3-2-1.2-2.3c-0.9-0.3-2,0.3-2.3,1.2l-3,10.1c-0.3,0.9,0.3,2,1.2,2.3
			C961.2,284.9,962.1,284.3,962.6,283.3z"/>
	</g>
	<g>
		<path class="st8" d="M978.2,302.8l10.5-3.4c0.9-0.3,1.5-1.4,1.2-2.3c-0.3-0.9-1.4-1.5-2.3-1.2l-10.5,3.4c-0.9,0.3-1.5,1.4-1.2,2.3
			C976.2,302.6,977.3,303.1,978.2,302.8z"/>
	</g>
	<g>
		<path class="st8" d="M996.3,333.5c0.5-0.8,0.3-2-0.5-2.6c-3.2-2-6.8-3.8-10.3-5.1c-0.9-0.4-2,0.1-2.4,1.1c-0.4,0.9,0.1,2,1.1,2.4
			c3.4,1.4,6.6,3,9.6,4.9C994.7,334.7,995.8,334.4,996.3,333.5z"/>
	</g>
	<g>
		<path class="st8" d="M935.7,288.8c0.9-0.4,1.2-1.6,0.8-2.6c-2.3-4.3-4.1-8.9-5.4-13.5c-0.3-0.9-1.4-1.6-2.3-1.4
			c-0.9,0.3-1.6,1.4-1.4,2.3c1.4,4.9,3.2,9.7,5.7,14.3C933.7,288.9,934.7,289.2,935.7,288.8z"/>
	</g>
	<g>
		<path class="st8" d="M927.6,305.1c0.1-1.1-0.7-1.9-1.8-2l-12-0.9c-1.1-0.1-1.9,0.7-2,1.8s0.7,1.9,1.8,2l12,0.9
			C926.6,306.9,927.6,306.2,927.6,305.1z"/>
	</g>
	<g>
		<path class="st8" d="M915.8,339.2c0.1,0,0.3-0.1,0.5-0.1c3.6-2,7.2-4.3,10.3-7c0.8-0.7,0.8-1.9,0.1-2.6c-0.7-0.8-1.9-0.8-2.6-0.3
			c-3,2.6-6.2,4.7-9.6,6.6c-0.9,0.5-1.2,1.6-0.8,2.6C914.2,339,915,339.4,915.8,339.2z"/>
	</g>
	<g>
		<g>
			<path class="st4" d="M1063,847.5c0.8-1.4-0.4-3-2.4-3H758c-23.7,0-42.9,15.5-42.9,34.6l0,0c0,19.2,19.2,34.6,42.9,34.6h302.7
				c1.9,0,3.1-1.6,2.4-3l0,0C1051.1,890.6,1051.1,867.4,1063,847.5z"/>
			<path class="st9" d="M1060.5,851.8h-203c-15.1,0-27.2,11.9-27.2,26.5v2c0,14.6,12.1,26.5,27.2,26.5h203.4
				C1051.9,889.2,1051.7,869.5,1060.5,851.8z"/>
		</g>
		<g>
			<path class="st9" d="M728.4,841.4h190.7c16.9,0,30.7-14.7,30.7-33.1l0,0c0-18.2-13.8-33.1-30.7-33.1H728.4l0,0
				c14.6,18.4,15.1,45.1,1.4,64.1L728.4,841.4z"/>
		</g>
		<g>
			<path class="st1" d="M947.2,808.3L947.2,808.3c0-18.2-13.9-33.1-30.9-33.1H724.9c-0.9,0-1.6-0.8-1.6-1.8l0,0
				c0-0.9,0.7-1.8,1.6-1.8h303.6c18.9,0,34.2,16.3,34.2,36.5l0,0c0,20.1-15.3,36.5-34.2,36.5H724.9c-0.9,0-1.6-0.8-1.6-1.8l0,0
				c0-0.9,0.7-1.8,1.6-1.8h191.4C933.4,841.4,947.2,826.6,947.2,808.3z"/>
		</g>
		<g>
			<path class="st9" d="M778.5,768.5h190.8c16.9,0,30.7-14.7,30.7-33.1l0,0c0-18.2-13.8-33.1-30.7-33.1H778.6l0,0
				c14.6,18.4,15.1,45.1,1.4,64.1L778.5,768.5z"/>
		</g>
		<g>
			<path class="st2" d="M997.4,735.4L997.4,735.4c0-18.2-13.9-33.1-30.9-33.1H775.1c-0.9,0-1.6-0.8-1.6-1.8l0,0
				c0-0.9,0.7-1.8,1.6-1.8h303.6c18.9,0,34.2,16.3,34.2,36.5l0,0c0,20.1-15.3,36.5-34.2,36.5H775.1c-0.9,0-1.6-0.8-1.6-1.8l0,0
				c0-0.9,0.7-1.8,1.6-1.8h191.4C983.5,768.5,997.4,753.6,997.4,735.4z"/>
		</g>
		<g>
			<g>
				<path class="st1" d="M1013.4,879.6H993c-4.5,0-8,1.4-8,3.1v0.3h28.4V879.6z"/>
			</g>
			<g>
				<path class="st1" d="M1030.9,887.2c0-4.2-5.3-7.6-11.9-7.6h-26.2c5,0,9,2.6,9,5.8l-0.1,81.7l14.5-10.5l14.7,10.5L1030.9,887.2z"
					/>
			</g>
		</g>
	</g>
	<path class="st10" d="M787.4,685.2l17.4-4.1c0,0,14,0.9,27.3-1.8c0,0,1.4,3.5,1.9,10.7c0.1,1.2-1.8,7.4-3,7.7
		c-4.5,0.7-12.4-0.1-26.3,0.3c0,0-22,2.6-33.8-1.4C759.2,692.7,787.4,685.2,787.4,685.2z"/>
	<g>
		<path class="st9" d="M979.6,400.3c0.9,10.1,9.5,13.6,17.3,20c5.3,4.3,4.5,15.9,0.4,23.1c-10.3,18.2-1.5,20.5,6.8,33.9
			c20,32.3-41.9,39.4-49.2,41.7c-7.3,2.4-12.3,5.3-16.6,4.9c-13.1-1.5-25-20-31.6-37.1c-6.6-17.2,9.5-18.1,10.3-28
			c0.8-9.9-18-12-12.4-30.7c6.1-20.1,14.6-37.3,25.9-43.4c18.8-10.1,41.6,0.4,46.7,8.6C978.6,395.9,979.4,398.2,979.6,400.3z"/>
	</g>
	<path class="st6" d="M981.1,621.2c1.6,4.1,10.5,18.4,10.5,18.4l-125.5,1.2l-1.9-25.8c34.4-0.3,68.5-15.5,100.2-26.3
		C965.3,590.5,980.2,619.1,981.1,621.2z"/>
	<g>
		<path class="st2" d="M892.2,522.4c0,0,6.8-47.5,17.6-52.5s69.6,1.9,78.3,7.3c8.8,5.4-5.8,61.2-8.1,76.8c-0.1,0.9-0.3,1.9-0.4,2.8
			c-3.6,22.6-1.6,45.6,6.3,67c-32.1,9.7-40.4,15.1-74.8,14.2l-12.8-75.2C898.1,562.7,888,526.4,892.2,522.4z"/>
	</g>
	<path class="st11" d="M956.3,438.6c0,0,2.7,26.2,5,32.5c2.3,6.5-6.2,19.4-20.1,23.1c-13.9,3.6-3.8-13.9-4.1-20.8
		c-0.3-6.8-1.6-38.9-1.6-38.9L956.3,438.6z"/>
	<path class="st12" d="M956.6,441.7c-1.8,2-3.8,3.8-6.3,5.3c-5.3,3.1-10,3.8-14.2,2.8c-0.4-8.1-0.7-15-0.7-15l20.8,3.9
		C956.3,438.6,956.5,439.8,956.6,441.7z"/>
	<path class="st11" d="M951.5,390.8c0,0,8.2,2.2,13,10.1c4.9,8,7.4,31.1-9.7,41.2c-17.2,10.1-29.7-5.5-29.4-20.4
		C925.7,407.1,929.6,387.4,951.5,390.8z"/>
	<path class="st11" d="M920.1,415.6c0.1,3.8,2.2,6.9,4.3,6.8s3.9-3.4,3.6-7.2c-0.1-3.8-2.2-6.9-4.3-6.8S920,411.8,920.1,415.6z"/>
	<path class="st11" d="M964,421.6c-1.4,3.8-0.4,7.7,2.2,8.5c2.6,0.9,5.8-1.5,7.2-5.3c1.4-3.8,0.4-7.7-2.2-8.5
		C968.5,415.5,965.4,417.8,964,421.6z"/>
	<g>
		<path class="st2" d="M988.1,477.2c0,0-10,5.3-16.2,19.9c-6.1,14.6,14.7,89.4,19.2,94.1c4.5,4.7,16.7,5.5,18.9-6.2
			C1012.1,573.3,1005,480.8,988.1,477.2z"/>
	</g>
	<path class="st5" d="M928.1,467.2l17.3,103.6l-67.1,10.8l-21.3-97C856.9,484.8,912.2,462.3,928.1,467.2z"/>
	<path class="st5" d="M798.6,470.4c6.5-2.6,13.4-3.1,20.1-1.9c12.6,2.4,32.5,7.6,40.5,16.2c12.2,13,23.2,99,23.2,99L830.3,572
		L798.6,470.4L798.6,470.4z"/>
	<path class="st3" d="M978.2,647.6c-8.8-24.4-108.2-113.2-134.5-106.3l14.2,54.2c0,0,29.3,88.9,58.5,99.4c29.3,10.7,56-1.5,56-1.5
		S987,671.9,978.2,647.6z"/>
	<path class="st11" d="M942.4,505.3c-1.2,2.4,6.6,6.9,8.9,8.5s11.9,0,11.9,0S943.8,502.4,942.4,505.3z"/>
	<path class="st11" d="M857.5,621.2c0,0-25.3,52.5-25.4,57.9c-0.1,7.8-36.6,5.7-28.6,2.3c1.8-0.8,7.6-3.6,8-4.1
		c2.3-2,23.4-67.3,23.4-67.3L857.5,621.2z"/>
	<path class="st3" d="M865.6,558.4c-1.2-1.4-14-6.5-23.9,5.8c-9.9,12.3-28.8,107.9-28.8,107.9l23.2,2.3
		C836.1,674.4,893.9,589.7,865.6,558.4z"/>
	<g>
		<path class="st13" d="M790.4,486.6l29.8,87.1c1.2,3.5,4.2,5.9,7.7,6.5c28.1,3.9,42.7,5.9,42.7,5.9s5.4,0.3,11.2,0.4l64.1-6.9
			c5.5-0.5,9.5-5.9,8.4-11.7l-15.7-85.6c-0.9-5.3-5.8-8.8-10.9-8L866,484.8c-5.4-0.1-10.8-0.3-16.2-0.4l-48.6-10.9
			C794,472.1,787.8,479.4,790.4,486.6z"/>
	</g>
	<path class="st11" d="M921,529.1c0,0,17.3,3.2,23.1,3c5.9-0.1,13.5,1.6,13.5,1.6s19.2,45.2,22,50.2c8.2,15,31.1,13.2,30.7,0.7
		c-0.3-10-39.3-72.5-49.7-72.3c-10.4,0.3-42.8-6.5-43.8-2.3c-0.5,2.2,29.8,3.2,25.1,5.1c-3,1.2-26.7-1.5-26.7,1.4
		c0.1,2.8,21.5,3.1,23.8,5.3c2.3,2.2-22.8-2.7-22.7,2c0.1,2.4,22.1,0.7,24.6,4.3C941.9,529.7,919.1,524.3,921,529.1z"/>
	<g>
		<path class="st11" d="M804.8,521.6c-1.4-0.5-3,0.1-3.2,1.6c-0.4,1.5-0.4,3.2,0.7,4.5c2.2,2.3,17.3,4.6,17.3,2.3
			C819.7,528.2,809.5,523.7,804.8,521.6z"/>
		<path class="st11" d="M801.8,527.6c0,0-1.5,5.7-0.3,5.7c1.4,0,17.6,1.6,18.4-0.3C820.8,530.9,804,526.4,801.8,527.6z"/>
		<path class="st11" d="M801.2,533.4c0,0-0.4,2.6,0.9,3.9c1.4,1.5,16.5,0.5,17-1.9C819.7,533,801.7,531.5,801.2,533.4z"/>
		<path class="st11" d="M803.5,538.6c0,0,0,1.9,0.7,2.7c0.8,0.8,12-0.3,13.1-2.7C818.5,536.3,804.8,536.2,803.5,538.6z"/>
	</g>
	<path class="st11" d="M841.5,671.3c0,0-5.4,19.3-10.7,32.1c-3.5,8.4-4.5,16.7-6.8,20.9c-5.9,10.5-15.5,10.9-23.2,4.6
		c-7.7-6.3,2.6-33.2,2.6-33.2l24.2-34L841.5,671.3z"/>
	<path class="st10" d="M824,724.3c2-3.8,3-10.7,5.7-18.1c-3.6,2.2-9.9,3.8-13.2,2.8c-12.3-3.2-13-13.2-13-13.2s-12.8,27.6-5.3,33.9
		C805.9,735.9,818.2,734.9,824,724.3z"/>
	<g>
		<polygon class="st1" points="866.3,484.9 886,587.3 874.1,586.6 870.6,586.3 849.9,484.5 		"/>
	</g>
	<g>
		<path class="st4" d="M935.1,689c6.8,12.4,20.3,10.7,32.4,10.7c13.9,0,28.2-5.8,32.1-21.2c4.2-16.5-1.4-36.9-11.1-49.8
			c-50.1-66.2-50.5-72.7-70.4-81.4c-21.5-9.5-101.4,126.9-101.4,126.9l21.9,11.2c0,0,33-27.6,53.9-51.6c2.4-2.8,9.5-17.6,9.5-17.6
			S930.5,680.7,935.1,689z"/>
	</g>
	<g>
		<path class="st1" d="M547.4,804.6c1.1-2.3-0.5-5-3.2-5H129.4c-32.5,0-58.9,25.4-58.9,56.6l0,0c0,31.3,26.3,56.6,58.9,56.6h414.9
			c2.7,0,4.3-2.7,3.2-5l0,0C531.1,875.2,531.2,837.1,547.4,804.6z"/>
	</g>
	<g>
		<path class="st9" d="M544.9,810.1h-243c-17.3,0-31.2,21.2-31.2,47.4l0,0c0,26.2,14,47.4,31.2,47.4h244.2
			C532,874.8,531.6,840.5,544.9,810.1z"/>
	</g>
	<g>
		<g>
			<path class="st2" d="M407.6,846.1h-26.7c-5.8,0-10.4,1.4-10.4,3v0.3h37.1V846.1z"/>
		</g>
		<g>
			<path class="st2" d="M430.5,853.7c0-4.2-7-7.6-15.7-7.6h-34.3c6.5,0,11.9,2.6,11.9,5.8l-0.1,81.7l19-10.5l19.3,10.5L430.5,853.7z
				"/>
		</g>
	</g>
	<g>
		<path class="st2" d="M576.9,591.9l13.1-3.4l-8.9,118.3l-15.7,0.5l8-111C573.5,594,575,592.4,576.9,591.9z"/>
	</g>
	<g>
		<g>
			<path class="st1" d="M582.3,710c-0.3,0-0.5,0-0.9,0c-2.6-0.3-4.5-2.8-4.3-5.8l8.6-111.3c0.3-2.8,2.6-5,5.1-4.7
				c2.6,0.3,4.5,2.8,4.3,5.8l-8.6,111.3C586.3,707.9,584.6,709.7,582.3,710z"/>
		</g>
		<g>
			<path class="st1" d="M461.9,716c0,0.1,0,0.1,0,0.3l0,0c0.4,4.6,3.9,8,7.8,7.6l110.5-9.9c3.9-0.4,6.8-4.3,6.3-8.8
				c0-0.1,0-0.4-0.1-0.5L461.9,716z"/>
		</g>
	</g>
	<path class="st11" d="M538.8,835.3c-7.3,4.1-29.3-3-29.3-3.6c-0.3,6.1-24.7,65.2-24.7,65.2v18.2c0,0,50.4,2.4,49.7-2
		c-0.7-4.5-3.4-1.6-13.5-10c-0.9-0.8-15-4.1-11.2-12.4C517.4,874,533.8,845.9,538.8,835.3z"/>
	<g>
		<path class="st2" d="M483.1,915.8h55.1c2-0.3,2.4-1.8,1.8-2.8c-1.5-2-12-6.8-19.2-10c-12.4,1.5-34.2-3.4-36.1-6.1
			C479.5,904,481.9,915.6,483.1,915.8z"/>
	</g>
	<g>
		<path class="st3" d="M471,792.9c-0.8-2.3,47.5-22.7,49.7-20.4c3.8,4.2-26.1,81.7-26.1,81.7l34.3,10.5c0,0,35.8-89.7,34.2-106.1
			c-1.5-16.3-19.4-35.1-58.2-23.1C466.1,747.6,471,792.9,471,792.9z"/>
	</g>
	<path class="st11" d="M570.8,845.6c-8.1-1.5-18.6-1.9-27.1-2c0.9,7.6,5.8,46.1,5,48.5c-3.6,9.6-11.5,14-11.5,14
		s37.4,33.8,39.7,29.8c2.3-3.9-1.6-3.4-4.1-16.2c-0.3-1.1-5.7-19.2-5.9-28.8C566.1,872.5,570.5,855.9,570.8,845.6z"/>
	<g>
		<path class="st4" d="M558.8,719.5c-5.3-2.8-18.8-2.8-33.8-1.9c-29,1.9-57.8,7.6-85.5,16.7l-18.5,6.1v-18.9c0,0-58.9-9.9-60.9,4.7
			c-3.1,22,0.7,66.6,20.4,76.6c60.9,30.9,146.3-49.3,146.7-38.8c0.4,14,12.3,66.6,15.4,89.5c8.5,0.1,23,0.1,29.3-1.4
			C573.1,807.1,573.6,727.4,558.8,719.5z"/>
	</g>
	<g>
		<path class="st2" d="M535.9,906.9l42.1,33.6c1.6,1.1,3.1,0.1,3.1-1.1c0.1-2.4-5-12.8-8.5-19.9c-10.5-6.8-24.3-24.3-24-27.7
			C544.2,895.7,535.3,906,535.9,906.9z"/>
	</g>
	<g>
		<path class="st1" d="M440.7,536.1c-1.4-13-2.8-25.9-13.6-35.4c-8.6-7.7-19.7-8.9-30.7-4.9c-30.9,11.6-15,39-54.3,66.7
			c-12.3,8.6-25.7,14.5-35,26.1c-12.8,16.2-8,35.7,3.8,48.8c56.2,62.3,119-21.9,123.6-42C437.8,580.2,441.7,544.3,440.7,536.1z"/>
	</g>
	<g>
		<path class="st2" d="M429.3,608.7c-4.6-8.5-9.3-15.1-9.3-15.1c-4.7-8.5-17-12.7-17-12.7s-4.1,0.1-8.8,0.3
			c-0.3,0.8-0.5,1.4-0.9,1.6c-1.8,1.4-12-0.4-18.5,4.1c-22,18.9-15.9,110.5-14.2,139.4l67.1,0.7c0,0-8.5-62.3,5.1-78.2
			C442.2,637.5,436.1,621.3,429.3,608.7z"/>
	</g>
	<path class="st11" d="M399,549.8c0,0-3.6,26.3-6.2,32.8c-2.6,6.3,14.2,20.1,28.1,24.3c13.9,4.2-4.3-14.2-3.6-20.9
		c0.5-6.9,3.1-39.3,3.1-39.3L399,549.8z"/>
	<path class="st12" d="M419.5,555.8c0.4-5.4,0.7-9.3,0.7-9.3l-21.3,3.2c0,0-0.5,3.1-1.1,7.4C406.6,562.3,414.3,560.7,419.5,555.8z"
		/>
	<path class="st11" d="M405.8,501.6c0,0-8.4,1.9-13.5,9.7c-5.1,8-8.8,31.2,8.4,42c17,10.8,30.3-4.5,30.5-19.4
		C431.1,519.1,428,499.1,405.8,501.6z"/>
	<path class="st11" d="M434.9,529.3c-1.5,3.6-4.3,5.8-6.5,5c-2.2-0.8-2.6-4.5-1.2-8.1c1.5-3.6,4.3-5.8,6.5-5
		C435.9,522,436.3,525.7,434.9,529.3z"/>
	<path class="st13" d="M408.2,501.1c0,0-10.7,24-20.1,26.1c-3.9-1.9-6.2,1.4-7.6,5.3c-0.2,0.7-1.3,0.5-1.2-0.3
		c0.9-8.7,3-21.1,8.5-25.2C396.7,500.8,408.2,501.1,408.2,501.1z"/>
	<path class="st11" d="M391.8,532.3c1.2,3.9,0.1,7.7-2.6,8.5c-2.6,0.8-5.8-1.6-7-5.5c-1.2-3.9-0.1-7.7,2.6-8.5
		C387.5,525.9,390.6,528.4,391.8,532.3z"/>
	<path class="st11" d="M511.9,705.4c-4.1-1.5-10-1.6-9.9-2.2c0.4-2.2,18.2,4.7,15.8,1.6c-1.4-1.8-14.7-8-18-6.9
		c-3.1,0.9-23.8,6.8-23.8,6.8l-56.3-13.2c0,0-14.2-32.3-15.7-60.1c-11.7,1.6-19.7,4.5-30,10.1c5,26.6,16.9,69.7,30.1,77.7
		c5.5,3.4,72.1-4.1,72.1-4.1s14.7-1.1,17-1.9c1.8-0.7,6.5-3.4,9-4.1c5.8-1.6,16.1,2.4,16.1,1.4C518.7,709.6,516.1,706.9,511.9,705.4
		z"/>
	<path class="st14" d="M404.5,601.7c-0.5-8.5-3.8-16.7-12.8-19.4c-5.7-1.6-12-0.1-16.5,3.6c-5.4,4.3-6.9,11.3-6.9,18.1
		c0,15.1,1.1,30.8,3.8,45.6c10.3-5.7,22.1-9,33.9-10.7C406.2,638.7,405.2,612.9,404.5,601.7z"/>
	<g>
		<g>
			<g>
				
					<rect x="1181" y="710.9" transform="matrix(0.1982 -0.9802 0.9802 0.1982 236.7633 1742.9812)" class="st2" width="5.5" height="31.7"/>
			</g>
		</g>
		<g>
			<g>
				
					<rect x="1181.3" y="791.6" transform="matrix(0.8464 -0.5325 0.5325 0.8464 -239.0064 759.9455)" class="st2" width="33.5" height="5.5"/>
			</g>
		</g>
		<g>
			<g>
				
					<rect x="1234.2" y="655.8" transform="matrix(0.9817 -0.1904 0.1904 0.9817 -105.5653 247.8315)" class="st2" width="5.5" height="35"/>
			</g>
		</g>
		<g>
			<g>
				<polygon class="st2" points="1238.8,689.1 1294,703.3 1313,753.8 1307.9,755.7 1289.8,707.9 1240.5,695.2 1203.3,732.4 
					1215.7,784.1 1210.4,785.3 1197.3,730.6 				"/>
			</g>
		</g>
		<g>
			<g>
				<path class="st2" d="M1298.3,753c1.2-7.2,8.1-12,15.4-10.7c7.2,1.2,12,8.1,10.7,15.4c-1.2,7.2-8.1,12-15.4,10.7
					C1301.8,767.1,1297,760.3,1298.3,753z"/>
			</g>
		</g>
		<g>
			<g>
				<path class="st2" d="M1279.7,701.6c1.2-7.2,8.1-12,15.3-10.7c7.2,1.2,12,8.1,10.7,15.4c-1.2,7.2-8.1,12-15.4,10.7
					C1283.2,715.6,1278.3,708.7,1279.7,701.6z"/>
			</g>
		</g>
		<g>
			<g>
				<path class="st2" d="M1226.5,689.7c1.2-7.2,8.1-12,15.4-10.7c7.2,1.2,12,8.1,10.7,15.4c-1.2,7.2-8.1,12-15.4,10.7
					C1230,703.7,1225.3,696.8,1226.5,689.7z"/>
			</g>
		</g>
		<g>
			<g>
				<path class="st2" d="M1218.9,649c1.2-7.2,8.1-12,15.4-10.7c7.2,1.2,12,8.1,10.7,15.4c-1.2,7.2-8.1,12-15.4,10.7
					C1222.3,663.1,1217.7,656.2,1218.9,649z"/>
			</g>
		</g>
		<g>
			<g>
				<path class="st2" d="M1146.8,718.6c1.2-7.2,8.1-12,15.4-10.7c7.2,1.2,12,8.1,10.7,15.4c-1.2,7.2-8.1,12-15.4,10.7
					C1150.3,732.6,1145.6,725.9,1146.8,718.6z"/>
			</g>
		</g>
		<g>
			<g>
				<path class="st2" d="M1163.8,802.7c1.2-7.2,8.1-12,15.4-10.7c7.2,1.2,12,8.1,10.7,15.4c-1.2,7.2-8.1,12-15.4,10.7
					C1167.3,816.8,1162.6,809.9,1163.8,802.7z"/>
			</g>
		</g>
		<g>
			<g>
				<path class="st2" d="M1185,728.7c1.2-7.2,8.1-12,15.4-10.7c7.2,1.2,12,8.1,10.7,15.4c-1.2,7.2-8.1,12-15.4,10.7
					C1188.5,742.8,1183.8,735.9,1185,728.7z"/>
			</g>
		</g>
		<g>
			<g>
				<path class="st2" d="M1199.2,783c1.2-7.2,8.1-12,15.4-10.7c7.2,1.2,12,8.1,10.7,15.4c-1.2,7.2-8.1,12-15.4,10.7
					C1202.7,797.1,1197.9,790.2,1199.2,783z"/>
			</g>
		</g>
	</g>
	<g>
		<g>
			<polygon class="st2" points="393.5,225.6 391.8,251.4 367.4,260.6 425.3,301.8 450,292.2 450,266 			"/>
		</g>
		<g>
			
				<ellipse transform="matrix(0.7071 -0.7071 0.7071 0.7071 -91.3035 485.6681)" class="st4" cx="540.6" cy="353" rx="103.3" ry="103.3"/>
		</g>
		<g>
			
				<ellipse transform="matrix(0.7071 -0.7071 0.7071 0.7071 -91.3239 485.683)" class="st2" cx="540.6" cy="353.1" rx="82" ry="82"/>
		</g>
		<g>
			
				<ellipse transform="matrix(0.7071 -0.7071 0.7071 0.7071 -91.2977 485.6472)" class="st0" cx="540.6" cy="353" rx="52.7" ry="52.7"/>
		</g>
		<path class="st1" d="M566,353.1c0,14-11.3,25.3-25.3,25.3c-14,0-25.3-11.3-25.3-25.3c0-14,11.3-25.3,25.3-25.3
			S566,339.2,566,353.1z"/>
		<g>
			<path class="st1" d="M538.8,355.3c-0.4,0-0.8-0.1-1.2-0.4L393.4,256c-0.9-0.7-1.2-2-0.5-3.1c0.7-0.9,2-1.2,3.1-0.5l142.9,97.9
				C539.8,351.1,539.5,355.3,538.8,355.3z"/>
		</g>
		<polygon class="st15" points="533,340.7 533.6,349 525.5,351.7 539.5,356.5 540.3,349.7 		"/>
	</g>
	<g>
		<polygon class="st2" points="452.1,119.3 448.1,129.6 455.9,137.7 450.5,148.9 461.3,155.1 455.9,167.9 465.2,174.8 462,188.1 
			456.9,186.9 459.4,177 449.6,169.7 454.8,157.3 443.8,151.1 449.7,138.8 442.1,130.8 445.9,121.2 439.8,117 442.8,112.8 		"/>
	</g>
	<g>
		<polygon class="st0" points="300.9,383.1 311,387.3 319.2,379.6 330.4,385.1 336.7,374.2 349.5,379.8 356.4,370.5 369.6,373.9 
			368.4,378.9 358.5,376.5 351.1,386.2 338.8,380.8 332.5,391.9 320.2,385.8 312.2,393.3 302.8,389.4 298.4,395.5 294.3,392.4 		"/>
	</g>
	<g>
		<polygon class="st2" points="340.6,317 327.7,305 311.1,311.8 297.6,297.3 282.2,309.9 266.3,294.2 250.6,304.1 232.8,291.5 
			237.5,284.8 250.9,294.2 267.4,283.8 282.6,298.8 298.4,286 313.3,302.1 329.5,295.4 341.4,306.5 351.1,300 355.7,306.9 		"/>
	</g>
	<g>
		<path class="st2" d="M694.9,300.6l-8.5-7.6l-11.1,2.8c-1.2,0.3-2.3-0.9-1.9-2.2l4.5-10.5l-6.1-9.6c-0.7-1.1,0.1-2.6,1.5-2.4
			l11.3,1.1l7.3-8.8c0.8-0.9,2.4-0.7,2.7,0.7l2.6,11.1l10.5,4.2c1.2,0.5,1.4,2.2,0.3,2.8l-9.7,5.8l-0.8,11.3
			C697.5,300.8,695.9,301.5,694.9,300.6z"/>
	</g>
	<path class="st1" d="M645.1,151.7l-8.5-7.6l-11.1,2.8c-1.2,0.3-2.3-0.9-1.9-2.2l4.5-10.5l-6.1-9.6c-0.7-1.1,0.1-2.6,1.5-2.4
		l11.3,1.1l7.3-8.8c0.8-0.9,2.4-0.7,2.7,0.7l2.6,11.1l10.5,4.2c1.2,0.5,1.4,2.2,0.3,2.8l-9.7,5.8l-0.8,11.3
		C647.7,152,646.1,152.6,645.1,151.7z"/>
</g>
</svg>
