<?xml version="1.0" encoding="utf-8"?>
<!-- Generator: Adobe Illustrator 22.1.0, SVG Export Plug-In . SVG Version: 6.00 Build 0)  -->
<svg version="1.1" id="Layer_1" xmlns="http://www.w3.org/2000/svg" xmlns:xlink="http://www.w3.org/1999/xlink" x="0px" y="0px"
	 viewBox="0 0 500 500" style="enable-background:new 0 0 500 500;" xml:space="preserve">
<style type="text/css">
	.st0{fill:#FF9F1C;}
	.st1{fill:#FFFFFF;}
</style>
<g>
	<g>
		<path class="st0" d="M471.4,228.4H325.3c-12,0-21.7,9.7-21.7,21.7l0,0v78.1c0,12,9.7,21.7,21.7,21.7l0,0h4.5
			c-3.4,7.6-9.4,18.4-18.3,27.2c-2.1,2.1,0,5.6,2.8,4.7c11.5-3.6,29.8-12.1,48.7-31.9h108.3c12,0,21.7-9.7,21.7-21.7l0,0v-78.1
			C493,238.1,483.3,228.4,471.4,228.4z"/>
		<path class="st1" d="M373.3,286.3c0-6.2-5-11.2-11.1-11.2c-6.2,0-11.2,5-11.2,11.1c0,6.2,5,11.2,11.1,11.2c0,0,0,0,0.1,0
			C368.3,297.4,373.2,292.5,373.3,286.3z"/>
		<path class="st1" d="M411.1,286.3c0-6.8-6.2-12.2-13.2-10.9c-4.4,0.8-8,4.4-8.8,8.8c-1.3,7,4.1,13.2,10.9,13.2l0,0
			C406.1,297.4,411.1,292.5,411.1,286.3z"/>
		<path class="st1" d="M449,286.3c0-6.2-5-11.2-11.1-11.2c-6.2,0-11.2,5-11.2,11.1c0,6.2,5,11.2,11.1,11.2l0,0
			C444,297.4,449,292.5,449,286.3z"/>
	</g>
	<g>
		<path class="st0" d="M28.5,118h240.6c11.9,0,21.6,9.7,21.6,21.6l0,0v166.8l0,0H7l0,0V139.6C7,127.7,16.6,118,28.5,118z"/>
		<rect x="20" y="288.6" class="st1" width="257.6" height="8.5"/>
		<polygon class="st1" points="131.1,179.1 173.4,203.5 131.1,227.9 		"/>
	</g>
</g>
</svg>
