<?xml version="1.0" encoding="utf-8"?>
<!-- Generator: Adobe Illustrator 22.1.0, SVG Export Plug-In . SVG Version: 6.00 Build 0)  -->
<svg version="1.1" id="Layer_1" xmlns="http://www.w3.org/2000/svg" xmlns:xlink="http://www.w3.org/1999/xlink" x="0px" y="0px"
	 viewBox="0 0 1778 686.5" style="enable-background:new 0 0 1778 686.5;" xml:space="preserve">
<style type="text/css">
	.st0{fill:#FDFFFC;}
	.st1{fill:#FFFFFF;}
</style>
<g>
	<g>
		<g id="G_1_">
			<path class="st0" d="M422.5,17.2v173.1H262.9v-29.2v-11.2h-11.2h-54h-11.2v11.2V269v11.2h11.2h54h11.2V269v-29.2h159.6v173.1
				h-155L232.6,378l-7.9-7.9l-7.9,7.9l-34.9,34.9h-155V17.2H422.5 M433.7,6H15.6v418.1h170.9l38.2-38.2l38.2,38.2h170.9V228.5H251.7
				V269h-54V161.1h54v40.4h182.1V6H433.7z"/>
		</g>
		<g id="R_1_">
			<path class="st0" d="M1308.3,17.2v155l-34.9,34.9l-7.9,7.9l7.9,7.9l34.9,34.9v155h-170.9V293.7v-11.2h-11.2h-27H1088v11.2v119.2
				H912.7V17.2H1308.3 M1045.3,199.3h11.2h107.9h11.2v-11.2v-54v-11.2h-11.2h-107.9h-11.2v11.2v54V199.3 M1319.6,6H901.4v418.1
				h197.8V293.7h27v130.4h193.3V253.2l-38.2-38.2l38.2-38.2L1319.6,6L1319.6,6z M1056.5,188v-54h107.9v54H1056.5L1056.5,188z"/>
		</g>
		<g id="U_1_">
			<path class="st0" d="M865.4,17.2v395.7H469.8V17.2h170.9v119.2v11.2h11.2h27h11.2v-11.2V17.2H865.4 M876.7,6H678.8v130.4h-27V6
				H458.5v418.1h418.1V6H876.7z"/>
		</g>
		<g id="U_4_">
			<path class="st0" d="M1751.3,17.2v395.7h-395.7V17.2h170.9v119.2v11.2h11.2h27h11.2v-11.2V17.2H1751.3 M1762.5,6h-197.8v130.4
				h-27V6h-193.3v418.1h418.1L1762.5,6L1762.5,6z"/>
		</g>
	</g>
	<g>
		<path class="st1" d="M108.9,485.1l27.7,186.1H87.1l-2.6-33.5H67.2l-2.9,33.5h-50L39,485.1H108.9z M83.3,604.8
			c-2.4-21.1-4.9-47.1-7.4-78.2c-4.9,35.6-8,61.7-9.3,78.2H83.3z"/>
		<path class="st1" d="M209.7,485.1V634h29.4v37.3h-77.8V485.1H209.7z"/>
		<path class="st1" d="M267.4,485.1h48.7c13.2,0,23.3,1,30.4,3.1s12.4,5.1,16,9s6,8.6,7.2,14.2c1.3,5.6,1.9,14.2,1.9,25.8v16.2
			c0,11.9-1.2,20.5-3.7,26c-2.5,5.4-7,9.6-13.5,12.5s-15.1,4.4-25.7,4.4h-13v75h-48.4V485.1H267.4z M315.8,516.9v47.4
			c1.4,0.1,2.6,0.1,3.6,0.1c4.4,0,7.5-1.1,9.3-3.3c1.7-2.2,2.6-6.7,2.6-13.6v-15.3c0-6.4-1-10.5-3-12.4
			C326.2,517.9,322.1,516.9,315.8,516.9z"/>
		<path class="st1" d="M513.3,485.1v186.1h-48.4V593h-14.5v78.2H402V485.1h48.4v66.6h14.5v-66.6H513.3z"/>
		<path class="st1" d="M632.9,485.1l27.7,186.1h-49.5l-2.6-33.5h-17.3l-2.9,33.5h-50L563,485.1H632.9z M607.3,604.8
			c-2.5-21.1-4.9-47.1-7.4-78.2c-4.9,35.6-8,61.7-9.3,78.2H607.3z"/>
		<path class="st1" d="M879.2,485.1l27.7,186.1h-49.5l-2.6-33.5h-17.3l-2.9,33.5h-50l24.7-186.1H879.2z M853.5,604.8
			c-2.5-21.1-4.9-47.1-7.4-78.2c-4.9,35.6-8,61.7-9.3,78.2H853.5z"/>
		<path class="st1" d="M1044.6,566.2h-48.4v-32.4c0-9.4-0.5-15.3-1.6-17.6c-1-2.3-3.3-3.5-6.8-3.5c-4,0-6.5,1.4-7.6,4.3
			c-1.1,2.8-1.6,9-1.6,18.4v86.5c0,9,0.5,14.9,1.6,17.7s3.5,4.1,7.2,4.1c3.6,0,6-1.4,7.1-4.1c1.1-2.8,1.7-9.3,1.7-19.5v-23.4h48.4
			v7.3c0,19.3-1.4,32.9-4.1,41s-8.7,15.1-18.1,21.2s-20.8,9.1-34.4,9.1c-14.2,0-25.9-2.6-35.1-7.7c-9.2-5.1-15.3-12.2-18.3-21.3
			s-4.5-22.7-4.5-41v-54.4c0-13.4,0.5-23.5,1.4-30.2s3.7-13.2,8.2-19.4c4.6-6.2,10.9-11.1,19-14.7c8.1-3.6,17.4-5.3,27.9-5.3
			c14.3,0,26,2.8,35.3,8.3s15.4,12.4,18.3,20.6c2.9,8.2,4.4,21,4.4,38.4L1044.6,566.2L1044.6,566.2z"/>
		<path class="st1" d="M1162.1,485.1l27.7,186.1h-49.5l-2.6-33.5h-17.3l-2.9,33.5h-50l24.7-186.1H1162.1z M1136.5,604.8
			c-2.5-21.1-4.9-47.1-7.4-78.2c-4.9,35.6-8,61.7-9.3,78.2H1136.5z"/>
		<path class="st1" d="M1214.5,485.1h36.2c23.4,0,39.2,1.1,47.4,3.2c8.2,2.1,14.5,5.7,18.8,10.6c4.3,4.9,7,10.4,8,16.4
			c1.1,6,1.6,17.8,1.6,35.5V616c0,16.7-0.8,27.9-2.4,33.5s-4.3,10-8.2,13.2c-3.9,3.2-8.7,5.4-14.5,6.7c-5.7,1.3-14.4,1.9-26,1.9
			h-61.1V485.1H1214.5z M1262.9,516.9v122.4c7,0,11.3-1.4,12.9-4.2s2.4-10.4,2.4-22.8V540c0-8.4-0.3-13.8-0.8-16.2s-1.8-4.1-3.7-5.2
			C1271.8,517.5,1268.2,516.9,1262.9,516.9z"/>
		<path class="st1" d="M1361.1,485.1h80.7v37.3h-32.3v35.3h30.2v35.4h-30.2V634h35.5v37.3h-83.9L1361.1,485.1L1361.1,485.1z"/>
		<path class="st1" d="M1624.8,485.1v186.1h-42.3l-0.1-125.7l-16.8,125.7h-30l-17.8-122.8l-0.1,122.8h-42.3V485.1h62.6
			c1.9,11.2,3.8,24.4,5.7,39.6l6.9,47.3l11.1-86.9L1624.8,485.1L1624.8,485.1z"/>
		<path class="st1" d="M1763.9,485.1l-35.3,118.8v67.4h-44.8v-67.4l-34-118.8h44.5c6.9,36.3,10.9,60.8,11.8,73.4
			c2.7-19.9,7.2-44.3,13.5-73.4H1763.9z"/>
	</g>
</g>
</svg>
