<?xml version="1.0" encoding="utf-8"?>
<!-- Generator: Adobe Illustrator 22.1.0, SVG Export Plug-In . SVG Version: 6.00 Build 0)  -->
<svg version="1.1" id="Layer_1" xmlns="http://www.w3.org/2000/svg" xmlns:xlink="http://www.w3.org/1999/xlink" x="0px" y="0px"
	 viewBox="0 0 500 500" style="enable-background:new 0 0 500 500;" xml:space="preserve">
<style type="text/css">
	.st0{fill:#F5F5F5;}
	.st1{fill:#001127;}
	.st2{fill:#E51F37;}
	.st3{opacity:0.7;fill:#FFFFFF;enable-background:new    ;}
	.st4{opacity:0.2;fill:#011627;enable-background:new    ;}
	.st5{fill:#FFFFFF;}
	.st6{fill:#FF8B7B;}
	.st7{fill:#FF5652;}
</style>
<g id="freepik--Shadow--inject-18">
	<ellipse id="freepik--path--inject-18" class="st0" cx="250" cy="416.2" rx="193.9" ry="11.3"/>
</g>
<g id="freepik--Board--inject-18">
	<path class="st1" d="M117.5,145.1h181.3c2.7,0,4.9,2.2,4.9,4.9v129.3c0,2.7-2.2,4.9-4.9,4.9H117.5c-2.7,0-4.9-2.2-4.9-4.9V150
		C112.6,147.3,114.8,145.1,117.5,145.1z"/>
	<path class="st1" d="M206.6,138.8h3.2c0.6,0,1.2,0.5,1.2,1.2v272.3c0,0.6-0.5,1.2-1.2,1.2h-3.2c-0.6,0-1.2-0.5-1.2-1.2V140
		C205.4,139.3,205.9,138.8,206.6,138.8z"/>
	<path class="st1" d="M202.2,407.9h11.9c2.6,0,4.7,2.1,4.7,4.7l0,0v0.6c0,0.2-0.1,0.3-0.3,0.3h-20.6c-0.2,0-0.3-0.1-0.3-0.3v-0.6
		C197.5,410,199.6,407.9,202.2,407.9L202.2,407.9z"/>
	<rect x="261.1" y="141.6" class="st2" width="16" height="1"/>
	<rect x="246.7" y="141.6" class="st2" width="4.9" height="1"/>
	<path class="st2" d="M118.2,145.1h181.3c2.7,0,4.9,2.2,4.9,4.9v129.3c0,2.7-2.2,4.9-4.9,4.9H118.2c-2.7,0-4.9-2.2-4.9-4.9V150
		C113.3,147.3,115.5,145.1,118.2,145.1z"/>
	<path class="st3" d="M299.4,154.3V275c0,2.3-1.9,4.2-4.2,4.2H122.5c-2.3,0-4.2-1.9-4.2-4.2V154.3c0-2.3,1.9-4.2,4.2-4.2h172.7
		C297.5,150.1,299.4,152,299.4,154.3z"/>
	<path class="st4" d="M171,213c-11.7-1.1-23.4-1.6-35.1-1.5c0.1-15.9,1.5-33.1,2.8-50l34.4,2.2C171.8,183.5,170.4,203.3,171,213z"/>
	<path class="st5" d="M171.7,212.3c-11.7-1.1-23.4-1.6-35.1-1.5c0.1-15.9,0.8-32.4,2.1-49.3l35.1,1.5
		C172.4,182.7,171.1,202.5,171.7,212.3z"/>
	<polygon class="st4" points="217.7,246.9 182.6,248.4 181.2,198.4 215.6,197.6 	"/>
	
		<rect x="182.2" y="197.6" transform="matrix(0.9991 -4.344502e-02 4.344502e-02 0.9991 -9.4686 8.889)" class="st5" width="35.1" height="49.3"/>
	<polygon class="st4" points="295.9,245.7 261.1,241.1 268.3,191.6 302.3,196.8 	"/>
	
		<rect x="257.8" y="200.8" transform="matrix(0.1309 -0.9914 0.9914 0.1309 29.0557 469.847)" class="st5" width="49.3" height="35.1"/>
	<path class="st4" d="M176.2,281.8c-6.4,2-22.7,2.3-35,1.7c-1.8-15.4-1.6-32.6-1.1-50l34.4-0.6C173.7,244.9,174.3,266.1,176.2,281.8
		z"/>
	<path class="st5" d="M176.9,281.1c-6.4,2-22.8,2.3-35,1.7c-1.7-16.4-2.3-32.8-1.8-49.3l35.1-1.3C174.4,244.2,175,265.4,176.9,281.1
		z"/>
	<path class="st4" d="M262.5,208l-35.1,0.8c-1.2-16.4-0.8-33.6-0.4-50h34.4C261,176.2,261.3,192.9,262.5,208z"/>
	<path class="st5" d="M263.2,207.3l-35.1,0.8c-1.2-16.4-1.5-32.9-1.1-49.3l35.1-0.8C261.7,175.5,262,192.1,263.2,207.3z"/>
</g>
<g id="freepik--Character--inject-18">
	<polygon class="st6" points="277,401 269.3,398.9 272,380.4 279.8,382.5 	"/>
	<polygon class="st6" points="348.7,408 340.7,408 334.4,389.5 342.4,389.5 	"/>
	<path class="st1" d="M339.6,407.1h9.8c0.3,0,0.6,0.2,0.7,0.5l1.6,7.1c0.1,0.6-0.3,1.3-0.9,1.4c-0.1,0-0.2,0-0.3,0
		c-3.1,0-5.4-0.2-9.4-0.2c-2.4,0-9.8,0.3-13.2,0.3s-3.8-3.3-2.4-3.6c6.2-1.4,10.8-3.2,12.8-5C338.7,407.3,339.1,407.1,339.6,407.1z"
		/>
	<path class="st1" d="M269.5,398l8.5,2.3c0.3,0.1,0.5,0.4,0.5,0.7l-0.3,7.3c0,0.6-0.6,1.1-1.2,1.1c-0.1,0-0.2,0-0.3,0
		c-3-0.9-7.4-2.2-11.3-3.3c-4.5-1.2-8.4-2-13.7-3.4c-3.2-0.9-3.2-4.3-1.8-4.2c6.4,0.3,11.4,1.5,17.5-0.3
		C268.2,397.9,268.9,397.9,269.5,398z"/>
	<path class="st6" d="M311,168.7c-2.6,3.3-5.4,6.9-8,10.4s-5.1,7.1-7.4,10.8c-1.1,1.8-2.2,3.6-3.2,5.5l-2.8,5.4l-0.2,0.5
		c0,0.1-0.1,0.1-0.1,0.1c0-0.1,0-0.2,0-0.4c0-0.3,0-0.6-0.1-0.9c0-0.2-0.1-0.3-0.1-0.5c0-0.1-0.1-0.2-0.1-0.3c0-0.1-0.1-0.3-0.2-0.4
		c-0.2-0.3-0.4-0.7-0.6-0.9c-0.3-0.4-0.8-0.7-1.2-1c-0.5-0.3-1-0.5-1.5-0.6c-0.4-0.1-0.8-0.1-1.2-0.1c-0.4,0-0.9,0.1-1.3,0.3
		c-0.3,0.1-0.6,0.2-0.8,0.4c-0.3,0.2-0.2,0.2-0.3,0.2s0.1,0,0.1,0c0.4-0.2,0.7-0.5,1-0.8c0.4-0.3,0.8-0.7,1.1-1.1
		c1.5-1.5,3.1-3.1,4.8-4.7l5,3.3c-0.8,2.2-1.8,4.4-2.9,6.5c-0.6,1.2-1.3,2.3-2.2,3.4c-0.2,0.2-0.3,0.4-0.5,0.6
		c-0.3,0.3-0.6,0.6-0.9,0.8c-0.4,0.3-0.8,0.5-1.2,0.6c-0.5,0.2-1,0.3-1.5,0.3c-0.4,0-0.9,0-1.3-0.1c-0.6-0.1-1.1-0.3-1.6-0.6
		c-0.5-0.3-0.9-0.6-1.3-1.1c-0.3-0.3-0.5-0.6-0.7-1c-0.1-0.1-0.1-0.3-0.2-0.5l-0.1-0.4c-0.1-0.3-0.1-0.4-0.2-0.6
		c-0.1-0.4-0.1-0.9-0.1-1.3c0-0.4,0-0.8,0.1-1.2c0-0.3,0.1-0.5,0.1-0.7c0.1-0.4,0.2-0.8,0.3-1.1c0.3-1.4,0.7-2.5,1.1-3.7
		s0.9-2.3,1.4-3.4c1-2.2,2.1-4.4,3.3-6.5c2.3-4.1,4.8-8.1,7.5-12c1.3-1.9,2.7-3.8,4.1-5.6s2.9-3.6,4.5-5.5L311,168.7z"/>
	<path class="st2" d="M315.4,162.8c1.7,7.5-14.7,26.6-14.7,26.6L286,178.6c3.3-6.2,7.2-12,11.7-17.4
		C304.4,153.6,313.5,154.6,315.4,162.8z"/>
	<path class="st4" d="M315.4,162.8c1.7,7.5-14.7,26.6-14.7,26.6L286,178.6c3.3-6.2,7.2-12,11.7-17.4
		C304.4,153.6,313.5,154.6,315.4,162.8z"/>
	<polygon class="st4" points="272,380.4 270.6,390 278.3,392 279.8,382.5 	"/>
	<polygon class="st4" points="342.4,389.5 334.4,389.5 337.6,399 345.7,399 	"/>
	<path class="st2" d="M351.3,161.7c-10.5,29.9-10.6,62.3-11.8,68.8c-6.2-0.8-29.7-4-42.5-5.7c-2.9-45.9,9.7-68.7,9.7-68.7
		s2.8-0.4,6.5-0.5c1.2,0,2.5-0.1,3.8-0.1c0.7,0,1.5,0,2.2,0.1c6.1,0.5,12.1,1.3,18.1,2.5c1.1,0.2,2.3,0.4,3.4,0.7s2,0.5,3,0.7
		C348,160.5,351.3,161.7,351.3,161.7z"/>
	<path class="st4" d="M351.3,161.7c-10.5,29.9-10.6,62.3-11.8,68.8c-6.2-0.8-29.7-4-42.5-5.7c-2.9-45.9,9.7-68.7,9.7-68.7
		s2.8-0.4,6.5-0.5c1.2,0,2.5-0.1,3.8-0.1c0.7,0,1.5,0,2.2,0.1c6.1,0.5,12.1,1.3,18.1,2.5c1.1,0.2,2.3,0.4,3.4,0.7s2,0.5,3,0.7
		C348,160.5,351.3,161.7,351.3,161.7z"/>
	<path class="st4" d="M341.5,175.5c-1.7,4.5-0.4,17,1.5,21.3c0.7-4.5,1.5-9.1,2.5-13.9L341.5,175.5z"/>
	<path class="st6" d="M289.1,190.1l6.4-6l4.1,9.4c-2.4,2.4-6,3-9,1.5L289.1,190.1z"/>
	<polygon class="st6" points="300.1,181 303.3,189.3 299.6,193.5 295.5,184.1 	"/>
	<path class="st6" d="M338.3,137.4c-1.9,5.7-4.5,16.2-1,20.6c-3.6,2.7-8.2,5.8-15.2,5.1s-5.1-5.3-2.9-7.5c6.7-0.7,7.2-5.5,6.7-10.2
		L338.3,137.4z"/>
	<path class="st2" d="M318,154c0-1.6,6.5-2.9,6.8-1.4s-2,2-1.3,4s7.3,2.2,9.9-0.6c1.7-1.9,2.3-3.8,4.5-2.5s4.9,3,3.4,5.8
		s-9.7,9.3-17.2,7.6s-9.6-5.7-8.1-7.4C317.2,157.8,317.9,156,318,154z"/>
	<path class="st4" d="M333.2,140.6l-7.3,4.7c0.1,1.1,0.2,2.2,0.1,3.3c3-0.1,5.7-1.7,7.3-4.3C334.1,142.7,333.8,140.9,333.2,140.6z"
		/>
	<path class="st6" d="M339.5,127.3c-0.7,7.9-0.7,12.6-4.9,16.6c-6.2,6-15.9,2-17.6-5.9c-1.5-7.2-0.1-19,7.8-21.9
		c5.6-2.1,11.9,0.7,14,6.3C339.4,124,339.7,125.7,339.5,127.3z"/>
	<path class="st1" d="M340.1,121c-5.8-0.4-6.3,9.7-1.5,14.1C344.4,132.8,352.6,121.9,340.1,121z"/>
	<path class="st1" d="M334.3,122.6c-3.4-5.4-10,3.2-13.3-2.7c-2-3.6-5.3,0.3-7.3-1.8s1.1-7.8,3.2-8.4c-1.2,1.3-1.4,5.9,2.1,3.6
		s6.1-4.6,10.5-0.8s8.9-3.9,13,2C346.1,119.6,338.4,129,334.3,122.6z"/>
	<path class="st1" d="M340.9,121.7c-0.9,0-1.9-0.2-2.8-0.4c-0.2-0.1-0.3-0.3-0.2-0.5c0.1-0.2,0.3-0.3,0.5-0.2c2.6,0.8,5,0.4,6.2-1.1
		c0.9-1.1,0.8-2.7-0.2-4.3c-0.1-0.2,0-0.4,0.1-0.5c0.2-0.1,0.4,0,0.5,0.1c1.1,1.9,1.2,3.8,0.1,5.2
		C344.1,121.2,342.5,121.8,340.9,121.7z"/>
	<path class="st6" d="M342.8,136.2c-1.1,1.7-2.8,2.8-4.8,3.2c-2.6,0.5-3.7-1.9-2.8-4.2c0.8-2.1,3.2-4.9,5.7-4.4
		S344.2,134.2,342.8,136.2z"/>
	<path class="st1" d="M267.7,387.1l13.1,3.5c0,0,12.5-46.3,16.4-71c1.2-7.5,3.9-17.9,7.1-29c4.1-14,9-29.1,13.1-40.9
		c4.3-12.4,7.5-21.2,7.5-21.2l-28-3.8c0,0-21.3,65.3-23.7,89.7C270.8,339.8,267.7,387.1,267.7,387.1z"/>
	<path class="st4" d="M304.4,290.7c4.1-14,9-29.1,13.1-40.9l-2.5-6.5C307.5,251.1,303.9,276.6,304.4,290.7z"/>
	<path class="st1" d="M312,226.8c0,0-1.4,68.8,0.5,92.2c2.1,25.7,21.3,78.2,21.3,78.2h14.7c0,0-9.8-48-12.8-73
		c-3.4-28.4,3.8-93.7,3.8-93.7L312,226.8z"/>
	<polygon class="st2" points="332.1,397.5 349.4,397.5 349.4,392.3 330.1,392 	"/>
	<polygon class="st2" points="266,387 281.6,391.2 283,386.1 266.5,381.4 	"/>
	<path class="st1" d="M327.4,129.2c0,0.6-0.4,1.2-0.8,1.1s-0.8-0.6-0.7-1.2s0.4-1.2,0.8-1.1S327.4,128.6,327.4,129.2z"/>
	<path class="st1" d="M320,129c0,0.6-0.4,1.2-0.8,1.1s-0.8-0.6-0.7-1.2s0.4-1.2,0.8-1.2S320.1,128.4,320,129z"/>
	<path class="st7" d="M322.4,129.4c-0.8,2-1.9,3.8-3.3,5.4c0.9,0.7,2,0.9,3.1,0.7L322.4,129.4z"/>
	<path class="st1" d="M324.9,137.3c1.5-0.1,2.8-0.8,3.7-2c0.1-0.1,0.1-0.2,0-0.3c-0.1-0.1-0.2,0-0.3,0c0,0,0,0,0,0
		c-1,1.3-2.7,2-4.3,1.9c-0.1,0-0.2,0.1-0.2,0.2c0,0,0,0,0,0c0,0.1,0.1,0.2,0.2,0.2C324.3,137.4,324.6,137.4,324.9,137.3z"/>
	<path class="st1" d="M329.7,126.9c0.1,0,0.1,0,0.2-0.1c0.2-0.1,0.2-0.4,0.1-0.5c0,0,0,0,0,0c-0.7-1-1.8-1.6-3-1.7
		c-0.2,0-0.4,0.2-0.4,0.4c0,0,0,0,0,0c0,0.2,0.2,0.4,0.4,0.4c0,0,0,0,0,0l0,0c1,0,1.9,0.5,2.4,1.3
		C329.4,126.9,329.5,127,329.7,126.9z"/>
	<path class="st1" d="M317,126.4c0.1,0,0.2-0.1,0.3-0.2c0.4-0.9,1.2-1.5,2.2-1.7c0.2,0,0.3-0.3,0.3-0.5c0-0.2-0.2-0.3-0.4-0.3
		c-1.2,0.2-2.3,1-2.8,2.1c-0.1,0.2,0,0.4,0.1,0.5c0,0,0,0,0,0C316.8,126.4,316.9,126.4,317,126.4z"/>
	<path class="st2" d="M336.9,408.5c0.7,0,1.4-0.1,2.1-0.3c0.1,0,0.1-0.1,0.1-0.2c0-0.1,0-0.1-0.1-0.2c-0.3-0.2-2.9-1.8-3.8-1.3
		c-0.2,0.1-0.3,0.3-0.3,0.5c0,0.4,0.1,0.7,0.4,1C335.8,408.4,336.4,408.6,336.9,408.5z M338.5,408c-1.4,0.3-2.4,0.2-2.9-0.1
		c-0.2-0.2-0.3-0.4-0.3-0.7c0-0.1,0-0.2,0.1-0.2C336,406.7,337.4,407.4,338.5,408L338.5,408z"/>
	<path class="st2" d="M339,408.2c0,0,0.1,0,0.1,0c0.1,0,0.1-0.1,0.1-0.2c0-0.1-0.2-2.4-1.1-3.2c-0.2-0.2-0.5-0.3-0.8-0.2l0,0
		c-0.3,0-0.5,0.2-0.6,0.5C336.5,406,338.1,407.8,339,408.2L339,408.2z M337.4,405c0.2,0,0.3,0.1,0.4,0.2c0.6,0.7,0.9,1.6,1,2.5
		c-0.8-0.6-1.9-2-1.8-2.5C337,405.2,337,405,337.4,405L337.4,405z"/>
	<path class="st2" d="M268.5,398.9c0.1,0,0.1-0.1,0.2-0.1c0-0.1,0-0.2,0-0.2c-0.3-0.3-3-2.7-4.1-2.4c-0.2,0.1-0.4,0.2-0.4,0.4l0,0
		c-0.1,0.3-0.1,0.7,0.1,1C264.9,398.6,267.2,398.8,268.5,398.9L268.5,398.9z M264.7,396.5c0.6,0,2.1,1,3.2,2c-1.8-0.2-3-0.6-3.4-1.1
		c-0.1-0.2-0.2-0.4-0.1-0.6C264.5,396.6,264.5,396.6,264.7,396.5L264.7,396.5z"/>
	<path class="st2" d="M268.5,398.9L268.5,398.9c0.1,0,0.2-0.1,0.2-0.1c0-0.1,0.4-2.2-0.4-3.3c-0.2-0.3-0.6-0.5-0.9-0.6l0,0
		c-0.5-0.1-0.7,0.1-0.8,0.3c-0.4,0.8,1,3,1.9,3.7C268.4,398.9,268.5,398.9,268.5,398.9z M267.1,395.2h0.2c0.3,0,0.5,0.2,0.7,0.4
		c0.4,0.8,0.5,1.8,0.4,2.7c-0.8-0.8-1.7-2.5-1.5-3C266.9,395.3,266.9,395.2,267.1,395.2z"/>
	<path class="st6" d="M353.4,167.9c1.2,5.2,2.1,10.4,3,15.6s1.6,10.5,2.2,15.8l0.2,2l0.1,1.2c0.1,1,0,2-0.3,2.9
		c-0.4,1.3-1.1,2.5-2.1,3.4c-0.8,0.7-1.8,1.3-2.9,1.6c-1.3,0.4-2.6,0.5-3.9,0.3c-1.7-0.2-3.3-0.6-4.9-1.1c-1.4-0.5-2.8-1-4-1.6
		c-2.5-1.1-5-2.4-7.3-3.8c-2.4-1.4-4.6-2.8-6.8-4.4l2.9-5.3c4.9,1.7,9.8,3.5,14.5,4.8c1.2,0.3,2.4,0.6,3.5,0.8
		c0.9,0.2,1.9,0.3,2.8,0.3c0.3,0,0.5-0.1,0.1-0.1c-0.4,0.1-0.9,0.3-1.2,0.7c-0.5,0.5-0.9,1.1-1.1,1.7c-0.1,0.3-0.1,0.6-0.1,0.9
		c0,0.2,0-0.1,0-0.2l-0.1-0.5l-0.4-1.9c-1-5.1-2-10.2-3-15.3c-1-5.1-2.1-10.3-3-15.3L353.4,167.9z"/>
	<path class="st2" d="M354,163.6c5.2,5.6,5.7,22.8,5.7,22.8l-15.2,7.1c0,0-4.9-10.9-5.1-20.9C339.3,161.5,348.8,158,354,163.6z"/>
	<path class="st4" d="M354,163.6c5.2,5.6,5.7,22.8,5.7,22.8l-15.2,7.1c0,0-4.9-10.9-5.1-20.9C339.3,161.5,348.8,158,354,163.6z"/>
	<path class="st1" d="M299.6,184.6c-0.1,0-0.2,0-0.3-0.1c-0.2-0.1-0.3-0.4-0.2-0.7l8-13.8c0.2-0.2,0.5-0.3,0.7-0.1
		c0.2,0.1,0.3,0.4,0.2,0.6l-8,13.8C300,184.5,299.8,184.6,299.6,184.6z"/>
	<path class="st5" d="M324.4,223l-30.2-4.4c-1.3-0.2-2.3-1.2-2.4-2.5l-2-41.7c-0.1-1,0.7-1.8,1.7-1.9c0.2,0,0.3,0,0.5,0l30.2,4.4
		c1.3,0.2,2.3,1.2,2.4,2.5l2,41.7c0,1-0.7,1.8-1.7,1.9C324.7,223,324.6,223,324.4,223z"/>
	<path class="st1" d="M323.8,223.4l-30.2-4.4c-1.3-0.2-2.3-1.2-2.4-2.5l-2-41.7c-0.1-1,0.7-1.8,1.7-1.9c0.2,0,0.3,0,0.5,0l30.2,4.4
		c1.3,0.2,2.3,1.2,2.4,2.5l2,41.7c0.1,1-0.6,1.9-1.6,1.9C324.2,223.5,324,223.5,323.8,223.4z"/>
	<path class="st6" d="M330.2,194.6l-7.1-4l-0.8,10.2c0,0,6.8,2.1,8.3-1.4L330.2,194.6z"/>
	<polygon class="st6" points="315.2,192.4 316.2,200.1 322.3,200.8 323.1,190.6 	"/>
</g>
</svg>
