<?xml version="1.0" encoding="utf-8"?>
<!-- Generator: Adobe Illustrator 22.1.0, SVG Export Plug-In . SVG Version: 6.00 Build 0)  -->
<svg version="1.1" id="Layer_1" xmlns="http://www.w3.org/2000/svg" xmlns:xlink="http://www.w3.org/1999/xlink" x="0px" y="0px"
	 viewBox="0 0 638 768" style="enable-background:new 0 0 638 768;" xml:space="preserve">
<style type="text/css">
	.st0{fill:#FFFFFF;}
</style>
<g>
	<g>
		<g>
			<path class="st0" d="M383.9,101.1c-7.5,11-19.9,17.6-33.2,17.6c-8,0-15.7-2.4-22.4-6.9c-25.2-17-54.6-26-85.1-26
				c-84,0-152.3,68.3-152.3,152.3c0,32.8,10.4,63.3,28.2,88.1c1.1,1.6,2.3,3.1,3.4,4.6c19.3,25,46.1,43.9,77,53.1
				c3.7,1.1,7.5,2.1,11.4,2.9c10.4,2.2,21.2,3.4,32.2,3.4c11,0,21.7-1.2,32.2-3.4c32.8,7.4,62.3,25.8,83.5,52.6
				c-34.1,19.6-73.6,30.9-115.6,30.9c-42.1,0-81.6-11.2-115.7-30.9c-1.7-1-3.3-1.9-5-2.9c-23.1-14.1-43.6-32.1-60.5-53.1
				c-1.2-1.5-2.4-3.1-3.6-4.6C28.6,339.8,10.8,291,10.8,238.1C10.8,110,115.1,5.8,243.2,5.8c46.6,0,91.5,13.7,129.9,39.7
				C391.4,57.8,396.2,82.8,383.9,101.1z"/>
			<path class="st0" d="M475.5,238.1c0,52.9-17.7,101.6-47.6,140.7c-17.3-21-37.8-38.7-60.6-52.6c8.6-12.2,15.6-25.8,20.5-40.6
				l2.5-7.5H243.2c-22.1,0-40-18-40-40c0-22.1,18-40,40-40h192.3C457.5,198.1,475.5,216,475.5,238.1z"/>
		</g>
		<path class="st0" d="M622.7,733.5c-2.6,10.4-9.1,19.2-18.3,24.7c-6.3,3.8-13.4,5.7-20.6,5.7c-14.3,0-27.2-7.3-34.6-19.6
			l-81.2-135.6l-31.2,52l-0.7,1c-43.6,64-115.7,102.2-193,102.2C114.4,763.9,9.7,659.2,9.7,530.6c0-53.6,18.2-103.1,48.7-142.5
			c17,21,37.6,39,60.7,53.2c-18.2,25.2-28.9,56-28.9,89.4c0,84.3,68.6,152.9,152.9,152.9c50.1,0,97.2-24.6,125.8-65.9l0.1-0.2
			l52.1-86.8l-51.7-86.3l-0.1-0.1c-0.7-1-1.3-1.9-2-2.9c-1.1-1.6-2.3-3.1-3.4-4.6C344,411.3,317,393,286.7,384h0
			c-3.8-1.1-7.6-2.1-11.4-2.9c-10.5-2.3-21.3-3.4-32.2-3.4c-11,0-21.8,1.2-32.2,3.4c-33.7-7.6-63-26.8-83.5-53.1
			c34.1-19.5,73.6-30.7,115.7-30.7c41.3,0,81,10.9,115.8,30.7c1.7,1,3.4,2,5.1,3c22.8,13.8,43.2,31.5,60.3,52.6
			c1.2,1.5,2.4,3,3.6,4.6c3,3.9,5.9,7.9,8.6,12l1.3,2l30.1,50.3l81.2-135.5c7.3-12.3,20.3-19.6,34.6-19.6c7.3,0,14.4,2,20.6,5.7
			c19,11.4,25.2,36.2,13.8,55.2L514.8,530.5L618.2,703C623.7,712.2,625.3,723.1,622.7,733.5z"/>
		<g>
			<circle class="st0" cx="583.1" cy="45.8" r="40.8"/>
		</g>
		<g>
			<path class="st0" d="M623.9,96c0,22.5-18.3,40.8-40.8,40.8c-22.5,0-40.8-18.3-40.8-40.8c0-7.3,1.9-14.2,5.3-20.2
				c8.5,10.1,21.3,16.5,35.5,16.5c14.2,0,26.9-6.4,35.5-16.5C622,81.8,623.9,88.7,623.9,96z"/>
		</g>
		<g>
			<path class="st0" d="M623.9,147.1c0,22.5-18.3,40.8-40.8,40.8c-22.5,0-40.8-18.3-40.8-40.8c0-7.3,1.9-14.2,5.3-20.2
				c8.5,10.1,21.3,16.5,35.5,16.5c14.2,0,26.9-6.4,35.5-16.5C622,132.9,623.9,139.8,623.9,147.1z"/>
		</g>
	</g>
</g>
</svg>
