<?xml version="1.0" encoding="utf-8"?>
<!-- Generator: Adobe Illustrator 22.1.0, SVG Export Plug-In . SVG Version: 6.00 Build 0)  -->
<svg version="1.1" id="Layer_1" xmlns="http://www.w3.org/2000/svg" xmlns:xlink="http://www.w3.org/1999/xlink" x="0px" y="0px"
	 viewBox="0 0 500 500" style="enable-background:new 0 0 500 500;" xml:space="preserve">
<style type="text/css">
	.st0{fill:#F5F5F5;}
	.st1{fill:#E51F37;}
	.st2{opacity:0.3;fill:#FFFFFF;enable-background:new    ;}
	.st3{opacity:0.1;fill:#FFFFFF;enable-background:new    ;}
	.st4{opacity:0.2;fill:#FFFFFF;enable-background:new    ;}
	.st5{opacity:0.1;fill:#011627;enable-background:new    ;}
	.st6{opacity:0.4;fill:#FFFFFF;enable-background:new    ;}
	.st7{opacity:0.2;fill:#011627;enable-background:new    ;}
	.st8{opacity:0.5;fill:#FFFFFF;enable-background:new    ;}
	.st9{opacity:0.6;fill:#FFFFFF;enable-background:new    ;}
	.st10{fill:#E6AE76;}
	.st11{fill:#011627;}
	.st12{fill:#D08245;}
	.st13{fill:none;stroke:#011627;stroke-width:0.5263;stroke-linecap:round;stroke-linejoin:round;}
	.st14{opacity:5.000000e-02;fill:#FFFFFF;enable-background:new    ;}
	.st15{opacity:0.3;fill:#011627;enable-background:new    ;}
	.st16{opacity:0.4;fill:#011627;enable-background:new    ;}
	.st17{opacity:0.7;fill:#FFFFFF;enable-background:new    ;}
	.st18{opacity:0.9;fill:#FFFFFF;enable-background:new    ;}
	.st19{fill:#FFFFFF;}
	.st20{opacity:0.8;fill:#FFFFFF;enable-background:new    ;}
</style>
<g id="freepik--Shadow--inject-12">
	<ellipse id="freepik--path--inject-12" class="st0" cx="250" cy="416.2" rx="193.9" ry="11.3"/>
</g>
<g id="freepik--Character--inject-12">
	<polygon class="st1" points="304,276.1 298.3,327 336.4,327 340.9,276.1 	"/>
	<polygon class="st2" points="304,276.1 298.3,327 332,327 336.5,276.1 	"/>
	<polygon class="st3" points="336.5,276.1 332,327 336.4,327 340.9,276.1 	"/>
	<path class="st1" d="M353.6,286.5h-59.6c-1.8,0-3.3-1.5-3.3-3.3c0-0.1,0-0.1,0-0.2l3.6-75.1c0.1-1.7,1.5-3.1,3.3-3.1h59.9
		L353.6,286.5z"/>
	<polygon class="st4" points="352.6,204.9 348.7,286.5 353.6,286.5 357.6,204.9 	"/>
	<path class="st5" d="M347.1,208.3l-3.5,74.3c-0.1,2,1.5,3.7,3.5,3.8c0.1,0,0.1,0,0.2,0h1.4l3.9-81.6h-1.8
		C348.9,204.9,347.3,206.4,347.1,208.3z"/>
	<polygon class="st1" points="293.2,328.8 293.7,344.4 295.8,414.8 302.8,414.8 304.9,344.4 305.4,328.8 	"/>
	<polygon class="st6" points="293.2,328.8 293.7,344.4 295.8,414.8 302.8,414.8 304.9,344.4 305.4,328.8 	"/>
	<polygon class="st7" points="293.2,328.8 293.7,344.8 304.9,344.8 305.4,328.8 	"/>
	<polygon class="st1" points="255.2,414.6 261.7,329.9 272.3,329.9 263.2,414.6 	"/>
	<polygon class="st8" points="263.2,414.6 255.2,414.6 261.1,337.5 261.7,329.8 272.3,329.8 271.4,337.5 	"/>
	<polygon class="st7" points="272.3,329.8 271.4,337.8 261.1,337.8 261.7,329.8 	"/>
	<polygon class="st1" points="335.5,414.6 326.4,329.9 337,329.9 343.4,414.6 	"/>
	<polygon class="st8" points="335.4,414.6 327.2,337.5 326.4,329.8 337,329.8 337.5,337.5 343.4,414.6 	"/>
	<polygon class="st7" points="326.4,329.8 327.2,337.8 337.5,337.8 337,329.8 	"/>
	<path class="st1" d="M342.7,332.9h-86.6l0,0v-6.7c0-2.8,2.2-5,5-5h76.6c2.8,0,5,2.2,5,5V332.9L342.7,332.9z"/>
	<path class="st1" d="M344.8,332.9h-90.9c-1.1,0-2-0.9-2-2V329c0-1.1,0.9-2,2-2h90.9c1.1,0,2,0.9,2,2v1.8
		C346.8,332,345.9,332.9,344.8,332.9z"/>
	<path class="st9" d="M344.8,332.9h-90.9c-1.1,0-2-0.9-2-2V329c0-1.1,0.9-2,2-2h90.9c1.1,0,2,0.9,2,2v1.8
		C346.8,332,345.9,332.9,344.8,332.9z"/>
	<path class="st5" d="M328.7,321.2h-14.7l-28.9-1.2l0.5,1.9l-22.4,0.2l-1.1,0.3l1.1,10.4h25.9l-1.9-9.4
		C297.3,323.4,322.8,325.7,328.7,321.2z"/>
	<path class="st10" d="M269.6,240.7c0,0-28.4,6-30,6.3s-9.2-2-10.7-1.8s-3.9,7.1-4,8.6s11.9,2.7,13,2.2c1.2-0.6,2.3-1.4,3.3-2.2
		l29.7-3.1L269.6,240.7z"/>
	<polygon class="st1" points="325,202 309.3,202.8 305.7,206.9 325.8,206.5 	"/>
	<path class="st11" d="M294.4,227.6c0,0-0.3,0.8-0.8,2s-1.3,3.1-2.2,5.2c-2.3,5-5.6,11.4-9.1,14.8c-0.9,0.9-1.9,1.7-3.1,2.2
		c-3.7,1.4-12.9,2.1-21.2,2s-15.6,0.7-15.6,0.7v-8.8l27.4-6.4c0,0,14.4-25.9,23-29.7L294.4,227.6z"/>
	<path class="st7" d="M293.6,229.6c-0.5,1.3-1.3,3.1-2.2,5.2c-2.3,5-5.6,11.4-9.1,14.8c-3.5-13.1,9.6-25.5,9.6-25.5L293.6,229.6z"/>
	<polygon class="st10" points="290.1,408.9 282.1,407.8 281,388.9 289,390 	"/>
	<polygon class="st7" points="289,390 281,388.9 281.7,399.7 289.6,400.4 	"/>
	<path class="st1" d="M289.8,297.6l2-12.2l44.7-2.7c0,0,4.8,25.3,1.1,32.1c-6.5,12-41.6,6-51.9,7.1c6.1,25.1,5.5,74.2,5.5,74.2
		l-14.7,1.1c0,0-11.3-52.9-13.6-78C261.4,302.3,275.4,302.7,289.8,297.6z"/>
	<polygon class="st10" points="271.7,401.8 263.7,402.4 258.7,384.1 266.7,383.5 	"/>
	<path class="st1" d="M262.6,402.7h-0.1l0,0c0-0.1-0.4-2.4-1.4-2.9c-0.3-0.1-0.5-0.1-0.8,0c-0.3,0.1-0.5,0.4-0.5,0.7
		c0.2,0.7,0.6,1.2,1.2,1.6c-0.7-0.2-1.5-0.2-2.3,0.1c-0.2,0.1-0.3,0.4-0.3,0.6c0,0.4,0.2,0.8,0.5,1c0.5,0.2,1.1,0.2,1.6,0
		c0.7-0.2,1.4-0.5,2-0.8c0,0,0,0,0.1,0c0,0,0,0,0-0.1C262.7,402.8,262.7,402.8,262.6,402.7C262.7,402.7,262.7,402.7,262.6,402.7z
		 M260.2,400.4c0-0.1,0-0.3,0.3-0.4h0.1c0.1,0,0.3,0,0.4,0.1c0.6,0.3,1,1.5,1.2,2.3l-0.2,0C261.2,401.9,260.3,401,260.2,400.4
		L260.2,400.4z M259.2,403.4c-0.2-0.1-0.3-0.4-0.3-0.6c0-0.1,0-0.2,0.1-0.3c0.5-0.3,1.9,0,3,0.3
		C260.7,403.4,259.6,403.6,259.2,403.4L259.2,403.4z"/>
	<polygon class="st7" points="266.7,383.5 258.7,384.1 261.6,394.6 269.5,393.6 	"/>
	<path class="st1" d="M256,393.3l14.1-4.1c0,0-8.4-47.6-17-64.1c0.6-0.2,1.5-0.5,2.5-0.8c1.9-0.6,4.4-1.3,7.3-2.1
		c20.5-5.7,62.1-16.4,62.1-16.4l-19-17.7c0,0-75.7,11.5-77.3,31.5C228.1,329.1,256,393.3,256,393.3z"/>
	<path class="st7" d="M255.7,324.3c1.9-0.6,4.6-1.3,7.5-2.1c-0.6-4.8-0.8-10.3,1.5-13.2c4.6-5.6,16.5-9,23.3-10.1
		c5.7-1,24.7-3,24.7-3s-24.7-2.4-50,5C250.3,304.5,252.7,316.7,255.7,324.3z"/>
	<path class="st11" d="M338.9,295.4c3-2.3,0.1-23.6,1.6-44.6c2.3-31.9,0-42.1-2.4-43.1c-4.3-0.8-8.7-1.2-13.1-1.3
		c-6.4-0.2-12.9-0.1-19.3,0.4c-4.4,0.5-8.7,1.4-13,2.6c0,0-10.5,33.5-3.8,81.8L338.9,295.4z"/>
	<path class="st3" d="M338.9,295.4c3-2.3,0.1-23.6,1.6-44.6c2.3-31.9,0-42.1-2.4-43.1c-4.3-0.8-8.7-1.2-13.1-1.3
		c-6.4-0.2-12.9-0.1-19.3,0.4c-4.4,0.5-8.7,1.4-13,2.6c0,0-10.5,33.5-3.8,81.8L338.9,295.4z"/>
	<path class="st10" d="M322.7,184.8c-1.1,6.2-2.1,17.6,2.4,21.7c-3.6,3.9-8.7,6.2-14,6.4c-8,0.4-5.3-5.9-5.3-5.9
		c6.9-1.8,6.6-6.9,5.3-11.8L322.7,184.8z"/>
	<path class="st7" d="M317.9,189l-6.9,6.2c0.3,1.1,0.5,2.3,0.7,3.4c2.6-0.4,8.3-6.1,8.5-8.9C320.4,188.6,318.2,190.1,317.9,189z"/>
	<path class="st11" d="M307.5,168.6c3.5,2.3,1.9,6.3-5.9,12.5c-3.2-4.1-3.7-12.1-1.2-14.1S304.5,166.6,307.5,168.6z"/>
	<path class="st10" d="M322.4,175.1c-0.4,8.4-0.2,13.4-4.3,17.8c-6.3,6.6-16.7,2.9-18.9-5.4c-1.9-7.5-1-20,7.2-23.5
		c5.8-2.5,12.6,0.2,15.1,6C322.2,171.5,322.5,173.3,322.4,175.1z"/>
	<path class="st11" d="M309.9,177.6c0,0.7-0.4,1.3-0.8,1.3s-0.8-0.5-0.8-1.2s0.3-1.2,0.8-1.3S309.8,176.9,309.9,177.6z"/>
	<path class="st11" d="M302.1,177.7c0,0.7-0.4,1.3-0.8,1.3s-0.8-0.5-0.8-1.2s0.3-1.3,0.8-1.3S302,177.1,302.1,177.7z"/>
	<path class="st12" d="M304.6,178c-0.8,2.1-1.8,4.1-3.2,5.9c1,0.7,2.2,0.9,3.3,0.6L304.6,178z"/>
	<path class="st11" d="M311.9,175.1c0.1,0,0.2,0,0.3-0.1c0.2-0.1,0.2-0.4,0.1-0.6c-0.8-1-2-1.6-3.3-1.6c-0.2,0-0.4,0.2-0.4,0.4
		c0,0,0,0,0,0l0,0c0,0.2,0.2,0.4,0.4,0.4l0,0c1,0,2,0.5,2.6,1.3C311.7,175,311.8,175.1,311.9,175.1z"/>
	<path class="st11" d="M298.5,175.2c0.2,0,0.3-0.1,0.4-0.2c0.4-0.9,1.2-1.6,2.2-1.9c0.2,0,0.4-0.2,0.4-0.5c0-0.2-0.2-0.4-0.5-0.4
		c-1.3,0.3-2.3,1.1-2.9,2.3c-0.1,0.2,0,0.4,0.2,0.5l0,0C298.3,175.2,298.4,175.2,298.5,175.2z"/>
	<path class="st11" d="M318.9,167.7c-3.9,1.4-3.4,5.6,2.7,13.6c4.1-3.2,6.5-10.8,4.6-13.4S322.3,166.4,318.9,167.7z"/>
	<path class="st10" d="M326.5,181.8c-0.5,2.1-1.9,3.8-3.7,4.9c-2.5,1.4-4.3-0.6-4.2-3.3c0.1-2.4,1.5-6,4.2-6.3
		S327.2,179.2,326.5,181.8z"/>
	<path class="st13" d="M311,185.9c0,0-1.5,2.8-5.5,2.6"/>
	<path class="st11" d="M310.4,166.3c0,0,1.3,8.4,9.4,9s7.9-4.3,7.9-4.3c1.2-2.5,1.2-5.5,0-8.1c-1.9-3.7-11.8-2.6-16.6-3.4
		c-20.1-5.3-20,0.8-15.9,9c0,0-1.3,3.1,3.6,5.5C298.7,174,299.6,165.4,310.4,166.3z"/>
	<path class="st10" d="M296.5,246.1c0,0-29-0.7-30.6-0.8s-8.5-4-10-4.2s-5.4,6-5.9,7.4s11,5.3,12.1,5.2c1.3-0.3,2.5-0.8,3.7-1.4
		l29.6,3.8L296.5,246.1z"/>
	<path class="st7" d="M341.4,234.5L341.4,234.5c-4.3,7-10.3,14.4-16.4,14.1c-6.3-0.4,0-13.2,6.8-24.4c0.3,0.5,0.5,1,0.7,1.6
		c1.5,4.3,6.2-1,8.6-7.9C341.5,223.4,341.6,228.9,341.4,234.5z"/>
	<path class="st11" d="M262.9,401.6l8.7-2.4c0.3-0.1,0.6,0.1,0.7,0.3c0,0,0,0,0,0l0,0l2.3,6.8c0.2,0.8-0.2,1.5-1,1.7c0,0,0,0,0,0
		c-3,0.8-4.5,1-8.4,2.1c-2.4,0.6-6.9,2.1-10.3,2.5s-3.6-2.9-2.3-3.4c3.3-1.1,7.2-4.5,8.9-6.8C262,402,262.4,401.7,262.9,401.6z"/>
	<path class="st1" d="M281.4,407.8L281.4,407.8c0-0.1-0.1-2.4-1-3.1c-0.3-0.2-0.6-0.3-0.9-0.2c-0.3,0-0.6,0.3-0.7,0.6
		c0,0.7,0.3,1.3,0.8,1.8c-0.7-0.4-1.5-0.5-2.2-0.4c-0.2,0.1-0.4,0.3-0.4,0.6c-0.1,0.4,0,0.7,0.3,1c0.5,0.3,1,0.4,1.5,0.3
		c0.7-0.1,1.4-0.2,2.1-0.4h0.1c0,0,0,0,0-0.1s0.2,0,0.2-0.1L281.4,407.8L281.4,407.8z M279.1,405.1c0-0.1,0.1-0.2,0.3-0.3h0.1
		c0.1,0,0.3,0,0.4,0.1c0.5,0.7,0.7,1.6,0.7,2.5l-0.2-0.1C279.8,406.8,279.3,406,279.1,405.1L279.1,405.1z M277.5,407.8
		c-0.2-0.2-0.2-0.4-0.2-0.6c0-0.1,0.1-0.2,0.2-0.3c0.5-0.2,1.9,0.4,2.9,0.9C279,408.1,277.9,408.1,277.5,407.8L277.5,407.8z"/>
	<path class="st11" d="M281.5,406.8l9-0.6c0.3,0,0.6,0.2,0.6,0.5c0,0,0,0,0,0l0,0l0.9,7.1c0,0.8-0.5,1.4-1.3,1.5
		c-3.1,0.1-4.7,0.1-8.6,0.3c-2.4,0.1-7.2,0.7-10.6,0.3s-3-3.6-1.5-3.8c3.4-0.4,8-2.9,10.1-4.8C280.6,407,281.1,406.8,281.5,406.8z"
		/>
	<path class="st11" d="M338.2,207.8c-4.8,2.4-8.7,6.2-11.3,10.8c-4.6,8.1-12.5,25.2-15.9,26.1s-43.2-0.9-43.2-0.9l-1.6,10.3
		c0,0,44.6,7.5,52.7,3.3S353,213.1,338.2,207.8z"/>
	<path class="st2" d="M305.7,206.9c-5.7,3.9-7.7,19.7-7.7,19.7c-1,6.6-0.8,8.6,3.4,9.4c10.5,2.4,15.2-2.8,16.1-8.1
		c0,0,3.2-17.4,8.3-21.5l-14.3,6.4L305.7,206.9z"/>
	<path class="st1" d="M305.7,206.9c-5.7,3.9-7.7,19.7-7.7,19.7c-1,6.6-0.8,8.6,3.4,9.4c10.5,2.4,15.2-2.8,16.1-8.1
		c0,0,3.2-17.4,8.3-21.5l-14.3,6.4L305.7,206.9z"/>
	<path class="st8" d="M305.7,206.9c-5.7,3.9-7.7,19.7-7.7,19.7c-1,6.6-0.8,8.6,3.4,9.4c10.5,2.4,15.2-2.8,16.1-8.1
		c0,0,3.2-17.4,8.3-21.5l-14.3,6.4L305.7,206.9z"/>
	<polygon class="st1" points="311.5,212.9 314.1,205.8 325,202 325.8,206.5 	"/>
	<polygon class="st14" points="311.5,212.9 314.1,205.8 325,202 325.8,206.5 	"/>
	<polygon class="st1" points="314.1,205.8 317.1,212.9 325.8,206.5 325,202 	"/>
	<polygon class="st4" points="314.1,205.8 317.1,212.9 325.8,206.5 325,202 	"/>
	<polygon class="st1" points="311.5,212.9 308.6,205.8 309.3,202.8 305.7,206.9 	"/>
	<polygon class="st14" points="311.5,212.9 308.6,205.8 309.3,202.8 305.7,206.9 	"/>
	<polygon class="st1" points="308.6,205.8 305.5,213.6 305.7,206.9 309.3,202.8 	"/>
	<polygon class="st4" points="308.6,205.8 305.5,213.6 305.7,206.9 309.3,202.8 	"/>
</g>
<g id="freepik--Desk--inject-12">
	
		<rect x="129.2" y="215" transform="matrix(0.9779 -0.2093 0.2093 0.9779 -44.0571 32.2317)" class="st1" width="2.3" height="18.6"/>
	
		<rect x="129.2" y="215" transform="matrix(0.9779 -0.2093 0.2093 0.9779 -44.0571 32.2317)" class="st2" width="2.3" height="18.6"/>
	<rect x="134.7" y="213.2" class="st1" width="2.3" height="18.6"/>
	<rect x="134.7" y="213.2" class="st2" width="2.3" height="18.6"/>
	
		<rect x="133.9" y="224.9" transform="matrix(0.307 -0.9517 0.9517 0.307 -115.8168 292.9197)" class="st1" width="18.6" height="2.3"/>
	
		<rect x="133.9" y="224.9" transform="matrix(0.307 -0.9517 0.9517 0.307 -115.8168 292.9197)" class="st2" width="18.6" height="2.3"/>
	<path class="st1" d="M129,231.8h15.8l0,0v21.1c0,1.8-1.4,3.2-3.2,3.2h-9.4c-1.8,0-3.2-1.4-3.2-3.2L129,231.8L129,231.8z"/>
	<path class="st3" d="M129,231.8h15.8l0,0v21.1c0,1.8-1.4,3.2-3.2,3.2h-9.4c-1.8,0-3.2-1.4-3.2-3.2L129,231.8L129,231.8z"/>
	<polygon class="st1" points="350.9,362.6 349.3,365.6 349.3,368.4 352.7,369.6 357.2,369.2 356.2,365.7 	"/>
	<polygon class="st2" points="350.9,362.6 349.3,365.6 349.3,368.4 352.7,369.6 357.2,369.2 356.2,365.7 	"/>
	<polygon class="st15" points="350.1,365.3 352.4,366.1 352.4,368.7 351.8,367 350.7,367.4 351.2,366.5 	"/>
	<polygon class="st15" points="354,366.1 355.6,366.1 356.7,368.7 355.4,367 	"/>
	<polygon class="st1" points="345.3,371.8 341.9,369.2 344,365.5 348.5,364.5 351,366.5 350.6,371.8 	"/>
	<polygon class="st4" points="345.3,371.8 341.9,369.2 344,365.5 348.5,364.5 351,366.5 350.6,371.8 	"/>
	<polygon class="st15" points="342.6,369.1 345.5,368.1 348.4,369.1 350.1,371.4 347.4,369.6 345.4,370.2 345.4,368.8 	"/>
	<polygon class="st15" points="344.9,366.1 346.5,367.3 348.1,367.3 349.7,366.7 347.3,366.7 	"/>
	<polygon class="st1" points="358.8,363.8 356.3,367.3 358.8,371.1 360.9,370.6 363.9,370.6 365.1,367.4 360.7,363.8 	"/>
	<polygon class="st4" points="358.8,363.8 356.3,367.3 358.8,371.1 360.9,370.6 363.9,370.6 365.1,367.4 360.7,363.8 	"/>
	<polygon class="st15" points="357.1,367 359.7,367 359.1,370.3 358.9,367.8 	"/>
	<polygon class="st15" points="360.4,369.9 360.7,367 364.2,367.8 362.3,368.3 363.2,369.9 361.4,367.8 	"/>
	<polygon class="st15" points="358.4,365.7 359.7,364.9 361.4,365.7 363.1,367 359.7,365.7 	"/>
	<polygon class="st1" points="360.8,365.1 362.7,371 366.2,371.8 371,370.8 373.4,367.6 371.1,362.7 364.1,362.1 	"/>
	<polygon class="st3" points="360.8,365.1 362.7,371 366.2,371.8 371,370.8 373.4,367.6 371.1,362.7 364.1,362.1 	"/>
	<polygon class="st15" points="363.3,369.8 365.4,367.4 368.3,367.5 368.7,369.9 367.8,368.4 365.7,368.1 	"/>
	<polygon class="st15" points="369.1,367.3 371.7,366.8 372.9,367.4 371,370.3 372.2,367.7 371.5,367.4 	"/>
	<polygon class="st15" points="363.2,368.4 361.4,365.3 363.9,363.7 368.7,364.9 364.4,364.5 362.4,365.6 	"/>
	<polygon class="st15" points="366,362.8 370.4,363.2 372.2,366 370.1,363.7 	"/>
	<path class="st1" d="M340.4,370.8h34.5l0,0v40.6c0,2.6-2.1,4.7-4.7,4.7h0H345c-2.6,0-4.7-2.1-4.7-4.7v0L340.4,370.8L340.4,370.8z"
		/>
	<path class="st2" d="M340.4,370.8h34.5l0,0v40.6c0,2.6-2.1,4.7-4.7,4.7h0H345c-2.6,0-4.7-2.1-4.7-4.7v0L340.4,370.8L340.4,370.8z"
		/>
	<path class="st1" d="M341.1,368.6h33c0.7,0,1.3,0.6,1.3,1.3v1.4l0,0h-35.5l0,0v-1.4C339.9,369.2,340.4,368.6,341.1,368.6
		L341.1,368.6z"/>
	<path class="st6" d="M341.1,368.6h33c0.7,0,1.3,0.6,1.3,1.3v1.4l0,0h-35.5l0,0v-1.4C339.9,369.2,340.4,368.6,341.1,368.6
		L341.1,368.6z"/>
	<rect x="165.3" y="281.3" class="st1" width="12.4" height="134.9"/>
	<rect x="171.3" y="281.2" class="st16" width="6.5" height="134.9"/>
	<rect x="379.8" y="281.2" class="st1" width="6.5" height="134.9"/>
	<rect x="98" y="281.2" class="st1" width="6.5" height="134.9"/>
	<polygon class="st1" points="392.9,416.1 386.5,416.1 386.5,281.3 283.5,281.3 283.5,416.1 271.7,416.1 271.7,281.3 98.4,281.3 
		98.4,416.1 92.5,416.1 92.5,256.1 392.9,256.1 	"/>
	<polygon class="st3" points="392.9,416.1 386.5,416.1 386.5,281.3 283.5,281.3 283.5,416.1 277.2,416.1 277.2,264 392.9,264 	"/>
	<rect x="277.2" y="256.1" class="st15" width="115.8" height="7.9"/>
	<rect x="92.5" y="256.1" class="st5" width="184.7" height="7.9"/>
	<polygon class="st6" points="277.2,416.1 271.6,416 271.7,281.3 98.4,281.3 98.4,416.1 92.5,416.1 92.5,264 277.2,264 	"/>
	<rect x="98" y="281.2" class="st16" width="6.5" height="134.9"/>
	<rect x="379.8" y="281.2" class="st16" width="6.5" height="134.9"/>
</g>
<g id="freepik--Device--inject-12">
	<path class="st11" d="M192.5,252.1v2.6c0,0.8,1.4,1.4,2.1,1.4h61.8c0.8,0,2-0.6,2-1.4v-2.6H192.5z"/>
	<path class="st9" d="M192.5,252.1v2.6c0,0.8,1.4,1.4,2.1,1.4h61.8c0.8,0,2-0.6,2-1.4v-2.6H192.5z"/>
	<path class="st7" d="M192.5,252.1v2.6c0,0.8,1.4,1.4,2.1,1.4h40.8c0.8,0,2.1-0.6,2.1-1.4v-2.6H192.5z"/>
	<path class="st11" d="M182.6,219.6l7.4,33.5c0.3,1.1,1.2,1.9,2.4,2h40.2c1-0.1,1.7-0.9,1.6-1.9c0-0.1,0-0.2-0.1-0.4l-7.3-33.1
		c-0.3-1-1.3-1.7-2.4-1.6h-40.2C183,218.1,182.3,218.5,182.6,219.6z"/>
	<path class="st9" d="M182.6,219.6l7.4,33.5c0.3,1.1,1.2,1.9,2.4,2h40.2c1-0.1,1.7-0.9,1.6-1.9c0-0.1,0-0.2-0.1-0.4l-7.3-33.1
		c-0.3-1-1.3-1.7-2.4-1.6h-40.2C183,218.1,182.3,218.5,182.6,219.6z"/>
	<path class="st6" d="M182.6,219.6l7.4,33.5c0.3,1.1,1.2,1.9,2.4,2h38.8c1-0.1,1.7-0.9,1.6-1.9c0-0.1,0-0.2-0.1-0.3l-7.4-33.1
		c-0.3-1-1.3-1.7-2.4-1.6h-38.8C183,218.1,182.3,218.5,182.6,219.6z"/>
	<path class="st7" d="M206.2,241.1c-1.9,0-3.8-2-4.3-4.5s0.6-4.5,2.5-4.5c0.3,0,0.7,0.1,1,0.2c0.4,1.8,1.5,3.3,3.2,4.1
		c0,0.1,0,0.1,0,0.2C209.2,239.1,208.1,241.1,206.2,241.1z"/>
</g>
<g id="freepik--Speech-bubble-4--inject-12">
	<path class="st1" d="M359.5,194.8l22.3,5.1c0.7,17.9,15.7,31.8,33.6,31.1c17.9-0.7,31.8-15.7,31.1-33.6s-15.7-31.8-33.6-31.1
		c-14.9,0.6-27.4,11.2-30.5,25.8L359.5,194.8z"/>
	<path class="st17" d="M359.5,194.8l22.3,5.1c0.7,17.9,15.7,31.8,33.6,31.1c17.9-0.7,31.8-15.7,31.1-33.6s-15.7-31.8-33.6-31.1
		c-14.9,0.6-27.4,11.2-30.5,25.8L359.5,194.8z"/>
	<path class="st1" d="M434.4,177c-2.5,0-4.9,0.5-7.1,1.4c-2.4-8.9-11.5-14.1-20.4-11.7c-7.2,2-12.3,8.5-12.3,16.1c0,0.3,0,0.7,0,1h0
		c-8.6,0.1-15.5,7.2-15.4,15.8c0.1,7.6,5.6,14,13.1,15.2v0.2h42.1c10.5,0,19-8.5,19-19S444.9,177,434.4,177z"/>
	<path class="st18" d="M434.4,177c-2.5,0-4.9,0.5-7.1,1.4c-2.4-8.9-11.5-14.1-20.4-11.7c-7.2,2-12.3,8.5-12.3,16.1c0,0.3,0,0.7,0,1
		h0c-8.6,0.1-15.5,7.2-15.4,15.8c0.1,7.6,5.6,14,13.1,15.2v0.2h42.1c10.5,0,19-8.5,19-19S444.9,177,434.4,177z"/>
	<polygon class="st1" points="424.2,221.9 424.2,205.8 406.8,205.8 406.8,221.9 401.2,221.9 415,234.1 428.8,221.9 	"/>
</g>
<g id="freepik--Speech-bubble-3--inject-12">
	<path class="st1" d="M330.7,150.8l16.2-17.1c16.2,8.7,36.5,2.7,45.3-13.6c8.7-16.2,2.7-36.5-13.6-45.3
		c-16.2-8.7-36.5-2.7-45.3,13.6c-7.3,13.5-4.4,30.2,6.9,40.6L330.7,150.8z"/>
	<path class="st17" d="M330.7,150.8l16.2-17.1c16.2,8.7,36.5,2.7,45.3-13.6c8.7-16.2,2.7-36.5-13.6-45.3
		c-16.2-8.7-36.5-2.7-45.3,13.6c-7.3,13.5-4.4,30.2,6.9,40.6L330.7,150.8z"/>
	<polygon class="st1" points="334.8,82 365.4,57.4 396.9,82 368.8,109.8 	"/>
	<rect x="337" y="68.7" class="st1" width="57.1" height="33.7"/>
	<rect x="337" y="68.7" class="st8" width="57.1" height="33.7"/>
	<rect x="346.3" y="76.4" class="st19" width="44.9" height="1.1"/>
	<rect x="339.7" y="79.7" class="st19" width="51.5" height="1.3"/>
	<rect x="339.7" y="83.1" class="st19" width="51.5" height="1.3"/>
	<rect x="339.7" y="86.3" class="st19" width="51.5" height="1.3"/>
	<rect x="339.7" y="89.7" class="st19" width="51.5" height="1.3"/>
	<rect x="339.8" y="92.7" class="st19" width="51.5" height="1.3"/>
	<rect x="339.8" y="95.9" class="st19" width="51.5" height="1.3"/>
	<rect x="339.7" y="98.4" class="st19" width="51.5" height="1.3"/>
	<polygon class="st1" points="396.9,118.3 334.8,118.3 334.8,82 365.9,102.5 396.9,82 	"/>
	<polygon class="st4" points="396.9,118.3 334.8,118.3 334.8,82 365.9,102.5 396.9,82 	"/>
</g>
<g id="freepik--Speech-bubble-2--inject-12">
	<path class="st1" d="M274.6,156.1l-9-24.4c16.6-11.8,20.5-34.7,8.7-51.3c-11.8-16.6-34.7-20.5-51.3-8.7s-20.5,34.7-8.7,51.3
		c9.8,13.8,27.7,19.1,43.4,13L274.6,156.1z"/>
	<path class="st17" d="M274.6,156.1l-9-24.4c16.6-11.8,20.5-34.7,8.7-51.3c-11.8-16.6-34.7-20.5-51.3-8.7s-20.5,34.7-8.7,51.3
		c9.8,13.8,27.7,19.1,43.4,13L274.6,156.1z"/>
	<rect x="220.8" y="65.1" class="st1" width="50" height="64.6"/>
	<rect x="220.8" y="68.5" class="st6" width="50" height="61.1"/>
	<path class="st17" d="M246.6,72.6h-18c-1.3,0-2.4,1.1-2.4,2.4c0,0,0,0,0,0v3.6c0,1.3,1.1,2.4,2.4,2.4h0.6c-0.5,1.4-1.6,2.4-3.1,2.7
		c2.3-0.1,3.8-1,4.6-2.7h15.9c1.3,0,2.4-1.1,2.4-2.4c0,0,0,0,0,0v-3.6C249,73.7,247.9,72.6,246.6,72.6
		C246.6,72.6,246.6,72.6,246.6,72.6z"/>
	<path class="st17" d="M247,95.3h-18.8c-1.1,0-2,0.9-2,2v1.8c0,1.1,0.9,2,2,2h1.1c-0.4,1.5-1.6,2.6-3.1,2.9c2.4-0.1,3.9-1.1,4.6-2.9
		H247c1.1,0,2-0.9,2.1-2v-1.7C249.1,96.3,248.1,95.3,247,95.3L247,95.3z"/>
	<path class="st17" d="M263.4,105.9h-10.7c-1.1,0-2.1,0.9-2.1,2.1v1c0,1.1,0.9,2.1,2.1,2.1h7.5c0.7,1.8,2.2,2.8,4.6,2.9
		c-1.5-0.3-2.7-1.4-3.1-2.9h1.7c1.1,0,2.1-0.9,2.1-2.1v0v-1C265.5,106.9,264.5,105.9,263.4,105.9L263.4,105.9z"/>
	<path class="st17" d="M263.4,82.6h-25.7c-1.1,0-2,0.9-2.1,2v4.7c0,1.1,0.9,2,2.1,2h22.4c0.7,1.9,2.2,3,4.7,3.1
		c-1.6-0.3-2.8-1.5-3.1-3.1h1.8c1.1,0,2-0.9,2-2v-4.7C265.4,83.5,264.6,82.6,263.4,82.6C263.4,82.6,263.4,82.6,263.4,82.6z"/>
	<path class="st20" d="M226.1,121.7h39.4c1,0,1.8,0.8,1.8,1.8v0.8c0,1-0.8,1.8-1.8,1.8h-39.4c-1,0-1.8-0.8-1.8-1.8v-0.8
		C224.3,122.5,225.1,121.7,226.1,121.7z"/>
</g>
<g id="freepik--Speech-bubble-1--inject-12">
	<path class="st1" d="M228.1,186.8l-23.4-9.1c2-19.5-12.1-36.9-31.6-38.9s-36.9,12.1-38.9,31.6c-2,19.5,12.1,36.9,31.6,38.9
		c16.2,1.7,31.4-7.8,37-23.1L228.1,186.8z"/>
	<path class="st17" d="M228.1,186.8l-23.4-9.1c2-19.5-12.1-36.9-31.6-38.9s-36.9,12.1-38.9,31.6c-2,19.5,12.1,36.9,31.6,38.9
		c16.2,1.7,31.4-7.8,37-23.1L228.1,186.8z"/>
	<rect x="133.8" y="183.6" class="st1" width="70.7" height="1.5"/>
	<rect x="133.8" y="183.6" class="st15" width="70.7" height="1.5"/>
	<rect x="143.3" y="170.4" class="st1" width="8" height="13.2"/>
	<rect x="143.3" y="170.4" class="st6" width="8" height="13.2"/>
	<rect x="157.5" y="163" class="st1" width="8" height="20.6"/>
	<rect x="157.5" y="163" class="st6" width="8" height="20.6"/>
	<rect x="172.2" y="155.6" class="st1" width="8" height="28"/>
	<rect x="172.2" y="155.6" class="st6" width="8" height="28"/>
	<rect x="187" y="148.5" class="st1" width="8" height="35"/>
	<rect x="187" y="148.5" class="st7" width="8" height="35"/>
</g>
</svg>
