<?xml version="1.0" encoding="utf-8"?>
<!-- Generator: Adobe Illustrator 22.1.0, SVG Export Plug-In . SVG Version: 6.00 Build 0)  -->
<svg version="1.1" id="Layer_1" xmlns="http://www.w3.org/2000/svg" xmlns:xlink="http://www.w3.org/1999/xlink" x="0px" y="0px"
	 viewBox="0 0 500 500" style="enable-background:new 0 0 500 500;" xml:space="preserve">
<style type="text/css">
	.st0{opacity:0.1;fill:#F89E23;enable-background:new    ;}
	.st1{fill:#F89E23;}
	.st2{opacity:0.7;fill:#FFFFFF;enable-background:new    ;}
	.st3{opacity:0.9;fill:#FFFFFF;enable-background:new    ;}
	.st4{opacity:0.7;fill:#F89E23;enable-background:new    ;}
	.st5{opacity:0.3;fill:#F89E23;enable-background:new    ;}
	.st6{fill:#FFFFFF;}
	.st7{opacity:0.8;fill:#FFFFFF;enable-background:new    ;}
</style>
<g id="freepik--Responsive--inject-2">
	<polygon class="st0" points="396.5,76.4 393,183.4 477,177.6 	"/>
	<polygon class="st0" points="337,405.8 339.2,326.6 24.7,330.8 	"/>
	<path class="st1" d="M19.5,85.9h380.2l0,0v239.2c0,3.2-2.6,5.8-5.8,5.8l0,0H25.3c-3.2,0-5.8-2.6-5.8-5.8V85.9L19.5,85.9z"/>
	<path class="st2" d="M19.5,85.9h380.2l0,0v239.2c0,3.2-2.6,5.8-5.8,5.8l0,0H25.3c-3.2,0-5.8-2.6-5.8-5.8V85.9L19.5,85.9z"/>
	<path class="st3" d="M57.7,101.9h303.7c2.9,0,5.2,2.3,5.2,5.2v85.4c0,2.9-2.3,5.2-5.2,5.2H57.7c-2.9,0-5.2-2.3-5.2-5.2v-85.4
		C52.5,104.2,54.8,101.9,57.7,101.9z"/>
	<path class="st4" d="M57.7,212.4h84.7c2.9,0,5.2,2.3,5.2,5.2v17.5c0,2.9-2.3,5.2-5.2,5.2H57.7c-2.9,0-5.2-2.3-5.2-5.2v-17.5
		C52.5,214.8,54.8,212.4,57.7,212.4z"/>
	<path class="st4" d="M167.2,212.4h84.7c2.9,0,5.2,2.3,5.2,5.2v17.5c0,2.9-2.3,5.2-5.2,5.2h-84.7c-2.9,0-5.2-2.3-5.2-5.2v-17.5
		C162,214.8,164.3,212.4,167.2,212.4z"/>
	<path class="st4" d="M276.7,212.4h84.7c2.9,0,5.2,2.3,5.2,5.2v17.5c0,2.9-2.3,5.2-5.2,5.2h-84.7c-2.9,0-5.2-2.3-5.2-5.2v-17.5
		C271.5,214.8,273.8,212.4,276.7,212.4z"/>
	<path class="st5" d="M57.7,251.7h84.7c2.9,0,5.2,2.3,5.2,5.2l0,0v73.8l0,0H52.5l0,0V257C52.5,254.1,54.8,251.7,57.7,251.7
		L57.7,251.7z"/>
	<path class="st5" d="M167.3,251.7H252c2.9,0,5.2,2.3,5.2,5.2l0,0v73.8l0,0H162l0,0V257C162,254.1,164.3,251.7,167.3,251.7
		C167.3,251.7,167.3,251.7,167.3,251.7z"/>
	<path class="st5" d="M276.7,251.7h84.7c2.9,0,5.2,2.3,5.2,5.2v73.8l0,0h-95.1l0,0V257C271.5,254.1,273.8,251.7,276.7,251.7z"/>
	<rect x="126.1" y="62.9" class="st1" width="9.3" height="1.9"/>
	<rect x="95.2" y="62.9" class="st1" width="22.7" height="1.9"/>
	<path class="st1" d="M383.1,69.4H36c-9.1,0-16.5,7.4-16.5,16.5c0,0,0,0.1,0,0.1h380.2c0.1-9.1-7.3-16.5-16.4-16.6
		C383.2,69.4,383.2,69.4,383.1,69.4z"/>
	<path class="st6" d="M42.8,77.7c0,1.8-1.5,3.3-3.3,3.3c-1.8,0-3.3-1.5-3.3-3.3c0-1.8,1.5-3.3,3.3-3.3c0,0,0,0,0,0
		C41.4,74.4,42.8,75.9,42.8,77.7z"/>
	<path class="st6" d="M53.5,77.5c0,1.8-1.5,3.3-3.3,3.3s-3.3-1.5-3.3-3.3c0-1.8,1.5-3.3,3.3-3.3h0C52,74.2,53.4,75.7,53.5,77.5z"/>
	<path class="st6" d="M64.1,77.5c0,1.8-1.5,3.3-3.3,3.3s-3.3-1.5-3.3-3.3c0-1.8,1.5-3.3,3.3-3.3h0C62.6,74.2,64.1,75.7,64.1,77.5z"
		/>
	<path class="st1" d="M334,196.1h146.5l0,0v203.7c0,4.1-3.3,7.4-7.4,7.4H341.3c-4.1,0-7.4-3.3-7.4-7.4L334,196.1L334,196.1z"/>
	<path class="st7" d="M334,196.1h146.5l0,0v203.7c0,4.1-3.3,7.4-7.4,7.4H341.3c-4.1,0-7.4-3.3-7.4-7.4L334,196.1L334,196.1z"/>
	<path class="st3" d="M351,207.1h112.5c2,0,3.6,1.6,3.6,3.6v38.6c0,2-1.6,3.6-3.6,3.6H351c-2,0-3.6-1.6-3.6-3.6v-38.6
		C347.3,208.8,349,207.1,351,207.1z"/>
	<path class="st4" d="M354,262.1h106.5c3.6,0,6.6,3,6.6,6.6v22c0,3.6-3,6.6-6.6,6.6H354c-3.6,0-6.6-3-6.6-6.6v-22
		C347.3,265.1,350.3,262.1,354,262.1z"/>
	<path class="st4" d="M354,309h106.5c3.6,0,6.6,3,6.6,6.6v22c0,3.6-3,6.6-6.6,6.6H354c-3.6,0-6.6-3-6.6-6.6v-22
		C347.3,311.9,350.3,309,354,309z"/>
	<path class="st4" d="M354,355.8h106.5c3.6,0,6.6,3,6.6,6.6v22c0,3.6-3,6.6-6.6,6.6H354c-3.6,0-6.6-3-6.6-6.6v-22
		C347.3,358.7,350.3,355.8,354,355.8z"/>
	<path class="st1" d="M343.6,175.4h127.2c5.3,0,9.6,4.3,9.6,9.6c0,0,0,0,0,0v11.1l0,0H333.9l0,0V185
		C333.9,179.7,338.3,175.4,343.6,175.4C343.6,175.4,343.6,175.4,343.6,175.4z"/>
</g>
</svg>
