<?xml version="1.0" encoding="utf-8"?>
<!-- Generator: Adobe Illustrator 22.1.0, SVG Export Plug-In . SVG Version: 6.00 Build 0)  -->
<svg version="1.1" id="Layer_1" xmlns="http://www.w3.org/2000/svg" xmlns:xlink="http://www.w3.org/1999/xlink" x="0px" y="0px"
	 viewBox="0 0 726 500" style="enable-background:new 0 0 726 500;" xml:space="preserve">
<style type="text/css">
	.st0{fill:#F5F5F5;}
	.st1{fill:#091828;}
	.st2{opacity:0.5;}
	.st3{fill:#FFFFFF;}
	.st4{opacity:0.6;}
	.st5{opacity:0.6;fill:#FFFFFF;enable-background:new    ;}
	.st6{opacity:0.2;fill:#091828;enable-background:new    ;}
	.st7{opacity:0.7;fill:#FFFFFF;enable-background:new    ;}
	.st8{opacity:0.8;fill:#FFFFFF;enable-background:new    ;}
	.st9{opacity:0.2;fill:#FFFFFF;enable-background:new    ;}
	.st10{opacity:0.5;fill:#FFFFFF;enable-background:new    ;}
	.st11{opacity:0.3;fill:#091828;enable-background:new    ;}
	.st12{opacity:0.3;}
	.st13{opacity:0.4;}
	.st14{opacity:0.4;fill:#FFFFFF;enable-background:new    ;}
	.st15{opacity:0.3;fill:#FFFFFF;enable-background:new    ;}
	.st16{fill:#E71D36;}
	.st17{fill:#EBB376;}
	.st18{opacity:0.1;fill:#091828;enable-background:new    ;}
	.st19{fill:#D58745;}
	.st20{fill:#DE5753;}
	.st21{fill:none;stroke:#091828;stroke-width:2;stroke-miterlimit:10;}
	.st22{fill:#263238;}
	.st23{opacity:0.2;enable-background:new    ;}
	.st24{fill:#B97964;}
	.st25{fill:none;stroke:#E71D36;stroke-width:0.5;stroke-linecap:round;stroke-linejoin:round;}
	.st26{opacity:0.2;}
	.st27{fill:none;stroke:#091828;stroke-miterlimit:10;}
	.st28{fill:none;stroke:#091828;stroke-width:0.7933;stroke-miterlimit:10;}
	.st29{enable-background:new    ;}
	.st30{fill:#A24E3F;}
	.st31{fill:none;stroke:#091828;stroke-width:0.7247;stroke-linecap:round;stroke-linejoin:round;}
	.st32{fill:none;stroke:#091828;stroke-width:0.5;stroke-linecap:round;stroke-linejoin:round;}
	.st33{fill:#E0E0E0;}
</style>
<g id="freepik--Shadow--inject-22">
	<ellipse id="freepik--path--inject-22" class="st0" cx="355.6" cy="416.2" rx="299.5" ry="11.3"/>
</g>
<g id="freepik--Chairs--inject-22">
	
		<rect x="196.1" y="286.7" transform="matrix(0.9907 -0.1357 0.1357 0.9907 -41.428 29.8589)" class="st1" width="4.4" height="64.2"/>
	<g class="st2">
		
			<rect x="196.1" y="286.7" transform="matrix(0.9907 -0.1357 0.1357 0.9907 -41.428 29.8589)" class="st3" width="4.4" height="64.2"/>
	</g>
	
		<rect x="168.6" y="286.7" transform="matrix(0.9907 -0.1357 0.1357 0.9907 -41.6821 26.127)" class="st1" width="4.4" height="64.2"/>
	<g class="st4">
		
			<rect x="168.6" y="286.7" transform="matrix(0.9907 -0.1357 0.1357 0.9907 -41.6821 26.127)" class="st3" width="4.4" height="64.2"/>
	</g>
	<polygon class="st1" points="199.5,397.1 205.7,397.1 206.4,364.4 206.8,350.5 198.4,350.5 198.7,364.4 	"/>
	<polygon class="st5" points="199.5,397.1 205.7,397.1 206.4,364.4 206.8,350.5 198.4,350.5 198.7,364.4 	"/>
	<polygon class="st6" points="206.8,350.5 206.4,364.7 198.7,364.7 198.4,350.5 	"/>
	<polygon class="st1" points="231.1,397.1 228.4,351.5 221.1,351.5 224.9,397.1 	"/>
	<polygon class="st7" points="224.9,397.1 231.1,397.1 228.8,358.3 228.4,351.4 221.1,351.4 221.7,358.3 	"/>
	<polygon class="st6" points="221.1,351.4 221.7,358.5 228.8,358.5 228.4,351.4 	"/>
	<polygon class="st1" points="180.3,397.1 184,351.5 176.8,351.5 174.1,397.1 	"/>
	<polygon class="st7" points="180.3,397.1 183.5,358.3 184,351.4 176.8,351.4 176.4,358.3 174.1,397.1 	"/>
	<polygon class="st6" points="184,351.4 183.5,358.5 176.4,358.5 176.8,351.4 	"/>
	<path class="st1" d="M177.9,343.7h49.4c2.8,0,5,2.2,5,5v5.4l0,0h-59.4l0,0v-5.4C172.9,346,175.1,343.7,177.9,343.7z"/>
	<path class="st1" d="M200.1,308.2h-34.6c-1.5,0-2.8-1.1-3-2.7l-2.5-19.7c-0.1-1.1,0.7-2.1,1.8-2.2c0.1,0,0.2,0,0.2,0h34.6
		c1.5,0,2.8,1.2,3,2.7L202,306C202.1,307.1,201.3,308.1,200.1,308.2L200.1,308.2z"/>
	<path class="st8" d="M200.1,308.2h-34.6c-1.5,0-2.8-1.1-3-2.7l-2.5-19.7c-0.1-1.1,0.7-2.1,1.8-2.2c0.1,0,0.2,0,0.2,0h34.6
		c1.5,0,2.8,1.2,3,2.7L202,306C202.1,307.1,201.3,308.1,200.1,308.2L200.1,308.2z"/>
	<path class="st9" d="M177.9,343.7h49.4c2.8,0,5,2.2,5,5v5.4l0,0h-59.4l0,0v-5.4C172.9,346,175.1,343.7,177.9,343.7z"/>
	<path class="st1" d="M172,348.9h61.1c1.1,0,2,0.9,2,2v1.2c0,1.1-0.9,2-2,2H172c-1.1,0-2-0.9-2-2v-1.2
		C170,349.8,170.9,348.9,172,348.9z"/>
	<path class="st8" d="M172,348.9h61.1c1.1,0,2,0.9,2,2v1.2c0,1.1-0.9,2-2,2H172c-1.1,0-2-0.9-2-2v-1.2
		C170,349.8,170.9,348.9,172,348.9z"/>
	<g id="freepik--group--inject-22">
		<path class="st1" d="M225.2,309.8l-3,11.8c-0.5,1.8-2.1,3.1-3.9,3.1h-47.5l-0.8-4.4h44.4c0.5,0,0.9-0.3,1-0.8l2.4-9.7H225.2z"/>
		<path class="st5" d="M225.2,309.8l-3,11.8c-0.5,1.8-2.1,3.1-3.9,3.1h-47.5l-0.8-4.4h44.4c0.5,0,0.9-0.3,1-0.8l2.4-9.7H225.2z"/>
		<path class="st1" d="M204.2,307.9h61.4c0.8,0,1.4,0.6,1.4,1.4v0.9c0,0.8-0.6,1.4-1.4,1.4h-61.4c-0.8,0-1.4-0.6-1.4-1.4v-0.9
			C202.7,308.5,203.4,307.9,204.2,307.9z"/>
		<path class="st7" d="M267,309.1v1.3c0,0.7-0.6,1.3-1.3,1.3l0,0H204c-0.7,0-1.3-0.6-1.3-1.3v-1.3c0-0.7,0.6-1.3,1.3-1.3h61.8
			C266.5,307.8,267,308.4,267,309.1L267,309.1z"/>
		<path class="st10" d="M267,309.1v1.3c0,0.7-0.6,1.3-1.3,1.3l0,0H236c-0.7,0-1.3-0.6-1.3-1.3v-1.3c0-0.7,0.6-1.3,1.2-1.3l0,0h29.8
			C266.5,307.9,267.1,308.4,267,309.1z"/>
	</g>
	<path class="st11" d="M191.8,300.7l-8-5.7l5.9-5.6c0,0-0.8,0.2-0.7-0.2s-1-0.5-1-0.5l-0.1-0.6l-6,5.5l-7.8-5.6
		c-2.1,0.3,0,1.6,0,1.6l-1.2,0.7l6.9,5.1l-5.9,5.5c0,0,0.8,0.1,0.8,0.4s0.9,0.6,0.9,0.6l-0.4,1l6.4-6.1l8.3,6.2c0,0,1.2-0.7,0.9-1.4
		S191.8,300.7,191.8,300.7z"/>
	<g id="freepik--group--inject-22_2_">
		
			<rect x="297.2" y="294.5" transform="matrix(0.9907 -0.1357 0.1357 0.9907 -41.9625 43.7107)" class="st1" width="4.9" height="70.3"/>
		<g class="st12">
			
				<rect x="297.2" y="294.5" transform="matrix(0.9907 -0.1357 0.1357 0.9907 -41.9625 43.7107)" class="st3" width="4.9" height="70.3"/>
		</g>
		
			<rect x="267.1" y="294.5" transform="matrix(0.9907 -0.1357 0.1357 0.9907 -42.2401 39.626)" class="st1" width="4.9" height="70.3"/>
		<g class="st13">
			
				<rect x="267.1" y="294.5" transform="matrix(0.9907 -0.1357 0.1357 0.9907 -42.2401 39.626)" class="st3" width="4.9" height="70.3"/>
		</g>
		<polygon class="st1" points="300.9,415.5 307.7,415.5 308.5,379.7 308.9,364.5 299.7,364.5 300.1,379.7 		"/>
		<polygon class="st14" points="300.9,415.5 307.7,415.5 308.5,379.7 308.9,364.5 299.7,364.5 300.1,379.7 		"/>
		<polygon class="st6" points="308.9,364.5 308.5,380.1 300.1,380.1 299.7,364.5 		"/>
		<polygon class="st1" points="335.5,415.5 332.6,365.6 324.6,365.6 328.8,415.5 		"/>
		<polygon class="st10" points="328.7,415.5 335.5,415.5 333,373 332.6,365.5 324.6,365.5 325.2,373 		"/>
		<polygon class="st6" points="324.6,365.5 325.2,373.3 333,373.3 332.6,365.5 		"/>
		<polygon class="st1" points="279.8,415.5 284,365.6 276,365.6 273.1,415.5 		"/>
		<polygon class="st10" points="279.9,415.5 283.4,373 284,365.5 276,365.5 275.6,373 273.1,415.5 		"/>
		<polygon class="st6" points="284,365.5 283.4,373.3 275.6,373.3 276,365.5 		"/>
		<path class="st1" d="M276.8,357.1h55.1c2.8,0,5,2.2,5,5v6.4l0,0h-65.1l0,0v-6.4C271.8,359.3,274,357.1,276.8,357.1z"/>
		<path class="st1" d="M270.7,362.8H338c1.1,0,2,0.9,2,2v1.7c0,1.1-0.9,2-2,2h-67.3c-1.1,0-2-0.9-2-2v-1.7
			C268.6,363.7,269.5,362.8,270.7,362.8z"/>
		<path class="st5" d="M270.7,362.8H338c1.1,0,2,0.9,2,2v1.7c0,1.1-0.9,2-2,2h-67.3c-1.1,0-2-0.9-2-2v-1.7
			C268.6,363.7,269.5,362.8,270.7,362.8z"/>
		<path class="st1" d="M301.5,318.2h-37.8c-1.7,0-3.1-1.3-3.3-2.9l-2.8-21.6c-0.2-1.2,0.7-2.3,1.9-2.4c0.1,0,0.2,0,0.3,0h37.9
			c1.7,0,3.1,1.3,3.3,2.9l2.8,21.6c0.2,1.2-0.7,2.3-1.9,2.4C301.7,318.2,301.6,318.2,301.5,318.2z"/>
		<path class="st5" d="M301.5,318.2h-37.8c-1.7,0-3.1-1.3-3.3-2.9l-2.8-21.6c-0.2-1.2,0.7-2.3,1.9-2.4c0.1,0,0.2,0,0.3,0h37.9
			c1.7,0,3.1,1.3,3.3,2.9l2.8,21.6c0.2,1.2-0.7,2.3-1.9,2.4C301.7,318.2,301.6,318.2,301.5,318.2z"/>
		<g id="freepik--group--inject-22_1_">
			<path class="st1" d="M329.1,319.8l-3.3,13c-0.5,2-2.3,3.4-4.3,3.4h-52l-0.9-4.8h48.7c0.5,0,1-0.4,1.1-0.9l2.6-10.7H329.1z"/>
			<path class="st14" d="M329.1,319.8l-3.3,13c-0.5,2-2.3,3.4-4.3,3.4h-52l-0.9-4.8h48.7c0.5,0,1-0.4,1.1-0.9l2.6-10.7H329.1z"/>
			<path class="st1" d="M305.9,317.8h67.6c0.8,0,1.4,0.6,1.4,1.4v1.3c0,0.8-0.6,1.4-1.4,1.4h-67.6c-0.8,0-1.4-0.6-1.4-1.4v-1.3
				C304.5,318.4,305.1,317.8,305.9,317.8z"/>
			<path class="st5" d="M374.9,319.2v1.4c0,0.8-0.6,1.4-1.4,1.4l0,0h-67.7c-0.8,0-1.4-0.6-1.4-1.4l0,0v-1.4c0-0.8,0.6-1.4,1.4-1.4
				l0,0h67.7C374.3,317.8,374.9,318.4,374.9,319.2L374.9,319.2z"/>
			<path class="st15" d="M374.9,319.2v1.4c0,0.8-0.6,1.4-1.4,1.4l0,0h-32.7c-0.8,0-1.4-0.6-1.4-1.4l0,0v-1.4c0-0.8,0.6-1.4,1.4-1.4
				l0,0h32.7C374.3,317.8,374.9,318.4,374.9,319.2L374.9,319.2z"/>
		</g>
		<path class="st1" d="M273.1,296l19.4,13.9c0,0-1.3,0.2-1,1s-1,1.6-1,1.6l-18.8-13.9l1.3-0.8C273,297.8,270.8,296.4,273.1,296z"/>
		<path class="st1" d="M288.1,296l-15.2,14.1c0,0,0.9,0.1,0.9,0.5s1,0.7,1,0.7l-0.5,1.1l15.7-15c0,0-0.9,0.2-0.8-0.2
			s-1.1-0.6-1.1-0.6V296z"/>
	</g>
</g>
<rect x="373.4" y="289.7" transform="matrix(0.9907 -0.1357 0.1357 0.9907 -40.6064 54.0077)" class="st1" width="4.9" height="70.3"/>
<rect x="343.3" y="289.7" transform="matrix(0.9907 -0.1357 0.1357 0.9907 -40.8842 49.9231)" class="st1" width="4.9" height="70.3"/>
<g class="st12">
	
		<rect x="373.4" y="289.7" transform="matrix(0.9907 -0.1357 0.1357 0.9907 -40.6064 54.0077)" class="st3" width="4.9" height="70.3"/>
</g>
<g class="st13">
	
		<rect x="343.3" y="289.7" transform="matrix(0.9907 -0.1357 0.1357 0.9907 -40.8842 49.9231)" class="st3" width="4.9" height="70.3"/>
</g>
<polygon class="st1" points="377.1,410.6 383.9,410.6 384.7,374.8 385.1,359.7 375.9,359.7 376.3,374.8 "/>
<polygon class="st14" points="377.1,410.6 383.9,410.6 384.7,374.8 385.1,359.7 375.9,359.7 376.3,374.8 "/>
<polygon class="st6" points="385.1,359.7 384.7,375.2 376.3,375.2 375.9,359.7 "/>
<polygon class="st1" points="411.7,410.6 408.8,360.8 400.8,360.8 405,410.6 "/>
<polygon class="st10" points="405,410.6 411.7,410.6 409.2,368.1 408.8,360.6 400.8,360.6 401.5,368.1 "/>
<polygon class="st6" points="400.8,360.6 401.5,368.4 409.2,368.4 408.8,360.6 "/>
<polygon class="st1" points="356.1,410.6 360.2,360.8 352.2,360.8 349.3,410.6 "/>
<polygon class="st10" points="356.1,410.6 359.6,368.1 360.2,360.6 352.2,360.6 351.8,368.1 349.3,410.6 "/>
<polygon class="st6" points="360.2,360.6 359.6,368.4 351.8,368.4 352.2,360.6 "/>
<path class="st1" d="M353,352.2h55c2.8,0,5,2.2,5,5v6.4l0,0h-65l0,0v-6.4C348,354.5,350.2,352.2,353,352.2z"/>
<path class="st1" d="M346.9,357.9h67.3c1.1,0,2,0.9,2,2v1.7c0,1.1-0.9,2-2,2h-67.3c-1.1,0-2-0.9-2-2v-1.7
	C344.9,358.8,345.8,357.9,346.9,357.9z"/>
<path class="st5" d="M346.9,357.9h67.3c1.1,0,2,0.9,2,2v1.7c0,1.1-0.9,2-2,2h-67.3c-1.1,0-2-0.9-2-2v-1.7
	C344.9,358.8,345.8,357.9,346.9,357.9z"/>
<path class="st1" d="M376.8,313.3h-36.3c-2,0-3.7-1.5-3.9-3.4l-2.5-20.1c-0.2-1.6,0.9-3.2,2.5-3.4c0.2,0,0.3,0,0.5,0h36.3
	c2,0,3.6,1.5,3.9,3.4l2.6,20.1c0.2,1.6-0.9,3.2-2.5,3.4C377.1,313.3,376.9,313.3,376.8,313.3z"/>
<path class="st5" d="M376.8,313.3h-36.3c-2,0-3.7-1.5-3.9-3.4l-2.5-20.1c-0.2-1.6,0.9-3.2,2.5-3.4c0.2,0,0.3,0,0.5,0h36.3
	c2,0,3.6,1.5,3.9,3.4l2.6,20.1c0.2,1.6-0.9,3.2-2.5,3.4C377.1,313.3,376.9,313.3,376.8,313.3z"/>
<path class="st16" d="M432.6,357.9c1.9,4-41.9,5.7-41.9,5.7s3-12.4,16.2-14.3S429.3,351.2,432.6,357.9z"/>
<path class="st6" d="M432.6,357.9c1.9,4-41.9,5.7-41.9,5.7s3-12.4,16.2-14.3S429.3,351.2,432.6,357.9z"/>
<path class="st17" d="M418.9,405.4l-6.9-0.7c0,0,5.6-40.1,2.9-44.1c-2.3-3.4-13.5-4-29.1-4.8l-9.2-0.5
	c-20.4-1.1,22.3-21.8,22.3-21.8s23.5,6.8,30.7,16.2C436.1,358.3,418.9,405.4,418.9,405.4z"/>
<path class="st18" d="M418.9,405.4l-6.9-0.7c0,0,5.6-40.1,2.9-44.1c-2.3-3.4-13.5-4-29.1-4.8l-9.2-0.5
	c-20.4-1.1,22.3-21.8,22.3-21.8s23.5,6.8,30.7,16.2C436.1,358.3,418.9,405.4,418.9,405.4z"/>
<path class="st1" d="M420.4,402l-8.8-0.5c-0.3,0-0.6,0.2-0.6,0.5l0,0l0,0l-0.9,6.9c-0.1,0.8,0.5,1.4,1.3,1.5
	c3.1,0.1,4.5,0.1,8.4,0.3c3.4,0.4,6.8,0.5,10.3,0.3c3.3-0.3,2.9-3.5,1.5-3.7c-3.3-0.4-7.8-2.8-9.9-4.7
	C421.3,402.2,420.9,402,420.4,402z"/>
<path class="st16" d="M423.1,403.5c-0.7-0.1-1.4-0.2-2.1-0.4c-0.1,0-0.1-0.1-0.1-0.1c0-0.1,0-0.1,0.1-0.2c0.3-0.2,2.6-1.5,3.5-1.1
	c0.2,0.1,0.4,0.3,0.4,0.5c0.1,0.4,0,0.7-0.3,1C424.1,403.5,423.6,403.6,423.1,403.5z M424.3,402c-0.5-0.2-1.8,0.3-2.8,0.9
	c1.4,0.4,2.4,0.4,2.8,0c0.2-0.2,0.2-0.4,0.2-0.6C424.5,402.2,424.4,402.1,424.3,402L424.3,402z"/>
<path class="st16" d="M421,403.1L421,403.1c-0.1,0-0.2-0.1-0.2-0.1c0-0.1,0-2.4,0.8-3.1c0.2-0.2,0.5-0.2,0.8-0.2s0.6,0.3,0.6,0.6
	C423.2,401.1,422,402.7,421,403.1C421.1,403.1,421.1,403.1,421,403.1z M422.3,400.1c-0.1,0-0.3,0-0.4,0.1c-0.5,0.7-0.7,1.6-0.7,2.4
	c0.8-0.6,1.3-1.4,1.5-2.3C422.7,400.3,422.7,400.2,422.3,400.1L422.3,400.1z"/>
<path class="st17" d="M406.3,350.4c-1.5-5.6-11.6-14.3-19.9-15.7l-12,20.6c12.6,0.5,16.5,4.2,16.8,5.4c1.4,5.6-2.9,44.7-2.9,44.7
	h7.3C395.5,405.4,410,364.3,406.3,350.4z"/>
<path class="st16" d="M392.4,325.6c0,0,22.1,9,32.1,17.5c8.2,7,8.1,14.8,8.1,14.8c-4.7-3.6-10.7-4.9-16.5-3.6
	c-12.9,2.6-25.5,9.3-25.5,9.3s-5.4-6.4-22-8.2s-16.7-17.6-8.4-30.5L392.4,325.6z"/>
<path class="st17" d="M403.4,289.7c0,0,11.9,13.9,14.3,15.4s10.1,3.3,10.1,3.3c0.9-0.2,1.8-0.3,2.7-0.2c0.9,0.1,5.1,1.2,5.1,1.2
	s0.4,0,0.7,2.4s1,5-0.1,5.1s-8.1-1.4-8.7-2.2L427,314c0,0-10.5,0.2-13.2-1s-17.3-13.9-17.3-13.9L403.4,289.7z"/>
<path class="st18" d="M403.4,289.7c0,0,11.9,13.9,14.3,15.4s10.1,3.3,10.1,3.3c0.9-0.2,1.8-0.3,2.7-0.2c0.9,0.1,5.1,1.2,5.1,1.2
	s0.4,0,0.7,2.4s1,5-0.1,5.1s-8.1-1.4-8.7-2.2L427,314c0,0-10.5,0.2-13.2-1s-17.3-13.9-17.3-13.9L403.4,289.7z"/>
<path class="st16" d="M395.6,277.4c-4.2-1.8-8,14.8-5.5,19s10.9,9.2,10.9,9.2l10.3-9.4C411.3,296.3,402.9,280.5,395.6,277.4z"/>
<path class="st5" d="M411.3,296.2l-10.3,9.4c0,0-0.6-0.4-1.6-1c-0.8-0.5-1.7-1.1-2.7-1.8c-1.7-1.2-3.3-2.5-4.8-4
	c-0.7-0.7-1.3-1.5-1.9-2.3c-0.2-0.4-0.4-0.9-0.5-1.4c-1.3-5.6,2.2-19.3,6-17.7C402.9,280.5,411.3,296.2,411.3,296.2z"/>
<polygon class="st16" points="410.9,294.8 399.8,306 402.1,307.3 412.3,296.8 "/>
<path class="st6" d="M399.4,304.6c-0.8-0.5-1.7-1.1-2.7-1.8c-1.7-1.2-3.3-2.5-4.8-4l4.9-10.8C399.6,293.1,400.5,299,399.4,304.6z"/>
<path class="st16" d="M360.3,324.9c0,0-1.5-32.4,1.6-40s12.3-13.4,34.2-7.4c0,0,4.1,2.7,2.7,14.3s-6.1,34.7-6.1,34.7L360.3,324.9z"
	/>
<path class="st5" d="M398.7,291.7c-0.6,4.9-1.8,11.8-2.9,18.2c-1.1,6-2.2,11.6-2.8,14.5l-0.4,2l-32.3-1.6c0,0-1.5-32.4,1.6-40
	s12.3-13.4,34.2-7.4C396,277.5,400.1,280.1,398.7,291.7z"/>
<path class="st6" d="M395.8,310c-1.1,6-2.2,11.6-2.8,14.5c-5.4-1.7-12.4-4.3-16-7.4c-6.4-5.4-16-23.1-16-23.1s6.7-11.7,17-5.1
	s12.9,18.5,12.9,18.5L395.8,310z"/>
<path class="st16" d="M389.6,286.4l3-4.9l4.1,4.9c0,0-1.2-12.9-16.2-13.2c-3.4-0.2-6.5,1.8-7.6,5.1c2.6,4.3,9.6,8.9,9.6,8.9l2.8-4.2
	L389.6,286.4z"/>
<path class="st17" d="M388.7,284.8L386,282c0,0-7.3-2.9-9.7-5l0,0c1.6-1.2,2.4-3.2,2.8-5.5c0.3-1.7,0.4-3.3,0.4-5
	c0,0,0.7-0.7,3.3-0.7c5.9,0,7,1.7,7,1.7c-0.5,1.2-0.8,2.4-1.1,3.7c-0.3,1.5-0.3,3.1,0.2,4.6c0.2,0.5,0.5,1,0.8,1.5
	c0.5,0.6,1,1,1.7,1.4C391.3,278.7,393.5,281.4,388.7,284.8z"/>
<path class="st6" d="M388.8,275.7c-3.8,3.3-9.2,2.7-12.5,1.2c1.6-1.2,2.4-3.2,2.8-5.5c0.3-1.7,0.4-3.3,0.4-5c0,0,0.7-0.7,3.3-0.7
	c5.9,0,7,1.7,7,1.7c-0.6,1.2-0.9,2.4-1.1,3.7C388.3,272.6,388.3,274.2,388.8,275.7z"/>
<path class="st1" d="M396.3,246.1c0,0,2.5-5.2,10.2-5.5s13,7.8,8.5,18c-4.5,10.2,0,11.6-1,14.4c-0.5,1.6-1.9,2.8-3.6,2.9
	c0,0,2.8-1.3-1.4-3.5s-5.7-9.5-4.9-13.6s-2.6-5.6-4.9-3.9L396.3,246.1z"/>
<path class="st1" d="M375.1,247c0,0-4.3,4.3-1.7,9.9c2.6,5.6,9.2-7,9.2-7L375.1,247z"/>
<path class="st17" d="M399,256.8c-1.6,8-2.1,12.7-7.2,16.3c-7.7,5.3-18.4,0.2-19.5-8.1c-1.1-7.5,1.7-19.3,11-21.3
	S400.6,248.8,399,256.8z"/>
<path class="st1" d="M381.8,254c-0.1-0.1-0.1-0.2-0.1-0.2c0-0.2,0.2-0.4,0.5-0.4c1.4,0,2.6,0.7,3.4,1.8c0.1,0.2,0.1,0.4-0.1,0.6l0,0
	l0,0c-0.2,0.1-0.5,0.1-0.6-0.1l0,0c-0.6-0.9-1.6-1.4-2.7-1.4C382,254.2,381.9,254.1,381.8,254z"/>
<path class="st1" d="M373.1,254.1c-0.1,0-0.2-0.1-0.2-0.1c-0.1-0.2-0.1-0.5,0.1-0.6c1.1-0.8,2.5-1,3.8-0.5c0.2,0.1,0.3,0.3,0.2,0.6
	l0,0c-0.1,0.2-0.3,0.3-0.5,0.2l0,0c-1-0.3-2.1-0.2-3,0.5C373.4,254.1,373.3,254.1,373.1,254.1z"/>
<path class="st19" d="M377.6,260.6l-2.2,1.5c0,0,0.5,0.9,2.5,1.2L377.6,260.6z"/>
<path class="st1" d="M377,265c0.5,1.1,0.9,2.2,1.3,3.4l0.6-0.1c2.8-0.4,4-1.5,4.5-2.6c0.2-0.6,0.3-1.1,0.2-1.7c0-0.3-0.1-0.7-0.2-1
	c-1.4,1.1-4,1.7-5.4,1.9C377.3,264.9,377,265,377,265z"/>
<path class="st3" d="M377.9,264.8l0.4,1c2.7-0.4,4.5-1,5.2-1.9c0-0.3-0.1-0.7-0.2-1C382,264,379.3,264.6,377.9,264.8z"/>
<path class="st20" d="M378.9,268.2c2.8-0.4,4-1.5,4.5-2.6c-1.1,0.1-2.1,0.5-3.1,1C379.6,267,379.1,267.6,378.9,268.2z"/>
<path class="st1" d="M392.3,263.8c-1.5-1.8-2.3-4-2.4-6.3c0,0-7.7-2.7-10.3-7.3c1.1,3,3.1,5.5,5.7,7.3c0,0-10.9-3.3-10.9-9.5
	s8.3-8.3,17.5-5.9s11.3,10.3,9.9,15.9c0,0,0.4,11.1-7.2,12.6C394.6,270.5,396,264.9,392.3,263.8z"/>
<path class="st17" d="M391.7,261.5c0,0,2.1-4.5,4.4-3s1.6,9-1.9,8.9S390,263.8,391.7,261.5z"/>
<path class="st1" d="M380.8,259.3c0,0.8,0.5,1.5,1,1.5s1-0.7,1-1.5s-0.5-1.5-1-1.5S380.8,258.4,380.8,259.3z"/>
<path class="st1" d="M382,257.8l-1.8-0.7C380.2,257.1,381.1,258.6,382,257.8z"/>
<path class="st1" d="M374,258.6c0,0.8,0.5,1.5,1,1.5s1-0.7,1-1.5s-0.5-1.5-1-1.5S374,257.8,374,258.6z"/>
<path class="st1" d="M375.2,257.1l-1.8-0.7C373.4,256.4,374.3,257.9,375.2,257.1z"/>
<line class="st21" x1="411.9" y1="296.9" x2="418" y2="312.8"/>
<path class="st17" d="M379.3,294.8c0,0,8.5,8.8,10.3,10s18.6,4,18.6,4s5.8-1.5,7.8-1.7s5.3,6.4,5.3,6.4s-8.6,2-11.4,0.8
	c0,0-17.8,0.1-21.8-1s-14.1-8.1-14.1-8.1L379.3,294.8z"/>
<path class="st16" d="M364.6,281.9c6.7-6.2,20.2,16.8,20.2,16.8l-8.2,10.1C376.6,308.8,350.2,295.2,364.6,281.9z"/>
<path class="st5" d="M364.6,281.9c6.7-6.2,20.2,16.8,20.2,16.8l-8.2,10.1C376.6,308.8,350.2,295.2,364.6,281.9z"/>
<polygon class="st16" points="374.9,309.3 384.9,297.2 386.7,299.9 378.1,311.3 "/>
<path class="st1" d="M405.3,315l-3.3,13c-0.5,2-2.3,3.3-4.3,3.4h-52l-0.9-4.8h48.7c0.5,0,1-0.4,1.1-0.9l2.6-10.7H405.3z"/>
<path class="st14" d="M405.3,315l-3.3,13c-0.5,2-2.3,3.3-4.3,3.4h-52l-0.9-4.8h48.7c0.5,0,1-0.4,1.1-0.9l2.6-10.7H405.3z"/>
<path class="st1" d="M382.1,312.9h67.6c0.8,0,1.4,0.6,1.4,1.4v1.3c0,0.8-0.6,1.4-1.4,1.4h-67.6c-0.8,0-1.4-0.6-1.4-1.4v-1.3
	C380.7,313.6,381.3,312.9,382.1,312.9z"/>
<path class="st5" d="M451.1,314.3v1.4c0,0.8-0.6,1.4-1.4,1.4H382c-0.8,0-1.4-0.6-1.4-1.4l0,0v-1.4c0-0.8,0.6-1.4,1.4-1.4l0,0h67.7
	C450.5,312.9,451.1,313.5,451.1,314.3z"/>
<path class="st15" d="M451.1,314.3v1.4c0,0.8-0.6,1.4-1.4,1.4H417c-0.8,0-1.4-0.6-1.4-1.4l0,0v-1.4c0-0.8,0.6-1.4,1.4-1.4l0,0h32.7
	C450.5,312.9,451.1,313.5,451.1,314.3z"/>
<path class="st1" d="M396.1,402l-8.8-0.5c-0.3,0-0.6,0.2-0.6,0.5l0,0l0,0l-0.9,6.9c0,0.8,0.5,1.4,1.3,1.5c3,0.1,4.5,0.1,8.4,0.3
	c3.4,0.3,6.8,0.5,10.3,0.3c3.3-0.3,2.9-3.5,1.5-3.7c-3.3-0.4-7.8-2.8-9.9-4.7C397,402.2,396.6,402,396.1,402z"/>
<path class="st16" d="M398.8,403.5c-0.7-0.1-1.4-0.2-2.1-0.4c-0.1,0-0.1-0.1-0.1-0.1c0-0.1,0-0.1,0.1-0.2c0.3-0.2,2.6-1.5,3.5-1.1
	c0.2,0.1,0.4,0.3,0.4,0.5c0.1,0.4,0,0.7-0.3,1C399.8,403.5,399.3,403.6,398.8,403.5z M400,402c-0.5-0.2-1.8,0.3-2.8,0.9
	c1.4,0.4,2.4,0.4,2.8,0c0.2-0.2,0.2-0.4,0.2-0.6C400.2,402.2,400.1,402.1,400,402z"/>
<path class="st16" d="M396.8,403.1C396.7,403.1,396.7,403.1,396.8,403.1c-0.1,0-0.2-0.1-0.2-0.1c0-0.1,0-2.4,0.8-3.1
	c0.2-0.2,0.5-0.2,0.8-0.2s0.6,0.3,0.6,0.6C398.9,401.2,397.7,402.7,396.8,403.1C396.8,403.1,396.8,403.1,396.8,403.1z M398,400.1
	c-0.1,0-0.3,0-0.4,0.1c-0.5,0.7-0.7,1.6-0.7,2.4c0.8-0.6,1.3-1.4,1.5-2.3C398.4,400.3,398.4,400.2,398,400.1L398,400.1z"/>
<rect x="96.2" y="289.9" transform="matrix(0.9902 -0.14 0.14 0.9902 -44.1115 16.9467)" class="st1" width="4.4" height="64.2"/>
<rect x="67.4" y="290.6" transform="matrix(0.9907 -0.1357 0.1357 0.9907 -43.1466 12.4303)" class="st22" width="4.4" height="64.2"/>
<g class="st12">
	<rect x="96.2" y="289.9" transform="matrix(0.9902 -0.14 0.14 0.9902 -44.1115 16.9467)" class="st3" width="4.4" height="64.2"/>
</g>
<g class="st4">
	
		<rect x="67.4" y="290.6" transform="matrix(0.9907 -0.1357 0.1357 0.9907 -43.1466 12.4303)" class="st3" width="4.4" height="64.2"/>
</g>
<polygon class="st1" points="98.3,401 104.4,401 105.2,368.3 105.5,354.4 97.2,354.4 97.5,368.3 "/>
<polygon class="st5" points="98.3,401 104.4,401 105.2,368.3 105.5,354.4 97.2,354.4 97.5,368.3 "/>
<polygon class="st6" points="105.5,354.4 105.2,368.6 97.5,368.6 97.2,354.4 "/>
<polygon class="st1" points="129.8,401 127.2,355.4 119.9,355.4 123.7,401 "/>
<polygon class="st7" points="123.7,401 129.8,401 127.6,362.1 127.2,355.3 119.9,355.3 120.5,362.1 "/>
<polygon class="st6" points="119.9,355.3 120.5,362.4 127.6,362.4 127.2,355.3 "/>
<polygon class="st22" points="79,401 82.8,355.4 75.5,355.4 72.8,401 "/>
<polygon class="st7" points="79,401 82.2,362.1 82.8,355.3 75.5,355.3 75.1,362.1 72.8,401 "/>
<polygon class="st23" points="82.8,355.3 82.2,362.4 75.1,362.4 75.5,355.3 "/>
<path class="st1" d="M76.7,347.6H126c2.8,0,5,2.2,5,5v5.4l0,0H71.7l0,0v-5.4C71.7,349.9,73.9,347.6,76.7,347.6z"/>
<path class="st1" d="M98.1,312.1H65.3c-2.1,0-3.9-1.6-4.2-3.7l-2.3-18c-0.2-1.4,0.8-2.7,2.2-2.9c0.1,0,0.2,0,0.3,0h32.8
	c2.1,0,3.9,1.6,4.2,3.7l2.3,18c0.2,1.4-0.8,2.7-2.2,2.9C98.4,312.1,98.3,312.1,98.1,312.1z"/>
<path class="st8" d="M98.1,312.1H65.3c-2.1,0-3.9-1.6-4.2-3.7l-2.3-18c-0.2-1.4,0.8-2.7,2.2-2.9c0.1,0,0.2,0,0.3,0h32.8
	c2.1,0,3.9,1.6,4.2,3.7l2.3,18c0.2,1.4-0.8,2.7-2.2,2.9C98.4,312.1,98.3,312.1,98.1,312.1z"/>
<path class="st9" d="M76.7,347.6H126c2.8,0,5,2.2,5,5v5.4l0,0H71.7l0,0v-5.4C71.7,349.9,73.9,347.6,76.7,347.6z"/>
<path class="st1" d="M70.8,352.8h61c1.1,0,2,0.9,2,2v1.2c0,1.1-0.9,2-2,2h-61c-1.1,0-2-0.9-2-2v-1.2
	C68.8,353.7,69.7,352.8,70.8,352.8z"/>
<path class="st8" d="M70.8,352.8h61c1.1,0,2,0.9,2,2v1.2c0,1.1-0.9,2-2,2h-61c-1.1,0-2-0.9-2-2v-1.2
	C68.8,353.7,69.7,352.8,70.8,352.8z"/>
<polygon class="st17" points="140,384.8 139.1,390.7 138.2,396.1 130.3,396.1 131,389.2 131.6,382.5 "/>
<path class="st1" d="M137.8,393.1l-8-0.5c-0.3,0-0.5,0.2-0.6,0.5l0,0l-0.8,6.3c0,0.7,0.5,1.3,1.2,1.3c2.8,0.1,4.1,0,7.6,0.2
	c3.1,0.3,6.3,0.4,9.4,0.3c3-0.3,2.6-3.2,1.3-3.4c-3.3-0.6-6.4-2.1-9-4.3C138.6,393.2,138.2,393.1,137.8,393.1z"/>
<path class="st16" d="M140.2,394.4c-0.6-0.1-1.3-0.2-1.9-0.4c-0.1,0-0.1-0.1-0.1-0.1c0-0.1,0-0.1,0.1-0.2c0.2-0.1,2.3-1.4,3.2-1
	c0.2,0.1,0.3,0.3,0.4,0.5c0.1,0.3,0,0.7-0.3,0.9C141.1,394.4,140.7,394.5,140.2,394.4z M141.3,393.1c-0.5-0.2-1.7,0.3-2.5,0.8
	c1.3,0.3,2.2,0.4,2.6,0c0.2-0.2,0.2-0.4,0.1-0.6C141.5,393.2,141.4,393.1,141.3,393.1L141.3,393.1z"/>
<path class="st16" d="M138.4,394.1L138.4,394.1c-0.1,0-0.1-0.1-0.2-0.1c0-0.1,0-2.1,0.7-2.8c0.2-0.2,0.5-0.2,0.7-0.2
	c0.3,0,0.5,0.2,0.6,0.5C140.3,392.3,139.2,393.7,138.4,394.1L138.4,394.1z M139.5,391.3c-0.1,0-0.3,0-0.4,0.1
	c-0.5,0.4-0.6,1.5-0.6,2.2c0.7-0.5,1.2-1.2,1.4-2.1C139.9,391.5,139.8,391.3,139.5,391.3L139.5,391.3z"/>
<polygon class="st6" points="140,384.8 139.1,390.7 131,389.2 131.6,382.5 "/>
<path class="st16" d="M141.1,389.2l-0.3,0.8l-12.3-3c0,0,6.7-28.1,4.2-31.8c-2.1-3.1-12.3-3.7-26.6-4.4l-8.4-0.4
	c-18.6-1,20.3-19.9,20.3-19.9s24.9,1,31.5,9.6C155.5,348,143.1,383.5,141.1,389.2z"/>
<path class="st6" d="M137.1,386.3l4,2.8l-0.3,0.8l-12.3-3c0,0,6.7-28.1,4.2-31.8c-2.1-3.1-12.3-3.7-26.6-4.4l-1.7-4.9l10.7-12.4
	c0,0,22.9,2.8,27.4,11.9S137.1,386.3,137.1,386.3z"/>
<path class="st17" d="M124.4,288.6c0,0,11.4,13.3,13.7,14.8s9.7,3.2,9.7,3.2c0.9-0.2,1.7-0.3,2.6-0.2c0.9,0.1,4.9,1.2,4.9,1.2
	s0.3,0,0.7,2.3s0.9,4.8-0.1,4.9s-7.8-1.3-8.3-2.1l-0.6-0.8c0,0-10,0.2-12.6-1s-16.6-13.3-16.6-13.3L124.4,288.6z"/>
<path class="st18" d="M124.4,288.6c0,0,11.4,13.3,13.7,14.8s9.7,3.2,9.7,3.2c0.9-0.2,1.7-0.3,2.6-0.2c0.9,0.1,4.9,1.2,4.9,1.2
	s0.3,0,0.7,2.3s0.9,4.8-0.1,4.9s-7.8-1.3-8.3-2.1l-0.6-0.8c0,0-10,0.2-12.6-1s-16.6-13.3-16.6-13.3L124.4,288.6z"/>
<path class="st16" d="M117,276.9c-4-1.7-7.6,14.1-5.3,18.2s10.4,8.8,10.4,8.8l9.8-9C132,294.8,123.9,279.8,117,276.9z"/>
<path class="st5" d="M131.9,294.9l-9.8,9c0,0-1.9-1.1-4.1-2.7s-5.1-4-6.3-6.1c-0.2-0.4-0.4-0.8-0.5-1.3c-1.3-5.4,2.1-18.5,5.7-16.9
	C123.9,279.8,131.9,294.9,131.9,294.9z"/>
<polygon class="st16" points="131.6,293.5 120.9,304.2 123.1,305.4 132.9,295.4 "/>
<path class="st6" d="M118,301.1c-2.4-1.7-5.1-4-6.3-6.1c-0.2-0.4-0.4-0.8-0.5-1.3l5-11.1C116.2,282.7,121.3,291.5,118,301.1z"/>
<path class="st16" d="M79.7,327.1c0,0-8.3,23.3,15.1,23.3s25.3-9.1,23.3-19.9L79.7,327.1z"/>
<polygon class="st17" points="117.8,384.8 116.9,390.7 116,396.1 108.1,396.1 108.8,389.2 109.5,382.5 "/>
<path class="st1" d="M115.6,393.1l-8-0.5c-0.3,0-0.5,0.2-0.6,0.5l0,0l-0.8,6.3c0,0.7,0.5,1.3,1.2,1.3c2.8,0.1,4.1,0,7.6,0.2
	c3.1,0.3,6.3,0.4,9.4,0.3c3-0.3,2.6-3.2,1.3-3.4c-3.3-0.6-6.4-2.1-9-4.3C116.4,393.3,116,393.1,115.6,393.1z"/>
<path class="st16" d="M118,394.4c-0.6-0.1-1.3-0.2-1.9-0.4c-0.1,0-0.1-0.1-0.1-0.1c0-0.1,0-0.1,0.1-0.2c0.2-0.1,2.3-1.4,3.2-1
	c0.2,0.1,0.3,0.3,0.3,0.5c0.1,0.3,0,0.7-0.3,0.9C119,394.4,118.5,394.5,118,394.4z M119.1,393.1c-0.5-0.2-1.7,0.3-2.5,0.8
	c1.3,0.3,2.2,0.4,2.6,0c0.1-0.2,0.2-0.4,0.2-0.6C119.3,393.2,119.2,393.1,119.1,393.1L119.1,393.1z"/>
<path class="st16" d="M116.2,394.1L116.2,394.1c-0.1,0-0.1-0.1-0.2-0.1c0-0.1,0-2.1,0.7-2.8c0.2-0.2,0.5-0.2,0.7-0.2
	c0.3,0,0.5,0.3,0.6,0.5C118.1,392.3,117,393.7,116.2,394.1L116.2,394.1z M117.3,391.3c-0.1,0-0.3,0-0.4,0.1
	c-0.4,0.7-0.6,1.4-0.6,2.2c0.7-0.5,1.2-1.2,1.3-2.1C117.7,391.5,117.6,391.3,117.3,391.3L117.3,391.3z"/>
<polygon class="st6" points="117.8,384.8 116.9,390.7 108.8,389.2 109.5,382.5 "/>
<path class="st16" d="M127.4,340.1c-3.6-4.8-13.1-7.3-20.7-8.5l-11,18.8c11.5,0.5,15,3.8,15.3,4.9c1.2,5.1-4.7,31.6-4.7,31.6l12.3,3
	C118.6,390,133.9,348.7,127.4,340.1z"/>
<path class="st16" d="M77.4,331.7c0,0,4.3-40.4,7.3-47.7s11.8-12.8,32.7-7c0,0,3.9,2.5,2.6,13.6s-1.8,40-1.8,40L77.4,331.7z"/>
<path class="st5" d="M119.9,290.5c-0.5,4-0.9,10.4-1.1,16.9c-0.1,2.8-0.2,5.7-0.3,8.4c-0.3,8.1-0.4,14.7-0.4,14.7l-40.7,1.2
	c0,0,4.3-40.4,7.3-47.8s11.8-12.8,32.7-7C117.3,276.9,121.3,279.4,119.9,290.5z"/>
<path class="st16" d="M111.2,285.4l2.9-4.6l4,4.6c0,0-1.1-12.3-15.5-12.6c-3.3-0.2-6.2,1.8-7.3,4.9c2.5,4.1,9.2,8.5,9.2,8.5l2.7-4
	L111.2,285.4z"/>
<line class="st21" x1="132.5" y1="295.5" x2="138.3" y2="310.7"/>
<path class="st6" d="M118.8,307.4c-0.1,2.8-0.2,5.7-0.3,8.4c-4.4,0.5-12.5,1.3-16.7,0.1c-7.5-2.1-18.9-16.1-16.6-26.2
	s7.5-8.7,7.5-8.7s13.9,11.6,20.1,23.5L118.8,307.4z"/>
<path class="st17" d="M101.3,293.5c0,0,8.2,8.4,9.8,9.6s17.8,3.8,17.8,3.8s5.5-1.4,7.5-1.6s5.1,6.1,5.1,6.1s-8.3,1.9-10.9,0.8
	c0,0-17.1,0.1-20.8-1s-13.5-7.8-13.5-7.8L101.3,293.5z"/>
<path class="st16" d="M87.3,281.1c6.4-5.9,19.3,16.1,19.3,16.1l-7.8,9.7C98.8,306.9,73.4,293.9,87.3,281.1z"/>
<path class="st5" d="M87.3,281.1c6.4-5.9,19.3,16.1,19.3,16.1l-7.8,9.7C98.8,306.9,73.4,293.9,87.3,281.1z"/>
<polygon class="st16" points="97.2,307.3 106.6,295.8 108.4,298.3 100.2,309.2 "/>
<path class="st1" d="M124,313.6l-3,11.8c-0.5,1.8-2.1,3.1-3.9,3.1H69.6l-0.8-4.4h44.4c0.5,0,0.9-0.3,1-0.8l2.3-9.7H124z"/>
<path class="st5" d="M124,313.6l-3,11.8c-0.5,1.8-2.1,3.1-3.9,3.1H69.6l-0.8-4.4h44.4c0.5,0,0.9-0.3,1-0.8l2.3-9.7H124z"/>
<path class="st1" d="M102.9,311.8h61.4c0.8,0,1.4,0.6,1.4,1.4v0.9c0,0.8-0.6,1.4-1.4,1.4h-61.4c-0.8,0-1.4-0.6-1.4-1.4v-0.9
	C101.5,312.4,102.2,311.8,102.9,311.8z"/>
<path class="st7" d="M165.8,313v1.3c0,0.7-0.6,1.3-1.3,1.3l0,0h-61.8c-0.7,0-1.3-0.6-1.3-1.2l0,0V313c0-0.7,0.6-1.3,1.3-1.3l0,0
	h61.8C165.2,311.7,165.8,312.3,165.8,313L165.8,313z"/>
<path class="st10" d="M165.8,313v1.3c0,0.7-0.6,1.3-1.3,1.3l0,0h-29.8c-0.7,0-1.3-0.6-1.3-1.2l0,0V313c0-0.7,0.6-1.3,1.3-1.3l0,0
	h29.8C165.2,311.7,165.8,312.3,165.8,313L165.8,313z"/>
<path class="st17" d="M119.1,273.6c-3.2,0.3-6,2.3-7.1,5.4c-0.1,0.2-0.1,0.3-0.2,0.5l-1.6,4.1l-3.6-3.7c-2.6-1-4.8-2.8-6.3-5.2
	c1.7-0.9,3.3-2.1,4.7-3.5c1.3-1.3,2.4-2.7,3.3-4.3C108.4,266.9,125.1,273,119.1,273.6z"/>
<path class="st6" d="M119.1,273.6c-3.2,0.3-6,2.3-7.1,5.4c-3.4-1.4-5.9-4.3-6.9-7.8c1.3-1.3,2.4-2.7,3.3-4.3
	C108.4,266.9,125.1,273,119.1,273.6z"/>
<path class="st1" d="M127.3,251.9c0,0,3.5,4.6,0.4,9.6s-7.9-7.8-7.9-7.8L127.3,251.9z"/>
<path class="st17" d="M103.4,258.2c0.5,7.8,0.4,12.3,4.8,16.3c6.6,6,17.4,2.5,19.5-5.3c1.9-7,0.7-18.5-7.8-21.6
	S102.9,250.4,103.4,258.2z"/>
<path class="st1" d="M119.2,262.7c-0.1,0.7,0.3,1.3,0.7,1.3s0.8-0.5,0.9-1.2s-0.3-1.3-0.7-1.3S119.3,262,119.2,262.7z"/>
<path class="st1" d="M125,262.7c0,0.7,0.3,1.3,0.7,1.3s0.8-0.5,0.9-1.2s-0.3-1.3-0.7-1.3S125.1,262,125,262.7z"/>
<path class="st1" d="M120.1,257.6c0.1-0.1,0.1-0.1,0.1-0.2c0-0.2-0.2-0.4-0.4-0.4c-1.3-0.1-2.6,0.4-3.4,1.3
	c-0.1,0.2-0.1,0.4,0.1,0.6l0,0c0.2,0.1,0.4,0.1,0.6-0.1l0,0c0.7-0.8,1.7-1.1,2.8-1C119.9,257.8,120,257.7,120.1,257.6z"/>
<path class="st1" d="M128.3,258.8c0.1,0,0.2-0.1,0.2-0.1c0.1-0.2,0.1-0.4,0-0.6c-1-0.9-2.3-1.2-3.6-1c-0.2,0.1-0.3,0.3-0.3,0.5l0,0
	l0,0c0.1,0.2,0.3,0.3,0.5,0.3l0,0c1-0.2,2.1,0.1,2.8,0.8C128.1,258.8,128.2,258.8,128.3,258.8z"/>
<path class="st19" d="M123.3,264.4l1.9,1.7c0,0-0.6,0.8-2.5,0.8L123.3,264.4z"/>
<path class="st1" d="M123.4,268.7c-0.6,1-1.1,2-1.6,3l-0.6-0.2c-2.6-0.7-3.6-1.9-3.9-3c-0.1-0.5-0.1-1.1,0-1.7
	c0.1-0.3,0.2-0.6,0.3-0.9c1.2,1.2,3.6,2.1,4.9,2.5C123,268.6,123.4,268.7,123.4,268.7z"/>
<path class="st3" d="M122.5,268.4l-0.5,0.9c-2.5-0.7-4.2-1.5-4.7-2.5c0.1-0.3,0.2-0.6,0.3-0.9C118.7,267.2,121.2,268,122.5,268.4z"
	/>
<path class="st20" d="M121.2,271.5c-2.6-0.7-3.6-1.9-3.9-3c1,0.3,1.9,0.8,2.8,1.4C120.6,270.3,121,270.9,121.2,271.5z"/>
<path class="st1" d="M103.2,252.7c-0.9-2.9,0.8-6,3.7-6.9c0.2,0,0.3-0.1,0.5-0.1c5.8-1.6,17.1,0.4,20.8-1.6c0,0,1.8,4.6,0.9,7
	l2.1-1.1c0,0-2.9,4.8-7.7,4.4s-9.1-2.9-10.2,3.6c-1.1,6.5-5,7.2-5,7.2l-2.7,5.7c-3.3-2.2-5.3-5.9-5.3-9.8
	C100.1,254,103.2,252.7,103.2,252.7z"/>
<path class="st17" d="M109.8,263.5c0,0-1.4-4.5-3.8-3.4s-2.6,8.4,0.7,8.7S111.1,266,109.8,263.5z"/>
<rect x="191" y="299.4" transform="matrix(0.9907 -0.1357 0.1357 0.9907 -43.6092 29.3451)" class="st1" width="4.9" height="70.3"/>
<rect x="160.9" y="299.4" transform="matrix(0.9907 -0.1357 0.1357 0.9907 -43.8869 25.2604)" class="st1" width="4.9" height="70.3"/>
<g class="st12">
	
		<rect x="191" y="299.4" transform="matrix(0.9907 -0.1357 0.1357 0.9907 -43.6092 29.3451)" class="st3" width="4.9" height="70.3"/>
</g>
<g class="st13">
	
		<rect x="160.9" y="299.4" transform="matrix(0.9907 -0.1357 0.1357 0.9907 -43.8869 25.2604)" class="st3" width="4.9" height="70.3"/>
</g>
<polygon class="st1" points="194.7,420.4 201.5,420.4 202.3,384.5 202.6,369.4 193.5,369.4 193.9,384.5 "/>
<polygon class="st14" points="194.7,420.4 201.5,420.4 202.3,384.5 202.6,369.4 193.5,369.4 193.9,384.5 "/>
<polygon class="st6" points="202.6,369.4 202.3,385 193.9,385 193.5,369.4 "/>
<polygon class="st1" points="229.3,420.4 226.4,370.5 218.4,370.5 222.5,420.4 "/>
<polygon class="st10" points="222.5,420.4 229.3,420.4 226.8,377.9 226.4,370.4 218.4,370.4 219,377.9 "/>
<polygon class="st6" points="218.4,370.4 219,378.1 226.8,378.1 226.4,370.4 "/>
<polygon class="st1" points="173.6,420.4 177.8,370.5 169.8,370.5 166.9,420.4 "/>
<polygon class="st10" points="173.6,420.4 177.1,377.9 177.7,370.4 169.8,370.4 169.4,377.9 166.9,420.4 "/>
<polygon class="st6" points="177.7,370.4 177.1,378.1 169.4,378.1 169.8,370.4 "/>
<path class="st1" d="M170.6,362h55.1c2.8,0,5,2.2,5,5v6.4l0,0h-65.1l0,0V367C165.6,364.2,167.8,362,170.6,362z"/>
<path class="st1" d="M164.4,367.6h67.3c1.1,0,2,0.9,2,2v1.7c0,1.1-0.9,2-2,2h-67.3c-1.1,0-2-0.9-2-2v-1.7
	C162.4,368.5,163.3,367.6,164.4,367.6z"/>
<path class="st5" d="M164.4,367.6h67.3c1.1,0,2,0.9,2,2v1.7c0,1.1-0.9,2-2,2h-67.3c-1.1,0-2-0.9-2-2v-1.7
	C162.4,368.5,163.3,367.6,164.4,367.6z"/>
<path class="st1" d="M194.6,323h-35.9c-2.3,0-4.3-1.7-4.6-4l-2.5-19.7c-0.2-1.6,0.9-3,2.4-3.2c0.1,0,0.2,0,0.4,0h35.9
	c2.3,0,4.3,1.7,4.6,4.1l2.5,19.7c0.2,1.6-1,3-2.5,3.1C194.7,323,194.7,323,194.6,323z"/>
<path class="st5" d="M194.6,323h-35.9c-2.3,0-4.3-1.7-4.6-4l-2.5-19.7c-0.2-1.6,0.9-3,2.4-3.2c0.1,0,0.2,0,0.4,0h35.9
	c2.3,0,4.3,1.7,4.6,4.1l2.5,19.7c0.2,1.6-1,3-2.5,3.1C194.7,323,194.7,323,194.6,323z"/>
<path class="st24" d="M219.9,277.9c0,0,10.8-4.6,11.3-6S236,248,236,248c-0.9-1.5-1.3-3.1-1.2-4.8c0.2-2.6,0-7.3,1.2-8.1
	s8.4,2.9,9,4.4s-1.3,8.8-2.4,9.3c0,0-1.1,26-2.9,27.9s-14.2,11.7-14.2,11.7L219.9,277.9z"/>
<path class="st18" d="M219.9,277.9c0,0,10.8-4.6,11.3-6S236,248,236,248c-0.9-1.5-1.3-3.1-1.2-4.8c0.2-2.6,0-7.3,1.2-8.1
	s8.4,2.9,9,4.4s-1.3,8.8-2.4,9.3c0,0-1.1,26-2.9,27.9s-14.2,11.7-14.2,11.7L219.9,277.9z"/>
<path class="st16" d="M202.6,284.2c-3,3.7,12.5,12.4,17.5,11.2s12.5-8.2,12.5-8.2l-6.4-13.2C226.2,274,207.9,277.8,202.6,284.2z"/>
<path class="st5" d="M226.2,274l6.4,13.1c0,0-1.7,1.6-4.1,3.5s-5.8,4.1-8.3,4.8c-0.5,0.1-1,0.1-1.5,0.1c-6-0.4-18.7-8-16-11.3
	C207.9,277.8,226.2,274,226.2,274z"/>
<polygon class="st16" points="224.6,274 232.6,288.5 234.6,286.6 227,273.2 "/>
<path class="st6" d="M228.4,290.6c-2.5,2-5.8,4.1-8.3,4.8c-0.5,0.1-1,0.1-1.5,0.1l-10.1-8.8C208.5,286.7,219.4,284.1,228.4,290.6z"
	/>
<polygon class="st24" points="240.4,402.7 239.4,409.1 238.4,415.1 229.8,415.1 230.6,407.5 231.3,400.2 "/>
<path class="st1" d="M238,411.7l-8.8-0.5c-0.3,0-0.6,0.2-0.6,0.5l0,0l-0.9,6.9c0,0.7,0.5,1.4,1.2,1.4c3.1,0.1,4.5,0.1,8.4,0.3
	c3.4,0.3,6.9,0.5,10.3,0.3c3.3-0.3,2.9-3.5,1.4-3.7c-3.3-0.4-7.8-2.8-9.9-4.7C238.9,411.9,238.5,411.7,238,411.7z"/>
<path class="st16" d="M240.6,413.2c-0.7-0.1-1.4-0.2-2.1-0.4c-0.1,0-0.1-0.1-0.1-0.1c0-0.1,0-0.1,0.1-0.2c0.3-0.1,2.6-1.5,3.5-1.1
	c0.2,0.1,0.4,0.3,0.4,0.5c0.1,0.4,0,0.7-0.3,1C241.7,413.2,241.2,413.3,240.6,413.2z M241.9,411.7c-0.5-0.2-1.8,0.3-2.8,0.9
	c1.4,0.4,2.4,0.4,2.8,0c0.2-0.2,0.2-0.4,0.2-0.6C242.1,411.8,242,411.7,241.9,411.7L241.9,411.7z"/>
<path class="st16" d="M238.6,412.8L238.6,412.8c-0.1,0-0.2-0.1-0.2-0.1c0-0.1,0-2.4,0.8-3.1c0.2-0.2,0.5-0.2,0.8-0.2
	s0.6,0.3,0.6,0.6C240.8,410.8,239.5,412.4,238.6,412.8C238.7,412.8,238.7,412.8,238.6,412.8z M239.9,409.8c-0.1,0-0.3,0-0.4,0.1
	c-0.5,0.7-0.7,1.6-0.7,2.4c0.8-0.6,1.3-1.4,1.5-2.3C240.3,410,240.2,409.9,239.9,409.8L239.9,409.8z"/>
<polygon class="st6" points="240.4,402.7 239.4,409.1 230.6,407.5 231.3,400.2 "/>
<path class="st16" d="M241.6,407.4l-0.3,0.9l-13.4-3.2c0,0,7.4-30.8,4.6-34.8c-2.3-3.4-13.4-4.1-29.1-4.9l-9.2-0.5
	c-20.4-1.1,22.3-21.8,22.3-21.8s27.3,1.1,34.4,10.5C257.5,362.4,243.9,401.2,241.6,407.4z"/>
<path class="st6" d="M237.2,404.4l4.4,3.1l-0.3,0.9l-13.4-3.2c0,0,7.4-30.8,4.6-34.8c-2.3-3.4-13.4-4.1-29.1-4.9l-1.8-5.4l11.7-13.6
	c0,0,25.1,3,30,13S237.2,404.4,237.2,404.4z"/>
<path class="st16" d="M174.3,339.4c0,0-9,25.6,16.6,25.6s27.7-10,25.5-21.8L174.3,339.4z"/>
<polygon class="st24" points="216.1,402.7 215.1,409.1 214.1,415.1 205.5,415.1 206.3,407.5 207,400.2 "/>
<path class="st1" d="M213.7,411.7l-8.8-0.5c-0.3,0-0.6,0.2-0.6,0.5l0,0l0,0l-0.9,6.9c-0.1,0.8,0.5,1.4,1.3,1.5l0,0
	c3.1,0.1,4.5,0.1,8.4,0.3c3.4,0.4,6.8,0.5,10.3,0.3c3.3-0.3,2.9-3.5,1.5-3.7c-3.3-0.4-7.8-2.8-9.9-4.7
	C214.6,411.9,214.1,411.7,213.7,411.7z"/>
<path class="st16" d="M216.3,413.2c-0.7-0.1-1.4-0.2-2.1-0.4c-0.1,0-0.1-0.1-0.1-0.1c0-0.1,0-0.1,0.1-0.2c0.3-0.1,2.6-1.5,3.5-1.1
	c0.2,0.1,0.4,0.3,0.4,0.5c0.1,0.4,0,0.7-0.3,1C217.4,413.2,216.9,413.3,216.3,413.2z M217.6,411.7c-0.5-0.2-1.8,0.3-2.8,0.9
	c1.4,0.4,2.4,0.4,2.8,0c0.2-0.2,0.2-0.4,0.2-0.6S217.7,411.7,217.6,411.7L217.6,411.7z"/>
<path class="st16" d="M214.3,412.8L214.3,412.8c-0.1,0-0.2-0.1-0.2-0.1c0-0.1,0-2.4,0.8-3.1c0.2-0.2,0.5-0.3,0.8-0.2
	c0.3,0,0.6,0.3,0.6,0.6C216.5,410.8,215.2,412.4,214.3,412.8C214.4,412.8,214.4,412.8,214.3,412.8z M215.6,409.8
	c-0.1,0-0.3,0-0.4,0.1c-0.5,0.4-0.6,1.7-0.7,2.4c0.8-0.6,1.3-1.4,1.5-2.3C216,410,215.9,409.9,215.6,409.8L215.6,409.8z"/>
<polygon class="st6" points="216.1,402.7 215.1,409.1 206.3,407.5 207,400.2 "/>
<path class="st16" d="M226.6,353.7c-4-5.3-14.3-7.9-22.6-9.3L192,365c12.6,0.5,16.5,4.2,16.8,5.4c1.4,5.6-5.1,34.7-5.1,34.7
	l13.4,3.2C217,408.3,233.7,363.1,226.6,353.7z"/>
<path class="st16" d="M171.9,344.5c0,0,4.7-44.3,8-52.3s12.9-14.1,35.8-7.7c0,0,4.3,2.8,2.8,15s-2,43.8-2,43.8L171.9,344.5z"/>
<path class="st5" d="M218.4,299.4c-0.5,4.4-0.9,11.4-1.2,18.5c-0.1,3.1-0.2,6.2-0.3,9.1c-0.3,8.9-0.4,16.1-0.4,16.1l-44.6,1.3
	c0,0,4.7-44.3,8-52.3s12.9-14.1,35.8-7.7C215.6,284.5,219.9,287.2,218.4,299.4z"/>
<path class="st16" d="M208.9,293.8l3.1-5.1l4.3,5.1c0,0-1.2-13.5-17-13.8c-3.6-0.3-6.9,1.9-8,5.3c2.8,4.5,10.1,9.3,10.1,9.3l2.9-4.4
	L208.9,293.8z"/>
<path class="st24" d="M207.9,292.1l-2.9-3c0,0-7.6-3-10.2-5.3c1.7-1.3,2.6-3.3,3-5.8c0.3-1.7,0.4-3.5,0.4-5.3c0,0,0.7-0.7,3.4-0.7
	c6.2,0,7.3,1.8,7.3,1.8c-1.1,3-2.3,7.5-0.1,10.2c0.5,0.6,1.1,1.1,1.8,1.5C210.6,285.6,212.9,288.5,207.9,292.1z"/>
<path class="st6" d="M208.8,284.1c-6.1-0.8-9.3-3.5-11-6.1c0.3-1.7,0.4-3.5,0.4-5.3c0,0,0.7-0.7,3.4-0.7c6.2,0,7.3,1.8,7.3,1.8
	C207.8,276.9,206.6,281.3,208.8,284.1z"/>
<path class="st1" d="M218.7,250.4c0,0,3.9,5.1,0.5,10.5c-3.4,5.5-8.6-8.6-8.6-8.6L218.7,250.4z"/>
<path class="st24" d="M192.6,257.2c0.6,8.5,0.4,13.5,5.3,17.9c7.3,6.6,19.1,2.7,21.4-5.8c2.1-7.6,0.8-20.3-8.6-23.6
	S192,248.7,192.6,257.2z"/>
<path class="st1" d="M209.9,262.2c-0.1,0.7,0.3,1.4,0.8,1.4s0.9-0.5,1-1.3s-0.3-1.4-0.8-1.4S209.9,261.4,209.9,262.2z"/>
<path class="st1" d="M216.2,262.2c-0.1,0.7,0.3,1.4,0.8,1.4s0.9-0.5,1-1.3s-0.3-1.4-0.8-1.4S216.3,261.4,216.2,262.2z"/>
<path class="st1" d="M210.9,256.6c0.1-0.1,0.1-0.1,0.1-0.2c0-0.2-0.2-0.5-0.4-0.5c-1.4-0.2-2.8,0.4-3.8,1.4
	c-0.2,0.2-0.1,0.5,0.1,0.6l0,0l0,0c0.2,0.1,0.5,0.1,0.6-0.1l0,0c0.8-0.8,1.9-1.2,3-1.1C210.7,256.8,210.8,256.8,210.9,256.6z"/>
<path class="st1" d="M219.8,257.9c0.1,0,0.2-0.1,0.3-0.1c0.2-0.2,0.2-0.4,0-0.6c-1-1-2.5-1.4-3.9-1c-0.2,0.1-0.4,0.3-0.3,0.5l0,0
	l0,0c0.1,0.2,0.3,0.4,0.6,0.3l0,0c1.1-0.2,2.3,0.1,3.1,0.9C219.6,257.9,219.7,258,219.8,257.9z"/>
<path class="st19" d="M214.3,264.1l2.1,1.9c0,0-0.6,0.9-2.7,0.9L214.3,264.1z"/>
<path class="st1" d="M214.4,268.7c-0.7,1.1-1.2,2.2-1.8,3.3l-0.6-0.2c-2.9-0.8-4-2.1-4.3-3.3c-0.2-0.6-0.2-1.2,0-1.8
	c0.1-0.3,0.2-0.7,0.4-1c1.3,1.3,3.9,2.3,5.4,2.7C214,268.6,214.4,268.7,214.4,268.7z"/>
<path class="st3" d="M213.4,268.5l-0.5,1c-2.7-0.7-4.6-1.6-5.2-2.7c0.1-0.3,0.2-0.7,0.4-1C209.3,267.1,212,268,213.4,268.5z"/>
<path class="st20" d="M212,271.9c-2.9-0.8-4-2.1-4.3-3.3c1.1,0.3,2.1,0.8,3,1.5C211.3,270.5,211.8,271.2,212,271.9z"/>
<path class="st1" d="M198.6,264.7c0,0,5.6-2.9,4.8-11c0,0,4,1.5,6.5-1.7c0,0,4.7,4,7.7-0.3l1.1-1.4c0,0,1.3-1.7-0.7-4.5
	c-1.2-1.6-3.3-2.4-5.3-1.9c0,0-1.2-1.7-5.9-2.3c-2.6-0.5-5.3,0.8-6.6,3.1c-2.3-0.8-4.8-0.4-6.7,1.3c-3.1,2.8-2.1,7.1-2.1,7.1
	s-2.9,0.1-3.1,4.9c-0.2,4.8,3.1,6,3.1,6s-1.9,1.3,0,5.3s4.7,3.9,4.7,3.9L198.6,264.7z"/>
<path class="st24" d="M199.6,263.1c0,0-1.6-4.9-4.1-3.7s-2.9,9.2,0.7,9.5S201,265.8,199.6,263.1z"/>
<line class="st21" x1="232.2" y1="304.8" x2="238.6" y2="321.5"/>
<path class="st6" d="M217.2,317.9c-0.1,3.1-0.2,6.2-0.3,9.1c-4.8,0.6-13.7,1.4-18.3,0.1c-8.2-2.3-20.7-17.6-18.2-28.7
	s8.3-9.5,8.3-9.5s15.2,12.7,22,25.7L217.2,317.9z"/>
<path class="st24" d="M198.1,302.6c0,0,8.9,9.2,10.8,10.5s19.5,4.2,19.5,4.2s6.1-1.6,8.2-1.8s5.6,6.7,5.6,6.7s-9.1,2.1-11.9,0.9
	c0,0-18.7,0.1-22.8-1s-14.8-8.5-14.8-8.5L198.1,302.6z"/>
<path class="st16" d="M182.7,289.1c7-6.5,21.2,17.6,21.2,17.6l-8.6,10.6C195.3,317.3,167.5,303.1,182.7,289.1z"/>
<path class="st5" d="M182.7,289.1c7-6.5,21.2,17.6,21.2,17.6l-8.6,10.6C195.3,317.3,167.5,303.1,182.7,289.1z"/>
<polygon class="st16" points="193.5,317.8 203.9,305.1 205.8,307.9 196.8,319.9 "/>
<path class="st1" d="M222.9,324.7l-3.3,13c-0.5,2-2.3,3.3-4.3,3.4h-52l-0.9-4.8h48.7c0.5,0,1-0.4,1.1-0.9l2.6-10.6L222.9,324.7z"/>
<path class="st14" d="M222.9,324.7l-3.3,13c-0.5,2-2.3,3.3-4.3,3.4h-52l-0.9-4.8h48.7c0.5,0,1-0.4,1.1-0.9l2.6-10.6L222.9,324.7z"/>
<path class="st1" d="M199.7,322.6h67.6c0.8,0,1.4,0.6,1.4,1.4v1.3c0,0.8-0.6,1.4-1.4,1.4h-67.6c-0.8,0-1.4-0.6-1.4-1.4V324
	C198.3,323.3,198.9,322.6,199.7,322.6z"/>
<path class="st5" d="M268.7,324v1.4c0,0.8-0.6,1.4-1.4,1.4l0,0h-67.7c-0.8,0-1.4-0.6-1.4-1.4l0,0V324c0-0.8,0.6-1.4,1.4-1.4l0,0
	h67.7C268.1,322.6,268.7,323.2,268.7,324L268.7,324z"/>
<path class="st15" d="M268.7,324v1.4c0,0.8-0.6,1.4-1.4,1.4l0,0h-32.7c-0.8,0-1.4-0.6-1.4-1.4l0,0V324c0-0.8,0.6-1.4,1.4-1.4l0,0
	h32.7C268.1,322.6,268.7,323.2,268.7,324L268.7,324z"/>
<polygon class="st16" points="203,214.3 205.3,232.9 207.7,214.3 "/>
<path class="st16" d="M192.4,187.3h25.8c2,0,3.7,1.6,3.7,3.7v25.8c0,2-1.6,3.7-3.7,3.7h-25.8c-2,0-3.7-1.6-3.7-3.7V191
	C188.7,189,190.4,187.3,192.4,187.3z"/>
<path class="st3" d="M212.4,200.9c0-3.9-3.3-7.1-7.2-7s-7.1,3.3-7,7.2c0,2.2,1.1,4.3,2.8,5.6c0.4,0.3,0.7,0.8,0.8,1.3l0.1,0.6
	l7.1-0.1l0.1-0.6c0.1-0.5,0.3-1,0.8-1.3C211.5,205.2,212.5,203.1,212.4,200.9z"/>
<path class="st25" d="M204,209.1c0,0-0.2-3.4-1.6-5.2h1l0.5-1.5l1,2.7l0.6-2.9l0.9,3l0.5-1.4h1.5c-1.2,1.5-1.9,3.4-1.8,5.4"/>
<path class="st1" d="M205.4,208.9c-1.4-0.2-2.8,0.8-2.9,2.3c-0.2,1.4,0.8,2.8,2.3,2.9c1.4,0.2,2.8-0.8,2.9-2.3c0-0.1,0-0.2,0-0.3
	C207.8,210.2,206.8,209,205.4,208.9z"/>
<path class="st16" d="M206.7,213.1h-2.5c-1.3,0-2.3-0.9-2.4-2.2l-0.2-2.4c0-0.2,0.1-0.4,0.3-0.4l0,0l7-0.1c0.2,0,0.4,0.2,0.4,0.3
	l0,0l-0.2,2.4C209,212.1,208,213.1,206.7,213.1z"/>
<path class="st5" d="M206.7,213.1h-2.5c-1.3,0-2.3-0.9-2.4-2.2l-0.2-2.4c0-0.2,0.1-0.4,0.3-0.4l0,0l7-0.1c0.2,0,0.4,0.2,0.4,0.3l0,0
	l-0.2,2.4C209,212.1,208,213.1,206.7,213.1z"/>
<g id="freepik--Board--inject-1">
	<polygon class="st1" points="586.4,379.6 586.4,278.9 576.4,278.9 576.4,379.6 570,381.6 570,384.6 592.8,384.6 592.8,381.6 	"/>
	<polygon class="st1" points="458.9,278.9 448.9,278.9 448.9,379.6 442.5,381.6 442.5,384.6 465.3,384.6 465.3,381.6 458.9,379.6 	
		"/>
	<g class="st26">
		<polygon class="st3" points="586.4,290.8 576.4,290.8 576.4,379.6 570,381.6 570,384.6 592.8,384.6 592.8,381.6 586.4,379.6 		"/>
		<polygon class="st3" points="458.9,290.8 448.9,290.8 448.9,379.6 442.5,381.6 442.5,384.6 465.3,384.6 465.3,381.6 458.9,379.6 
					"/>
	</g>
	<rect x="417.9" y="120.4" class="st1" width="199.5" height="162.2"/>
	<rect x="417.9" y="120.4" class="st9" width="199.5" height="162.2"/>
	<rect x="422.3" y="124.9" class="st16" width="190.7" height="153.1"/>
	<rect x="422.3" y="124.9" class="st15" width="190.7" height="153.1"/>
	<polygon class="st27" points="443.9,138.6 443.9,180.1 509.9,180.1 	"/>
	<polyline class="st28" points="447.2,180.2 447.2,176.8 443.8,176.8 	"/>
	<g>
		<g class="st29">
			<path class="st1" d="M478.8,153.7c-0.3,0-0.6-0.1-0.9-0.2c-0.3-0.1-0.5-0.4-0.6-0.6l0.2-0.1l-0.1,0.9h-0.7v-6.5h0.8v3.1l-0.2-0.1
				c0.1-0.2,0.4-0.4,0.6-0.6c0.3-0.1,0.6-0.2,0.9-0.2c0.4,0,0.7,0.1,1,0.3c0.3,0.2,0.5,0.5,0.7,0.8c0.2,0.3,0.2,0.7,0.2,1.1
				c0,0.4-0.1,0.8-0.3,1.1c-0.2,0.3-0.4,0.6-0.7,0.8S479.2,153.7,478.8,153.7z M478.7,153c0.2,0,0.5-0.1,0.6-0.2
				c0.2-0.1,0.3-0.3,0.4-0.6c0.1-0.2,0.1-0.5,0.1-0.8c0-0.3,0-0.5-0.1-0.8s-0.2-0.4-0.4-0.5c-0.2-0.1-0.4-0.2-0.6-0.2
				c-0.2,0-0.4,0.1-0.6,0.2c-0.2,0.1-0.3,0.3-0.5,0.5c-0.1,0.2-0.2,0.5-0.2,0.8c0,0.4,0.1,0.6,0.2,0.9s0.3,0.4,0.5,0.5
				C478.3,152.9,478.5,153,478.7,153z"/>
		</g>
	</g>
	<g>
		<g class="st29">
			<path class="st1" d="M446.8,216.3c-0.3,0-0.6-0.1-0.9-0.2c-0.3-0.1-0.5-0.4-0.6-0.6l0.2-0.1l-0.1,0.9h-0.7v-6.5h0.8v3.1l-0.2-0.1
				c0.1-0.2,0.4-0.4,0.6-0.6c0.3-0.1,0.6-0.2,0.9-0.2c0.4,0,0.7,0.1,1,0.3c0.3,0.2,0.5,0.5,0.7,0.8c0.2,0.3,0.2,0.7,0.2,1.1
				c0,0.4-0.1,0.8-0.3,1.1c-0.2,0.3-0.4,0.6-0.7,0.8S447.1,216.3,446.8,216.3z M446.7,215.6c0.2,0,0.5-0.1,0.6-0.2
				c0.2-0.1,0.3-0.3,0.4-0.6c0.1-0.2,0.1-0.5,0.1-0.8c0-0.3,0-0.5-0.1-0.8s-0.2-0.4-0.4-0.5c-0.2-0.1-0.4-0.2-0.6-0.2
				c-0.2,0-0.4,0.1-0.6,0.2c-0.2,0.1-0.3,0.3-0.5,0.5c-0.1,0.2-0.2,0.5-0.2,0.8c0,0.4,0.1,0.6,0.2,0.9s0.3,0.4,0.5,0.5
				C446.2,215.5,446.4,215.6,446.7,215.6z"/>
		</g>
	</g>
	<g>
		<g class="st29">
			<path class="st1" d="M469.6,188.6c-0.5,0-0.9-0.1-1.2-0.3s-0.6-0.5-0.7-0.8c-0.2-0.3-0.3-0.7-0.3-1.1c0-0.4,0.1-0.8,0.2-1.1
				c0.2-0.3,0.4-0.6,0.7-0.8c0.3-0.2,0.8-0.3,1.3-0.3c0.2,0,0.4,0,0.6,0.1c0.2,0,0.4,0.1,0.5,0.2l-0.1,0.7c-0.2-0.1-0.3-0.1-0.5-0.2
				c-0.2,0-0.4-0.1-0.6-0.1c-0.5,0-0.8,0.1-1.1,0.4c-0.2,0.3-0.4,0.6-0.4,1.1c0,0.5,0.1,0.8,0.4,1.1c0.2,0.3,0.6,0.4,1.1,0.4
				c0.2,0,0.4,0,0.6-0.1c0.2,0,0.4-0.1,0.5-0.2l0.1,0.6c-0.1,0.1-0.3,0.2-0.5,0.2S469.8,188.6,469.6,188.6z"/>
		</g>
	</g>
	<g>
		<g class="st29">
			<path class="st1" d="M446.6,229c-0.5,0-0.9-0.1-1.2-0.3s-0.6-0.5-0.7-0.8c-0.2-0.3-0.3-0.7-0.3-1.1c0-0.4,0.1-0.8,0.2-1.1
				c0.2-0.3,0.4-0.6,0.7-0.8c0.3-0.2,0.8-0.3,1.3-0.3c0.2,0,0.4,0,0.6,0.1c0.2,0,0.4,0.1,0.5,0.2l-0.1,0.7c-0.2-0.1-0.3-0.1-0.5-0.2
				c-0.2,0-0.4-0.1-0.6-0.1c-0.5,0-0.8,0.1-1.1,0.4c-0.2,0.3-0.4,0.6-0.4,1.1c0,0.5,0.1,0.8,0.4,1.1c0.2,0.3,0.6,0.4,1.1,0.4
				c0.2,0,0.4,0,0.6-0.1c0.2,0,0.4-0.1,0.5-0.2l0.1,0.6c-0.1,0.1-0.3,0.2-0.5,0.2S446.9,229,446.6,229z"/>
		</g>
	</g>
	<g>
		<g class="st29">
			<path class="st1" d="M438,163.6c-0.3,0-0.5-0.1-0.7-0.2c-0.2-0.1-0.3-0.3-0.5-0.4s-0.2-0.4-0.2-0.6c0-0.2,0.1-0.4,0.2-0.6
				c0.1-0.2,0.2-0.3,0.4-0.4s0.4-0.2,0.6-0.3c0.2-0.1,0.4-0.1,0.7-0.1c0.2,0,0.5,0,0.7,0c0-0.4-0.1-0.7-0.2-0.8
				c-0.2-0.1-0.4-0.2-0.7-0.2c-0.2,0-0.3,0-0.5,0.1c-0.2,0-0.4,0.2-0.6,0.3l-0.1-0.6c0.2-0.1,0.4-0.2,0.6-0.3
				c0.3-0.1,0.5-0.1,0.8-0.1c0.4,0,0.6,0.1,0.9,0.2c0.2,0.1,0.4,0.3,0.5,0.6c0.1,0.3,0.2,0.7,0.2,1.2v0.9c0,0.2,0,0.4,0,0.5
				c0,0.1,0.1,0.2,0.1,0.3c0.1,0.1,0.2,0.1,0.3,0.1h0.1l-0.1,0.6h-0.1c-0.3,0-0.4,0-0.6-0.1c-0.1,0-0.2-0.1-0.3-0.2
				s-0.1-0.2-0.2-0.3c-0.2,0.2-0.3,0.3-0.6,0.5C438.5,163.5,438.3,163.6,438,163.6z M438.2,162.9c0.2,0,0.4-0.1,0.6-0.2
				c0.2-0.1,0.4-0.2,0.5-0.4v-1c-0.4,0-0.7,0.1-1,0.1c-0.3,0.1-0.4,0.2-0.6,0.3c-0.1,0.1-0.2,0.3-0.2,0.5c0,0.2,0.1,0.4,0.2,0.5
				S438,162.9,438.2,162.9z"/>
		</g>
	</g>
	<g>
		<g class="st29">
			<path class="st1" d="M445.7,203.6c-0.3,0-0.5-0.1-0.7-0.2c-0.2-0.1-0.3-0.3-0.5-0.4s-0.2-0.4-0.2-0.6c0-0.2,0.1-0.4,0.2-0.6
				c0.1-0.2,0.2-0.3,0.4-0.4s0.4-0.2,0.6-0.3c0.2-0.1,0.4-0.1,0.7-0.1c0.2,0,0.5,0,0.7,0c0-0.4-0.1-0.7-0.2-0.8
				c-0.2-0.1-0.4-0.2-0.7-0.2c-0.2,0-0.3,0-0.5,0.1c-0.2,0-0.4,0.2-0.6,0.3l-0.1-0.6c0.2-0.1,0.4-0.2,0.6-0.3
				c0.3-0.1,0.5-0.1,0.8-0.1c0.4,0,0.6,0.1,0.9,0.2c0.2,0.1,0.4,0.3,0.5,0.6c0.1,0.3,0.2,0.7,0.2,1.2v0.9c0,0.2,0,0.4,0,0.5
				c0,0.1,0.1,0.2,0.1,0.3c0.1,0.1,0.2,0.1,0.3,0.1h0.1l-0.1,0.6h-0.1c-0.3,0-0.4,0-0.6-0.1c-0.1,0-0.2-0.1-0.3-0.2
				s-0.1-0.2-0.2-0.3c-0.2,0.2-0.3,0.3-0.6,0.5C446.2,203.5,445.9,203.6,445.7,203.6z M445.8,202.9c0.2,0,0.4-0.1,0.6-0.2
				c0.2-0.1,0.4-0.2,0.5-0.4v-1c-0.4,0-0.7,0.1-1,0.1c-0.3,0.1-0.4,0.2-0.6,0.3c-0.1,0.1-0.2,0.3-0.2,0.5c0,0.2,0.1,0.4,0.2,0.5
				S445.6,202.9,445.8,202.9z"/>
		</g>
	</g>
	<line class="st27" x1="525.4" y1="139.1" x2="561.8" y2="139.1"/>
	<line class="st27" x1="525.4" y1="146.4" x2="545.4" y2="146.4"/>
	<line class="st27" x1="525.4" y1="151.8" x2="553.6" y2="151.8"/>
	<line class="st27" x1="525.4" y1="158.2" x2="549.1" y2="158.2"/>
	<line class="st27" x1="525.4" y1="165.5" x2="560.9" y2="165.5"/>
	<line class="st27" x1="525.4" y1="171.9" x2="560" y2="171.9"/>
	<line class="st27" x1="525.4" y1="178.2" x2="549.1" y2="178.2"/>
	<line class="st27" x1="566.4" y1="233.8" x2="591" y2="233.8"/>
	<line class="st27" x1="566.4" y1="241.1" x2="580.1" y2="241.1"/>
	<line class="st27" x1="566.4" y1="246.6" x2="585.5" y2="246.6"/>
	<line class="st27" x1="566.4" y1="253" x2="582.8" y2="253"/>
	<line class="st27" x1="441.6" y1="245.7" x2="466.2" y2="245.7"/>
	<line class="st27" x1="441.6" y1="253" x2="455.2" y2="253"/>
	<line class="st27" x1="441.6" y1="258.4" x2="460.7" y2="258.4"/>
	<line class="st27" x1="441.6" y1="264.8" x2="458" y2="264.8"/>
	<line class="st27" x1="573.7" y1="151.8" x2="597.4" y2="151.8"/>
	<line class="st27" x1="573.7" y1="158.2" x2="597.4" y2="158.2"/>
	<line class="st27" x1="573.7" y1="164.6" x2="590.1" y2="164.6"/>
	<line class="st27" x1="503.5" y1="245.7" x2="527.2" y2="245.7"/>
	<line class="st27" x1="503.5" y1="252" x2="527.2" y2="252"/>
	<line class="st27" x1="503.5" y1="258.4" x2="519.9" y2="258.4"/>
	<line class="st27" x1="458.9" y1="203.8" x2="511.7" y2="203.8"/>
	<line class="st27" x1="458.9" y1="215.6" x2="511.7" y2="215.6"/>
	<line class="st27" x1="458.9" y1="227.4" x2="511.7" y2="227.4"/>
	<circle class="st28" cx="546.8" cy="217.2" r="16.6"/>
	<polyline class="st27" points="546.8,200.6 546.8,217.4 563.7,217.4 	"/>
	<rect x="422.3" y="124.9" class="st5" width="190.7" height="153.1"/>
</g>
<g id="freepik--Teacher--inject-1">
	<path class="st24" d="M541.1,207.5l-14.1-8.2c-2.2,0.2-4.5,0.1-6.7-0.3c-3.6-0.6-4.4-0.7-4-3.5c0.4-2.9-0.2-6.7,0.9-7.1
		s8.8,2.8,10.1,5l14.2,5.1L541.1,207.5z"/>
	<path class="st16" d="M582.8,193.6V210c0,0-3.5,1.2-7.8,2.4c-5,1.4-11.1,2.8-14.2,2.7c-5.9-0.3-26-10.7-26-10.7l3.6-6.9
		c0,0,21.9,7.5,24.6,6.9C565.7,203.9,582.8,193.6,582.8,193.6z"/>
	<path class="st6" d="M582.8,201.6v8.4c0,0-3.5,1.2-7.8,2.4C576.6,207.5,580.6,203.5,582.8,201.6z"/>
	<path class="st24" d="M586.4,252c0,0-9.9,52.6-12.5,74.2c-3.4,28.2-17.5,69.4-17.5,69.4l5.6,1.5c0,0,19.8-35,23.7-66.6
		c15.8-32.2,17-71.9,17-71.9L586.4,252z"/>
	<path class="st1" d="M546,408.4c0.9-0.4,1.9-0.7,2.9-0.7l0,0c0,0,3.5-2,6.9-9.9h3.9c1.3,0,2.5,0.9,3,2.1c0.1,0.2,0.1,0.4,0.1,0.5
		c0,0.9-0.1,1.8-0.3,2.7c-0.6,3.1-1.3,6.1-2.3,9.1l-0.7-0.2l1.2-5.7c0.4-2-1.7-0.1-2.6,1.9c-1,2-2.4,4-6.7,3
		C546.4,410,544.4,409.3,546,408.4z"/>
	<path class="st24" d="M596.7,251.1c0,0,1.2,53.5,3.1,75.2c2.5,28.3-2.8,71.5-2.8,71.5l5.8,0.3c0,0,12.2-38.4,9.4-70
		c8.8-34.8,1.8-73.9,1.8-73.9L596.7,251.1z"/>
	<path class="st1" d="M588,410.2c0.9-0.5,1.8-0.9,2.8-1l0,0c0,0,3.2-2.4,5.8-10.6l3.8-0.4c1.3-0.1,2.6,0.6,3.2,1.8
		c0.1,0.2,0.1,0.3,0.2,0.5c0.1,0.9,0.1,1.9,0,2.8c-0.2,3.1-0.7,6.2-1.3,9.3l-0.7-0.1l0.6-5.8c0.2-2-1.7,0.1-2.4,2.2s-2,4.2-6.3,3.7
		C588.6,411.7,586.6,411.2,588,410.2z"/>
	<path class="st1" d="M616.4,160.1c0,0,2.9,0.2,5.3,4.9c2.4,4.7-0.6,10-1.2,12.5s-3.6,4.8,1.4,8.6s8,7.9,4,12
		c-4.1,4.1,0.4,7.3-5.5,10.4c-5.9,3.1-27.5-1.5-30.2-7.4s0.6-10.4,0.7-12.2c0.2-1.8-3.5-3.6-4.4-9.4c-0.9-5.8,3.8-7,4.4-9.7
		c0.6-2.6-2.3-6,0-11.6C593.1,152.6,616,151.4,616.4,160.1z"/>
	<path class="st16" d="M630.9,238.9c-3.5,0.4-7.4-6.3-10.3-12.6c-2.5-5.3-4.2-10.3-4.2-10.3l1.8-5.1l4.8-13.4c0,0,3.3,4.6,8.3,22.3
		c0.8,2.8,1.8,6,2.7,9.6c0,0.9,0.3,1.8,0.8,2.5l0,0C634.7,234.5,635,238.4,630.9,238.9z"/>
	<path class="st6" d="M620.5,226.3c-2.5-5.3-4.2-10.3-4.2-10.3l1.8-5.1C619.4,214.4,621.3,220.8,620.5,226.3z"/>
	<path class="st6" d="M634.7,231.8L634.7,231.8c-1.8,1.2-3.7,1.2-4.8-1c-2.2-4.4-0.1-8.8,1.4-11.1c0.8,2.8,1.7,6,2.6,9.6
		C633.9,230.2,634.2,231.1,634.7,231.8z"/>
	<path class="st16" d="M580.4,237.2c0,0,18.2,6.5,35.6,5.3c0,0-1.6-21.5-10.7-25.3S580.4,218.8,580.4,237.2z"/>
	<path class="st6" d="M580.4,237.2c0,0,18.2,6.5,35.6,5.3c0,0-1.6-21.5-10.7-25.3S580.4,218.8,580.4,237.2z"/>
	<path class="st16" d="M583,238.7l30.1,2.6c0.3-7.5,1.4-14.9,3.2-22.1c0.7-2.9,1.6-6.1,2.8-9.8c0.6-2,1.3-4.1,2.1-6.4
		c0.6-1.7,1.2-3.6,1.9-5.5c-4.1-1.3-8.3-2.3-12.5-3c-4.5-0.8-9-1.3-13.5-1.4c-5.8,0-12.6,0.6-12.6,0.6s-1,0.2-1.6,6.4
		C582.3,205.9,581.7,217.5,583,238.7z"/>
	<path class="st1" d="M583.1,243.2l30.1,2.5c0.5-7.5,0.8-17.6,3.1-26.5c0.7-2.9,1.6-6.1,2.8-9.8c0.6-2,1.3-4.1,2.1-6.4
		c0.6-1.7,1.2-3.6,1.9-5.5c-4.1-1.3-8.3-2.3-12.5-3c-4.5-0.8-9-1.3-13.5-1.4c-5.8,0-12.6,0.6-12.6,0.6s-1,0.2-1.6,6.4
		C582.3,205.9,581.9,222,583.1,243.2z"/>
	<path class="st24" d="M599.4,199.7c7.4-0.9,9.6-4.1,9.6-4.1c-4.7-4.4-0.8-12.1-0.8-12.1l-8.9,1.7c0.2,1.2,0.3,2.5,0.3,3.8
		c0.1,5.4-2.4,5.5-2.4,5.5C595.8,197.2,599.4,199.7,599.4,199.7z"/>
	<path class="st6" d="M599.4,185.1c0.2,1.2,0.3,2.5,0.3,3.8c6,0,8.6-5.5,8.6-5.5L599.4,185.1z"/>
	<path class="st24" d="M604.3,160.1c-7.8-0.4-10.5,3.6-11.5,11.6c-1.3,9.9,0.6,17.2,10.4,15.6C616.5,185.1,617.2,160.8,604.3,160.1z
		"/>
	<path class="st30" d="M597.8,171.5c-0.7,1.1-1.5,2.2-2.4,3.1c0.4,0.7,1.2,1.1,2,1L597.8,171.5z"/>
	<path class="st1" d="M602.6,171.1c0,0.6,0.3,1.2,0.7,1.2s0.8-0.5,0.9-1.1c0.1-0.6-0.3-1.2-0.7-1.2S602.7,170.5,602.6,171.1z"/>
	<path class="st1" d="M603.7,170.1l-1.3-0.7C602.3,169.4,602.9,170.7,603.7,170.1z"/>
	<path class="st1" d="M594.7,170.4c0,0.6,0.3,1.2,0.7,1.2s0.8-0.5,0.9-1.1c0.1-0.6-0.3-1.2-0.7-1.2
		C595.2,169.3,594.8,169.8,594.7,170.4z"/>
	<path class="st1" d="M595.8,169.3l-1.3-0.6C594.4,168.7,595,169.9,595.8,169.3z"/>
	<path class="st31" d="M603,165.8c1.3-0.1,2.5,0.4,3.3,1.4"/>
	<path class="st31" d="M597.4,165.2c-1.1-0.3-2.2-0.2-3.1,0.5"/>
	<path class="st1" d="M598.4,178.7c0.3,0.9,0.6,1.8,0.8,2.7c0.2,0,0.3,0,0.5,0c2.3-0.1,3.3-0.9,3.7-1.7c0.2-0.4,0.3-0.9,0.3-1.4
		c0-0.3,0-0.5-0.1-0.8c-1.4,0.7-2.8,1.1-4.4,1.2C598.7,178.7,598.4,178.7,598.4,178.7z"/>
	<path class="st3" d="M599.2,178.7l0.2,0.8c2.1-0.1,3.6-0.5,4.3-1.1c0-0.3,0-0.5-0.1-0.8C602.2,178.3,600.7,178.6,599.2,178.7z"/>
	<path class="st20" d="M599.6,181.4c2.3-0.1,3.3-0.9,3.7-1.7c-0.9,0.1-1.7,0.3-2.5,0.6C600.4,180.5,599.9,180.9,599.6,181.4z"/>
	<path class="st1" d="M612.1,173.7c0,0-3.3-6.6-2.5-11.5c0,0-15-7.1-16.6,8.4c0,0-0.7-13.9,12.6-13.5s12.2,19.9,5,25.4
		C610.6,182.5,614.1,177.8,612.1,173.7z"/>
	<path class="st24" d="M610.7,175.2c0.3-1.9,2-3.2,3.8-2.9l0,0c2.4,0.4,3.3,5.4-2.7,6.3C610.9,178.7,610.4,177.8,610.7,175.2z"/>
	<path class="st24" d="M616,196.4c0,0-8.7,7.1-16.8,6.9c-8.1-0.1-10.9-9.2-10.9-9.2S600.8,190.4,616,196.4z"/>
	<path class="st16" d="M615.2,195c0,0-14.3,25.6,0.7,47.4c0,0,2-27,7-45L615.2,195z"/>
	<path class="st16" d="M589,193c0,0-0.1,18.1-2.7,24.8s-5.9,19.3-5.9,19.3s-2.5-30.2,2.4-43.6L589,193z"/>
	<path class="st32" d="M609.6,162.2c0,0-5.8-2-10.9,0s-3.7,7.3-6.3,8.3"/>
	<path class="st33" d="M655.5,189.7l-2.4-1.4l-8.8,2.4l-11.8-3.1l-2.7,9c0,0-0.6,10,0,10.1s13.6,0.8,13.6,0.8l6.6-4.2L655.5,189.7z"
		/>
	<polygon class="st16" points="629.3,188.4 624,209.1 640.2,210.9 651.4,207.9 657,188.4 644.3,191.7 	"/>
	<polygon class="st14" points="644.3,191.7 640.2,210.9 624,209.1 629.3,188.4 	"/>
	<polygon class="st9" points="644.3,191.7 640.2,210.9 651.4,207.9 657,188.4 	"/>
	<path class="st24" d="M630.1,229.7l7.5-14.4c-0.3-2.2-0.3-4.5,0-6.7c0.5-3.6,0.5-4.5,3.3-4.2c2.9,0.3,6.7-0.5,7.1,0.6
		s-2.4,8.9-4.6,10.3l-4.4,14.4L630.1,229.7L630.1,229.7z"/>
	<path class="st16" d="M627.7,237.6c4.8,4.1,10.2,0.6,13.3-11.1l-9.4-1.2L627.7,237.6z"/>
	<polygon class="st1" points="632,222.8 630.1,226.1 642,227.7 642,224.3 	"/>
	<polygon class="st1" points="534.3,205.3 537.6,207.3 539.7,195.5 536.2,195.3 	"/>
	<path class="st16" d="M583.1,243.2l-19,111.3c0,0,45.9,5.5,61.4,2.3c0,0,3.8-79.7-12.4-111.2L583.1,243.2z"/>
	<path class="st14" d="M583.1,243.2l-19,111.3c0,0,45.9,5.5,61.4,2.3c0,0,3.8-79.7-12.4-111.2L583.1,243.2z"/>
	<path class="st1" d="M521.6,194.3l-4.7-4.9c-2.8-2.9-6.6-6.8-10.4-10.7l-5.6-5.6l-4.9-4.9l-3.5-3.5c-0.4-0.4-0.8-0.7-1-1
		c-0.2-0.1-0.4-0.1-0.6-0.1l1.3-1.3c-0.1,0.2-0.1,0.4,0.1,0.6l1,1l3.5,3.5l4.9,4.9l5.7,5.6c3.9,3.8,7.8,7.6,10.7,10.4l4.9,4.7
		L521.6,194.3z"/>
	<path class="st24" d="M556.4,395.6c0,0-4.8,10.1-7.6,12c0,0,3.7,2.2,7.6-2.7c5-6.4,6.2-4.6,6.2-4.6c-0.1-1.1-0.3-2.2-0.6-3.3
		C561.3,395,556.4,395.6,556.4,395.6z"/>
	<path class="st24" d="M597.7,395.5c0,0-1.4,3.7-3.2,7.8c-0.8,2.1-2.1,4.1-3.6,5.7c0,0,3.2,1,4.9-1s4.6-9.1,7.9-8.3
		c-0.2-0.6-0.4-1.1-0.7-1.7C602.4,397.4,597.7,395.5,597.7,395.5z"/>
</g>
</svg>
