<?xml version="1.0" encoding="utf-8"?>
<!-- Generator: Adobe Illustrator 22.1.0, SVG Export Plug-In . SVG Version: 6.00 Build 0)  -->
<svg version="1.1" id="Layer_1" xmlns="http://www.w3.org/2000/svg" xmlns:xlink="http://www.w3.org/1999/xlink" x="0px" y="0px"
	 viewBox="0 0 500 500" style="enable-background:new 0 0 500 500;" xml:space="preserve">
<style type="text/css">
	.st0{fill:#F5F5F5;}
	.st1{fill:#011627;}
	.st2{fill:#FFB573;}
	.st3{fill:#E51F37;}
	.st4{opacity:0.2;fill:#011627;enable-background:new    ;}
	.st5{fill:#ED893E;}
	.st6{clip-path:url(#SVGID_2_);}
	.st7{opacity:0.2;}
	.st8{fill:#FFFFFF;}
	.st9{opacity:0.3;fill:#011627;enable-background:new    ;}
	.st10{fill:#7F3E3B;}
	.st11{opacity:0.1;fill:#FFFFFF;enable-background:new    ;}
	.st12{fill:#630F0F;}
	.st13{opacity:0.6;fill:#FFFFFF;enable-background:new    ;}
	.st14{fill:#FFC3BD;}
	.st15{opacity:0.2;fill:#FFFFFF;enable-background:new    ;}
	.st16{fill:#ED847E;}
</style>
<g id="freepik--Shadow--inject-28">
	<ellipse id="freepik--path--inject-28" class="st0" cx="250" cy="416.2" rx="193.9" ry="11.3"/>
</g>
<g id="freepik--character-3--inject-28">
	<path class="st1" d="M367.9,135.4c-6,3.3-8,13-5.2,17.2c-10.4,3.1-5,21,12,22s29.9-5.2,21.6-18.5c8.3-11.1,4.5-23.6-2.8-22.2
		C385.8,118.4,359.7,118.8,367.9,135.4z"/>
	<path class="st1" d="M386,175.8c-2.6,0-5.2-0.7-7.4-2.1c-0.1,0-0.2-0.2-0.2-0.3c0-0.1,0.2-0.2,0.3-0.2c0,0,0.1,0,0.1,0
		c6,3.6,13.7,2.2,18.1-3.1c2.7-3.4,4-8.8-0.8-13.9c-0.1-0.1-0.1-0.3,0-0.4c0.1-0.1,0.3-0.1,0.4,0c4.9,5.3,3.6,11,0.8,14.5
		C394.5,173.8,390.4,175.8,386,175.8z"/>
	<path class="st1" d="M360.8,155.9c-0.1,0-0.2-0.1-0.2-0.2c-2.7-7.6,0.9-17.9,7.2-20.6c0.1,0,0.3,0,0.3,0.1c0.1,0.1,0,0.3-0.1,0.3
		c0,0,0,0,0,0c-6.1,2.7-9.5,12.6-6.9,20C361.1,155.7,361,155.8,360.8,155.9C360.9,155.9,360.9,155.9,360.8,155.9L360.8,155.9z"/>
	<path class="st1" d="M359.2,144.9L359.2,144.9c-0.2-0.1-0.3-0.2-0.2-0.3c1.8-4.8,5.2-8.4,8.9-9.5c0.1,0,0.3,0,0.3,0.2
		c0,0.1,0,0.3-0.2,0.3c-3.5,1-6.8,4.6-8.5,9.2C359.4,144.9,359.3,144.9,359.2,144.9z"/>
	<polygon class="st2" points="373.2,410.9 367.4,410.9 366.5,389.2 376.2,389.5 	"/>
	<path class="st3" d="M363.1,223.6c0,0-0.5,60.3-1.8,86.5c0,0.8,0,1.6,0,2.3c1.9,26.3,5,76.8,5,76.8l9.8,0.3c0,0,8.5-40.4,3.3-76.9
		c8.5-41.3,13.1-78.2,5.4-89L363.1,223.6z"/>
	<path class="st4" d="M379.5,247.5c-3,10.1-0.1,42.4,1.5,57.3c2.1-10.8,3.9-21.1,5.2-30.7L379.5,247.5z"/>
	<path class="st1" d="M366.8,408.1h7.5c0.3,0,0.6,0.2,0.6,0.6l0.8,6.1c0,0.8-0.6,1.4-1.4,1.5c0,0,0,0,0,0c-3.3,0-4.9-0.2-9.1-0.2
		c-2.6,0-4.1,0.3-7.7,0.3s-3.5-3.4-2.1-3.7c6.7-1.4,7.5-2.2,9.9-4C365.7,408.3,366.3,408.1,366.8,408.1z"/>
	<path class="st2" d="M369.2,179.2c-0.4,2.1-0.8,4-1.2,6s-0.9,4-1.4,6c-1,4-2.1,7.9-3.6,11.9c-0.7,2-1.6,4.1-2.5,6
		c-0.5,1.1-1.1,2.1-1.8,3.1c-0.2,0.3-0.4,0.5-0.6,0.8c-0.2,0.3-0.5,0.6-0.8,0.9c-0.8,0.7-1.7,1.3-2.7,1.6c-1.1,0.3-2.2,0.4-3.3,0.1
		c-0.9-0.2-1.7-0.5-2.4-1c-1.1-0.7-2.1-1.6-2.9-2.7c-1.4-1.8-2.5-3.7-3.4-5.9c-0.4-1.1,0.1-2.3,1.2-2.7c0.8-0.3,1.7-0.1,2.3,0.5
		l0.1,0.1c1.2,1.3,2.6,2.5,4,3.6c0.6,0.4,1.2,0.8,1.8,1c0.2,0.1,0.4,0.1,0.4,0s-0.1-0.1-0.3-0.1s-0.2,0.1-0.2,0
		c0-0.1,0.1-0.2,0.2-0.3c0.1-0.1,0.2-0.3,0.3-0.4c0.4-0.7,0.8-1.4,1.1-2.1c0.7-1.7,1.4-3.5,1.9-5.2c1.1-3.7,2.2-7.5,3.1-11.3
		s1.8-7.7,2.6-11.6l0,0c0.5-2.3,2.8-3.7,5-3.1C368.1,175,369.5,177.1,369.2,179.2L369.2,179.2z"/>
	<path class="st1" d="M360.1,215.4c0,2.5,38.3,2.9,38.3-0.3l-19.6-5L360.1,215.4"/>
	<path class="st2" d="M367.2,172.8c10.1-1.7,20.4-1.6,30.5,0.3c2.4,0.4,4,2.6,3.6,5c0,0.1,0,0.2-0.1,0.3
		c-5.4,24.3-5.1,32.4-4.6,45.2h-33.5c-1.7-21.3-2.6-33.5-2.8-40.4C360.2,177.9,362,173.6,367.2,172.8z"/>
	<path class="st4" d="M397.6,179.8c-0.2,3.4,0.2,6.8,1.3,10c0.4-2.3,0.9-4.8,1.5-7.5L397.6,179.8z"/>
	<path class="st2" d="M386.7,155.1c-1,4.9-1.9,13.8,1.5,17c0,0-1.3,4.9-10.4,4.9c-9.9,0-4.8-4.9-4.8-4.9c5.4-1.3,5.3-5.3,4.3-9.1
		L386.7,155.1z"/>
	<path class="st4" d="M382.9,158.3l-5.5,4.7c0.2,0.9,0.4,1.8,0.5,2.7c2.1-0.3,4.9-2.6,5.1-4.7C383.1,160.1,383.1,159.2,382.9,158.3z
		"/>
	<path class="st2" d="M391.9,146.6c-1.9,7.9-2.5,11.3-7.2,14.7c-7.1,5.1-16.4,1.1-17-7.2c-0.5-7.5,2.6-19.2,11-21
		c6-1.3,11.9,2.4,13.3,8.4C392.4,143.2,392.3,145,391.9,146.6z"/>
	<path class="st1" d="M388.9,134.7c-8.4,0.9-5.8,16.6,0.5,18.1C396.8,149.2,401.3,135.5,388.9,134.7z"/>
	<polygon class="st2" points="429.9,396.6 424.1,398.4 415.7,380.7 424.6,378.2 	"/>
	<path class="st1" d="M422.5,396.6l7.4-2.9c0.3-0.1,0.6,0,0.7,0.3l3.3,5.6c0.3,0.5,0.1,1.2-0.4,1.5c0,0-0.1,0.1-0.2,0.1
		c-2.6,1-3.9,1.5-7.1,2.8c-2,0.8-5.1,3.4-7.9,4.5s-4-1.5-3-2.4c2.7-2.4,4.8-5.3,6.2-8.6C421.7,397,422.1,396.7,422.5,396.6z"/>
	<path class="st3" d="M372.4,223.6c0,0,12.3,63.1,17,88c4.8,26,26.4,69.1,26.4,69.1l8.9-2.4c0,0-12.2-46.1-17.9-68.9
		c-1.1-41.3,0.2-75-10-85.8L372.4,223.6z"/>
	<path class="st1" d="M378.8,146.6c-0.1,0.6-0.5,1.1-1,1s-0.7-0.7-0.6-1.3s0.5-1.1,1-1.1S378.9,145.9,378.8,146.6z"/>
	<path class="st1" d="M371.5,145.3c-0.1,0.6-0.5,1.1-1,1s-0.7-0.6-0.6-1.3s0.5-1.1,1-1S371.6,144.7,371.5,145.3z"/>
	<path class="st1" d="M371.1,144.1l-1.5-0.7C369.6,143.4,370.2,144.7,371.1,144.1z"/>
	<path class="st5" d="M373.5,146.9c-0.8,1.4-1.8,2.6-3,3.8c0.6,0.6,1.4,0.9,2.2,0.8L373.5,146.9z"/>
	<path class="st1" d="M375.9,154.6c-0.3,0-0.7,0-1-0.1c-0.1,0-0.2-0.1-0.2-0.2c0,0,0,0,0,0c0-0.1,0.1-0.2,0.2-0.2
		c1.6,0.3,3.3-0.2,4.5-1.3c0.1-0.1,0.2-0.1,0.3,0c0,0,0,0,0,0c0.1,0.1,0.1,0.2,0,0.3C378.7,154.1,377.3,154.7,375.9,154.6z"/>
	<path class="st2" d="M393.1,153.5c-0.8,1.4-2.1,2.3-3.6,2.8c-2,0.5-3-1.3-2.4-3.2c0.5-1.7,2.2-4,4.2-3.7c1.5,0.3,2.4,1.7,2.2,3.1
		C393.4,152.8,393.3,153.2,393.1,153.5z"/>
	<path class="st1" d="M382,145.6c-0.2,0-0.3-0.1-0.4-0.3c-0.5-1.7-2.7-2.4-2.7-2.4c-0.2-0.1-0.3-0.3-0.3-0.5c0,0,0,0,0,0
		c0.1-0.2,0.3-0.3,0.5-0.3c0,0,0,0,0,0c0.1,0,2.6,0.9,3.2,3c0.1,0.2-0.1,0.4-0.3,0.5c0,0,0,0,0,0L382,145.6z"/>
	<path class="st1" d="M369.8,141.6c-0.1,0-0.3-0.1-0.3-0.2c-0.1-0.2,0-0.4,0.1-0.5c1.1-0.6,2.4-0.7,3.5-0.2c0.2,0.1,0.3,0.3,0.2,0.5
		c-0.1,0.2-0.3,0.3-0.5,0.2l0,0c-0.9-0.4-2-0.3-2.8,0.2C370,141.5,369.9,141.6,369.8,141.6z"/>
	<path class="st2" d="M400.4,174.5c2.9,3.7,5.4,7.5,7.9,11.5c1.2,2,2.4,4,3.5,6.1c1.2,2.2,2.2,4.5,3,6.9c0.1,0.3,0.2,0.7,0.3,1
		l0.1,0.3l0.1,0.4c0,0.3,0.1,0.5,0.1,0.8c0,0.9,0,1.7-0.2,2.6c-0.3,1.4-0.7,2.7-1.3,3.9c-1,2.2-2.2,4.4-3.5,6.4
		c-2.5,3.9-5.4,7.6-8.5,11.1c-0.8,0.9-2.1,0.9-2.9,0.2c-0.7-0.7-0.9-1.7-0.4-2.6v-0.1c2.2-3.9,4.4-7.8,6.3-11.7
		c0.9-1.9,1.7-3.8,2.4-5.8c0.3-0.8,0.5-1.7,0.6-2.6c0-0.3,0-0.5,0-0.8V202l0,0v-0.1c-0.1-0.2-0.1-0.4-0.2-0.6
		c-0.8-1.9-1.7-3.7-2.7-5.4c-1.1-1.9-2.3-3.7-3.5-5.6c-2.4-3.7-5-7.3-7.6-10.9l0,0c-1.3-1.9-0.9-4.5,1-5.8
		C396.7,172.3,399.2,172.7,400.4,174.5L400.4,174.5z"/>
	<path class="st1" d="M378.4,145.4l-1.5-0.7C376.9,144.6,377.5,146,378.4,145.4z"/>
	<path class="st1" d="M361.3,180.8c0.6-2.5,1.4-5,2.4-7.4c1.5-0.5,3.1-0.8,4.7-1c3.2,2.9,5.9,6.3,7.8,10.2
		c4.3-4.3,12.5-8.7,17.5-10.3c1.7-0.1,3.4,0.1,5,0.6c-3.4,10.8-6.9,21.6-0.7,24.4c-0.1,5.1,0.2,11.4,0.4,17.9
		c-5.8-0.6-29-1.8-38.3,0.3c-0.5-6.5-0.6-12-0.6-16.8C355.1,193.1,359.5,185.5,361.3,180.8z"/>
	<g>
		<defs>
			<path id="SVGID_1_" d="M361.3,180.8c0.6-2.5,1.4-5,2.4-7.4c1.5-0.5,3.1-0.8,4.7-1c3.2,2.9,5.9,6.3,7.8,10.2
				c4.3-4.3,12.5-8.7,17.5-10.3c1.7-0.1,3.4,0.1,5,0.6c-3.4,10.8-6.9,21.6-0.7,24.4c-0.1,5.1,0.2,11.4,0.4,17.9
				c-5.8-0.6-29-1.8-38.3,0.3c-0.5-6.5-0.6-12-0.6-16.8C355.1,193.1,359.5,185.5,361.3,180.8z"/>
		</defs>
		<clipPath id="SVGID_2_">
			<use xlink:href="#SVGID_1_"  style="overflow:visible;"/>
		</clipPath>
		<g class="st6">
			<g class="st7">
				<path class="st8" d="M370.5,200.8c-0.1,0-0.2,0.1-0.2,0.2c-0.7,2-0.7,4.2,0.1,6.1c-0.7-0.6-1.4-1.1-2-1.7
					c1.1-2.5,0.8-5.3-0.9-7.5c-0.1-0.1-0.2-0.1-0.3-0.1c-0.1,0-0.2,0.1-0.2,0.2c-0.7,2-0.7,4.3,0.1,6.3c-0.9-0.8-1.8-1.6-2.5-2.4
					l0,0c1.2-2.5,0.9-5.4-0.8-7.6c-0.1-0.1-0.2-0.1-0.3-0.1c-0.1,0-0.2,0.1-0.2,0.2c-0.7,2-0.7,4.3,0.1,6.3
					c-1.4-1.4-2.5-2.7-3.4-3.8c-0.6-2.5-2.5-4.4-4.9-5.2c-0.2,0-0.3,0.1-0.4,0.3c0,0,0,0.1,0,0.1c0.9,4.4,4.2,5.2,4.8,5.3
					c0.5,0.6,1,1.2,1.6,1.9c-1.6-0.7-3.3-0.9-5-0.6c-0.1,0-0.2,0.1-0.2,0.2c0,0.1,0,0.2,0.1,0.3c1.8,2,4.5,2.8,7.1,2.1
					c0.6,0.6,1.2,1.2,1.8,1.8c-2.1-0.6-4.4-0.5-6.4,0.4c-0.1,0.1-0.2,0.3-0.1,0.4c0,0.1,0.1,0.1,0.1,0.1c2.3,1.4,5.2,1.5,7.7,0.3
					c0.8,0.8,1.7,1.6,2.6,2.4c-2-0.9-4.4-1.1-6.5-0.4c-0.1,0-0.2,0.1-0.2,0.2c0,0.1,0,0.2,0.1,0.3c2.1,1.7,5.1,2.1,7.6,1l0.1-0.1
					c0,0,0.1-0.1,0.1-0.1l1.1,0.9l0,0c0,0,0.1,0.1,0.1,0.1c0.6,0.5,1.2,0.9,1.8,1.4c0.1,0.1,0.3,0.1,0.4,0l0,0
					c0.1-0.1,0.1-0.3-0.1-0.4c0,0,0,0,0,0c-0.6-0.4-1.1-0.9-1.7-1.3c1.1-2.4,0.7-5.2-0.9-7.3C370.7,200.8,370.6,200.8,370.5,200.8z"
					/>
				<path class="st8" d="M360.6,185.3c0.1,0,0.2-0.1,0.2-0.2c0.7-2,0.7-4.2-0.1-6.1c0.7,0.6,1.4,1.1,2,1.7c-1.1,2.5-0.8,5.3,0.9,7.5
					c0.1,0.1,0.2,0.1,0.3,0.1c0.1,0,0.2-0.1,0.2-0.2c0.7-2,0.7-4.3-0.1-6.3c0.9,0.8,1.8,1.6,2.5,2.4l0,0c-1.2,2.5-0.9,5.4,0.8,7.6
					c0.1,0.1,0.2,0.1,0.3,0.1c0.1,0,0.2-0.1,0.2-0.2c0.7-2,0.7-4.3-0.1-6.3c1.4,1.4,2.5,2.7,3.4,3.8c0.6,2.5,2.5,4.4,4.9,5.2
					c0.2,0,0.3-0.1,0.4-0.3c0,0,0-0.1,0-0.1c-0.9-4.4-4.2-5.2-4.8-5.3c-0.5-0.6-1-1.2-1.6-1.9c1.6,0.7,3.3,0.9,5,0.6
					c0.1,0,0.2-0.1,0.2-0.2c0-0.1,0-0.2-0.1-0.3c-1.8-2-4.5-2.8-7.1-2.1c-0.6-0.6-1.2-1.2-1.8-1.8c2.1,0.6,4.4,0.5,6.4-0.4
					c0.1-0.1,0.2-0.3,0.1-0.4c0-0.1-0.1-0.1-0.1-0.1c-2.3-1.4-5.2-1.5-7.7-0.3c-0.8-0.8-1.7-1.6-2.6-2.4c2,0.9,4.4,1.1,6.5,0.4
					c0.1,0,0.2-0.1,0.2-0.2c0-0.1,0-0.2-0.1-0.3c-2.1-1.7-5.1-2.1-7.6-1l-0.1,0.1c0,0-0.1,0.1-0.1,0.1l-1.1-0.9l0,0
					c0,0-0.1-0.1-0.1-0.1c-0.6-0.5-1.2-0.9-1.8-1.4c-0.1-0.1-0.3-0.1-0.4,0l0,0c-0.1,0.1-0.1,0.3,0.1,0.4c0.6,0.4,1.1,0.9,1.7,1.3
					c-1.1,2.4-0.7,5.2,0.9,7.3C360.4,185.2,360.5,185.3,360.6,185.3z"/>
				<path class="st8" d="M391.5,208.1c-0.1,0-0.2,0.1-0.2,0.2c-0.7,2-0.7,4.2,0.1,6.1c-0.7-0.6-1.4-1.1-2-1.7
					c1.1-2.5,0.8-5.3-0.9-7.5c-0.1-0.1-0.3-0.2-0.4-0.1c0,0-0.1,0.1-0.1,0.1c-0.7,2-0.7,4.3,0.1,6.3c-0.9-0.8-1.8-1.6-2.5-2.4l0,0
					c1.2-2.5,0.9-5.4-0.8-7.6c-0.1-0.1-0.2-0.1-0.3-0.1c-0.1,0-0.2,0.1-0.2,0.2c-0.7,2-0.7,4.3,0.1,6.3c-1.4-1.4-2.5-2.7-3.4-3.8
					c-0.6-2.5-2.5-4.4-4.9-5.2c-0.1,0-0.2,0-0.3,0.1c-0.1,0.1-0.1,0.2-0.1,0.3c0.9,4.4,4.2,5.2,4.8,5.3c0.5,0.6,1,1.3,1.6,1.9
					c-1.6-0.7-3.3-0.9-5-0.6c-0.1,0-0.2,0.1-0.2,0.2c0,0.1,0,0.2,0.1,0.3c1.7,2,4.5,2.9,7.1,2.1c0.6,0.6,1.2,1.2,1.8,1.8
					c-2.1-0.6-4.4-0.5-6.4,0.4c-0.1,0.1-0.2,0.2-0.2,0.3c0,0.1,0.1,0.2,0.1,0.3c2.3,1.4,5.2,1.6,7.7,0.3c0.8,0.8,1.7,1.6,2.6,2.4
					c-2-0.9-4.4-1.1-6.5-0.4c-0.1,0-0.2,0.1-0.2,0.2c0,0.1,0,0.2,0.1,0.3c2.1,1.7,5.1,2.1,7.6,1l0.1-0.1c0,0,0.1-0.1,0.1-0.1
					l1.1,0.9l0,0c0,0,0.1,0.1,0.1,0.1c0.6,0.5,1.2,0.9,1.8,1.4c0.1,0.1,0.3,0.1,0.4,0l0,0c0.1-0.1,0.1-0.3-0.1-0.4
					c-0.6-0.4-1.1-0.9-1.7-1.3c1.1-2.4,0.7-5.2-0.9-7.3C391.7,208.2,391.6,208.1,391.5,208.1z"/>
				<path class="st8" d="M410.7,215c-0.1,0-0.2,0.1-0.2,0.2c-0.7,2-0.7,4.2,0,6.1c-0.7-0.6-1.4-1.2-2-1.7c1.2-2.5,0.8-5.3-0.9-7.5
					c-0.1-0.1-0.2-0.1-0.3-0.1c-0.1,0-0.2,0.1-0.2,0.2c-0.7,2-0.7,4.3,0.1,6.3c-0.9-0.8-1.8-1.6-2.5-2.4l0,0
					c1.2-2.5,0.9-5.4-0.8-7.6c-0.1-0.1-0.2-0.1-0.3-0.1c-0.1,0-0.2,0.1-0.2,0.2c-0.7,2-0.7,4.3,0.1,6.3c-1.4-1.4-2.5-2.7-3.4-3.8
					c-0.6-2.5-2.5-4.4-4.9-5.2c-0.2,0-0.3,0.1-0.4,0.2c0,0,0,0.1,0,0.1c0.9,4.4,4.2,5.2,4.8,5.3c0.5,0.6,1,1.2,1.6,1.9
					c-1.6-0.7-3.3-0.9-5-0.6c-0.1,0-0.2,0.1-0.2,0.2c0,0.1,0,0.2,0.1,0.3c1.8,2,4.5,2.8,7,2.1c0.6,0.6,1.2,1.2,1.8,1.8
					c-2.1-0.6-4.4-0.5-6.4,0.4c-0.1,0-0.2,0.1-0.2,0.3c0,0.1,0.1,0.2,0.1,0.3c2.3,1.4,5.2,1.5,7.7,0.3c0.8,0.8,1.7,1.6,2.6,2.4
					c-2-0.9-4.4-1.1-6.5-0.4c-0.1,0-0.2,0.1-0.2,0.2c0,0.1,0,0.2,0.1,0.3c2.1,1.7,5.1,2.1,7.6,1c0,0,0,0,0.1,0c0,0,0.1-0.1,0.1-0.1
					l1.1,0.9l0,0c0,0,0.1,0.1,0.1,0.1c0.6,0.5,1.2,0.9,1.8,1.4c0.1,0.1,0.3,0.1,0.4,0l0,0c0.1-0.1,0.1-0.3,0-0.4c0,0,0,0,0,0
					l-1.7-1.3c1.1-2.4,0.7-5.2-0.9-7.3C410.9,215.1,410.8,215,410.7,215z"/>
				<path class="st8" d="M366.7,216.1c-0.1,0-0.2,0.1-0.2,0.2c-0.7,2-0.7,4.2,0,6.1c-0.7-0.6-1.4-1.1-2-1.7c1.2-2.5,0.8-5.3-0.9-7.5
					c-0.1-0.1-0.3-0.2-0.4,0c0,0-0.1,0.1-0.1,0.1c-0.7,2-0.7,4.3,0.1,6.3c-0.9-0.8-1.8-1.6-2.5-2.4l0,0c1.2-2.5,0.9-5.4-0.8-7.6
					c-0.1-0.1-0.2-0.1-0.3-0.1c-0.1,0-0.2,0.1-0.2,0.2c-0.7,2-0.7,4.3,0.1,6.3c-1.2-1.2-2.3-2.5-3.4-3.8c-0.6-2.5-2.5-4.4-4.9-5.2
					c-0.1,0-0.2,0-0.3,0.1c-0.1,0.1-0.1,0.2-0.1,0.3c0.9,4.4,4.2,5.2,4.8,5.3c0.5,0.6,1,1.2,1.6,2c-1.6-0.7-3.3-0.9-5-0.6
					c-0.1,0-0.2,0.1-0.2,0.2c0,0.1,0,0.2,0.1,0.3c1.7,2,4.5,2.9,7,2.1c0.6,0.6,1.2,1.2,1.8,1.8c-2.1-0.6-4.4-0.5-6.4,0.4
					c-0.1,0-0.2,0.1-0.2,0.3c0,0.1,0,0.2,0.1,0.3c2.3,1.4,5.2,1.6,7.7,0.3c0.8,0.8,1.7,1.6,2.6,2.4c-2.1-0.9-4.4-1.1-6.5-0.4
					c-0.1,0-0.2,0.1-0.2,0.2c0,0.1,0,0.2,0.1,0.3c2.1,1.7,5.1,2.1,7.6,1c0,0,0,0,0.1,0c0,0,0.1-0.1,0.1-0.1l1.1,0.9l0,0
					c0,0,0.1,0.1,0.1,0.1c0.6,0.5,1.2,0.9,1.8,1.4c0.1,0.1,0.3,0.1,0.4,0l0,0c0.1-0.1,0.1-0.3,0-0.4c0,0,0,0,0,0l-1.7-1.3
					c1.1-2.4,0.7-5.2-0.9-7.3C367,216.3,366.9,216.1,366.7,216.1z"/>
				<path class="st8" d="M390.8,174c-0.1,0-0.2,0.1-0.2,0.2c-0.7,2-0.7,4.2,0.1,6.1c-0.7-0.6-1.4-1.1-2-1.7c1.1-2.5,0.8-5.3-0.9-7.5
					c-0.1-0.1-0.2-0.1-0.3-0.1c-0.1,0-0.2,0.1-0.2,0.2c-0.7,2-0.7,4.3,0.1,6.3c-0.9-0.8-1.8-1.6-2.5-2.4l0,0
					c1.2-2.5,0.9-5.4-0.8-7.6c-0.1-0.1-0.2-0.1-0.3-0.1c-0.1,0-0.2,0.1-0.2,0.2c-0.7,2-0.7,4.3,0.1,6.3c-1.4-1.4-2.5-2.7-3.4-3.8
					c-0.6-2.5-2.5-4.4-4.9-5.2c-0.2,0-0.3,0.1-0.4,0.3c0,0,0,0.1,0,0.1c0.9,4.4,4.2,5.2,4.8,5.3c0.5,0.6,1,1.2,1.6,1.9
					c-1.6-0.7-3.3-0.9-5-0.6c-0.1,0-0.2,0.1-0.2,0.2c0,0.1,0,0.2,0.1,0.3c1.8,2,4.5,2.8,7.1,2.1c0.6,0.6,1.2,1.2,1.8,1.8
					c-2.1-0.6-4.4-0.5-6.4,0.4c-0.1,0.1-0.2,0.2-0.2,0.3c0,0.1,0.1,0.2,0.1,0.3c2.3,1.4,5.2,1.5,7.7,0.3c0.8,0.8,1.7,1.6,2.6,2.4
					c-2-0.9-4.4-1.1-6.5-0.4c-0.1,0-0.2,0.1-0.2,0.2c0,0.1,0,0.2,0.1,0.3c2.1,1.7,5.1,2.1,7.6,1l0.1-0.1c0,0,0.1-0.1,0.1-0.1
					l1.1,0.9l0,0c0,0,0.1,0.1,0.1,0.1c0.6,0.5,1.2,0.9,1.8,1.4c0.1,0.1,0.3,0.1,0.4,0l0,0c0.1-0.1,0.1-0.3-0.1-0.4
					c-0.6-0.4-1.1-0.9-1.7-1.3c1.1-2.4,0.7-5.2-0.9-7.3C391,174.1,390.9,174,390.8,174z"/>
				<path class="st8" d="M381.3,193c0.1,0,0.2-0.1,0.2-0.2c0.7-2,0.7-4.2,0-6.1c0.7,0.6,1.4,1.1,2,1.7c-1.2,2.5-0.8,5.3,0.9,7.5
					c0.1,0.1,0.3,0.2,0.4,0c0,0,0.1-0.1,0.1-0.1c0.7-2,0.7-4.3-0.1-6.3c0.9,0.8,1.8,1.6,2.5,2.4l0,0c-1.2,2.5-0.9,5.4,0.8,7.6
					c0.1,0.1,0.3,0.2,0.4,0c0,0,0.1-0.1,0.1-0.1c0.7-2,0.7-4.3-0.1-6.3c1.2,1.2,2.3,2.5,3.4,3.8c0.6,2.5,2.5,4.4,4.9,5.2
					c0.1,0,0.2,0,0.3-0.1c0.1-0.1,0.1-0.2,0.1-0.3c-0.9-4.4-4.2-5.2-4.8-5.3c-0.5-0.6-1-1.2-1.6-2c1.6,0.7,3.3,0.9,5,0.6
					c0.1,0,0.2-0.1,0.2-0.2c0-0.1,0-0.2-0.1-0.3c-1.7-2-4.5-2.9-7-2.1c-0.6-0.6-1.2-1.2-1.8-1.8c2.1,0.6,4.4,0.5,6.4-0.4
					c0.1,0,0.2-0.1,0.2-0.3c0-0.1,0-0.2-0.1-0.3c-2.3-1.4-5.2-1.6-7.7-0.3c-0.8-0.8-1.7-1.6-2.6-2.4c2.1,0.9,4.4,1,6.5,0.4
					c0.1,0,0.2-0.1,0.2-0.2c0-0.1,0-0.2-0.1-0.3c-2.1-1.7-5.1-2.1-7.6-1c0,0,0,0-0.1,0c0,0-0.1,0.1-0.1,0.1l-1.1-0.9l0,0
					c0,0-0.1-0.1-0.1-0.1c-0.6-0.5-1.2-1-1.8-1.4c-0.1-0.1-0.3-0.1-0.4,0l0,0c-0.1,0.1-0.1,0.3,0.1,0.4l1.7,1.3
					c-1.1,2.4-0.7,5.2,0.9,7.3C381.1,192.9,381.2,193,381.3,193z"/>
			</g>
		</g>
	</g>
	<path class="st3" d="M385.7,201.6l-67,6.8c-3.7,0.4-6.4,3.7-6.1,7.4l2.3,22.9c5.5-3.9,13.1-2.6,17,2.9c3.9,5.5,2.6,13.1-2.9,17
		c-3.5,2.5-8.1,2.9-12,1.2l2.3,22.9c0.4,3.7,3.7,6.4,7.4,6.1l67-6.8c3.7-0.4,6.4-3.7,6.1-7.4l-6.8-67
		C392.8,203.9,389.4,201.2,385.7,201.6z"/>
	<path class="st9" d="M385.7,201.6l-67,6.8c-3.7,0.4-6.4,3.7-6.1,7.4l2.3,22.9c5.5-3.9,13.1-2.6,17,2.9c3.9,5.5,2.6,13.1-2.9,17
		c-3.5,2.5-8.1,2.9-12,1.2l2.3,22.9c0.4,3.7,3.7,6.4,7.4,6.1l67-6.8c3.7-0.4,6.4-3.7,6.1-7.4l-6.8-67
		C392.8,203.9,389.4,201.2,385.7,201.6z"/>
	<path class="st2" d="M404,222.1l-3.1-1.4l-7.3,1.9c-0.8,0.2-1.6,0.7-2.1,1.4l-1.5,2c-0.7,0.9-0.6,2.2,0.1,3l1.7,1.9
		c0.9,1,2.3,1,3.3,0.2l4-3.4C399.1,227.8,403.9,225.6,404,222.1z"/>
	<path class="st2" d="M340.9,209.7l3.2-0.4c0.9-0.1,1.6-0.8,1.8-1.7l0.4-2.6c0.2-1.1-0.5-2.1-1.6-2.3c-0.2,0-0.4,0-0.6,0l-3.8,0.3
		c-1.1,0.1-1.9,1-1.9,2.1l0.1,2.7c0,1.1,0.9,2,2,2C340.7,209.7,340.8,209.7,340.9,209.7z"/>
	<path class="st1" d="M391,136.2c-7.9,4-21.9,2.2-21.9,2.2S376.9,125.6,391,136.2z"/>
</g>
<g id="freepik--character-2--inject-28">
	<polygon class="st10" points="251.3,389.9 247.3,410.7 237.2,408.2 241.2,387.5 	"/>
	<path class="st1" d="M237.5,404l11.2,2.4c0.4,0.1,0.6,0.4,0.6,0.8l-0.8,8.3c-0.1,0.8-0.9,1.4-1.7,1.3c0,0-0.1,0-0.1,0
		c-3.5-0.8-4.6-1.4-9.1-2.3c-5.2-1.1-7.1-0.8-13.2-2.2c-3.7-0.8-3.5-4.7-1.9-4.7c4.4,0,8.7-1.1,12.5-3.3
		C235.9,403.8,236.7,403.8,237.5,404z"/>
	<polygon class="st4" points="251.3,389.9 249.2,400.6 239.1,398.2 241.2,387.5 	"/>
	<path class="st1" d="M268.9,309.9c11.9-34.9,21.2-76,21.2-76l-33.8-2.1c0,0-5,53.4-7.6,78c-2.7,25.6-11.1,83.3-11.1,83.3l15.3,3.1
		C252.9,396.2,267.2,341.8,268.9,309.9z"/>
	<path class="st4" d="M274.5,253.3l8.2,10.1c-2.1,7.8-4.5,16.6-7.2,25.6C274,277.2,273.6,265.2,274.5,253.3z"/>
	<path class="st1" d="M237.8,395.3l14,3.1c0.6,0.1,1.2-0.2,1.4-0.8l1.5-4.5c0.2-0.6-0.1-1.3-0.7-1.5c0,0-0.1,0-0.1,0l-15.2-3.5
		c-0.6-0.1-1.2,0.2-1.4,0.9c0,0,0,0.1,0,0.1l-0.4,5C236.9,394.6,237.3,395.1,237.8,395.3z"/>
	<path class="st11" d="M237.8,395.3l14,3.1c0.6,0.1,1.2-0.2,1.4-0.8l1.5-4.5c0.2-0.6-0.1-1.3-0.7-1.5c0,0-0.1,0-0.1,0l-15.2-3.5
		c-0.6-0.1-1.2,0.2-1.4,0.9c0,0,0,0.1,0,0.1l-0.4,5C236.9,394.6,237.3,395.1,237.8,395.3z"/>
	<polygon class="st10" points="306.9,389.2 307.5,410.6 297.3,410.5 296.6,389 	"/>
	<path class="st1" d="M297,406.1l10.9,0.2c0.4,0,0.7,0.3,0.7,0.6l0.9,8.2c0.1,0.8-0.5,1.5-1.4,1.6c0,0-0.1,0-0.1,0
		c-3.6-0.1-4.8-0.4-9.3-0.5c-5.3-0.1-6.5,0.6-12.8,0.5c-3.8-0.1-4.4-3.9-2.8-4.2c4.3-0.9,8.3-2.8,11.6-5.7
		C295.4,406.2,296.2,406,297,406.1z"/>
	<polygon class="st4" points="306.9,389.2 307.2,400.2 297,400.1 296.6,389 	"/>
	<path class="st1" d="M304.3,309.2c-2.9-36.7-0.5-56.4-4.7-74.7l-30.8-1.9c0,0,9.5,53.9,14.8,78.3s10.9,83.6,10.9,83.6l15.1,0.2
		C309.7,394.7,311.6,337.8,304.3,309.2z"/>
	<path class="st1" d="M294.7,397.2l14.3,0.2c0.6,0,1.1-0.5,1.2-1.1l0.3-4.7c0-0.6-0.4-1.2-1.1-1.2c0,0,0,0-0.1,0l-15.6-0.5
		c-0.6,0-1.2,0.5-1.2,1.1c0,0.1,0,0.2,0,0.3l1,5C293.7,396.8,294.1,397.2,294.7,397.2z"/>
	<path class="st11" d="M294.7,397.2l14.3,0.2c0.6,0,1.1-0.5,1.2-1.1l0.3-4.7c0-0.6-0.4-1.2-1.1-1.2c0,0,0,0-0.1,0l-15.6-0.5
		c-0.6,0-1.2,0.5-1.2,1.1c0,0.1,0,0.2,0,0.3l1,5C293.7,396.8,294.1,397.2,294.7,397.2z"/>
	<path class="st10" d="M267.9,176.2c-1.2,2.6-2.4,4.8-3.8,7.1s-2.8,4.6-4.3,6.8c-1.6,2.3-3.3,4.5-5.2,6.6c-2.1,2.4-4.5,4.4-7.2,6.1
		l-0.4,0.2c-1.2,0.7-2.7,0.9-4,0.4c-1.9-0.6-3.8-1.3-5.7-2.1s-3.6-1.6-5.4-2.5s-3.5-1.8-5.2-2.8s-3.4-2-5-3.2
		c-1.4-1-1.7-2.9-0.7-4.3c0.7-1,2-1.5,3.3-1.2h0.1c1.8,0.4,3.6,0.9,5.4,1.4l5.4,1.4c1.8,0.5,3.6,0.9,5.4,1.3s3.5,0.8,5.3,1.1
		l-4.3,0.6c1.5-1.2,2.8-2.7,4-4.2c1.4-1.8,2.7-3.7,4-5.7s2.5-4.1,3.7-6.2s2.4-4.3,3.4-6.3l0.1-0.1c1.8-2.9,5.5-3.9,8.5-2.1
		C267.9,170.2,268.9,173.4,267.9,176.2L267.9,176.2z"/>
	<path class="st3" d="M270.3,158.7c-11.9,1.4-21,19.9-21,19.9l12.3,13.1c0,0,5.5-6.5,11.4-14.8C279.5,167.9,279.8,157.7,270.3,158.7
		z"/>
	<path class="st8" d="M268.9,161.5c4.6-1.6,25.1,1,25.1,1c-4,5.2-7.3,47.9-7.7,72.4c-4.4,0.6-21.1-0.6-25-1.4
		C261.8,223.9,265.8,178.6,268.9,161.5z"/>
	<path class="st3" d="M255.6,174.5c1.1-9.2,8.9-16.1,18.2-16.1c8.6,0.1,17.2,1,25.5,2.8c5.4,1.1,8.9,6.5,7.7,11.9
		c0,0.1,0,0.2-0.1,0.3c-6.3,26.6-4.7,51.7-6.4,63.5c-6,2.2-12.4,3.2-18.8,3c0,0,0.1-10.1,1.6-27.2c1.1-13.6,3.1-45.5,7.3-50.8
		c0,0-14.8-2-19.4-0.4c-3.4,19.3-5.9,77.6-5.9,77.6c-7.3-0.5-10.7-4.6-10.6-5.8C253.3,209.7,254,188.3,255.6,174.5z"/>
	<path class="st10" d="M291.2,144.9c-1.4,4-3,11.1-0.4,15.1c0.5,0.7,0.3,1.6-0.4,2.1c-0.1,0.1-0.2,0.1-0.3,0.1
		c-4.1,2.4-8.9,3.4-13.6,2.9c-6.5-0.5-6-3.4-4.3-5.3c0.4-0.4,0.9-0.7,1.5-0.8c6.1-0.7,6.1-4.4,5.3-8L291.2,144.9z"/>
	<path class="st4" d="M286.2,147.5l-7.3,3.7c0.2,0.9,0.4,1.7,0.4,2.6c2.6,0,6.4-1.8,6.8-3.8C286.3,149.2,286.4,148.3,286.2,147.5z"
		/>
	
		<ellipse transform="matrix(7.532680e-02 -0.9972 0.9972 7.532680e-02 125.5015 396.6558)" class="st1" cx="276.6" cy="130.7" rx="6.5" ry="4.9"/>
	<path class="st10" d="M295.1,134c-1.3,7.9-1.7,12.6-6.1,16.3c-6.6,5.5-15.8,0.9-16.8-7.3c-0.9-7.3,1.4-19,9.4-21.4
		S296.4,126.1,295.1,134z"/>
	<path class="st1" d="M293.4,140.7c-0.1,0-0.2-0.1-0.3-0.1c-3.6,2-4.7-2.3-4.5-5.2c0.1-1.9,1.1-3.7,2.6-4.9
		c-3.9,0.4-7.6-2.1-7.7-4.4c-4.3,1.9-9.5,2-11.8-2s1-9.2,5.4-7.8c-1.8-3.2,5.8-9.7,13.8-0.2c0.3-6.9,11.4,0,9.6,6.8
		c5.2,1.8,9.6,11.6,0.8,13.7C300.7,145.7,293.4,140.7,293.4,140.7z"/>
	<path class="st10" d="M297.6,143.1c-1.2,1.5-2.9,2.5-4.8,2.7c-2.4,0.3-2.9-2.2-1.7-4.4c1.1-2,3.7-4.5,5.8-3.8
		S299.1,141.3,297.6,143.1z"/>
	<path class="st1" d="M283.6,134.6c-0.1,0.7-0.5,1.1-0.9,1.1s-0.7-0.6-0.7-1.3s0.5-1.1,0.9-1.1S283.7,133.9,283.6,134.6z"/>
	<path class="st1" d="M275.9,133.7c-0.1,0.6-0.5,1.1-0.9,1.1s-0.7-0.6-0.7-1.3s0.5-1.1,0.9-1.1S276,133.1,275.9,133.7z"/>
	<path class="st12" d="M278.9,134.1c-1,1.9-2.2,3.7-3.6,5.3c0.8,0.7,2,1.1,3.1,0.9L278.9,134.1z"/>
	<path class="st1" d="M280.4,143.4c1.5,0.1,2.9-0.4,4-1.4c0.1-0.1,0.1-0.2,0-0.3c-0.1-0.1-0.2-0.1-0.3,0c-1.2,1.1-2.9,1.5-4.5,1.2
		c-0.1,0-0.2,0-0.2,0.1c0,0,0,0,0,0c0,0.1,0,0.2,0.1,0.2C279.8,143.4,280.1,143.4,280.4,143.4z"/>
	<path class="st1" d="M286.2,133c0.1,0,0.1,0,0.2,0c0.2-0.1,0.3-0.3,0.2-0.5c0,0,0,0,0,0c-0.5-1.1-1.5-2-2.7-2.3
		c-0.2,0-0.4,0.1-0.4,0.3c0,0.2,0.1,0.4,0.3,0.4l0,0c1,0.2,1.7,0.9,2.1,1.8C286,132.9,286.1,133,286.2,133z"/>
	<path class="st1" d="M272.6,130.5c0.1,0,0.3,0,0.4-0.1c0.7-0.7,1.7-0.9,2.7-0.7c0.2,0.1,0.4-0.1,0.5-0.3c0.1-0.2-0.1-0.4-0.3-0.5
		c-1.2-0.3-2.5,0.1-3.4,0.9c-0.1,0.1-0.2,0.4,0,0.5c0,0,0,0,0,0C272.5,130.5,272.6,130.5,272.6,130.5z"/>
	<path class="st10" d="M309.4,172.8c0.6,1.3,1.2,2.4,1.7,3.6s1,2.3,1.5,3.5c1,2.4,1.9,4.8,2.7,7.2c1.7,4.9,2.9,10,3.8,15.1l0.3,2
		l0.1,1v0.2v0.4c0,0.3,0,0.6,0,1c0,1.8-0.4,3.6-1.1,5.3c-1,2.6-2.3,5.1-3.8,7.4c-1.4,2.2-2.9,4.3-4.5,6.3c-1.6,2-3.2,3.9-5,5.8
		c-1.2,1.2-3.1,1.3-4.4,0.1c-1-0.9-1.2-2.4-0.6-3.6V228c2.1-4.3,4.3-8.7,6-12.9c0.5-1.1,0.9-2.1,1.2-3.1c0.3-1,0.6-1.9,0.9-2.9
		c0.2-0.6,0.2-1.3,0.2-1.9l0,0c0,0,0,0.1,0,0l0-0.2l-0.2-0.8l-0.4-1.6c-1.2-4.5-2.6-8.9-4.2-13.2c-0.8-2.2-1.7-4.4-2.6-6.6
		c-0.4-1.1-0.9-2.2-1.4-3.2l-1.4-3.1l-0.1-0.2c-1.5-3.1-0.2-6.7,2.9-8.2C304.2,168.5,307.8,169.8,309.4,172.8L309.4,172.8z"/>
	<path class="st3" d="M300.4,161.5c13.3,3.4,17,20.4,17,20.4l-16.5,11.9c0,0-4.1-4.3-5.3-14.4C294.9,174.6,297.7,161.4,300.4,161.5z
		"/>
	<path class="st10" d="M302.4,226l-7.7,2.9l5.9,7.9c0,0,6.6-3.4,5.4-7.3L302.4,226z"/>
	<path class="st3" d="M289,230c-2.1-0.3-4.2-0.2-6.2,0.6l3.8-22.7c0.6-3.7-1.9-7.2-5.6-7.8l-66.4-11.2c-3.7-0.6-7.2,1.9-7.8,5.6
		l-3.9,22.8c2-0.7,4.1-0.9,6.2-0.6c6.7,1.1,11.1,7.4,10,14.1c-1.1,6.7-7.4,11.1-14.1,10c-2.1-0.3-4-1.2-5.7-2.6l-3.8,22.7
		c-0.6,3.7,1.9,7.2,5.6,7.8l66.4,11.2c3.7,0.6,7.2-1.9,7.8-5.5l3.8-22.7c5.3,4.2,13,3.3,17.2-2c4.2-5.3,3.3-13-2-17.2
		C292.9,231.2,291,230.4,289,230z"/>
	<path class="st13" d="M289,230c-2.1-0.3-4.2-0.2-6.2,0.6l3.8-22.7c0.6-3.7-1.9-7.2-5.6-7.8l-66.4-11.2c-3.7-0.6-7.2,1.9-7.8,5.6
		l-3.9,22.8c2-0.7,4.1-0.9,6.2-0.6c6.7,1.1,11.1,7.4,10,14.1c-1.1,6.7-7.4,11.1-14.1,10c-2.1-0.3-4-1.2-5.7-2.6l-3.8,22.7
		c-0.6,3.7,1.9,7.2,5.6,7.8l66.4,11.2c3.7,0.6,7.2-1.9,7.8-5.5l3.8-22.7c5.3,4.2,13,3.3,17.2-2c4.2-5.3,3.3-13-2-17.2
		C292.9,231.2,291,230.4,289,230z"/>
	<path class="st10" d="M291.1,236.6l2.5,2.4c1,1,2.6,1.1,3.7,0.2l3.3-2.5l-5.9-7.9l-3.6,3.7C290,233.7,290,235.5,291.1,236.6
		C291.1,236.6,291.1,236.6,291.1,236.6z"/>
	<path class="st10" d="M217,191l0.9-3.4c0.3-0.8,1.1-1.4,2-1.3l0,0c1.3-0.1,2.6,0.1,3.8,0.6l5.2,1.9l-0.3,2.1
		c-0.2,1.8-2.2,3.3-4.5,3.4c-1.5,0-3.1-0.1-4.6-0.5l-0.6-0.1c-1.2-0.1-2.1-1.1-2.1-2.4C217,191.2,217,191.1,217,191z"/>
</g>
<g id="freepik--character-1--inject-28">
	<path class="st1" d="M135.1,143.9c3.3-3.9,8.3-13.9-1.1-17.8c-6.9-2.8-21.7-1.4-30.2,11.8c-5.8,2-7.5,14.9,5.9,17.6
		S135.1,143.9,135.1,143.9z"/>
	<polygon class="st14" points="165.3,392.1 150,393.4 152.6,411.3 165.4,410.3 	"/>
	<polygon class="st4" points="165.3,392.1 150,393.4 151.5,403.4 165.4,402.3 	"/>
	<path class="st3" d="M136.1,339.2c-6-23-21.5-50.4-11.7-72.5l42.8-0.1c0,0,1.1,45.5,1.4,67c0.3,22.4-1.6,64.6-1.6,64.6l-17.5,1.3
		C149.5,399.5,137.5,365,136.1,339.2z"/>
	<path class="st1" d="M148.6,400.2l18.9-1.4c0.3,0,0.6-0.3,0.6-0.6l0.4-7c0-0.4-0.2-0.7-0.6-0.7c0,0-0.1,0-0.1,0l-21,2.8
		c-0.4,0-0.6,0.4-0.6,0.7c0,0,0,0.1,0,0.1l1.7,5.6C148,400,148.3,400.2,148.6,400.2z"/>
	<path class="st4" d="M124.3,288.5c-0.2,5.4,0.1,10.9,0.7,16.3c2.1,7.2,4.8,14.5,7.2,21.5C135.2,306.4,135.2,283.2,124.3,288.5z"/>
	<polygon class="st14" points="108.7,393.2 93.4,393.4 93.4,411.5 106.2,411.4 	"/>
	<path class="st1" d="M92.2,408.7c0.1-0.4,0.4-0.7,0.8-0.6c0,0,0,0,0.1,0c3.8,1.5,11.2,0.4,13.9-0.2c0.6-0.1,1.3,0,1.8,0.4
		c2.3,1.4,4.7,2.6,7.3,3.4c0.6,1.5,0.7,3.1,0.4,4.6H90.6C91.3,413.8,91.8,411.2,92.2,408.7z"/>
	<path class="st1" d="M150.9,408.7c0.1-0.4,0.4-0.7,0.8-0.6c0,0,0,0,0.1,0c3.9,1.5,11.1,0.4,13.9-0.2c0.6-0.1,1.3,0,1.8,0.4
		c2.9,2.1,10.8,3.4,10.8,3.4c0.6,1.5,0.7,3.1,0.4,4.6h-29.4C150,413.8,150.6,411.2,150.9,408.7z"/>
	<polygon class="st4" points="108.7,393.2 93.4,393.4 93.4,403.5 107.3,403.4 	"/>
	<path class="st3" d="M91.2,331.8c-2.1-23.2-8.6-54.5-1.2-65.2h50.1c0,0-10.2,46.3-14.4,67.8c-4.3,22.3-16.9,65.1-16.9,65.1l-16.6,0
		C92.3,399.5,86,358.3,91.2,331.8z"/>
	<path class="st15" d="M94.3,394.7c-0.2,0-0.4-0.1-0.5-0.4c-1.2-4-1-50,2-62.5c0-1.7-0.3-4.9-0.8-9c-1.4-14-3.9-40-0.1-54.8
		c0.1-0.3,0.3-0.4,0.6-0.4s0.4,0.3,0.4,0.6c-3.8,14.6-1.2,40.5,0.1,54.4c0.4,4.2,0.7,7.5,0.8,9.2c0,0,0,0.1,0,0.1
		c-2.9,11.9-3.2,58.2-2,62.1c0.1,0.3-0.1,0.5-0.3,0.6C94.4,394.7,94.3,394.7,94.3,394.7z"/>
	<path class="st1" d="M91.1,400.1h18.8c0.3,0,0.6-0.2,0.6-0.5l1.2-6.7c0.1-0.4-0.2-0.7-0.6-0.8c0,0-0.1,0-0.1,0L90.6,393
		c-0.3,0-0.6,0.3-0.6,0.6c0,0,0,0,0,0l0.4,5.8C90.5,399.8,90.8,400.1,91.1,400.1z"/>
	<path class="st14" d="M157.2,185.7c1,4,1.9,8,2.8,12s1.7,8,2.5,12l1.2,6l1.1,6c0.8,4,1.4,8.1,2.1,12.1l-1.6-3.6
		c0.2,0.7,0.7,1.4,1.3,1.8c1.3,0.9,2.7,1.5,4.2,1.8c2,0.5,4.1,0.7,6.2,0.8c1.1,0.1,2.3,0.1,3.4,0.1c0.6,0,1.1,0,1.7,0s1.2,0,1.6,0
		l1.4,0.1c3,0.2,5.4,2.8,5.2,5.9c-0.1,1.9-1.2,3.6-2.9,4.5c-0.8,0.4-1.4,0.8-2.1,1.1s-1.3,0.6-2,1c-1.3,0.6-2.7,1.1-4.1,1.6
		c-1.4,0.5-2.9,0.9-4.4,1.2c-1.6,0.3-3.1,0.5-4.7,0.7c-1.7,0.1-3.4,0.1-5.1-0.1c-1.9-0.2-3.8-0.6-5.6-1.2c-2-0.7-3.9-1.6-5.7-2.8
		c-1.9-1.3-3.5-2.9-4.9-4.6c-0.6-0.8-1.1-1.6-1.3-2.5l-0.3-1.1c-1.1-3.9-2.2-7.9-3.3-11.8l-1.6-5.9l-1.5-5.9c-1-4-2-7.9-2.9-11.9
		s-1.8-8-2.6-12l0,0c-1.2-6.1,2.7-12,8.8-13.2C150,176.3,155.7,179.9,157.2,185.7L157.2,185.7z"/>
	<path class="st14" d="M183.1,235.6l0.2,6.5c2.6,6.3,10.1,1.5,10.1,1.5l4.5-0.8c1.6-0.4,2.7-1.9,2.6-3.6l-0.1-4.5
		c0.1-1.9-1.4-3.6-3.4-3.7l-4,0.1c-1.2,0-2.3,0.3-3.3,0.9L183.1,235.6z"/>
	<path class="st1" d="M149.5,174.5c9.2,4.8,15.2,21.9,15.2,21.9c-1.9,8-9.8,22.6-17,22.5c0,0-10.6-13.7-11.8-23.6
		C134.5,183.3,130.9,164.7,149.5,174.5z"/>
	<path class="st1" d="M141,171.7c-14.2-1.3-28.5-1.1-42.7,0.7c-8.2,1.1-14,6.2-13,23c2,34-1.1,60.5,3.2,72.7c0,0,62.9,18,80.9,0.8
		c4.4-40.9-10.3-74.9-17-89C150.3,175.3,146,172.2,141,171.7z"/>
	<path class="st14" d="M136.3,175.4c-1.6-1.6-3.3-0.7-4.1-3.1c-0.3-1.9,0-3.8,0.9-5.5l-19.4-10.5c0.4,7.1,0.7,12.8-2.5,15.6
		c-0.9,5.3,9,10.6,22.2,10.7C141.8,182.7,138.6,177.7,136.3,175.4z"/>
	<path class="st4" d="M132.8,167.4l-15.3-3.8c3.9,6.1,10.8,9.4,14.6,7.9C131.9,170.1,132.2,168.7,132.8,167.4z"/>
	<path class="st14" d="M126.4,132.4c-10.1-2.3-18.9,6.2-16.9,15.4s3.5,15.4,9.9,18.5c12.6,6.2,18.8,0.2,19.8-9.4
		C140.1,148.3,136.7,134.7,126.4,132.4z"/>
	<path class="st4" d="M124.4,148.8c-1.2-0.3-2.5-0.1-3.5,0.5C122.1,149.3,123.3,149.1,124.4,148.8z"/>
	<path class="st4" d="M124.5,149.6c-1.1-0.1-2.2,0.4-3,1.2C122.6,150.6,123.6,150.2,124.5,149.6z"/>
	<path class="st1" d="M110.8,155.6c5.7,1.3,8-1.6,8-4.8c0-3.4-3.2-9.1-6.7-10.1c1.3-7.5,21.9,3,19.9-7.4c0,0-0.6-1.8-5.9-2.8
		s-19.6,2.2-18.6,12.9S110.8,155.6,110.8,155.6z"/>
	<path class="st1" d="M103.5,138.5c1.4-2.8,1.8-6,1.1-9C104.6,129.5,110.9,133.6,103.5,138.5z"/>
	<path class="st1" d="M129.6,158.4c0.4,0,0.8-0.1,1.3-0.2c0.1,0,0.2-0.2,0.2-0.3c0,0,0,0,0,0c0-0.1-0.1-0.2-0.3-0.2c0,0,0,0,0,0
		c-2.1,0.5-4.3,0-6-1.4c-0.1-0.1-0.3-0.1-0.4,0c0,0,0,0,0,0c-0.1,0.1-0.1,0.3,0,0.4C125.8,158,127.7,158.6,129.6,158.4z"/>
	<path class="st14" d="M107.2,156c1.3,1.8,3.3,3,5.5,3.3c2.9,0.4,4-2.3,2.9-4.8c-1-2.3-3.7-5.3-6.5-4.5S105.6,153.8,107.2,156z"/>
	<path class="st1" d="M126.1,148.9c0.1,0.8,0.6,1.4,1.2,1.3s0.9-0.8,0.8-1.6s-0.6-1.4-1.2-1.3S126,148,126.1,148.9z"/>
	<path class="st1" d="M135.6,147.6c0.1,0.8,0.6,1.4,1.2,1.3s0.9-0.8,0.8-1.6s-0.6-1.4-1.2-1.3S135.5,146.8,135.6,147.6z"/>
	<path class="st16" d="M132,148.6l0.5,6.9c0,0,2.3,0.4,3.5-0.9C135.2,152.3,133.8,150.3,132,148.6z"/>
	<path class="st1" d="M122.9,147c-0.3,0.1-0.5-0.1-0.6-0.3c0-0.1,0-0.2,0-0.3c0.4-1.5,1.5-2.7,2.9-3.3c0.3-0.1,0.5,0.1,0.6,0.3
		c0.1,0.3-0.1,0.5-0.3,0.6l0,0c-1.1,0.5-2,1.5-2.3,2.6C123.2,146.8,123.1,147,122.9,147z"/>
	<path class="st1" d="M138.7,143.9c-0.2,0-0.3-0.1-0.4-0.2c-0.7-1-1.8-1.6-3.1-1.6c-0.3,0-0.5-0.2-0.5-0.5s0.2-0.5,0.5-0.5
		c1.5,0,3,0.7,3.9,2c0.2,0.2,0.1,0.5-0.1,0.7c0,0,0,0,0,0C139,143.9,138.8,143.9,138.7,143.9z"/>
	<path class="st3" d="M197,209.3c-2.1,0.1-4.1,0.8-5.9,2l-1.8-23c-0.3-3.7-3.6-6.5-7.3-6.2l-67.1,5.3c-3.7,0.3-6.5,3.6-6.2,7.3
		l5.3,67.1c0.3,3.7,3.6,6.5,7.3,6.2l67.1-5.3c3.7-0.3,6.5-3.6,6.2-7.3l-1.8-22.9c1.9,0.9,4,1.3,6.1,1.1c6.7-1.1,11.1-7.4,10-14.1
		C208,213.7,202.9,209.4,197,209.3z"/>
	<path class="st14" d="M99.7,200.1l-1,1.8l-1.2,2.1c-0.7,1.4-1.5,2.8-2.2,4.2c-1.4,2.8-2.6,5.6-3.7,8.5c-0.5,1.4-1,2.8-1.3,4.2
		c-0.4,1.3-0.7,2.6-0.9,4c-0.4,2.2-0.5,4.4-0.2,6.6l-2.3-4c1,1.3,2.1,2.5,3.4,3.5c1.7,1.4,3.5,2.6,5.3,3.7c1.9,1.2,4,2.4,6.1,3.6
		l3.2,1.8c1,0.6,2.2,1.2,3.2,1.8l0.5,0.3c2.7,1.6,3.5,5.1,1.9,7.8c-1,1.7-2.9,2.7-4.9,2.7c-1.5,0-2.8-0.1-4.2-0.2s-2.7-0.3-4.1-0.5
		c-2.8-0.4-5.5-1-8.2-1.8c-2.8-0.8-5.6-1.8-8.3-3.1c-3.2-1.5-6.1-3.4-8.6-5.8c-0.9-0.9-1.6-2-2-3.1l-0.3-0.9
		c-1.6-4.7-2.2-9.8-1.7-14.7c0.3-4.3,1.2-8.6,2.5-12.8c1.2-3.9,2.7-7.7,4.5-11.4c0.9-1.8,1.8-3.6,2.8-5.3c0.5-0.9,1-1.7,1.5-2.6
		l0.8-1.3l0.4-0.7l0.5-0.8c3.4-5.2,10.3-6.6,15.5-3.2c5,3.3,6.5,9.8,3.5,15L99.7,200.1z"/>
	<path class="st1" d="M91.8,174.5c-16.6,8.9-22.8,28.6-22.8,28.6c3.3,6.3,23.1,13,30.5,11.2c0,0,7.1-13,8.6-24.6
		C109.6,178.9,101.6,169.3,91.8,174.5z"/>
	<path class="st14" d="M103.4,243l0.3,6.5c2.7,6.2,10.1,1.3,10.1,1.3l4.5-0.9c1.6-0.4,2.7-2,2.5-3.7l-0.2-4.5c0.1-2-1.5-3.6-3.4-3.7
		l-4,0.2c-1.2,0.1-2.3,0.4-3.3,1L103.4,243z"/>
</g>
</svg>
