<?xml version="1.0" encoding="utf-8"?>
<!-- Generator: Adobe Illustrator 22.1.0, SVG Export Plug-In . SVG Version: 6.00 Build 0)  -->
<svg version="1.1" id="Layer_1" xmlns="http://www.w3.org/2000/svg" xmlns:xlink="http://www.w3.org/1999/xlink" x="0px" y="0px"
	 viewBox="0 0 500 500" style="enable-background:new 0 0 500 500;" xml:space="preserve">
<style type="text/css">
	.st0{fill:#F89E23;}
	.st1{opacity:0.3;fill:#011627;enable-background:new    ;}
	.st2{opacity:0.1;}
	.st3{fill:#FAFAFA;}
	.st4{opacity:0.1;fill:#FAFAFA;enable-background:new    ;}
	.st5{opacity:0.3;}
	.st6{fill:#011627;}
</style>
<g id="freepik--speech-bubble--inject-3">
	<path class="st0" d="M463.5,218.8H289.4c-14.1,0-25.5,11.4-25.6,25.5v94.2c0,14.1,11.4,25.5,25.5,25.5h17.6l-6.8,27.8
		c20.1-1.8,38.6-11.9,51.1-27.7h112.2c14.1,0,25.5-11.4,25.5-25.5v-94.3C489,230.2,477.6,218.9,463.5,218.8z"/>
	<path class="st1" d="M463.5,218.8H289.4c-14.1,0-25.5,11.4-25.6,25.5v94.2c0,14.1,11.4,25.5,25.5,25.5h17.6l-6.8,27.8
		c20.1-1.8,38.6-11.9,51.1-27.7h112.2c14.1,0,25.5-11.4,25.5-25.5v-94.3C489,230.2,477.6,218.9,463.5,218.8z"/>
	<circle class="st0" cx="443" cy="291.4" r="21.5"/>
	<circle class="st0" cx="376.4" cy="291.4" r="21.5"/>
	<circle class="st0" cx="309.9" cy="291.4" r="21.5"/>
	<g class="st2">
		<circle class="st3" cx="443" cy="291.4" r="21.5"/>
		<circle class="st3" cx="376.4" cy="291.4" r="21.5"/>
		<circle class="st3" cx="309.9" cy="291.4" r="21.5"/>
	</g>
	<path class="st0" d="M36.5,83.5h174.2c14.1,0,25.5,11.4,25.5,25.5v94.2c-0.1,14-11.5,25.4-25.5,25.4H193l6.9,27.7
		c-20.1-1.8-38.6-11.8-51.1-27.7H36.5c-14.1,0-25.5-11.4-25.5-25.5V109C11,95,22.4,83.5,36.5,83.5z"/>
	<path class="st4" d="M36.5,83.5h174.2c14.1,0,25.5,11.4,25.5,25.5v94.2c-0.1,14-11.5,25.4-25.5,25.4H193l6.9,27.7
		c-20.1-1.8-38.6-11.8-51.1-27.7H36.5c-14.1,0-25.5-11.4-25.5-25.5V109C11,95,22.4,83.5,36.5,83.5z"/>
	<rect x="41.8" y="116.3" class="st0" width="163.5" height="15.5"/>
	<rect x="41.8" y="148.4" class="st0" width="126.1" height="15.5"/>
	<rect x="41.8" y="180.5" class="st0" width="142.6" height="15.5"/>
	<g class="st5">
		<rect x="41.8" y="116.3" class="st6" width="163.5" height="15.5"/>
		<rect x="41.8" y="148.4" class="st6" width="126.1" height="15.5"/>
		<rect x="41.8" y="180.5" class="st6" width="142.6" height="15.5"/>
	</g>
</g>
</svg>
