<?xml version="1.0" encoding="utf-8"?>
<!-- Generator: Adobe Illustrator 22.1.0, SVG Export Plug-In . SVG Version: 6.00 Build 0)  -->
<svg version="1.1" id="Layer_1" xmlns="http://www.w3.org/2000/svg" xmlns:xlink="http://www.w3.org/1999/xlink" x="0px" y="0px"
	 viewBox="0 0 500 500" style="enable-background:new 0 0 500 500;" xml:space="preserve">
<style type="text/css">
	.st0{fill:#F89E23;}
	.st1{fill:#FFFFFF;}
	.st2{fill:none;}
	.st3{font-family:'Montserrat-Bold';}
	.st4{font-size:77.8717px;}
	.st5{opacity:0.1;fill:#011627;enable-background:new    ;}
	.st6{fill:#EBEBEB;}
	.st7{fill:#C7C7C7;}
</style>
<g>
	<g id="freepik--Characters--inject-165">
		<path class="st0" d="M367.9,376.2c-2,0-4.1-0.5-5.9-1.4L126.1,262.4c-6.8-3.3-9.6-11.5-6.3-18.3c1.4-2.7,3.6-5.1,6.3-6.3
			l236.1-112.6c7-2.9,15,0.4,17.9,7.4c2.7,6.4,0.1,13.8-6,17.2L163.8,249.9l210.1,100.1c6.8,3.3,9.6,11.5,6.3,18.3
			C378,373,373.2,376,367.9,376.2L367.9,376.2z"/>
		<path class="st0" d="M440,207.3l-1-1c4-4.1,7.7-8.6,10.9-13.4l1.1,0.8C447.8,198.6,444.1,203.1,440,207.3z"/>
		<circle class="st0" cx="368" cy="137.5" r="95.6"/>
		<circle class="st1" cx="368" cy="137.5" r="74.9"/>
		<path class="st0" d="M64.7,177.3l-1-1c6.8-6.3,14.3-11.6,22.5-15.8l0.7,1.2C79,165.9,71.4,171.1,64.7,177.3z"/>
		<path class="st0" d="M54.2,188.6l-1.1-0.8c1.6-2.2,3.4-4.2,5.3-6.1l1,1C57.6,184.5,55.9,186.5,54.2,188.6z"/>
		<circle class="st0" cx="132" cy="249.9" r="95.6"/>
		<circle class="st1" cx="132" cy="249.9" r="74.9"/>
		<circle class="st0" cx="368" cy="362.5" r="95.6"/>
		<circle class="st1" cx="368" cy="362.5" r="74.9"/>
		<rect x="313.7" y="106.8" class="st2" width="108.6" height="61.5"/>
		<text transform="matrix(1 0 0 1 317.5613 164.5099)" class="st0 st3 st4">20</text>
		<rect x="313.7" y="331.8" class="st2" width="108.6" height="61.5"/>
		<text transform="matrix(1 0 0 1 318.2225 389.5035)" class="st0 st3 st4">40</text>
	</g>
	<circle class="st0" cx="132" cy="250.2" r="77.2"/>
	<circle class="st5" cx="131" cy="248.8" r="73.6"/>
	<circle class="st1" cx="132" cy="249.8" r="69"/>
	<path class="st6" d="M199.5,235.2c-31.4,19-83.1,50.3-112,67.4c-8.2-6.8-14.6-15.6-18.9-25.4l95.5-88.5
		C182.1,198.2,195.1,215.2,199.5,235.2z"/>
	<path class="st6" d="M201,252.3c-0.3,7.7-1.8,15.3-4.5,22.4l-86.1,40.7c-3.7-1.2-7.4-2.7-10.9-4.6
		C125.4,295.7,172.9,268.4,201,252.3z"/>
	<rect x="131.3" y="185.9" class="st7" width="1.4" height="10.5"/>
	<rect x="101.9" y="193.6" transform="matrix(0.866 -0.5 0.5 0.866 -85.7044 77.9421)" class="st7" width="1.4" height="10.5"/>
	<rect x="80.3" y="215.3" transform="matrix(0.5 -0.866 0.866 0.5 -150.4575 180.4219)" class="st7" width="1.4" height="10.5"/>
	<rect x="67.9" y="249.1" class="st7" width="10.5" height="1.4"/>
	<rect x="75.8" y="278.6" transform="matrix(0.866 -0.5 0.5 0.866 -128.7931 77.9652)" class="st7" width="10.5" height="1.4"/>
	
		<rect x="97.4" y="300" transform="matrix(0.4995 -0.8663 0.8663 0.4995 -209.0892 239.451)" class="st7" width="10.5" height="1.4"/>
	<rect x="131.3" y="303.3" class="st7" width="1.4" height="10.5"/>
	<rect x="160.6" y="295.4" transform="matrix(0.866 -0.5 0.5 0.866 -128.7226 120.9459)" class="st7" width="1.4" height="10.5"/>
	<rect x="182.3" y="274" transform="matrix(0.5 -0.866 0.866 0.5 -150.3386 298.0282)" class="st7" width="1.4" height="10.5"/>
	<rect x="185.5" y="249.1" class="st7" width="10.5" height="1.4"/>
	<rect x="177.6" y="219.7" transform="matrix(0.866 -0.5 0.5 0.866 -85.7138 120.9533)" class="st7" width="10.5" height="1.4"/>
	
		<rect x="156.1" y="198.2" transform="matrix(0.4995 -0.8663 0.8663 0.4995 -91.536 239.3087)" class="st7" width="10.5" height="1.4"/>
	<polygon class="st0" points="195.5,250.8 128.5,252.7 128.5,246.1 195.5,249 	"/>
	<polygon class="st0" points="132.4,202.8 135.2,253.6 128.8,253.6 130.6,202.7 	"/>
	<circle class="st0" cx="132" cy="249.8" r="2.3"/>
</g>
</svg>
