<?xml version="1.0" encoding="utf-8"?>
<!-- Generator: Adobe Illustrator 22.1.0, SVG Export Plug-In . SVG Version: 6.00 Build 0)  -->
<svg version="1.1" id="Layer_1" xmlns="http://www.w3.org/2000/svg" xmlns:xlink="http://www.w3.org/1999/xlink" x="0px" y="0px"
	 viewBox="0 0 500 500" style="enable-background:new 0 0 500 500;" xml:space="preserve">
<style type="text/css">
	.st0{fill:#F5F5F5;}
	.st1{fill:#E51F37;}
	.st2{opacity:0.6;fill:#FFFFFF;enable-background:new    ;}
	.st3{opacity:0.8;fill:#FFFFFF;enable-background:new    ;}
	.st4{fill:#FFFFFF;}
	.st5{opacity:0.2;fill:#011627;enable-background:new    ;}
	.st6{opacity:0.7;fill:#FFFFFF;enable-background:new    ;}
	.st7{fill:#E0E0E0;}
	.st8{fill:#FFB573;}
	.st9{fill:#011627;}
	.st10{fill:#ED893E;}
	.st11{opacity:0.2;fill:#FFFFFF;enable-background:new    ;}
</style>
<g id="freepik--Shadow--inject-7">
	<ellipse id="freepik--path--inject-7" class="st0" cx="250" cy="416.2" rx="193.9" ry="11.3"/>
</g>
<g id="freepik--complete-list--inject-7">
	<path class="st1" d="M75.6,217.5h149.2c-9.2-0.1-16.7-7.3-17.4-16.4l-2.6-44.5H55.5l2.6,44.5C58.8,210.2,66.4,217.4,75.6,217.5z"/>
	<path class="st2" d="M75.6,217.5h149.2c-9.2-0.1-16.7-7.3-17.4-16.4l-2.6-44.5H55.5l2.6,44.5C58.8,210.2,66.4,217.4,75.6,217.5z"/>
	<path class="st1" d="M235.9,127H103c-8.4-0.1-15.4,6.7-15.5,15.1c0,0.4,0,0.9,0,1.3l3.4,57.7c0.6,8.4-5.7,15.7-14.1,16.4
		c-0.4,0-0.9,0-1.3,0h149.2c8.4,0.1,15.4-6.6,15.5-15.1c0-0.4,0-0.9,0-1.3l0.4,6.2l-3.8-63.9c-0.6-8.4,5.6-15.8,14.1-16.4
		c0.5,0,0.9,0,1.4,0H235.9z"/>
	<path class="st1" d="M252.3,127H103c9.2,0.1,16.7,7.2,17.4,16.4l12.8,216.7h149.2l-12.8-216.7C269,134.3,261.5,127.1,252.3,127z"/>
	<path class="st3" d="M252.3,127H103c9.2,0.1,16.7,7.2,17.4,16.4l12.8,216.7h149.2l-12.8-216.7C269,134.3,261.5,127.1,252.3,127z"/>
	<path class="st4" d="M170.7,188.7H143l-1.7-27.7H169L170.7,188.7z M146,185.4h21.2l-1.2-21.2h-21.2L146,185.4z"/>
	<path class="st4" d="M174.5,253.8h-27.7l-1.6-27.7h27.7L174.5,253.8z M149.9,250.5h21.2l-1.3-21.2h-21.2L149.9,250.5z"/>
	<path class="st4" d="M178.4,318.9h-27.7l-1.7-27.7h27.7L178.4,318.9z M153.8,315.6h21.2l-1.3-21.2h-21.2L153.8,315.6z"/>
	<rect x="184.2" y="161" class="st4" width="63.7" height="3.3"/>
	<rect x="184.9" y="173.2" class="st4" width="56.2" height="3.3"/>
	<rect x="185.6" y="185.4" class="st4" width="63.7" height="3.3"/>
	<rect x="188" y="226.1" class="st4" width="63.7" height="3.3"/>
	<rect x="188.8" y="238.3" class="st4" width="37.4" height="3.3"/>
	<rect x="189.5" y="250.5" class="st4" width="19.3" height="3.3"/>
	<rect x="221.3" y="250.5" class="st4" width="31.8" height="3.3"/>
	<rect x="191.9" y="291.2" class="st4" width="63.7" height="3.3"/>
	<rect x="192.6" y="303.4" class="st4" width="63.7" height="3.3"/>
	<rect x="193.3" y="315.6" class="st4" width="35.2" height="3.3"/>
	<path class="st1" d="M158.6,182.2c-0.7,0-1.4-0.3-1.9-0.7L150,175c-1.1-1-1.1-2.7-0.1-3.8c1-1.1,2.7-1.1,3.8-0.1l0,0l4.8,4.6
		l10.9-11.5c1-1.1,2.7-1.1,3.8-0.1c1.1,1,1.1,2.7,0.1,3.8l-12.7,13.5c-0.5,0.5-1.2,0.8-1.9,0.9H158.6z"/>
	<path class="st1" d="M162.5,247.3c-0.7,0-1.4-0.3-1.9-0.7l-6.8-6.4c-1.1-1-1.2-2.7-0.2-3.8c1-1.1,2.7-1.2,3.8-0.2
		c0,0,0.1,0.1,0.1,0.1l4.8,4.6l10.8-11.5c1-1.1,2.7-1.1,3.8-0.1c1.1,1,1.1,2.7,0.1,3.8l0,0l-12.7,13.5
		C164,246.9,163.3,247.3,162.5,247.3L162.5,247.3z"/>
	<path class="st1" d="M166.3,312.4c-0.7,0-1.4-0.3-1.9-0.8l-6.8-6.4c-1.1-1-1.2-2.7-0.2-3.8c1-1.1,2.7-1.2,3.8-0.2
		c0,0,0.1,0.1,0.1,0.1l4.8,4.5l10.9-11.5c1.1-1,2.8-0.8,3.8,0.3c0.8,1,0.9,2.4,0.1,3.4l-12.7,13.5
		C167.8,312,167.1,312.3,166.3,312.4L166.3,312.4z"/>
</g>
<g id="freepik--Character--inject-7">
	<rect x="319" y="158" transform="matrix(0.9711 -0.2387 0.2387 0.9711 -57.1838 86.6164)" class="st1" width="20" height="242.8"/>
	
		<rect x="332.7" y="156.3" transform="matrix(0.9711 -0.2387 0.2387 0.9711 -56.5921 88.1781)" class="st5" width="6.1" height="242.8"/>
	<path class="st1" d="M351.2,402.1l15.1-3.7c1.2-0.3,2.4,0.4,2.7,1.6l2.5,10.3c0.3,1.2-0.4,2.4-1.6,2.7l-15.1,3.7
		c-1.2,0.3-2.4-0.4-2.7-1.6l-2.5-10.3C349.3,403.6,350,402.4,351.2,402.1z"/>
	<path class="st6" d="M351.2,402.1l15.1-3.7c1.2-0.3,2.4,0.4,2.7,1.6l2.5,10.3c0.3,1.2-0.4,2.4-1.6,2.7l-15.1,3.7
		c-1.2,0.3-2.4-0.4-2.7-1.6l-2.5-10.3C349.3,403.6,350,402.4,351.2,402.1z"/>
	<path class="st7" d="M347.9,396.1l18.5-4.5c1.1-0.3,2.2,0.4,2.5,1.5l1.7,6.7c0.3,1.1-0.4,2.2-1.5,2.5l-18.5,4.5
		c-1.1,0.3-2.2-0.4-2.5-1.5l-1.7-6.7C346.1,397.5,346.8,396.3,347.9,396.1z"/>
	<polygon class="st7" points="309.8,159.1 290.3,163.9 292.6,147.6 294.1,137.2 300.2,145.8 	"/>
	<polygon class="st1" points="300.2,145.8 292.6,147.6 294.1,137.2 	"/>
	<path class="st8" d="M359.9,143.7c-0.1,6-1.3,17.3,1.9,21c-7.3,2.4-13.8,6.6-18.9,12.3c-4.3-7.1,1.3-10.9,1.3-10.9
		c6.2-2,5.9-6.7,4.5-11L359.9,143.7z"/>
	<path class="st9" d="M341.1,170.9c1.6-6.1-3-7,4.8-10c6.1-2.4,17.5-2.7,20.2-0.8c1.5,1.1-0.6,4.9-0.6,4.9L341.1,170.9z"/>
	<path class="st8" d="M374.7,169.6c0.5,0.7,0.8,1.3,1.1,1.9s0.7,1.2,1,1.8c0.6,1.2,1.2,2.4,1.8,3.7c1.2,2.5,2.2,5,3.1,7.6
		c1.9,5.2,3.2,10.5,4,16l0.3,2.1c0,0.3,0.1,0.8,0.1,1.3s0,0.9,0,1.3c0,1.5-0.1,2.9-0.3,4.4c-0.4,2.8-0.9,5.4-1.5,8
		c-1.2,5.1-2.7,10.2-4.5,15.1c-0.5,1.5-2.2,2.3-3.7,1.8c-1.3-0.4-2-1.7-1.9-3l0,0c0.4-5.1,0.9-10.2,1.2-15.2c0.2-2.5,0.3-5,0.4-7.4
		c0-1.2,0-2.3-0.1-3.3l-0.1-0.7l-0.1-0.6l-0.4-1.7c-1.1-4.7-2.5-9.3-4.3-13.7c-0.9-2.2-1.9-4.5-2.9-6.6c-0.5-1.1-1-2.2-1.6-3.2
		l-0.8-1.6l-0.8-1.4l-0.1-0.3c-1.5-2.8-0.5-6.4,2.4-8c2.7-1.5,6.2-0.6,7.8,2.1L374.7,169.6z"/>
	<path class="st8" d="M372,234.7l0.8-1.4l2.3-3.9l4.3,2.4c0.9,4-1.8,7.5-1.8,7.5l-1.2,1c-0.9,0.7-2.1,0.7-2.9-0.1l-0.9-0.9
		C371.3,238.1,371.1,236.2,372,234.7z"/>
	<path class="st8" d="M315,232.6l-0.7-2.5c-0.3-1.2-1.6-2-2.8-1.6l-3,0.8l-1.9,0.5c-2,0.5-3.4,2.3-3.5,4.4v1.5c0,1.3,1,2.5,2.4,2.6
		l1.9,0.2c2.8-0.4,5.3-1.8,7.2-3.9C315,233.9,315.2,233.3,315,232.6z"/>
	<path class="st1" d="M369.7,165.2c5.3,2.3,10.1,7.9,14,18.1c-1.3,4.2-14.3,11.2-14.3,11.2S353.2,160.1,369.7,165.2z"/>
	<path class="st1" d="M326.3,178.3c0,3.8-6.3,12.6,1,17.8c0.6,7.7,1.5,15.3,3.1,27.9h38.8c-3.7-14-0.5-23.4,5.4-48
		c1.3-5.1-1.8-10.2-6.8-11.5c-0.5-0.1-0.9-0.2-1.4-0.2c-1.5-0.1-3.2-0.3-4.9-0.4c-5.9-0.4-11.8-0.4-17.6,0c-1.9,0.2-3.9,0.4-5.8,0.7
		C331.3,165.6,326.2,171.4,326.3,178.3z"/>
	<path class="st8" d="M339.1,174.6c0.1,2.9,0,5.6,0,8.4s-0.2,5.6-0.4,8.4c-0.3,5.7-1,11.3-2,16.9c-0.1,0.7-0.3,1.4-0.5,2.2
		s-0.3,1.4-0.5,2.2l-0.3,1.1l-0.2,0.6c-0.1,0.3-0.1,0.5-0.2,0.7c-0.4,1.1-1,2.1-1.7,3c-1,1.3-2,2.5-3.2,3.6c-1,1.1-2.1,2-3.2,3
		c-4.3,3.7-8.8,7-13.5,10c-1.4,0.9-3.2,0.4-4.1-0.9c-0.7-1.1-0.6-2.5,0.3-3.5l0,0c3.6-4.1,7.3-8.1,10.7-12.1c0.8-1,1.7-2,2.4-3
		c0.7-0.9,1.4-1.8,2-2.8c0.2-0.4,0.4-0.8,0.3-0.6s0-0.1,0-0.2l0.1-0.4l0.2-0.9c0.1-0.6,0.2-1.2,0.3-1.8s0.2-1.2,0.3-1.9
		c0.7-5.1,1-10.4,1.2-15.7s0.3-10.7,0.3-16l0,0c0-3.2,2.6-5.9,5.8-5.9s5.9,2.6,5.9,5.8L339.1,174.6z"/>
	<path class="st1" d="M334.8,165.4c-4.8,2.4-9.5,7-11.5,17.6c1.3,4.2,18.4,12.3,18.4,12.3S351.2,159.3,334.8,165.4z"/>
	<path class="st9" d="M335.9,139.9c0.1,0.8-0.2,1.4-0.7,1.5s-1-0.4-1.1-1.2s0.2-1.4,0.7-1.5S335.8,139.1,335.9,139.9z"/>
	<path class="st9" d="M335,138.7l-1.9-0.2C333.1,138.5,334.2,139.7,335,138.7z"/>
	<path class="st10" d="M335.7,140.7c-0.4,1.9-1,3.7-1.9,5.4c0.9,0.4,1.9,0.4,2.8,0L335.7,140.7z"/>
	<path class="st9" d="M333.9,134.7c-0.1,0-0.2,0-0.3-0.1c-0.2-0.2-0.2-0.5,0-0.6c0,0,0,0,0,0c1-1.1,2.4-1.6,3.9-1.5
		c0.2,0,0.4,0.3,0.4,0.5c0,0,0,0,0,0c-0.1,0.2-0.3,0.4-0.5,0.4c-1.2-0.1-2.3,0.3-3.1,1.2C334.1,134.6,334,134.7,333.9,134.7z"/>
	<path class="st8" d="M360.6,132.4c1,9.4,1.6,13.4-2.2,19c-5.8,8.6-17.4,8-21.1-0.8c-3.4-8-4.4-22,4-27.5c5.7-3.9,13.4-2.4,17.3,3.3
		C359.7,128.2,360.5,130.3,360.6,132.4z"/>
	<path class="st9" d="M343.5,139.3c-6-1.1-7.5-7.9-5.2-10.9c-10.1,0.4-16.9-10.9-6-17.3s20.6,3.5,19.8,7.3
		c13.5-1.2,21.3,9.9,14,18.1c9.7,1.6,24.1,12.5,13.5,23.9c14.4,2.1,15.9,47.1-23.2,39.1c-41.2-8.4-5.4-44.3-5.4-44.3
		S340.5,152.2,343.5,139.3z"/>
	<path class="st9" d="M381.8,163.3l-0.9-0.5c3.6-5.9,4.2-11.3,1.8-16c-3.1-6-10.8-9.5-16.7-9.9l0.1-1c6.2,0.4,14.2,4,17.5,10.4
		C386.2,151.3,385.6,157.1,381.8,163.3z"/>
	<path class="st4" d="M370.5,137.4c3.5-0.6,1.8-6.2-0.7-7.7s-14.7,0.9-13.4,4.8S365.8,138.2,370.5,137.4z"/>
	<path class="st1" d="M371.1,136c3.4-0.7,2.1-5.2-0.5-6.6s-13.2-0.4-11.8,3.5S366.5,136.9,371.1,136z"/>
	<path class="st9" d="M335,129.5c-2.3,0-4.5-0.8-6.3-2.3c-2.9-2.2-4.5-5.6-4-8.5c0.3-1.9,1.4-4.4,5.5-6.1l0.4,0.9
		c-2.9,1.2-4.6,3-4.9,5.3c-0.4,2.6,1.1,5.6,3.7,7.6c2.4,2,5.8,2.6,8.8,1.5l0.4,0.9C337.4,129.3,336.2,129.5,335,129.5z"/>
	<path class="st8" d="M345.9,140.4c-0.5,2.5-0.6,3.5-1.9,4.7c-1,1.1-2.7,1.2-3.8,0.2c-0.6-0.5-0.9-1.2-0.9-2
		c-0.2-2.3,0.6-5.9,2.9-6.7S346.4,137.9,345.9,140.4z"/>
	<path class="st4" d="M340.4,148.2l-0.8-1.4c-0.1-0.1-0.1-0.3,0-0.4l0.8-1.4c0.1-0.2,0.4-0.3,0.5-0.2c0.1,0,0.1,0.1,0.2,0.2l0.8,1.4
		c0.1,0.1,0.1,0.3,0,0.4l-0.8,1.4c-0.1,0.2-0.4,0.3-0.5,0.2C340.5,148.3,340.4,148.3,340.4,148.2z"/>
	<path class="st8" d="M330.4,224c0,0-1.4,50.1-3.2,83.1c-1.9,30.3-4.4,101.1-4.4,101.1l7.6,0.4c0,0,16.9-59.6,16.2-95.6
		c19.9-50.3,12.7-87.5,12.7-87.5L330.4,224z"/>
	<path class="st9" d="M323.3,405c-0.3-0.3-0.8-0.3-1.2,0c-3.7,2.7-8.1,4.2-12.7,4.2c-5.1,0.2-3.8,3,3.4,3.9
		c8.5,1.1,10.4,2.8,13.1,3.5s5-1.4,4.9-7.2c0-0.4-0.3-0.8-0.6-0.9C327.9,407.6,325.5,406.5,323.3,405z"/>
	<path class="st8" d="M340.5,224c0,0,14,59.3,22.1,87c8.5,29,15.3,95.2,15.2,97.4h6.6c0,0,8.5-53.6-2-97.4
		c-1-71-13.2-86.9-13.2-86.9L340.5,224z"/>
	<path class="st9" d="M377.7,406c-0.4-0.1-0.8,0-1,0.3c-1.7,2.2-3,4.7-8,6.8c-4.2,1.8-1.9,4.2,4.7,3.3c7.7-1.1,7.8,0.2,10.4,0.2
		s3.8-2.6,1.9-8.2c-0.1-0.4-0.4-0.7-0.8-0.7C382.4,407.4,380,406.9,377.7,406z"/>
	<path class="st9" d="M330.4,224c0,0-6.6,43.9-5.7,104c20.9-0.1,41.6-3.3,61.6-9.5c0,0,0.3-77.8-17.1-94.5
		C359.2,221.3,330.6,223.1,330.4,224z"/>
	<path class="st11" d="M331.2,319.5c-0.1,0-0.2-0.1-0.3-0.2c-1.9-38.4,2.7-92.5,2.7-93c0-0.1,0.1-0.2,0.2-0.2c0,0,0,0,0,0
		c0.1,0,0.2,0.1,0.2,0.3c0,0,0,0,0,0c0,0.6-4.6,54.6-2.7,93C331.4,319.4,331.3,319.5,331.2,319.5
		C331.2,319.5,331.2,319.5,331.2,319.5L331.2,319.5z"/>
	<polygon class="st5" points="357.3,281.1 363,251 365.3,258.2 	"/>
</g>
</svg>
