<?xml version="1.0" encoding="utf-8"?>
<!-- Generator: Adobe Illustrator 22.1.0, SVG Export Plug-In . SVG Version: 6.00 Build 0)  -->
<svg version="1.1" id="Layer_1" xmlns="http://www.w3.org/2000/svg" xmlns:xlink="http://www.w3.org/1999/xlink" x="0px" y="0px"
	 viewBox="0 0 500 500" style="enable-background:new 0 0 500 500;" xml:space="preserve">
<style type="text/css">
	.st0{fill:#F5F5F5;}
	.st1{fill:#FFC3BD;}
	.st2{opacity:0.2;fill:#011627;enable-background:new    ;}
	.st3{fill:#E51F37;}
	.st4{opacity:0.4;}
	.st5{fill:#011627;}
	.st6{opacity:0.4;fill:#011627;enable-background:new    ;}
	.st7{fill:#ED847E;}
	.st8{opacity:0.3;fill:#011627;enable-background:new    ;}
	.st9{opacity:0.6;fill:#FFFFFF;enable-background:new    ;}
	.st10{opacity:0.4;fill:#E51F37;enable-background:new    ;}
	.st11{fill:#FFFFFF;}
</style>
<g id="freepik--Shadow--inject-37">
	<ellipse id="freepik--path--inject-37" class="st0" cx="250" cy="416.2" rx="193.9" ry="11.3"/>
</g>
<g id="freepik--Character--inject-37">
	<polygon class="st1" points="296.6,387.3 309.3,380 317,395.5 306.4,401.6 	"/>
	<polygon class="st2" points="296.6,387.3 309.3,380 313.6,388.7 302.1,395.3 	"/>
	<path class="st3" d="M301.1,337.4c9-20.8,23.8-45,17.7-67.3l-40.4-6.4c0,0-8.3,49.9-6.7,70.3c1.7,21.3,26.8,59,26.8,59l14.5-8.5
		C313.1,384.5,306.8,352.3,301.1,337.4z"/>
	<g class="st4">
		<path class="st5" d="M301.1,337.4c9-20.8,23.8-45,17.7-67.3l-40.4-6.4c0,0-8.3,49.9-6.7,70.3c1.7,21.3,26.8,59,26.8,59l14.5-8.5
			C313.1,384.5,306.8,352.3,301.1,337.4z"/>
	</g>
	<polygon class="st3" points="314.5,384.4 298,394.1 292.8,387.3 312.2,377 	"/>
	<path class="st2" d="M304.1,330.8c4.9-10.5,10.5-21.8,13.6-33C308.2,299.4,300.1,307.1,304.1,330.8z"/>
	<path class="st5" d="M316.6,391.8c-0.2-0.3-0.6-0.3-0.8-0.1c-0.1,0-0.1,0.1-0.2,0.2c-2.1,3.6-8.1,7-10.4,8.2
		c-0.5,0.3-0.9,0.8-1.1,1.4c-1.1,3.5-5.6,8.7-5.6,8.7c0.2,0.8,0.5,1.6,0.8,2.3c0.4,0.8,1.4,1.2,2.3,0.8c0.1-0.1,0.2-0.1,0.3-0.2
		l18.4-15c0.6-0.5,0.7-1.4,0.2-2c0,0-0.1-0.1-0.1-0.1C319,394.6,317.7,393.3,316.6,391.8z"/>
	<polygon class="st1" points="320.4,394.4 335,394.5 333.7,411.8 321.5,411.7 	"/>
	<path class="st5" d="M335,409.1c0-0.3-0.2-0.6-0.5-0.6c-0.1,0-0.2,0-0.3,0c-4,1.5-10.7,0.4-13.2-0.2c-0.6-0.1-1.2,0-1.8,0.4
		c-3.2,2-9,3.2-9,3.2c-0.4,0.7-0.7,1.4-1,2.2c-0.3,0.9,0.2,1.8,1.1,2.1c0.2,0.1,0.3,0.1,0.5,0.1h22.6c0.8,0,1.4-0.6,1.4-1.4
		c0,0,0,0,0-0.1C334.8,413,334.8,411,335,409.1z"/>
	<polygon class="st2" points="320.4,394.4 335,394.5 334.3,404.2 321,404.1 	"/>
	<path class="st3" d="M344.3,336.2c4.6-21.7,12.8-50,7-61.2l-47.3-7.3c0,0,5.9,45,7.4,65.9c1.6,21.8,8,66.8,8,66.8h15.8
		C335.3,400.3,346.3,362.1,344.3,336.2z"/>
	<path class="st6" d="M344.3,336.2c4.6-21.7,12.8-50,7-61.2l-47.3-7.3c0,0,5.9,45,7.4,65.9c1.6,21.8,8,66.8,8,66.8h15.8
		C335.3,400.3,346.3,362.1,344.3,336.2z"/>
	<polygon class="st3" points="337,401 318,401 317.6,393 338.6,393.4 	"/>
	<path class="st1" d="M316.5,199l-1.2,1l-1.1,0.9c-0.8,0.6-1.5,1.1-2.3,1.7c-1.5,1.1-3,2.1-4.6,3.1c-3.2,2-6.4,3.9-9.8,5.6
		c-3.5,1.8-7,3.3-10.7,4.5c-4,1.4-8.1,2.3-12.3,2.7l-0.8,0.1c-2.1,0.2-4.1-0.4-5.8-1.7c-2.9-2.3-5.2-5.2-6.7-8.5
		c-0.7-1.4-1.2-2.8-1.6-4.3c-0.4-1.3-0.7-2.7-1-4.1c-0.2-1.3-0.4-2.7-0.5-4c-0.1-1.3-0.1-2.6-0.1-3.9s0.1-2.6,0.2-3.8l0.2-1.9l0.3-2
		c0.5-2.8,3.1-4.8,6-4.3c1.8,0.3,3.2,1.5,3.9,3.1l0.4,1c0.1,0.4,0.3,0.9,0.5,1.4l0.5,1.5c0.3,1,0.7,2,1.1,3c0.7,1.9,1.5,3.7,2.4,5.4
		c0.7,1.5,1.6,2.9,2.7,4.2c0.6,0.8,1.3,1.4,2.2,1.7l-6.6-1.6c2.6-0.6,5.2-1.5,7.7-2.6c1.3-0.6,2.7-1.3,4-1.9s2.7-1.4,4-2.2
		c2.7-1.6,5.4-3.2,8-5c1.3-0.9,2.6-1.8,4-2.7l1.9-1.4l1.8-1.3l0.4-0.3c4.6-3.5,11.1-2.6,14.6,1.9C321.9,189,321.1,195.5,316.5,199
		L316.5,199z"/>
	<path class="st1" d="M268.9,183.9l-5.2,3.4c-6.3,1.4-6.7-7.1-6.7-7.1l-1.8-4c-0.6-1.5,0-3.2,1.4-4l3.6-2.4c1.5-1.1,3.6-0.9,4.7,0.6
		l2.1,3.2c0.6,0.9,1,2,1.1,3.1L268.9,183.9z"/>
	<path class="st5" d="M316.2,178c-9.9-0.6-30.3,12.2-30.3,12.2c-2.3,7.5,1.7,21.6,7.7,25.1c0,0,15.1-6.5,22.3-12.8
		C324.5,194.8,336.2,179.2,316.2,178z"/>
	<path class="st5" d="M317.1,178c13.6,0.8,27,3.1,40.1,6.9c7.5,2.3,12.3,7.9,8.9,23.6c-6.9,31.8-6.3,57.7-12.2,68.6
		c0,0-68.7,4.2-77.9-11.6c1.9-39.2,20.7-69.1,29-81.5C307.7,180,312.3,177.8,317.1,178z"/>
	<path class="st1" d="M321,182.4c1.8-1.3,3.2-0.1,4.3-2.3c0.6-1.7,0.6-3.6,0-5.4l19.8-7.1c-1.4,6.7-2.5,12,0.1,15.1
		c0.1,5.1-11.8,9.9-21.9,7.9C314.4,189,318.4,184.2,321,182.4z"/>
	<path class="st2" d="M325.5,175.3l15-1.4c-4.5,5.2-11.6,7.3-14.9,5.4C325.8,178,325.8,176.6,325.5,175.3z"/>
	<path class="st5" d="M324,156.5c-0.8-7.7,6.7-17.4,13-14.1S324,156.5,324,156.5z"/>
	<path class="st1" d="M350.4,160.9c-4,8.8-6.9,14.6-13.5,16.4c-13.2,3.6-17.5-3.7-16.3-13.5c1.1-8.8,7.5-21.7,17.6-21.8
		c7.3-0.1,13.3,5.8,13.4,13.1C351.7,157.1,351.2,159.1,350.4,160.9z"/>
	<path class="st5" d="M348.1,167.9c-4.5-0.6-7.9-8.8-3.1-13.1s3.1-8.4-0.3-9.6s-9.7-0.3-11.1-3.4s8.1-5.3,13.6-1.8s5.3,1.4,5.3,1.4
		c0.5,0.6,0.4,1.4-0.2,1.9c-0.2,0.2-0.5,0.3-0.8,0.3c4.4,2.9,9.2,9.9,4.7,12.7C361.7,159.5,353,167.1,348.1,167.9z"/>
	<path class="st5" d="M354.7,155.9c1.6,0.7,3.4,0.1,4.3-1.3C359,154.6,359.9,158.3,354.7,155.9z"/>
	<path class="st5" d="M332.5,165.1c0.4-0.2,0.8-0.4,1.2-0.7c0.1-0.1,0.1-0.2,0-0.3c0,0,0,0,0,0c-0.1-0.1-0.2-0.1-0.4-0.1
		c-1.8,1.2-4,1.5-6,0.9c-0.1,0-0.3,0-0.3,0.1c0,0.1,0,0.3,0.1,0.3C328.9,165.9,330.8,165.9,332.5,165.1z"/>
	<path class="st2" d="M337.8,158.2c1.1-0.2,2.3,0,3.3,0.6C340,158.8,338.9,158.6,337.8,158.2z"/>
	<path class="st2" d="M337.7,159c1,0,2,0.5,2.7,1.3C339.5,160,338.5,159.6,337.7,159z"/>
	<path class="st1" d="M349.9,170.4c-1.8,1.6-4.2,2.4-6.6,2.3c-3.2-0.2-2.8-2.7-1-5.2c1.6-2.2,4.2-5.4,7-4S352,168.4,349.9,170.4z"/>
	<path class="st5" d="M336,158c-0.3,0.7-0.9,1.2-1.4,1s-0.6-0.9-0.4-1.7s0.9-1.2,1.4-1S336.2,157.2,336,158z"/>
	<path class="st5" d="M327.5,154.7c-0.3,0.7-0.9,1.2-1.4,1s-0.6-0.9-0.4-1.7s0.9-1.2,1.4-1S327.8,153.9,327.5,154.7z"/>
	<path class="st7" d="M330.1,155.9l-2.1,6.4c-1.6,0.4-3.2-0.2-4.2-1.4C325.9,157.6,330.1,155.9,330.1,155.9z"/>
	<path class="st5" d="M339.9,153.7c0.1,0,0.2,0,0.2,0c0.2-0.1,0.4-0.3,0.4-0.5c-0.2-1.5-1.2-2.7-2.5-3.4c-0.2-0.1-0.5,0-0.6,0.2
		c0,0,0,0,0,0c-0.1,0.2,0,0.5,0.3,0.6l0,0c1.1,0.5,1.8,1.5,2,2.7C339.6,153.5,339.7,153.6,339.9,153.7z"/>
	<path class="st5" d="M324.3,151.2c0.1,0,0.3,0,0.4-0.1c0.8-0.8,2-1.1,3.2-0.9c0.2,0.1,0.5-0.1,0.6-0.3c0,0,0,0,0,0
		c0.1-0.2-0.1-0.5-0.3-0.6c0,0,0,0,0,0c-1.4-0.3-2.9,0.1-4,1.1c-0.2,0.2-0.2,0.5,0,0.6C324.2,151.2,324.3,151.2,324.3,151.2z"/>
	<path class="st3" d="M218.4,209l-4.3,11.9c-0.7,2.1-2.5,3.6-4.7,3.9l-57.7,8.7c-3.7,0.6-5.9,4.4-4.9,8.5l20.2,83.1
		c1,4.1,4.8,7,8.6,6.5l137.3-20.8c3.7-0.6,5.9-4.4,4.9-8.5l-24.3-100.2c-1-4.1-4.8-7.1-8.6-6.5l-61.7,9.3
		C221,205.4,219.1,206.9,218.4,209z"/>
	<path class="st8" d="M218.4,209l-4.3,11.9c-0.7,2.1-2.5,3.6-4.7,3.9l-57.7,8.7c-3.7,0.6-5.9,4.4-4.9,8.5l20.2,83.1
		c1,4.1,4.8,7,8.6,6.5l137.3-20.8c3.7-0.6,5.9-4.4,4.9-8.5l-24.3-100.2c-1-4.1-4.8-7.1-8.6-6.5l-61.7,9.3
		C221,205.4,219.1,206.9,218.4,209z"/>
	<path class="st3" d="M188.9,87.4c1.4,0,2.7,0.1,4.1,0.2c15.7-21.8,46.2-26.7,67.9-11c7.6,5.5,13.4,13,16.9,21.8
		c18.2,3.1,30.4,20.4,27.3,38.6c-2.8,16.1-16.7,27.8-33,27.8h-83.1c-21.4-0.3-38.4-18-38.1-39.3C151.1,104.6,168,87.7,188.9,87.4z"
		/>
	<polygon class="st3" points="192.4,151.3 192.4,247.8 263.2,247.8 263.2,172.3 242.2,151.3 	"/>
	<polygon class="st9" points="192.4,151.3 192.4,247.8 263.2,247.8 263.2,172.3 242.2,151.3 	"/>
	<polygon class="st10" points="242.2,172.3 242.2,151.3 263.2,172.3 	"/>
	
		<rect x="189.8" y="331.7" transform="matrix(0.9888 -0.1494 0.1494 0.9888 -47.4625 32.4473)" class="st3" width="5.1" height="1"/>
	
		<rect x="200.3" y="329.2" transform="matrix(0.9888 -0.1494 0.1494 0.9888 -46.8952 34.9369)" class="st3" width="17.7" height="1"/>
	<path class="st3" d="M243.7,218.5l-6.5,10.9c-1.2,1.9-3.1,3.3-5.3,3.6l-57.7,8.7c-3.8,0.7-6.5,4-6.4,7.9l3.4,75.8
		c0,3.3,2.8,6,6.1,5.9c0.3,0,0.6,0,0.9-0.1l137.3-20.8c3.8-0.7,6.5-4,6.4-7.9l-4-91.4c0-3.3-2.8-6-6.1-5.9c-0.3,0-0.6,0-0.9,0.1
		l-61.8,9.4C246.8,215.2,244.8,216.5,243.7,218.5z"/>
	<path class="st11" d="M245.7,137.3c-0.7,0-1.2-0.5-1.2-1.2c0-0.3,0.1-0.7,0.4-0.9c9.4-9.4,9.3-24.6-0.1-33.9s-24.6-9.3-33.9,0.1
		c-9.3,9.4-9.3,24.5,0,33.9c0.5,0.5,0.5,1.3,0,1.8c0,0,0,0,0,0c-0.5,0.5-1.3,0.5-1.8,0c-10.4-10.4-10.4-27.1,0-37.5
		c10.4-10.4,27.1-10.4,37.5,0c10.4,10.4,10.4,27.1,0,37.5c0,0,0,0,0,0C246.3,137.2,246,137.3,245.7,137.3z"/>
	<path class="st11" d="M238.4,144.7v-27.7c0-2.5-2-4.5-4.5-4.5h-12.2c-2.5,0-4.5,2-4.5,4.5v27.7h-4.6l15.2,13.1l15.2-13.1H238.4z"/>
	<path class="st1" d="M361.8,213.5l-0.6,1.4l-0.6,1.3c-0.4,0.8-0.8,1.6-1.2,2.4c-0.8,1.6-1.7,3.2-2.6,4.7c-1.8,3.1-3.7,6.2-5.8,9.1
		c-1.1,1.5-2.2,3-3.4,4.4s-2.4,2.9-3.8,4.3c-2.7,2.9-5.8,5.6-9.1,7.9l-0.7,0.5c-0.4,0.2-0.7,0.4-1.1,0.6c-3.5,1.3-7.2,2-11,2.1
		c-3.2,0.1-6.3,0-9.5-0.4c-3-0.3-6-0.8-8.9-1.5c-2.9-0.6-5.8-1.5-8.6-2.4c-2.7-1-4.2-4-3.2-6.7c0.7-1.9,2.4-3.3,4.5-3.5h0.2l8.1-0.7
		c2.7-0.2,5.4-0.5,7.9-0.9c1.3-0.2,2.6-0.3,3.8-0.6s2.4-0.5,3.6-0.7c1.9-0.4,3.7-1,5.4-1.9l-1.8,1.1c2-1.8,3.8-3.8,5.4-5.9
		c0.9-1.1,1.7-2.3,2.6-3.5s1.7-2.4,2.5-3.7c1.6-2.6,3.2-5.2,4.6-7.9c0.8-1.3,1.5-2.7,2.2-4.1l2-3.9l0.2-0.5c2.7-5.1,9-7,14.1-4.4
		C361.9,202.7,363.9,208.5,361.8,213.5L361.8,213.5z"/>
	<path class="st5" d="M365,195.8c4.8,17.3-7.4,34.5-7.4,34.5c-6.5,1.9-23.5-4.8-27.1-11.1c0,0,6-16.3,13-25
		C350,186,362.2,185.7,365,195.8z"/>
	<path class="st1" d="M298.3,238l1,6.1c-1.3,6.3-9.2,3.2-9.2,3.2h-4.4c-1.6-0.1-2.9-1.3-3.1-2.9l-0.7-4.3c-0.4-1.8,0.7-3.6,2.5-4.1
		l3.8-0.6c1.1-0.2,2.2-0.1,3.3,0.3L298.3,238z"/>
</g>
</svg>
