<?xml version="1.0" encoding="utf-8"?>
<!-- Generator: Adobe Illustrator 22.1.0, SVG Export Plug-In . SVG Version: 6.00 Build 0)  -->
<svg version="1.1" id="Layer_1" xmlns="http://www.w3.org/2000/svg" xmlns:xlink="http://www.w3.org/1999/xlink" x="0px" y="0px"
	 viewBox="0 0 500 500" style="enable-background:new 0 0 500 500;" xml:space="preserve">
<style type="text/css">
	.st0{fill:#F5F5F5;}
	.st1{fill:#E51F37;}
	.st2{opacity:0.8;fill:#FFFFFF;enable-background:new    ;}
	.st3{opacity:0.5;fill:#FFFFFF;enable-background:new    ;}
	.st4{opacity:0.5;}
	.st5{fill:#FFFFFF;}
	.st6{opacity:0.3;fill:#FFFFFF;enable-background:new    ;}
	.st7{fill:#011627;}
	.st8{fill:#7F3E3B;}
	.st9{opacity:0.4;fill:#011627;enable-background:new    ;}
	.st10{opacity:0.4;fill:#FFFFFF;enable-background:new    ;}
	.st11{fill:#A02724;}
	.st12{opacity:0.2;fill:#011627;enable-background:new    ;}
	.st13{opacity:0.1;fill:#011627;enable-background:new    ;}
	.st14{fill:#FFC3BD;}
	.st15{fill:#ED893E;}
	.st16{opacity:0.3;fill:#011627;enable-background:new    ;}
	.st17{fill:#FFB573;}
	.st18{fill:#FF8B7B;}
	.st19{fill:#FF5652;}
</style>
<g id="freepik--Shadow--inject-10">
	<ellipse id="freepik--path--inject-10" class="st0" cx="245.2" cy="412.4" rx="193.9" ry="11.3"/>
</g>
<g id="freepik--Coding--inject-10">
	<path class="st1" d="M394.3,158.2l-219.8,0.1l-1.7,1.5l-0.9,27.9l0,0l-0.4,4.3l-0.9,10.1l0,0l-0.7,8.1l0,0l-0.4,4.5h-56.2l-1.7,1.5
		L104,322.5c-0.3,2.5,1.5,4.7,4,5c0.2,0,0.4,0,0.5,0H160l0.4-4.8h-0.3l1-11.5l0,0l0.7-8.1l0,0l0.6-6.4l0,0l0.7-8.1l0,0l0.6-6.5
		l0.7-8l0,0l0.3-3.2h56.4l-1,11.2v0.1l0,0l-3.5,40.4l0,0l-0.1,1.7v0.6l0,0l-0.2,2.5L271,329l1.7-1.3l1.4-16.4l0,0l0.7-8.1l0,0
		l1.8-20.9l0.7-8l0,0l0.3-3.2H334l1.5-17.6l0,0l0.6-6.5l0.7-8l0,0l0.7-8.1l0,0l1.4-16.3h51.7l3.1,1.5l1.7-1.5l4.3-50.6
		C399.8,160.9,397.4,158.3,394.3,158.2z"/>
	<path class="st1" d="M329.6,329H381c2.8,0,5.2-2.2,5.5-5l4.4-52.5l-56.8-0.2l-1.7,1.3L329.6,329z"/>
	<polygon class="st1" points="391.9,216.2 396.1,167.4 172.2,167.4 167.9,216.2 114.4,216.2 104.8,326.5 158.3,326.5 163,272.6 
		219.4,272.6 214.7,326.5 271.1,326.5 275.9,272.6 332.3,272.6 327.6,326.5 382.2,326.5 386.9,272.6 332.3,272.6 337.3,216.2 	"/>
	<polygon class="st2" points="391.9,216.2 396.1,167.4 172.2,167.4 167.9,216.2 114.4,216.2 104.8,326.5 158.3,326.5 163,272.6 
		219.4,272.6 214.7,326.5 271.1,326.5 275.9,272.6 332.3,272.6 327.6,326.5 382.2,326.5 386.9,272.6 332.3,272.6 337.3,216.2 	"/>
	<path class="st1" d="M244.3,226.1H130.7c-1,0-1.9-0.8-1.9-1.8c0-0.1,0-0.1,0-0.2l0.4-4c0.1-1.1,1.1-2,2.2-2H245
		c1,0,1.8,0.8,1.9,1.8c0,0.1,0,0.1,0,0.2l-0.4,4C246.4,225.2,245.4,226.1,244.3,226.1z"/>
	<path class="st3" d="M244.3,226.1H130.7c-1,0-1.9-0.8-1.9-1.8c0-0.1,0-0.1,0-0.2l0.4-4c0.1-1.1,1.1-2,2.2-2H245
		c1,0,1.8,0.8,1.9,1.8c0,0.1,0,0.1,0,0.2l-0.4,4C246.4,225.2,245.4,226.1,244.3,226.1z"/>
	<path class="st1" d="M306.6,226.1h-54.7c-1,0-1.8-0.8-1.9-1.8c0-0.1,0-0.1,0-0.2l0.4-4c0.1-1.1,1.1-2,2.2-2h54.8
		c1,0,1.8,0.8,1.9,1.8c0,0.1,0,0.1,0,0.2l-0.4,4C308.7,225.2,307.7,226.1,306.6,226.1z"/>
	<path class="st3" d="M306.6,226.1h-54.7c-1,0-1.8-0.8-1.9-1.8c0-0.1,0-0.1,0-0.2l0.4-4c0.1-1.1,1.1-2,2.2-2h54.8
		c1,0,1.8,0.8,1.9,1.8c0,0.1,0,0.1,0,0.2l-0.4,4C308.7,225.2,307.7,226.1,306.6,226.1z"/>
	<path class="st1" d="M243,240.5H129.4c-1,0-1.8-0.8-1.9-1.8c0-0.1,0-0.1,0-0.2l0.3-4c0.1-1.1,1.1-2,2.2-2h113.6
		c1,0,1.8,0.8,1.9,1.8c0,0.1,0,0.1,0,0.2l-0.4,4C245.1,239.7,244.1,240.5,243,240.5z"/>
	<path class="st3" d="M243,240.5H129.4c-1,0-1.8-0.8-1.9-1.8c0-0.1,0-0.1,0-0.2l0.3-4c0.1-1.1,1.1-2,2.2-2h113.6
		c1,0,1.8,0.8,1.9,1.8c0,0.1,0,0.1,0,0.2l-0.4,4C245.1,239.7,244.1,240.5,243,240.5z"/>
	<path class="st1" d="M217.4,269.4h-90.5c-1,0-1.8-0.8-1.9-1.8c0-0.1,0-0.1,0-0.2l0.3-4c0.1-1.1,1.1-2,2.2-2h90.5
		c1,0,1.8,0.8,1.9,1.8c0,0.1,0,0.1,0,0.2l-0.4,4C219.5,268.6,218.5,269.4,217.4,269.4z"/>
	<path class="st1" d="M174.3,203.5H169l-0.7,8.1h5.3c1.1,0,2.1-0.9,2.2-2l0.4-4c0.1-1-0.6-1.9-1.6-2.1
		C174.5,203.5,174.4,203.5,174.3,203.5z"/>
	<path class="st1" d="M234.8,189.1h-64.5l-0.7,8.1h64.5c1.1,0,2.1-0.9,2.2-2l0.4-4c0.1-1-0.6-1.9-1.6-2.1
		C235,189.1,234.9,189.1,234.8,189.1z"/>
	<path class="st3" d="M234.8,189.1h-64.5l-0.7,8.1h64.5c1.1,0,2.1-0.9,2.2-2l0.4-4c0.1-1-0.6-1.9-1.6-2.1
		C235,189.1,234.9,189.1,234.8,189.1z"/>
	<path class="st1" d="M334.6,246.9H128.9c-1.1,0-2.1,0.9-2.2,2l-0.3,4c-0.1,1,0.6,1.9,1.7,2c0.1,0,0.1,0,0.2,0h205.7L334.6,246.9z"
		/>
	<path class="st3" d="M334.6,246.9H128.9c-1.1,0-2.1,0.9-2.2,2l-0.3,4c-0.1,1,0.6,1.9,1.7,2c0.1,0,0.1,0,0.2,0h205.7L334.6,246.9z"
		/>
	<path class="st1" d="M335.8,232.4h-84.5c-1.1,0-2.1,0.9-2.2,2l-0.4,4c-0.1,1,0.6,1.9,1.7,2c0.1,0,0.1,0,0.2,0h84.5L335.8,232.4z"/>
	<path class="st1" d="M244.8,275.8h-25.6l-0.7,8.1h25.6c1.1,0,2.1-0.9,2.2-2l0.4-4c0.1-1-0.5-1.9-1.5-2.1
		C245,275.8,244.9,275.8,244.8,275.8z"/>
	<path class="st1" d="M162.7,275.8h-36.4c-1.1,0-2.1,0.9-2.2,2l-0.3,4c-0.1,1,0.6,1.9,1.7,2c0.1,0,0.1,0,0.2,0H162L162.7,275.8z"/>
	<g class="st4">
		<path class="st5" d="M244.8,275.8h-25.6l-0.7,8.1h25.6c1.1,0,2.1-0.9,2.2-2l0.4-4c0.1-1-0.5-1.9-1.5-2.1
			C245,275.8,244.9,275.8,244.8,275.8z"/>
		<path class="st5" d="M162.7,275.8h-36.4c-1.1,0-2.1,0.9-2.2,2l-0.3,4c-0.1,1,0.6,1.9,1.7,2c0.1,0,0.1,0,0.2,0H162L162.7,275.8z"/>
	</g>
	<path class="st1" d="M161.4,290.2h-36.4c-1.1,0-2.1,0.9-2.2,2l-0.4,4c-0.1,1,0.7,1.9,1.7,2c0.1,0,0.1,0,0.2,0h36.4L161.4,290.2z"/>
	<path class="st3" d="M161.4,290.2h-36.4c-1.1,0-2.1,0.9-2.2,2l-0.4,4c-0.1,1,0.7,1.9,1.7,2c0.1,0,0.1,0,0.2,0h36.4L161.4,290.2z"/>
	<path class="st1" d="M160.2,304.7h-36.4c-1.1,0-2.1,0.9-2.2,2l-0.3,4c-0.1,1,0.6,1.9,1.7,2c0.1,0,0.1,0,0.2,0h36.4L160.2,304.7z"/>
	<path class="st1" d="M224.7,304.7h-8.1l-0.7,8.1h8.1c1.1,0,2.1-0.9,2.2-2l0.4-4c0.1-1-0.5-1.9-1.5-2.1
		C224.9,304.7,224.8,304.7,224.7,304.7z"/>
	<g class="st4">
		<path class="st5" d="M160.2,304.7h-36.4c-1.1,0-2.1,0.9-2.2,2l-0.3,4c-0.1,1,0.6,1.9,1.7,2c0.1,0,0.1,0,0.2,0h36.4L160.2,304.7z"
			/>
		<path class="st5" d="M224.7,304.7h-8.1l-0.7,8.1h8.1c1.1,0,2.1-0.9,2.2-2l0.4-4c0.1-1-0.5-1.9-1.5-2.1
			C224.9,304.7,224.8,304.7,224.7,304.7z"/>
	</g>
	<path class="st1" d="M398.2,164.7c0.3-2.5-1.5-4.7-4-5c-0.2,0-0.4,0-0.6,0H172.9l-1.2,14.1h217.7c1.7,0,3,1.3,3,3
		c0,0.1,0,0.2,0,0.3l-3.4,39h4.8L398.2,164.7z"/>
	<path class="st6" d="M398.2,164.7c0.3-2.5-1.5-4.7-4-5c-0.2,0-0.4,0-0.6,0H172.9l-1.2,14.1h217.7c1.7,0,3,1.3,3,3
		c0,0.1,0,0.2,0,0.3l-3.4,39h4.8L398.2,164.7z"/>
	<path class="st1" d="M384,272.6l-4.2,48.4c-0.2,1.9-1.7,3.3-3.6,3.3h-48.4l-0.4,4.8h51.4c2.8,0,5.2-2.2,5.5-5l4.5-51.4L384,272.6z"
		/>
	<path class="st6" d="M384,272.6l-4.2,48.4c-0.2,1.9-1.7,3.3-3.6,3.3h-48.4l-0.4,4.8h51.4c2.8,0,5.2-2.2,5.5-5l4.5-51.4L384,272.6z"
		/>
	<path class="st1" d="M116.5,216.2L107.3,321c-0.2,1.6,1,3.1,2.7,3.3c0.1,0,0.2,0,0.3,0h48.4l-0.4,4.8h-51.4c-2.5,0-4.6-1.9-4.6-4.4
		c0-0.2,0-0.4,0-0.6l9.4-107.9L116.5,216.2z"/>
	<path class="st6" d="M116.5,216.2L107.3,321c-0.2,1.6,1,3.1,2.7,3.3c0.1,0,0.2,0,0.3,0h48.4l-0.4,4.8h-51.4c-2.5,0-4.6-1.9-4.6-4.4
		c0-0.2,0-0.4,0-0.6l9.4-107.9L116.5,216.2z"/>
	<polygon class="st1" points="271.4,324.3 214.9,324.3 214.5,329 270.9,329 	"/>
	<polygon class="st6" points="271.4,324.3 214.9,324.3 214.5,329 270.9,329 	"/>
	<path class="st1" d="M273.1,304.7h-40.7c-1.1,0-2.1,0.9-2.2,2l-0.4,4c-0.1,1,0.6,1.9,1.7,2c0.1,0,0.1,0,0.2,0h40.7L273.1,304.7z"/>
	<path class="st1" d="M333.2,304.7h-3.7l-0.7,8.1h3.7c1.1,0,2.1-0.9,2.2-2l0.4-4c0.1-1-0.5-1.9-1.5-2.1
		C333.4,304.7,333.3,304.7,333.2,304.7z"/>
	<path class="st1" d="M275.6,275.8h-23.2c-1.1,0-2.1,0.9-2.2,2l-0.4,4c-0.1,1,0.6,1.9,1.7,2c0.1,0,0.1,0,0.2,0h23.2L275.6,275.8z"/>
	<path class="st1" d="M402.7,181.9L402.7,181.9c-0.3,0-0.5-0.3-0.5-0.5c0,0,0,0,0,0l1.8-21c0.3-2.8-1.7-5.3-4.5-5.6
		c-0.2,0-0.4,0-0.7,0h-17c-0.3,0-0.5-0.2-0.5-0.5c0-0.3,0.2-0.5,0.5-0.5h17c3.4-0.1,6.1,2.6,6.2,6c0,0.3,0,0.5,0,0.8l-1.8,21
		C403.2,181.7,403,181.9,402.7,181.9C402.7,181.9,402.7,181.9,402.7,181.9z"/>
	<path class="st1" d="M378.1,154.7h-4.3c-0.3,0-0.5-0.2-0.5-0.5c0-0.3,0.2-0.5,0.5-0.5h4.3c0.3,0,0.5,0.2,0.5,0.5
		S378.4,154.7,378.1,154.7z"/>
	<path class="st1" d="M271.9,338.3h-6.4c-0.3,0-0.5-0.2-0.5-0.5c0-0.3,0.2-0.5,0.5-0.5h6.4c0.3,0,0.5,0.2,0.5,0.5
		C272.4,338.1,272.1,338.3,271.9,338.3z"/>
	<path class="st1" d="M260.1,338.3H214c-0.3,0-0.5-0.2-0.5-0.5c0-0.3,0.2-0.5,0.5-0.5h46.1c0.3,0,0.5,0.2,0.5,0.5
		C260.6,338.1,260.4,338.3,260.1,338.3z"/>
	<path class="st5" d="M231.9,169.1c-0.4-0.2-0.7-0.6-0.9-0.9c-0.2-0.4-0.3-0.9-0.2-1.4c0-0.5,0.2-1,0.5-1.4c0.3-0.4,0.6-0.7,1.1-0.9
		c0.4-0.2,0.9-0.3,1.4-0.3c0.5,0,1,0.1,1.4,0.3c0.4,0.2,0.7,0.5,0.9,0.9c0.2,0.4,0.3,0.9,0.2,1.4c0,0.5-0.2,1-0.5,1.4
		c-0.3,0.4-0.6,0.7-1.1,0.9c-0.4,0.2-0.9,0.3-1.4,0.3C232.8,169.4,232.3,169.3,231.9,169.1z M234.4,168.5c0.6-0.3,1.1-1,1.1-1.7
		c0-0.3,0-0.7-0.2-1c-0.1-0.3-0.4-0.5-0.7-0.7c-0.3-0.2-0.6-0.3-1-0.3c-0.4,0-0.7,0.1-1.1,0.3c-0.3,0.2-0.6,0.4-0.8,0.7
		c-0.2,0.3-0.3,0.6-0.4,1c0,0.3,0,0.7,0.2,1c0.1,0.3,0.4,0.5,0.7,0.7c0.3,0.2,0.6,0.3,1,0.3C233.7,168.7,234.1,168.7,234.4,168.5z"
		/>
	<path class="st5" d="M240.5,165.6c0.3,0.2,0.5,0.4,0.6,0.7c0.1,0.3,0.2,0.7,0.2,1c0,0.4-0.2,0.7-0.4,1.1c-0.2,0.3-0.5,0.5-0.8,0.7
		c-0.3,0.2-0.7,0.2-1,0.3c-0.3,0-0.5-0.1-0.8-0.2c-0.2-0.1-0.4-0.3-0.6-0.5l-0.2,2H237l0.5-5.4h0.7l-0.1,0.6
		c0.2-0.2,0.4-0.4,0.6-0.5c0.3-0.1,0.5-0.2,0.8-0.2C239.9,165.3,240.2,165.4,240.5,165.6z M239.9,168.6c0.2-0.1,0.4-0.3,0.5-0.5
		c0.1-0.2,0.2-0.5,0.2-0.7c0-0.2,0-0.5-0.1-0.7c-0.1-0.2-0.2-0.4-0.4-0.5c-0.7-0.3-1.5-0.1-1.9,0.5c-0.1,0.2-0.2,0.5-0.2,0.7
		c0,0.2,0,0.5,0.1,0.7c0.1,0.2,0.2,0.4,0.4,0.5c0.2,0.1,0.4,0.2,0.7,0.2C239.4,168.8,239.6,168.7,239.9,168.6L239.9,168.6z"/>
	<path class="st5" d="M245.8,167.6h-3.2c0,0.3,0.1,0.6,0.4,0.8c0.3,0.2,0.6,0.3,0.9,0.3c0.4,0,0.9-0.2,1.2-0.5l0.4,0.5
		c-0.2,0.2-0.4,0.4-0.7,0.5c-0.3,0.1-0.6,0.2-0.9,0.2c-0.4,0-0.8-0.1-1.1-0.3c-0.3-0.2-0.5-0.4-0.7-0.7c-0.1-0.3-0.2-0.7-0.2-1
		c0-0.4,0.2-0.7,0.3-1c0.2-0.3,0.5-0.5,0.8-0.7c0.3-0.2,0.7-0.2,1-0.3c0.4,0,0.7,0.1,1,0.3c0.3,0.2,0.5,0.4,0.6,0.7
		c0.1,0.3,0.2,0.7,0.2,1.1C245.9,167.5,245.8,167.5,245.8,167.6z M243.2,166.3c-0.3,0.2-0.4,0.5-0.5,0.8h2.5c0-0.3-0.1-0.6-0.3-0.8
		c-0.2-0.2-0.6-0.3-0.9-0.3C243.7,166,243.4,166.1,243.2,166.3z"/>
	<path class="st5" d="M250.3,165.8c0.3,0.4,0.4,0.8,0.3,1.3l-0.2,2.3h-0.7l0.2-2.2c0.1-0.3,0-0.6-0.2-0.9c-0.2-0.2-0.5-0.3-0.8-0.3
		c-0.3,0-0.7,0.1-0.9,0.3c-0.3,0.3-0.4,0.6-0.4,1l-0.2,2h-0.7l0.3-3.9h0.7v0.6c0.2-0.2,0.4-0.4,0.6-0.5c0.3-0.1,0.6-0.2,0.9-0.2
		C249.6,165.4,250,165.5,250.3,165.8z"/>
	<path class="st5" d="M254.2,169.2c-0.3-0.1-0.6-0.3-0.8-0.5l0.3-0.6c0.2,0.2,0.5,0.3,0.7,0.4c0.3,0.1,0.6,0.2,0.9,0.2
		c0.3,0,0.7,0,1-0.2c0.2-0.1,0.4-0.3,0.4-0.6c0-0.2,0-0.3-0.1-0.4c-0.1-0.1-0.3-0.2-0.4-0.3c-0.2-0.1-0.4-0.1-0.7-0.2
		c-0.3-0.1-0.6-0.2-0.9-0.3c-0.2-0.1-0.4-0.2-0.6-0.4c-0.2-0.2-0.2-0.5-0.2-0.8c0-0.3,0.1-0.5,0.3-0.8c0.2-0.2,0.4-0.4,0.7-0.5
		c0.4-0.1,0.7-0.2,1.1-0.2c0.3,0,0.6,0,0.9,0.1c0.3,0.1,0.5,0.2,0.7,0.3l-0.3,0.6c-0.2-0.1-0.4-0.2-0.7-0.3
		c-0.2-0.1-0.5-0.1-0.7-0.1c-0.3,0-0.7,0-1,0.2c-0.2,0.1-0.3,0.3-0.4,0.6c0,0.2,0,0.3,0.1,0.4c0.1,0.1,0.3,0.2,0.4,0.3
		c0.2,0.1,0.5,0.1,0.7,0.2c0.3,0.1,0.6,0.2,0.9,0.3c0.2,0.1,0.4,0.2,0.6,0.4c0.2,0.2,0.2,0.5,0.2,0.8c0,0.3-0.1,0.5-0.3,0.7
		c-0.2,0.2-0.4,0.4-0.7,0.5c-0.4,0.1-0.7,0.2-1.1,0.2C254.9,169.4,254.6,169.3,254.2,169.2z"/>
	<path class="st5" d="M259,169.1c-0.3-0.2-0.5-0.4-0.7-0.7c-0.1-0.3-0.2-0.7-0.2-1c0-0.4,0.2-0.7,0.4-1c0.2-0.3,0.5-0.6,0.8-0.7
		c0.3-0.2,0.7-0.3,1.1-0.3c0.3,0,0.7,0.1,1,0.3c0.3,0.2,0.5,0.4,0.7,0.7c0.1,0.3,0.2,0.7,0.2,1c0,0.4-0.2,0.7-0.4,1
		c-0.2,0.3-0.5,0.6-0.8,0.7c-0.3,0.2-0.7,0.3-1.1,0.3C259.7,169.4,259.3,169.3,259,169.1z M260.8,168.6c0.2-0.1,0.4-0.3,0.5-0.5
		c0.1-0.2,0.2-0.5,0.2-0.7c0-0.2,0-0.5-0.1-0.7c-0.1-0.2-0.2-0.4-0.4-0.5c-0.2-0.1-0.4-0.2-0.7-0.2c-0.2,0-0.5,0.1-0.7,0.2
		c-0.2,0.1-0.4,0.3-0.5,0.5c-0.1,0.2-0.2,0.5-0.2,0.7c0,0.2,0,0.5,0.1,0.7c0.1,0.2,0.2,0.4,0.4,0.5c0.2,0.1,0.4,0.2,0.7,0.2
		C260.3,168.8,260.5,168.7,260.8,168.6L260.8,168.6z"/>
	<path class="st5" d="M267,165.4l-0.4,3.9H266l0-0.6c-0.2,0.2-0.4,0.4-0.6,0.5c-0.2,0.1-0.5,0.2-0.8,0.2c-0.4,0-0.9-0.1-1.2-0.4
		c-0.3-0.4-0.4-0.8-0.3-1.3l0.2-2.3h0.7l-0.2,2.2c-0.1,0.3,0,0.6,0.2,0.9c0.2,0.2,0.5,0.3,0.8,0.3c0.3,0,0.7-0.1,0.9-0.3
		c0.3-0.3,0.4-0.6,0.4-1l0.2-2L267,165.4z"/>
	<path class="st5" d="M269.6,165.6c0.3-0.1,0.6-0.2,0.9-0.2l-0.1,0.7h-0.2c-0.3,0-0.7,0.1-0.9,0.4c-0.3,0.3-0.4,0.6-0.4,1l-0.2,2
		H268l0.3-3.9h0.7l0,0.7C269.1,165.9,269.3,165.7,269.6,165.6z"/>
	<path class="st5" d="M271.6,169.1c-0.3-0.2-0.5-0.4-0.7-0.7c-0.1-0.3-0.2-0.7-0.2-1c0.1-0.7,0.5-1.4,1.1-1.8
		c0.3-0.2,0.7-0.3,1.1-0.3c0.3,0,0.6,0.1,0.9,0.2c0.3,0.1,0.5,0.4,0.6,0.6l-0.6,0.3c-0.1-0.2-0.2-0.3-0.4-0.4
		c-0.2-0.1-0.4-0.1-0.6-0.1c-0.2,0-0.5,0.1-0.7,0.2c-0.2,0.1-0.4,0.3-0.5,0.5c-0.1,0.2-0.2,0.5-0.2,0.7c0,0.2,0,0.5,0.1,0.7
		c0.1,0.2,0.2,0.4,0.4,0.5c0.2,0.1,0.4,0.2,0.7,0.2c0.4,0,0.9-0.2,1.1-0.6l0.5,0.3c-0.2,0.3-0.4,0.5-0.7,0.6c-0.3,0.1-0.7,0.2-1,0.2
		C272.3,169.4,272,169.3,271.6,169.1z"/>
	<path class="st5" d="M278.9,167.6h-3.2c0,0.3,0.1,0.6,0.4,0.8c0.3,0.2,0.6,0.3,0.9,0.3c0.4,0,0.9-0.2,1.2-0.5l0.4,0.5
		c-0.2,0.2-0.4,0.4-0.7,0.5c-0.3,0.1-0.6,0.2-0.9,0.2c-0.4,0-0.7-0.1-1.1-0.3c-0.3-0.2-0.5-0.4-0.7-0.7c-0.1-0.3-0.2-0.7-0.2-1
		c0-0.4,0.2-0.7,0.3-1c0.4-0.6,1.1-1,1.8-1c0.4,0,0.7,0.1,1,0.3c0.3,0.2,0.5,0.4,0.6,0.7c0.1,0.3,0.2,0.7,0.2,1.1
		C278.9,167.5,278.9,167.5,278.9,167.6z M276.2,166.3c-0.3,0.2-0.4,0.5-0.5,0.8h2.5c0-0.3-0.1-0.6-0.3-0.8c-0.2-0.2-0.5-0.3-0.8-0.3
		C276.7,166,276.4,166.1,276.2,166.3z"/>
	<path class="st1" d="M174.2,154.4h6.4c0.3,0,0.5-0.2,0.5-0.5s-0.2-0.5-0.5-0.5h-6.4c-0.3,0-0.5,0.2-0.5,0.5S174,154.4,174.2,154.4z
		"/>
	<path class="st1" d="M185.9,154.4h46.1c0.3,0,0.5-0.2,0.5-0.5s-0.2-0.5-0.5-0.5h-46.1c-0.3,0-0.5,0.2-0.5,0.5
		S185.7,154.4,185.9,154.4z"/>
</g>
<g id="freepik--character-4--inject-10">
	<path class="st7" d="M397.6,207.7l18.1,206.5h2.9l-0.8-8.7h39.8l0.8,8.7h2.9l-18.1-206.5h-2.9l0.8,8.7h-39.8l-0.8-8.7H397.6z
		 M401.5,219.2h39.8l2.5,28.2h-39.8L401.5,219.2z M404.2,250.2H444l2.5,28.2h-39.8L404.2,250.2z M406.9,281.2h39.8l2.5,28.2h-39.8
		L406.9,281.2z M409.6,312.2h39.8l2.5,28.2h-39.8L409.6,312.2z M412.3,343.3h39.8l2.5,28.2h-39.8L412.3,343.3z M457.3,402.5h-39.8
		l-2.5-28.2h39.8L457.3,402.5z"/>
	<path class="st6" d="M397.6,207.7l18.1,206.5h2.9l-0.8-8.7h39.8l0.8,8.7h2.9l-18.1-206.5h-2.9l0.8,8.7h-39.8l-0.8-8.7H397.6z
		 M401.5,219.2h39.8l2.5,28.2h-39.8L401.5,219.2z M404.2,250.2H444l2.5,28.2h-39.8L404.2,250.2z M406.9,281.2h39.8l2.5,28.2h-39.8
		L406.9,281.2z M409.6,312.2h39.8l2.5,28.2h-39.8L409.6,312.2z M412.3,343.3h39.8l2.5,28.2h-39.8L412.3,343.3z M457.3,402.5h-39.8
		l-2.5-28.2h39.8L457.3,402.5z"/>
	<path class="st8" d="M422.5,219.2l-5.1,4.8l-9.7-2.3v-1.9c0-0.4-0.4-0.8-0.8-0.8c-0.1,0-0.2,0-0.3,0.1c0,0-0.5,0.3-0.6,0.3
		c-0.8-0.1-2.5-2.1-2.5-2.1c-0.2-0.2-0.5-0.2-0.8-0.1l-0.7,0.3c-0.4,0.1-0.6,0.5-0.5,0.9l1.1,4.9c0.1,0.3,0.3,0.6,0.6,0.6l3.1,0.5
		c0,0,8.8,5.4,12,4.7s7.9-5.2,7.9-5.2L422.5,219.2z"/>
	<polygon class="st1" points="347.7,210.1 345.5,211.5 342,266.7 396.4,268.5 398.4,267.3 403.9,210.6 	"/>
	<polygon class="st1" points="400.1,212 345.5,211.5 340,267.9 394.6,268.4 	"/>
	<polygon class="st2" points="400.1,212 345.5,211.5 340,267.9 394.6,268.4 	"/>
	<path class="st1" d="M373,228l-29-0.3l-0.8,8.1l29,0.3c1.1,0,2.1-0.9,2.2-2l0.4-4c0.1-1-0.6-1.9-1.6-2.1
		C373.2,228,373.1,228,373,228z"/>
	<path class="st1" d="M343.7,242.2h-1.2l-0.8,8.1h1.2c1.1,0,2.1-0.9,2.2-2l0.4-4c0.1-1-0.5-1.9-1.5-2.1
		C343.9,242.2,343.8,242.2,343.7,242.2z"/>
	<path class="st3" d="M343.7,242.2h-1.2l-0.8,8.1h1.2c1.1,0,2.1-0.9,2.2-2l0.4-4c0.1-1-0.5-1.9-1.5-2.1
		C343.9,242.2,343.8,242.2,343.7,242.2z"/>
	<polygon class="st1" points="391.7,268.4 396.4,268.5 401.9,212 397.1,212 	"/>
	<polygon class="st6" points="391.7,268.4 396.4,268.5 401.9,212 397.1,212 	"/>
	<path class="st7" d="M414.5,197.7c0,0-3.7,0.3-3.7,2.8c0,1.6,1.3-1.1,3.1-1.9S414.5,197.7,414.5,197.7z"/>
	<path class="st8" d="M428.6,283.5c0,0,1.8,6.1,2.6,8c4.3,10.3,12.9,25.2,18.4,40.6l4.4-1.7c-1.7-7.8-3.9-15.6-6.6-23.1
		c-2.2-6.3-6-12.6-8.3-19.5c-0.6-2.6-1-5.3-1.3-8L428.6,283.5z"/>
	<path class="st7" d="M432.4,244.7c0,0,4.8,4.9,5.7,11.1s-1,16.7,1.9,28l-11.2,3.1c0,0-9.1-31.7-9.9-39.4L432.4,244.7z"/>
	<path class="st9" d="M425.1,273.8l2.9-10.1l3.5-5.6c0.5,5.7,0.2,11.4-1,16.9c-1,4.2-1.7,7.7-2.3,10.1
		C427.6,282.8,426.4,278.6,425.1,273.8z"/>
	<path class="st1" d="M418.3,336.6c-0.5,0-1-0.1-1.5-0.4c-0.1-0.2-0.1-0.4,0-0.5c0.1-0.1,0.2-0.2,0.4-0.3c0.8-0.2,2.5,0.8,2.6,0.9
		c0,0,0.1,0.1,0.1,0.1c0,0-0.1,0.1-0.1,0.1C419.3,336.5,418.8,336.6,418.3,336.6z M417.6,335.6c-0.1,0-0.2,0-0.2,0
		c-0.1,0-0.2,0.1-0.2,0.1c-0.1,0.1-0.1,0.2,0,0.3c0.2,0.3,1.5,0.4,2.4,0.3C418.9,335.9,418.2,335.7,417.6,335.6L417.6,335.6z"/>
	<path class="st1" d="M419.8,336.5C419.8,336.5,419.8,336.5,419.8,336.5c-0.6-0.3-1.8-1.4-1.7-1.9c0-0.1,0.1-0.3,0.5-0.3
		c0.2,0,0.5,0.1,0.6,0.2c0.4,0.6,0.7,1.2,0.7,1.9C420,336.4,419.9,336.4,419.8,336.5C419.9,336.5,419.8,336.5,419.8,336.5z
		 M418.7,334.5L418.7,334.5c-0.3,0-0.3,0.1-0.3,0.1c0,0.3,0.7,1.2,1.3,1.6c0-0.6-0.3-1.1-0.6-1.5C419,334.5,418.8,334.5,418.7,334.5
		L418.7,334.5z"/>
	<path class="st7" d="M420.4,335.8l5.4,0.1c0.2,0,0.4,0.2,0.4,0.4l0.9,4.4c0.1,0.4-0.2,0.8-0.5,0.9c0,0,0,0,0,0h-0.1
		c-2-0.1-3.7-0.2-6.1-0.3c-2.9-0.1-2.1,0.3-5.5,0.3c-2,0-2.3-2.3-1.5-2.4c4-0.4,4.4-1.6,6-3C419.5,335.8,419.9,335.7,420.4,335.8z"
		/>
	<path class="st1" d="M447.6,333.2c-0.5,0.2-1,0.3-1.5,0.1c-0.2-0.1-0.2-0.3-0.2-0.5c0-0.2,0.1-0.3,0.3-0.4c0.7-0.5,2.7-0.1,2.8-0.1
		c0,0,0.1,0,0.1,0.1c0,0,0,0.1,0,0.1C448.6,332.8,448.1,333,447.6,333.2z M446.6,332.5l-0.2,0.1c-0.1,0.1-0.1,0.1-0.2,0.2
		c0,0.2,0,0.2,0.1,0.3c0.3,0.2,1.5-0.2,2.3-0.6C447.9,332.4,447.2,332.4,446.6,332.5z"/>
	<path class="st1" d="M449,332.6C449,332.6,449,332.6,449,332.6c-0.7,0-2.2-0.7-2.3-1.2c0-0.1,0-0.3,0.3-0.5c0.2-0.1,0.5-0.1,0.7,0
		c0.8,0.3,1.3,1.5,1.4,1.6C449.1,332.5,449.1,332.5,449,332.6C449.1,332.6,449,332.6,449,332.6z M447.2,331.1L447.2,331.1
		c-0.3,0.1-0.2,0.2-0.2,0.2c0.1,0.3,1.1,0.9,1.8,1c-0.2-0.5-0.6-0.9-1.1-1.2C447.5,331,447.3,331,447.2,331.1L447.2,331.1z"/>
	<path class="st7" d="M449.3,331.7l5.1-1.8c0.2-0.1,0.4,0,0.5,0.2l2.4,3.9c0.2,0.3,0.1,0.8-0.2,1c0,0,0,0,0,0l-0.1,0.1
		c-1.9,0.6-3.5,1.1-5.8,1.9c-2.7,0.9-1.9,1-5.1,2.2c-1.9,0.7-3-1.4-2.2-1.8c3.6-1.8,3.6-3,4.5-4.9
		C448.5,332.1,448.9,331.9,449.3,331.7z"/>
	<path class="st8" d="M415.6,283.4c0,0-0.2,6.4,0,8.5c0.9,11.1,4.5,27.9,4.9,44.3h4.6c0.9-9.1,1.2-18.2,0.8-27.3
		c-0.2-5.7-1.8-11.8-1.8-17.8c0.3-2.7,0.7-5.4,1.3-8L415.6,283.4z"/>
	<path class="st7" d="M427.6,245.9c4,6.5,5,14.5,2.5,21.8c-4.4,13-3.3,19.5-3.3,19.5h-12.2c0,0,0-17.1-0.5-22.7
		c-0.4-4-1.4-8.4-1.1-16L427.6,245.9z"/>
	<polygon class="st7" points="427,284.7 427.4,287.6 414.2,287.6 414.2,284.7 	"/>
	<polygon class="st10" points="427,284.7 427.4,287.6 414.2,287.6 414.2,284.7 	"/>
	<polygon class="st7" points="440,281.2 427.7,284.8 428.6,287.6 440.8,284 	"/>
	<polygon class="st10" points="440,281.2 427.7,284.8 428.6,287.6 440.8,284 	"/>
	<path class="st8" d="M423.4,216c0,0-2.7-0.3-2.7-5.3c0,0-2.5-1.1-4.2,0.3s1.5,5-0.6,6.4C416,217.4,417.8,218.6,423.4,216z"/>
	<path class="st7" d="M411.4,203.6c0-0.3-0.2-0.6-0.5-0.6s-0.4,0.3-0.4,0.6s0.2,0.6,0.4,0.6S411.4,203.9,411.4,203.6z"/>
	<path class="st11" d="M411.2,204.2l-1.8,2.4c0.6,0.4,1.3,0.6,2,0.4L411.2,204.2z"/>
	<path class="st8" d="M423.1,203.1c-0.2,4.3-0.2,6.1-2.3,8.3c-3.3,2.3-8.4,2.1-9.5-2.1c-1-3.8-0.5-10.1,3.7-11.9
		c3-1.3,6.4,0.1,7.7,3.1C423,201.3,423.1,202.2,423.1,203.1L423.1,203.1z"/>
	<path class="st7" d="M412,202.6c-0.1,0-0.1,0-0.2,0c-0.4-0.3-0.9-0.5-1.4-0.4c-0.1,0-0.2,0-0.2-0.1c0-0.1,0-0.2,0.1-0.3
		c0.6-0.1,1.3,0,1.8,0.5C412.2,202.4,412.2,202.5,412,202.6C412.1,202.6,412.1,202.6,412,202.6L412,202.6
		C412.1,202.6,412.1,202.6,412,202.6z"/>
	<path class="st7" d="M411.1,203l-0.9-0.1C410.1,202.9,410.7,203.5,411.1,203z"/>
	<path class="st12" d="M418.8,212.4c-0.6,0.9-1.3,1.6-2.3,2.1c-0.2-0.5-0.3-1.1-0.4-1.6C417,212.8,417.9,212.7,418.8,212.4z"/>
	<path class="st1" d="M425.5,216.7c0,0,0-3.4-4-2.8s-6.9,2.5-7,4.5L425.5,216.7z"/>
	<path class="st13" d="M425.5,216.7c0,0,0-3.4-4-2.8s-6.9,2.5-7,4.5L425.5,216.7z"/>
	<path class="st1" d="M427.9,216.3c0,0,5.3,0.2,5.3,4.4c0.1,2.4-1,4.6-3,6L427.9,216.3z"/>
	<path class="st13" d="M427.9,216.3c0,0,5.3,0.2,5.3,4.4c0.1,2.4-1,4.6-3,6L427.9,216.3z"/>
	<path class="st1" d="M433.9,245.2c-1.7-3.6-2.8-7.5-3.2-11.4c-0.5-6.2,3.3-17.3-3.5-17.6s-10.5,0.7-14.5,2.3s-3.2,12.5-2.5,16.6
		s2.5,14.6,2.5,14.6S424.3,251.3,433.9,245.2z"/>
	<path class="st13" d="M409.9,232.5c-0.2-2.4-0.3-4.9-0.1-7.3l4.6-0.6C413.4,227.5,411.8,230.1,409.9,232.5z"/>
	<path class="st8" d="M406.1,223.9l-5.1,4.8l-9.7-2.2v-2.1c0-0.4-0.3-0.7-0.7-0.7c-0.1,0-0.2,0-0.3,0.1c-0.3,0.1-0.6,0.1-0.9,0.1
		c-0.8-0.1-2.4-1.9-2.4-1.9c-0.2-0.2-0.5-0.2-0.7-0.1l-2.1,1.9c-0.3,0.2-0.5,0.5-0.4,0.9l2.2,3.2c0.2,0.3,0.5,0.6,0.8,0.7l3,0.6
		c0,0,8.8,5.4,12,4.7s7.9-5.2,7.9-5.2L406.1,223.9z"/>
	<path class="st1" d="M412.8,218.6c0,0-3.2,0.9-7.8,4.9c0,0,0.2,3.2,4.2,6.7c0,0,4.3-2.7,5.7-6.7S412.8,218.6,412.8,218.6z"/>
	<path class="st7" d="M414.4,196.9c0,0-3,1.4-2.2,3.5s1.3,4,0.7,4.7s1.4,0.9,1.3-1.5c0,0,0.3,3,1.8,3.4s2.6,4.8,1.3,7
		s-1.6,7.1-0.3,8.2s3.7,2.2,3.4,4.2s2.9,0.6,2.3-1.7c0,0,1.7,2.7,3.9,0.3s-1.3-4.6-1.3-4.6s2.6,0.8,2.6,2.2s0.9,2.1,1.9,0.5
		c0.8-1.4,0.6-3.2-0.6-4.3c0,0,1.7-0.3,1.9,0.9s2.2-0.8,0.5-2.4s-4.6-2.4-4.6-8.4s-1.1-11.2-5.7-12.2S414.4,196.9,414.4,196.9z"/>
	<path class="st8" d="M415.5,204.5c-0.6,0.6-1,1.4-1.1,2.3c0,1.2,1.1,1.5,2,0.9s1.9-1.7,1.5-2.7c-0.3-0.8-1.1-1.1-1.9-0.8
		C415.8,204.2,415.6,204.4,415.5,204.5z"/>
</g>
<g id="freepik--character-3--inject-10">
	<polygon class="st1" points="343.1,277.4 286.3,277.2 284.6,278.5 284.3,310.6 283.5,318.7 282.4,330.2 282.2,332.4 282,334.9 
		335.8,335.2 338.3,332.7 	"/>
	<polygon class="st1" points="279.7,332.4 336.1,332.7 341.1,278.8 284.6,278.5 	"/>
	<polygon class="st2" points="279.7,332.4 336.1,332.7 341.1,278.8 284.6,278.5 	"/>
	<path class="st1" d="M311.2,281.8l-26.8-0.1l-0.8,8.1l26.8,0.1c1.1,0,2.1-0.9,2.2-2l0.4-4c0.1-1-0.6-1.9-1.6-2.1
		C311.4,281.8,311.3,281.8,311.2,281.8z"/>
	<polygon class="st1" points="280.9,318.6 337.4,319 338.1,310.9 281.7,310.5 	"/>
	<polygon class="st1" points="279.9,330.1 279.4,334.9 335.8,335.2 336.3,330.5 	"/>
	<polygon class="st6" points="279.9,330.1 279.4,334.9 335.8,335.2 336.3,330.5 	"/>
	<path class="st14" d="M319.8,343.1c0,0,0.6,13.2,0.9,17.5c0.8,12,3.9,47.8,3.9,47.8h5.3c0,0,2-16.4,1.5-30.6c-0.2-5.8-2-11-2.4-15
		s1.9-10.4,0.3-16.1C327.8,341.2,319.8,343.1,319.8,343.1z"/>
	<path class="st14" d="M332.4,343.4c0,0,1.1,13.8,1.8,18.4c1.7,11.7,8.9,46.5,8.9,46.5l5.3-0.2c0,0-0.1-18-2.5-32.2
		c-0.8-4.8-2.1-8.9-2.6-12.2c-0.6-4.2,0.7-11.3-1.1-17C340.4,341.2,332.4,343.4,332.4,343.4z"/>
	<path class="st7" d="M337.9,316.1c0,0,9.4,8.7,9.1,37.2c-9.1,3.5-19.1,4-28.6,1.5c0,0-2.5-20.9,0-36.3L337.9,316.1z"/>
	<path class="st7" d="M318.7,275.8c0-0.3-0.2-0.6-0.4-0.6s-0.4,0.3-0.3,0.6s0.2,0.6,0.4,0.6S318.7,276.1,318.7,275.8z"/>
	<path class="st7" d="M318.3,275.2l-0.9-0.1C317.4,275.1,318,275.7,318.3,275.2z"/>
	<path class="st14" d="M330.5,287.1c0,0-2.7-0.3-2.6-5.2c0,0-2.5-1.1-4.1,0.3s1.5,4.9-0.5,6.3C323.2,288.5,325,289.7,330.5,287.1z"
		/>
	<path class="st15" d="M318.7,276.2l-1.7,2.3c0.5,0.4,1.3,0.5,1.9,0.3L318.7,276.2z"/>
	<path class="st14" d="M330.2,274.5c-0.2,4.2-0.2,6-2.3,8.1c-3.2,2.2-8.2,2.1-9.3-2c-0.9-3.7-0.5-9.9,3.6-11.7
		c2.9-1.2,6.3,0.1,7.5,3C330.1,272.8,330.2,273.6,330.2,274.5L330.2,274.5z"/>
	<path class="st7" d="M319.4,274.8c-0.1,0-0.1,0-0.2,0c-0.4-0.3-0.9-0.5-1.4-0.4c-0.1,0-0.2,0-0.2-0.1c0-0.1,0-0.2,0.1-0.3
		c0.6-0.1,1.2,0,1.7,0.5C319.6,274.6,319.6,274.7,319.4,274.8L319.4,274.8C319.5,274.8,319.5,274.8,319.4,274.8z"/>
	<path class="st12" d="M325.9,283.6c-0.5,0.9-1.3,1.6-2.2,2c-0.1-0.5-0.3-1.1-0.4-1.6C324.2,284,325.1,283.9,325.9,283.6z"/>
	<path class="st1" d="M332.6,287.8c0,0-1.5-3.7-6.3-2.2s-5.9,4.2-5.9,4.2L332.6,287.8z"/>
	<path class="st12" d="M332.6,287.8c0,0-1.5-3.7-6.3-2.2s-5.9,4.2-5.9,4.2L332.6,287.8z"/>
	<path class="st1" d="M336.2,288.6c0,0,6.2,5.7,3.5,11.3s-7.2-2.3-7.2-2.3L336.2,288.6z"/>
	<path class="st12" d="M336.2,288.6c0,0,6.2,5.7,3.5,11.3s-7.2-2.3-7.2-2.3L336.2,288.6z"/>
	<path class="st7" d="M324.5,407.8l6,0.1c0.2,0,0.4,0.2,0.5,0.4l1,4.9c0.1,0.4-0.2,0.8-0.6,0.9h-0.2c-2.1-0.1-4.1-0.3-6.7-0.3
		c-3.1-0.1-2.4,0.3-6.1,0.3c-2.2,0-2.6-2.6-1.6-2.7c4.4-0.4,4.8-1.7,6.5-3.3C323.6,407.9,324.1,407.8,324.5,407.8z"/>
	<path class="st7" d="M343.1,407.7h6c0.2,0,0.4,0.2,0.5,0.4l1,4.9c0.1,0.4-0.1,0.9-0.6,1c0,0,0,0,0,0h-0.2c-2.1-0.1-4.1-0.2-6.7-0.2
		c-3.2,0-2.4,0.4-6.1,0.4c-2.2,0-2.6-2.5-1.7-2.6c4.4-0.5,4.8-1.8,6.5-3.4C342.1,407.8,342.6,407.7,343.1,407.7z"/>
	<path class="st1" d="M339.7,316.3c0,0-8.6,6.3-22,3c0,0-4.2-19.9-1.4-25.9c2.5-5.4,7.6-6.1,11.6-6.3s10.3-0.8,10.1,7.3
		S337.7,307.1,339.7,316.3z"/>
	<path class="st12" d="M315.9,307.9c-0.3-2.7-0.5-5.3-0.5-8l5-1.8L315.9,307.9z"/>
	<path class="st14" d="M306.7,303.9l-11.5-2l-0.5-1c-0.4-0.7-1.2-1.1-2-0.9l-0.5,0.1l-1.3-1c-0.7-0.5-1.6-0.5-2.2,0.1l0,0
		c-0.4,0.3-0.7,0.9-0.7,1.4v1.2c0,0.4,0.1,0.7,0.3,1l0.9,1.3c0.3,0.4,0.8,0.7,1.4,0.8l3.9,0.3l12.2,3.1L306.7,303.9z"/>
	<path class="st1" d="M322.5,290.4c0,0-3.3-2.2-6.8,1.1s-9.3,11.3-9.3,11.3l-2.1-0.2l-0.3,5.9c2,0.7,4.1,0.5,6-0.3
		c3-1.5,12.7-12.9,12.7-12.9S324,292,322.5,290.4z"/>
	<polygon class="st1" points="305.9,301.7 305.9,305 305,305.4 305.9,306 305.9,309.6 303.1,309 303.1,301.7 	"/>
	<polygon class="st3" points="305.9,301.7 305.9,305 305,305.4 305.9,306 305.9,309.6 303.1,309 303.1,301.7 	"/>
	<path class="st16" d="M333.9,356.2c-0.8,0.1-1.6,0.1-2.4,0.1c-0.5-13.8,3.5-18.9,3.5-18.9C333.7,343.7,333.3,350,333.9,356.2z"/>
	<path class="st7" d="M324.6,267.3c0,0,6.7-2.3,7.9,4.5s7.3,8.6,3.9,13.1s-13.1,1.1-13.3-2.7s-0.1-10.2-1.5-11.1c0,0,0.9,2.6,0,2.6
		s-1.4-1-1.3-2.3c0,0,0,1.7-2,1.1s1.1-2.8,1.1-2.8c-0.7,0.3-1.4,0.7-2,1.2c-0.5,0.6-0.7-0.3,0-1.4
		C318,268.6,320.4,266.6,324.6,267.3z"/>
	<path class="st14" d="M322.7,275.9c-0.6,0.6-1,1.4-1,2.2c0,1.1,1,1.5,2,0.9s1.9-1.6,1.5-2.7c-0.3-0.8-1.1-1.1-1.9-0.9
		C323.1,275.6,322.9,275.7,322.7,275.9z"/>
</g>
<g id="freepik--character-2--inject-10">
	<path class="st17" d="M161.6,301.8l5.5-0.8l0.4-1.4c0.2-0.5,0.8-0.9,1.3-0.7l0.6,0.2l2.4-1.3c0.2-0.1,0.4-0.1,0.6-0.1l0,0
		c0.6,0,1,0.5,1,1.1l-0.1,2.2c0,0,0,0.1,0,0.1l-0.3,1.6c-0.1,0.5-0.4,0.8-0.9,0.9l-3.4,0.5l-6.3,1.4L161.6,301.8z"/>
	<path class="st7" d="M165.5,300.3c-2.8,0.2-5.7,0.2-8.6,0c-1.5-0.1-2.8-1.2-4-2.8l-4.8,7c1.1,1.2,2.4,2.1,3.9,2.7
		c6,1.9,14.4-1.5,14.4-1.5C167.2,303.8,166.8,301.8,165.5,300.3z"/>
	<path class="st16" d="M165.5,300.3c-2.8,0.2-5.7,0.2-8.6,0c-1.5-0.1-2.8-1.2-4-2.8l-4.8,7c1.1,1.2,2.4,2.1,3.9,2.7
		c6,1.9,14.4-1.5,14.4-1.5C167.2,303.8,166.8,301.8,165.5,300.3z"/>
	<polygon class="st1" points="155.7,277 150.4,334.8 205.1,335 206.8,333.6 212.2,277.3 	"/>
	<polygon class="st1" points="148.9,332.3 205.4,332.5 210.3,278.5 153.9,278.3 	"/>
	<polygon class="st2" points="148.9,332.3 205.4,332.5 210.3,278.5 153.9,278.3 	"/>
	<polygon class="st1" points="150.2,318.5 206.6,318.7 207.4,310.6 150.9,310.4 	"/>
	<polygon class="st3" points="150.2,318.5 206.6,318.7 207.4,310.6 150.9,310.4 	"/>
	<path class="st1" d="M193.8,296.1l-41.6-0.1l-0.7,8.1l41.6,0.1c1.1,0,2.1-0.9,2.2-2l0.4-4c0.2-1-0.5-2-1.5-2.1
		C194.1,296.1,193.9,296.1,193.8,296.1z"/>
	<path class="st3" d="M193.8,296.1l-41.6-0.1l-0.7,8.1l41.6,0.1c1.1,0,2.1-0.9,2.2-2l0.4-4c0.2-1-0.5-2-1.5-2.1
		C194.1,296.1,193.9,296.1,193.8,296.1z"/>
	<polygon class="st1" points="152.8,289.6 209.3,289.8 210,281.7 153.6,281.5 	"/>
	<polygon class="st3" points="152.8,289.6 209.3,289.8 210,281.7 153.6,281.5 	"/>
	<polygon class="st1" points="149.2,330 148.7,334.8 205.1,335 205.6,330.2 	"/>
	<polygon class="st6" points="149.2,330 148.7,334.8 205.1,335 205.6,330.2 	"/>
	<path class="st17" d="M145.4,284c0,0,3-0.3,3-5.9c0,0,2.8-1.3,4.6,0.4s-1.6,5.5,0.6,7.1C153.6,285.5,151.6,286.9,145.4,284z"/>
	<path class="st7" d="M158.6,270.3c0-0.4,0.2-0.7,0.5-0.6s0.4,0.3,0.4,0.7s-0.3,0.6-0.5,0.6S158.6,270.7,158.6,270.3z"/>
	<path class="st15" d="M158.9,271l2,2.6c-0.6,0.5-1.4,0.6-2.2,0.4L158.9,271z"/>
	<path class="st17" d="M145.8,269.7c0.2,4.7,0.2,6.7,2.6,9.1c3.6,2.5,9.3,2.4,10.4-2.3c1.1-4.2,0.5-11.2-4.1-13.1
		c-3.3-1.4-7.1,0.1-8.4,3.4C145.9,267.7,145.7,268.7,145.8,269.7L145.8,269.7z"/>
	<path class="st7" d="M157.9,269.2c0.1,0,0.1,0,0.2,0c0.4-0.4,1-0.5,1.5-0.4c0.1,0,0.2,0,0.3-0.1c0-0.1,0-0.2-0.1-0.3
		c-0.7-0.2-1.4,0-1.9,0.5C157.7,268.9,157.7,269.1,157.9,269.2C157.8,269.1,157.8,269.1,157.9,269.2L157.9,269.2
		C157.9,269.2,157.9,269.2,157.9,269.2z"/>
	<path class="st12" d="M150.5,280c0.6,1,1.5,1.8,2.5,2.3c0.1-0.6,0.3-1.2,0.4-1.8C152.5,280.5,151.5,280.3,150.5,280z"/>
	<path class="st7" d="M143.3,284.8c0,0,0.6-3.5,4.9-3.6c6.1,0,7.8,2.8,7.8,2.8L143.3,284.8z"/>
	<path class="st16" d="M143.3,284.8c0,0,0.6-3.5,4.9-3.6c6.1,0,7.8,2.8,7.8,2.8L143.3,284.8z"/>
	<polygon class="st17" points="142,403 142.5,412 147.5,411.8 147.8,403.2 	"/>
	<path class="st1" d="M148.4,411.2c-0.1,0-0.1,0-0.1-0.1c0-0.1,0-0.1,0.1-0.1c0.1,0,1.9-1.1,2.8-0.9c0.2,0,0.3,0.1,0.4,0.3
		c0.1,0.2,0.1,0.4,0,0.5c-0.4,0.3-1,0.5-1.5,0.4C149.4,411.4,148.9,411.3,148.4,411.2z M148.8,411.1c1,0.1,2.3,0.1,2.5-0.2
		c0,0,0.1-0.1,0-0.3c0-0.1-0.1-0.2-0.3-0.2c-0.1,0-0.2,0-0.2,0C150.1,410.5,149.4,410.7,148.8,411.1L148.8,411.1z"/>
	<path class="st1" d="M148.3,411.2c0,0-0.1-0.1-0.1-0.1c0.1-0.7,0.3-1.4,0.8-2c0.2-0.2,0.4-0.2,0.7-0.2c0.3,0,0.4,0.2,0.5,0.4
		c0.1,0.6-1.1,1.7-1.8,2L148.3,411.2C148.4,411.3,148.3,411.3,148.3,411.2z M149.7,409.1c-0.2,0-0.3,0.1-0.4,0.2
		c-0.4,0.5-0.6,1-0.7,1.6c0.6-0.4,1.5-1.3,1.4-1.6C150,409.2,150,409.1,149.7,409.1L149.7,409.1z"/>
	<path class="st7" d="M147.8,410.5h-5.7c-0.2,0-0.4,0.1-0.4,0.4l-1,4.7c-0.1,0.4,0.2,0.8,0.6,0.9c0,0,0,0,0,0h0.2
		c2.1,0,3.9-0.2,6.5-0.2c3,0,2.3,0.4,5.8,0.4c2.1,0,2.5-2.4,1.6-2.5c-4.2-0.5-4.6-1.8-6.2-3.2C148.7,410.6,148.3,410.5,147.8,410.5z
		"/>
	<polygon class="st12" points="142.3,407.7 147.7,407.7 147.8,403.2 142,403 	"/>
	<path class="st1" d="M138.3,324.9c0,0-1.1,7.5,1.6,20.1c1.1,5.3,2.9,16.1,2.9,21.5c0,3.6-0.8,5.2-2.1,14.3s0.6,25.3,0.6,25.3
		l7.3,0.1c0,0,4.5-30.1,5.4-40.6c0.4-5.3,0.6-21.4,0.6-21.4l-2.6-19.3H138.3z"/>
	<path class="st13" d="M147.2,337.6c0,0,1.6,11.5,7,20.9c0.2-6.5,0.3-14.3,0.3-14.3l-0.1-0.5l-3.7-5.2L147.2,337.6z"/>
	<polygon class="st17" points="163.6,403.2 164.5,412.2 169.5,411.8 169.4,403.2 	"/>
	<path class="st1" d="M170.3,411.2c0,0-0.1,0-0.1-0.1c0-0.1,0-0.1,0.1-0.1c0.1,0,1.9-1.2,2.7-1c0.2,0,0.3,0.1,0.4,0.3
		c0.1,0.2,0.1,0.4,0,0.5c-0.4,0.3-1,0.5-1.5,0.5C171.3,411.2,170.8,411.2,170.3,411.2z M170.7,411c1,0.1,2.3,0,2.5-0.4
		c0,0,0.1-0.1,0-0.3c-0.1-0.1-0.1-0.2-0.3-0.2c-0.1,0-0.2,0-0.2,0C172,410.3,171.3,410.6,170.7,411L170.7,411z"/>
	<path class="st1" d="M170.2,411.2c0,0-0.1-0.1-0.1-0.1c0-0.7,0.3-1.5,0.7-2.1c0.2-0.2,0.4-0.3,0.7-0.3c0.4,0,0.5,0.2,0.5,0.3
		c0.1,0.6-1.1,1.8-1.7,2.1L170.2,411.2L170.2,411.2z M171.5,409c-0.2,0-0.3,0.1-0.4,0.2c-0.4,0.5-0.6,1-0.6,1.6
		c0.6-0.4,1.4-1.3,1.4-1.7C171.8,409.1,171.8,409,171.5,409L171.5,409z"/>
	<path class="st7" d="M169.7,410.5l-5.7,0.3c-0.2,0-0.4,0.2-0.4,0.4l-0.8,4.7c-0.1,0.4,0.2,0.8,0.6,0.9h0.2c2.1-0.1,3.9-0.3,6.4-0.5
		c3-0.1,2.3,0.3,5.8,0.1c2.1-0.1,2.4-2.5,1.5-2.6c-4.2-0.3-4.7-1.6-6.4-3C170.6,410.5,170.2,410.4,169.7,410.5z"/>
	<polygon class="st12" points="169.4,403.2 163.6,403.2 164,407.6 169.4,407.3 	"/>
	<path class="st1" d="M146,324.9c-0.4,7.6,1.2,15.2,4.8,22c5.8,10.6,6.4,13.7,6.8,18.7c0.4,4.7,0.4,6.3,1.1,16.1s4.2,24.5,4.2,24.5
		l7.5-0.5c0,0,0-31-1.3-42c-1.1-9.8-7.1-38.8-7.1-38.8H146z"/>
	<path class="st7" d="M143.3,283.6c0,0-9.5,1.2-10.7,6.7s1.6,15.9,5.4,17.2S143.3,283.6,143.3,283.6z"/>
	<path class="st9" d="M139.5,288.7l-1.7-1c0,0-2.4,3-3.8,14.5c1,2.7,2.4,4.8,4,5.3s2.7-3.3,3.5-8L139.5,288.7z"/>
	<path class="st7" d="M137.2,326.3c0,0,9.9,2.7,26.4,0c-0.6-9.2-0.4-18.5,0.6-27.7c1.8-13.7-1.5-14.6-10.8-15.1s-15.9-1-16.1,7.5
		C136.5,310.6,137.2,326.3,137.2,326.3z"/>
	<path class="st9" d="M159.9,291.4c0,0,0.7,7.7,3.7,12.8l0,0c0.1-1.9,0.3-3.7,0.6-5.6c0.4-2.6,0.5-5.2,0.4-7.8l-3.2-4.8L159.9,291.4
		z"/>
	<path class="st17" d="M183.5,302.7l5.5-0.7l0.4-1.4c0.2-0.6,0.8-0.9,1.3-0.7l0.6,0.2l2.4-1.2c0.2-0.1,0.4-0.1,0.6-0.1l0,0
		c0.6,0,1,0.5,1,1.1v2.2c0,0,0,0.1,0,0.1l-0.3,1.6c-0.1,0.5-0.4,0.8-0.9,0.9l-3.4,0.5l-6.3,1.3L183.5,302.7z"/>
	<path class="st7" d="M159,284.1c0,0,6.9,0,10.1,4.6c2.7,3.9,5.5,12.1,9.7,12.5c2.8,0.2,5.7,0.2,8.6,0c1.3,1.5,1.7,3.5,1,5.4
		c0,0-8.4,3.4-14.4,1.5s-15.6-19.6-15.6-19.6L159,284.1z"/>
	<path class="st7" d="M153.8,272.3c0.7-1.7,1-3.4,0.8-5.2c0,0,4.4,1.7,5.1-0.4c0.4-1-0.2-2.2-1.2-2.6c-0.1,0-0.2-0.1-0.2-0.1
		c0,0,2.2-0.3,0.9-1.8s-3.5-1-3.5-1s2.3-1.4,0.5-2.3s-4.3,1.7-4.3,1.7s1.5-2.4-0.2-2.8s-3.8,4-3.8,4s-4.5,0.5-4.6,2
		c-0.1,0.8,0.5,1.5,1.3,1.6c0.1,0,0.1,0,0.2,0c0,0-3,0.5-2.5,2c0.1,0.6,0.7,1,1.3,0.9c0.2,0,0.4-0.1,0.5-0.2c0,0-1.9,1.6-1.2,3.2
		c0.5,1.1,1.3,0.5,1.3,0.5s-0.5,2.1,0.4,3.2s1.2-0.8,1.2-0.8c0,1.3,0.6,2.5,1.6,3.3c0,0,1.4-1.4,4.3-0.4L153.8,272.3z"/>
	<path class="st17" d="M154.1,271.3c0.7,0.6,1.1,1.5,1.2,2.5c0,1.3-1.2,1.6-2.2,1s-2.1-1.8-1.7-3c0.3-0.8,1.3-1.2,2.1-0.9
		C153.8,271,154,271.1,154.1,271.3z"/>
</g>
<g id="freepik--character-1--inject-10">
	<path class="st7" d="M105.2,205.5l-0.8,8.7H64.6l0.8-8.7h-2.9L44.5,412h2.8l0.8-8.7h39.8l-0.8,8.7H90l18-206.5H105.2z M101.7,245.2
		H61.9l2.5-28.2h39.8L101.7,245.2z M99,276.2H59.2l2.5-28.2h39.8L99,276.2z M96.3,307.3H56.5l2.5-28.2h39.8L96.3,307.3z M93.5,338.3
		H53.8l2.5-28.2H96L93.5,338.3z M90.8,369.3H51l2.5-28.1h39.8L90.8,369.3z M50.8,372.1h39.8l-2.5,28.2H48.3L50.8,372.1z"/>
	<path class="st6" d="M105.2,205.5l-0.8,8.7H64.6l0.8-8.7h-2.9L44.5,412h2.8l0.8-8.7h39.8l-0.8,8.7H90l18-206.5H105.2z M101.7,245.2
		H61.9l2.5-28.2h39.8L101.7,245.2z M99,276.2H59.2l2.5-28.2h39.8L99,276.2z M96.3,307.3H56.5l2.5-28.2h39.8L96.3,307.3z M93.5,338.3
		H53.8l2.5-28.2H96L93.5,338.3z M90.8,369.3H51l2.5-28.1h39.8L90.8,369.3z M50.8,372.1h39.8l-2.5,28.2H48.3L50.8,372.1z"/>
	<path class="st18" d="M76.8,204.3l6.4,3.8l11.2-4.9l0.1-2.7c0-0.7,0.6-1.2,1.3-1.2H97l1.1-1.1c0.5-0.5,1.3-0.5,1.8,0
		c0.1,0.1,0.1,0.1,0.2,0.2l0.7,1c0.2,0.2,0.2,0.5,0.2,0.8l-0.3,3.3c0,0.5-0.4,0.9-0.8,1.1l-3,1.1c0,0-9.3,6.6-12.7,7.4
		S74,210.2,74,210.2L76.8,204.3z"/>
	<path class="st1" d="M161.2,149.7l-51.5,0.3c-2.8,0-5.7,1.9-5.9,4.6l-3.6,51.5l54,1.9l1.8-1.4L161.2,149.7z"/>
	<polygon class="st1" points="154.2,208 158.5,159.2 105.1,159.1 100.7,207.9 	"/>
	<polygon class="st2" points="154.2,208 158.5,159.2 105.1,159.1 100.7,207.9 	"/>
	<path class="st1" d="M155.3,195.4l-36.3-0.1c-1.1,0-2.1,0.9-2.2,2l-0.4,4c-0.1,1,0.7,1.9,1.7,2c0.1,0,0.1,0,0.2,0h36.4L155.3,195.4
		z"/>
	<path class="st1" d="M156.6,180.9h-36.3c-1.1,0-2.1,0.9-2.2,2l-0.3,4c-0.1,1,0.6,1.9,1.6,2c0.1,0,0.1,0,0.2,0l36.3,0.1L156.6,180.9
		z"/>
	<path class="st3" d="M156.6,180.9h-36.3c-1.1,0-2.1,0.9-2.2,2l-0.3,4c-0.1,1,0.6,1.9,1.6,2c0.1,0,0.1,0,0.2,0l36.3,0.1L156.6,180.9
		z"/>
	<path class="st1" d="M106,168.9c0.2-1.9,1.7-3.3,3.6-3.3l48.3,0.1l1.3-14.1l-51.4-0.1c-2.8,0.1-5.2,2.2-5.5,5l-4.6,51.5h4.8
		L106,168.9z"/>
	<path class="st6" d="M106,168.9c0.2-1.9,1.7-3.3,3.6-3.3l48.3,0.1l1.3-14.1l-51.4-0.1c-2.8,0.1-5.2,2.2-5.5,5l-4.6,51.5h4.8
		L106,168.9z"/>
	<path class="st1" d="M138.9,158.3c-0.2,1.8-1.7,3.2-3.6,3.3c-1.6,0-3-1.2-3-2.9c0-0.1,0-0.3,0-0.4c0.2-1.8,1.7-3.2,3.6-3.3
		c1.6,0,3,1.2,3,2.9C138.9,158,138.9,158.1,138.9,158.3z"/>
	<path class="st3" d="M138.9,158.3c-0.2,1.8-1.7,3.2-3.6,3.3c-1.6,0-3-1.2-3-2.9c0-0.1,0-0.3,0-0.4c0.2-1.8,1.7-3.2,3.6-3.3
		c1.6,0,3,1.2,3,2.9C138.9,158,138.9,158.1,138.9,158.3z"/>
	<path class="st1" d="M126.8,158.2c-0.2,1.8-1.7,3.2-3.6,3.3c-1.6,0-3-1.2-3-2.9c0-0.1,0-0.3,0-0.4c0.2-1.8,1.7-3.2,3.6-3.3
		c1.6,0,3,1.2,3,2.9C126.8,158,126.8,158.1,126.8,158.2z"/>
	<path class="st1" d="M114.6,158.2c-0.2,1.8-1.7,3.2-3.6,3.3c-1.6,0-3-1.2-3-2.9c0-0.1,0-0.3,0-0.4c0.2-1.8,1.7-3.2,3.6-3.3
		c1.6,0,3,1.2,3,2.9C114.7,157.9,114.6,158.1,114.6,158.2z"/>
	<path class="st12" d="M114.6,158.2c-0.2,1.8-1.7,3.2-3.6,3.3c-1.6,0-3-1.2-3-2.9c0-0.1,0-0.3,0-0.4c0.2-1.8,1.7-3.2,3.6-3.3
		c1.6,0,3,1.2,3,2.9C114.7,157.9,114.6,158.1,114.6,158.2z"/>
	<path class="st5" d="M113.1,159.2l-1-1l1-1c0.2-0.2,0.1-0.5-0.1-0.7c-0.2-0.1-0.4-0.1-0.6,0l-1,1l-1-1c-0.2-0.2-0.5-0.1-0.7,0.1
		c-0.1,0.2-0.1,0.4,0,0.6l1,1c-0.3,0.3-0.7,0.7-1,1c-0.2,0.2-0.2,0.5,0,0.7c0.2,0.2,0.5,0.2,0.7,0l1-1l1,1c0.2,0.2,0.5,0.2,0.7,0
		C113.2,159.7,113.2,159.4,113.1,159.2L113.1,159.2z"/>
	<path class="st5" d="M125.4,157.8h-3.9c-0.3,0-0.4,0.3-0.4,0.5c0,0.2,0.2,0.4,0.4,0.4h3.9c0.3,0,0.4-0.3,0.4-0.5
		C125.8,158,125.6,157.8,125.4,157.8z"/>
	<polygon class="st5" points="134,159.9 135.9,159.9 134,157.9 	"/>
	<polygon class="st5" points="135.3,156.6 137.3,158.6 137.3,156.6 	"/>
	<polygon class="st18" points="57.8,323.3 57.1,332.3 62.1,332.8 63.6,324.3 	"/>
	<path class="st1" d="M63,332.8c0,0-0.1-0.1-0.1-0.1c0-0.1,0-0.1,0.1-0.1c0.1,0,2-0.8,2.9-0.5c0.2,0.1,0.3,0.2,0.3,0.3
		c0.1,0.2,0.1,0.4-0.1,0.5c-0.5,0.3-1,0.3-1.6,0.2C64,333.1,63.5,333,63,332.8z M63.4,332.7c0.9,0.3,2.3,0.4,2.6,0.1
		c0,0,0.1-0.1,0-0.3c0-0.1-0.1-0.2-0.2-0.2c-0.1,0-0.2,0-0.2-0.1C64.8,332.3,64.1,332.4,63.4,332.7L63.4,332.7z"/>
	<path class="st1" d="M62.9,332.8c0,0,0-0.1,0-0.1c0.2-0.7,0.5-1.4,1.1-1.9c0.2-0.1,0.5-0.2,0.7-0.1c0.3,0.1,0.4,0.3,0.4,0.4
		c0,0.6-1.4,1.5-2,1.7H63C63,332.8,62.9,332.8,62.9,332.8z M64.5,330.9c-0.2,0-0.3,0-0.4,0.1c-0.4,0.4-0.8,0.9-0.9,1.5
		c0.7-0.3,1.6-1.1,1.6-1.4C64.8,331,64.8,330.9,64.5,330.9L64.5,330.9z"/>
	<path class="st7" d="M62.5,332l-5.7-0.8c-0.2,0-0.4,0.1-0.5,0.3l-1.7,4.5c-0.2,0.4,0,0.8,0.4,1c0,0,0,0,0,0c0,0,0.1,0,0.2,0
		c2,0.3,3.9,0.4,6.4,0.8c3,0.4,2.2,0.7,5.7,1.2c2.1,0.3,2.8-2,2-2.3c-4-1.1-4.3-2.4-5.7-4.1C63.4,332.3,63,332,62.5,332z"/>
	<polygon class="st12" points="63.6,324.3 57.8,323.3 57.4,328 62.8,328.8 	"/>
	<path class="st7" d="M86.2,181.8c0,0,4.1-1.9,3.7-0.3s-3.3,2.3-4.2,1.7S86.2,181.8,86.2,181.8z"/>
	<path class="st18" d="M75.8,200.6c0,0,3-0.3,3-5.9c0,0,2.8-1.3,4.6,0.4s-1.6,5.5,0.6,7.1C84,202.2,82,203.6,75.8,200.6z"/>
	<path class="st7" d="M89,187c0-0.4,0.2-0.7,0.5-0.6s0.4,0.3,0.4,0.7s-0.3,0.6-0.5,0.6S89,187.4,89,187z"/>
	<path class="st19" d="M89.3,187.7l2,2.6c-0.6,0.5-1.4,0.6-2.2,0.4L89.3,187.7z"/>
	<path class="st18" d="M76.2,186.4c0.2,4.7,0.2,6.7,2.6,9.1c3.6,2.5,9.3,2.4,10.4-2.3c1.1-4.2,0.5-11.2-4.1-13.1
		c-3.3-1.4-7.1,0.1-8.5,3.3C76.2,184.4,76,185.4,76.2,186.4L76.2,186.4z"/>
	<path class="st7" d="M88.3,185.9c0.1,0,0.1,0,0.2,0c0.4-0.4,1-0.5,1.5-0.4c0.1,0,0.2,0,0.3-0.1c0-0.1,0-0.2-0.2-0.3
		c-0.7-0.2-1.4,0-1.9,0.5C88.2,185.6,88.2,185.8,88.3,185.9C88.2,185.8,88.2,185.8,88.3,185.9L88.3,185.9
		C88.3,185.9,88.3,185.9,88.3,185.9z"/>
	<path class="st12" d="M80.9,196.7c0.6,1,1.5,1.8,2.5,2.3c0.2-0.6,0.3-1.2,0.4-1.8C82.9,197.2,81.9,197,80.9,196.7z"/>
	<path class="st7" d="M78.7,196.3c0,0,0.3-0.4,1.7,0.2c0,0,3.1-3.5,3.6-5.9c1-0.7,1.7-1.8,1.7-3c0.1-2.1,0.2-3.4,1-3.9
		s3.1-2.6,1.4-4.7s-1.6,0.4-1.6,0.4s-4.9-5.6-4.2-1.9c0,0-5.6-1.3-2.7,1.8c0,0-6.3,1.6-4.2,7.5C74.2,190.2,75.6,194.2,78.7,196.3z"
		/>
	<path class="st18" d="M84.5,188c0.7,0.6,1.1,1.5,1.2,2.5c0.1,1.3-1.2,1.6-2.2,1s-2.1-1.8-1.7-3c0.4-0.8,1.3-1.2,2.2-0.9
		C84.2,187.7,84.4,187.8,84.5,188z"/>
	<path class="st1" d="M80.8,199.2c1.4,0.1,2.7,0.4,4,0.8c-0.9-1.5-2.4-2.5-4.1-2.7c-1.8-0.4-3.6,0.4-4.4,2
		C77.8,199.1,79.3,199.1,80.8,199.2z"/>
	<path class="st3" d="M80.8,199.2c1.4,0.1,2.7,0.4,4,0.8c-0.9-1.5-2.4-2.5-4.1-2.7c-1.8-0.4-3.6,0.4-4.4,2
		C77.8,199.1,79.3,199.1,80.8,199.2z"/>
	<path class="st7" d="M65.1,234.7c0,0-2.6,5.9-1.5,21.9c0,0,2.1,18.9,0.8,25c-2.3,11-6.2,13-7.5,44.4l6.9,1c0,0,9.1-31.8,11.2-42.5
		c1.3-6.7,3-26.8,3-26.8l0.6-21.4L65.1,234.7z"/>
	<polygon class="st18" points="75.2,325 75.2,334 80.2,334.1 81,325.5 	"/>
	<path class="st1" d="M81.1,333.5c0,0-0.1-0.1-0.1-0.1c0-0.1,0-0.1,0.1-0.1c0.1,0,2-1,2.8-0.7c0.2,0.1,0.3,0.2,0.4,0.3
		c0.1,0.2,0.1,0.4,0,0.5c-0.5,0.3-1,0.4-1.6,0.3C82.1,333.8,81.6,333.7,81.1,333.5z M81.5,333.4c1,0.2,2.3,0.2,2.6-0.1
		c0,0,0.1-0.1,0-0.3c0-0.1-0.1-0.2-0.2-0.2c-0.1,0-0.2,0-0.2,0C82.8,332.9,82.1,333.1,81.5,333.4z"/>
	<path class="st1" d="M81,333.5c0,0,0-0.1,0-0.1c0.1-0.7,0.4-1.4,0.9-2c0.2-0.2,0.5-0.2,0.7-0.2c0.3,0,0.4,0.2,0.4,0.4
		c0.1,0.6-1.2,1.7-1.9,1.9l0,0C81.2,333.6,81.1,333.6,81,333.5C81,333.6,81,333.6,81,333.5z M82.5,331.5c-0.2,0-0.3,0-0.4,0.1
		c-0.4,0.4-0.7,1-0.8,1.6c0.7-0.4,1.5-1.2,1.5-1.5C82.8,331.7,82.8,331.6,82.5,331.5L82.5,331.5z"/>
	<path class="st7" d="M80.6,332.8l-5.7-0.3c-0.2,0-0.4,0.1-0.5,0.3l-1.3,4.6c-0.1,0.4,0.1,0.8,0.5,0.9c0.1,0,0.1,0,0.2,0
		c2.1,0.1,3.9,0.1,6.5,0.2c3,0.2,2.2,0.5,5.8,0.7c2.1,0.1,2.7-2.3,1.8-2.4c-4.1-0.7-4.5-2-6-3.6C81.5,332.9,81,332.8,80.6,332.8z"/>
	<polygon class="st12" points="75.2,330.1 80.5,330.2 81,325.5 75.2,325 	"/>
	<path class="st9" d="M77.7,260.6l-1.4-2.6l-3.7-3.5c0,0-1.2,15.1,2.8,27.1C76.3,275.6,77.2,265.6,77.7,260.6z"/>
	<path class="st7" d="M73.5,236.3c0,0-1.2,5.7-1,18.3c0.2,12.6,4.8,22.2,4.8,29.7c-0.1,11-4.8,16.9-2.8,43.7h7.4
		c0,0,5.8-33.3,6.7-44.4c0.8-11.5-0.1-46.3-0.1-46.3L73.5,236.3z"/>
	<path class="st1" d="M74,199.8c0,0-5.3,0.4-6.5,4.1c-0.7,2.1-0.4,4.5,0.9,6.3l2.9,0.8L74,199.8z"/>
	<path class="st13" d="M74,199.8c0,0-5.3,0.4-6.5,4.1c-0.7,2.1-0.4,4.5,0.9,6.3l2.9,0.8L74,199.8z"/>
	<path class="st1" d="M80.8,199.2c3.4,0.3,10.4,1.9,11.2,9s-2.6,32.3-2.6,32.3s-13.3,0.5-25.7-3.1c2.7-9.8,4.3-20,4.8-30.2
		C68.7,201.8,72.8,198.5,80.8,199.2z"/>
	<path class="st13" d="M85.4,207c0,0,2.4,7.1,6.3,11.6c0.3-3.6,0.4-6.8,0.4-9.1L85.4,207z"/>
	<path class="st18" d="M96,208.2l5.7,4.8l11.9-2.9l0.6-2.7c0.1-0.7,0.8-1.1,1.5-1l1.1,0.2l1.3-0.9c0.6-0.4,1.4-0.2,1.8,0.4
		c0,0.1,0.1,0.1,0.1,0.2l0.5,1.1c0.1,0.3,0.1,0.6,0.1,0.9l-0.9,3.2c-0.1,0.5-0.5,0.8-1,0.9l-3.2,0.6c0,0-10.3,4.9-13.8,5.1
		s-9.5-4.5-9.5-4.5L96,208.2z"/>
	<path class="st1" d="M86.3,200.6c0,0,5.7,1.4,12.3,7.7c-1.2,3.3-3.6,6-6.8,7.5C91.8,215.8,80.1,203.8,86.3,200.6z"/>
	<polygon class="st7" points="56.6,324.1 56.4,326.6 63.9,327.7 64.6,325.4 	"/>
	<polygon class="st6" points="56.6,324.1 56.4,326.6 63.9,327.7 64.6,325.4 	"/>
	<polygon class="st7" points="74.1,326.2 74.3,328.8 81.9,328.8 82.3,326.3 	"/>
	<polygon class="st6" points="74.1,326.2 74.3,328.8 81.9,328.8 82.3,326.3 	"/>
</g>
</svg>
