<?xml version="1.0" encoding="utf-8"?>
<!-- Generator: Adobe Illustrator 22.1.0, SVG Export Plug-In . SVG Version: 6.00 Build 0)  -->
<svg version="1.1" id="Layer_1" xmlns="http://www.w3.org/2000/svg" xmlns:xlink="http://www.w3.org/1999/xlink" x="0px" y="0px"
	 viewBox="0 0 1379.4 1080" style="enable-background:new 0 0 1379.4 1080;" xml:space="preserve">
<style type="text/css">
	.st0{fill:#081928;}
	.st1{opacity:0.5;fill:#FFFFFF;}
	.st2{fill:#E62137;}
	.st3{fill:#FFFFFF;}
	.st4{fill:#E28526;}
	.st5{fill:#F99F23;}
	.st6{fill:#E2DDE7;}
	.st7{fill:#FAE0B2;}
	.st8{fill:#FAB17E;}
	.st9{fill:#FDFEFC;}
	.st10{fill:#EB95AE;}
	.st11{fill:#E25B75;}
	.st12{fill:#F39D63;}
	.st13{fill:#F7B1C4;}
	.st14{fill:#5C417C;}
	.st15{fill:#EE3452;}
	.st16{fill:#F26C80;}
	.st17{fill:#F3F3F3;}
	.st18{fill:#EE8A22;}
	.st19{fill:#EE985E;}
	.st20{fill:#AA1E33;}
</style>
<g>
	<path class="st0" d="M844.8,967h-36.7c-14,0-25.4-11.4-25.4-25.4V829.7l-153.2-2.1v114.1c0,14-11.4,25.4-25.4,25.4h-33.3
		c-33.7,0-61,27.3-61,61l0,0h395.9l0,0l0,0C905.8,994.3,878.5,967,844.8,967z"/>
</g>
<rect x="920.4" y="245.4" class="st1" width="385.4" height="780.7"/>
<g>
	<polygon class="st0" points="1278,579.5 1279.7,590.9 1261.6,595.7 1262,612.8 1249,618.6 1251.9,625.1 1269.3,617.4 1268.9,601.2 
		1287.8,596.3 1285.2,579 	"/>
</g>
<g>
	<path class="st2" d="M1138,212.3l-5.2-12.2l-13-2.7c-1.5-0.3-2-2.2-0.8-3.2l10-8.7l-1.5-13.2c-0.2-1.5,1.5-2.5,2.8-1.8l11.4,6.8
		l12.1-5.5c1.4-0.6,2.9,0.6,2.5,2.1l-3,12.9l8.9,9.8c1,1.1,0.3,2.9-1.2,3l-13.2,1.1l-6.6,11.5C1140.5,213.8,1138.6,213.7,1138,212.3
		z"/>
</g>
<g>
	<path class="st2" d="M808.8,97.1l-3.2-7.6l-8.1-1.7c-0.9-0.2-1.2-1.4-0.5-2l6.2-5.4l-0.9-8.2c-0.1-0.9,0.9-1.6,1.7-1.1l7.1,4.3
		l7.5-3.4c0.9-0.4,1.8,0.4,1.6,1.3l-1.9,8l5.6,6.1c0.6,0.7,0.2,1.8-0.7,1.9L815,90l-4.1,7.2C810.3,98,809.1,98,808.8,97.1z"/>
</g>
<g>
	<polygon class="st3" points="1323.2,636.8 1318,643.9 1305.6,636.9 1296.8,646.4 1286.6,642.6 1284.7,647.8 1298.3,652.8 
		1306.7,643.8 1319.6,651.1 1327.4,640.3 	"/>
</g>
<path class="st4" d="M1147.5,121.1l-68-35.6c-1.4-0.7-1.9-2.4-1.2-3.8l23.9-45.7c0.7-1.4,2.4-1.9,3.8-1.2l68,35.6
	c1.4,0.7,1.9,2.4,1.2,3.8l-23.9,45.7C1150.6,121.3,1148.9,121.9,1147.5,121.1z"/>
<path class="st4" d="M1130.2,55.1l-20.7-10.8c-1.4-0.7-1.9-2.4-1.2-3.8l3.6-7c0.7-1.4,2.4-1.9,3.8-1.2l20.7,10.8
	c1.4,0.7,1.9,2.4,1.2,3.8l-3.6,7C1133.3,55.3,1131.6,55.9,1130.2,55.1z"/>
<g>
	<path class="st5" d="M1151.4,120.3c-0.8,1.2-2.4,1.6-3.6,1l-68.4-35.8c-1.3-0.7-1.8-2.2-1.3-3.5l17.1-42.3c0.3-0.7,0.9-1.3,1.6-1.6
		s1.6-0.2,2.3,0.1l76,39.8c0.7,0.4,1.2,1,1.4,1.8c0.2,0.8,0.1,1.6-0.4,2.2L1151.4,120.3z"/>
</g>
<g>
	<polygon class="st3" points="1123.7,492.6 1110.7,496.1 1108,480.5 1112.2,479.7 1114.1,490.8 1122.5,488.5 	"/>
</g>
<g>
	<path class="st3" d="M1185.9,145.6l8.4,8c19.9,19,36.1,41.4,47.8,66.3l1.3,2.7c0,0,22,1.9,25.1-18l0,0
		c-19.3-21.8-35.2-45.1-48.3-71l-4-9.3L1185.9,145.6z"/>
</g>
<path class="st6" d="M1216.2,124.3c1.1,1.5-4.8,7.5-13.2,13.4c-8.4,5.8-16.1,9.4-17.1,7.8s4.9-7.6,13.2-13.4
	C1207.4,126.3,1215.1,122.8,1216.2,124.3z"/>
<path class="st6" d="M1216.2,124.4L1216.2,124.4c0,0-16.8,14.2-23.7,15.6l2.1,2.9c2.5-1.4,5.4-3.1,8.3-5.2
	C1211.2,131.9,1217.1,126,1216.2,124.4z"/>
<g>
	<g>
		<path class="st2" d="M1238.6,165.6c0,2.4-0.9,13-18.5,17.4c1.2,1.6,2.3,3.2,3.4,4.8c11.1-3.3,16.1-9,18.4-13.3
			c0.4-0.7,0.8-1.6,1.1-2.3C1241.5,169.9,1240,167.8,1238.6,165.6z"/>
	</g>
	<g>
		<polygon class="st2" points="1221.7,179.9 1195.9,178.9 1202,184.1 1198.3,190.8 1222.8,184.5 		"/>
	</g>
	<g>
		<polygon class="st2" points="1224.1,185.9 1214.9,201.9 1221.3,199.4 1223.8,204.5 1228.1,187.7 		"/>
	</g>
	<g>
		<path class="st2" d="M1227.6,190.2c-4.5,0.3-8.5-3.2-8.8-7.9s3.1-8.7,7.6-9s8.5,3.2,8.8,7.9
			C1235.5,185.8,1232.1,189.9,1227.6,190.2z"/>
	</g>
</g>
<g>
	<path class="st2" d="M147.5,427.5l-46.8,6.7c-4.6,0.7-8.8-2.5-9.5-7.1l-3.8-27c-0.7-4.6,2.5-8.8,7.1-9.5l46.8-6.7
		c4.6-0.7,8.8,2.5,9.5,7.1l3.8,27C155.3,422.6,152.1,426.8,147.5,427.5z"/>
</g>
<path class="st3" d="M132.9,408.3c0.5-0.4,0.8-1.1,0.7-1.7s-0.5-1.2-1.1-1.4l-18.7-7.5c-0.6-0.2-1.3-0.1-1.8,0.3s-0.8,1.1-0.7,1.7
	l2.8,19.9c0.1,0.6,0.5,1.2,1.1,1.4c0.6,0.2,1.3,0.1,1.8-0.3L132.9,408.3z"/>
<g>
	<path class="st0" d="M1025.5,837.1h-658c-24.1,0-43.7-19.5-43.7-43.7V417.2c0-24.1,19.5-43.7,43.7-43.7h658
		c24.1,0,43.7,19.5,43.7,43.7v376.2C1069.2,817.5,1049.6,837.1,1025.5,837.1z"/>
</g>
<g>
	<path class="st3" d="M342.8,798.3v-386c0-10.9,8.9-19.8,19.8-19.8h667.7c10.9,0,19.8,8.9,19.8,19.8v385.9
		c0,10.9-8.9,19.8-19.8,19.8H362.6C351.7,818.1,342.8,809.2,342.8,798.3z"/>
</g>
<g>
	<path class="st0" d="M995.2,785.2H400.9c-7.3,0-13.3-5.9-13.3-13.3v-340c0-7.3,5.9-13.3,13.3-13.3h594.3c7.3,0,13.3,5.9,13.3,13.3
		v340C1008.5,779.3,1002.5,785.2,995.2,785.2z"/>
</g>
<path class="st7" d="M439.6,973.3H271.4c-11.6,0-21,9.7-21,21.8l0,0c0,12,9.4,21.8,21,21.8h168.2
	C431.7,1003.4,431.7,986.6,439.6,973.3z"/>
<g>
	<g>
		<path class="st0" d="M110.7,1029.4L110.7,1029.4c0,1.8,1.4,3.2,3.2,3.2h1219.6v-6.5H113.9C112.1,1026.1,110.7,1027.6,110.7,1029.4
			z"/>
	</g>
</g>
<path class="st8" d="M746.1,334.2c-1,4.7,1.2,9.3,5.1,10.1c3.9,0.9,7.9-2.3,8.9-7s-1.2-9.3-5.1-10.1
	C751.1,326.3,747.1,329.5,746.1,334.2z"/>
<path class="st8" d="M556,275.3c3.6,5.4,6.3,17.7,8.7,24.4c2.4,6.7,2.8,26.8,3.3,31.2c0.5,4.4-1.1,18.4-1.1,18.4l-18.1,2.9
	c0,0-1.7-10.2-6.5-15.8c-5.2-6-15.3-19.8-12.7-25c4-8.4,25.9-7.7,25.9-7.7s-1-6.6-1.6-11.6c-0.5-5-6.8-14.1-4.3-17.1
	C552.1,271.8,555.1,273.9,556,275.3z"/>
<path class="st4" d="M635.4,785.2h54.1l-2.1-9.1l14.7-66.5L723,578.3l-66.2-19.2L639.3,605c0,0-11.4,109.5-4.8,175.1
	C634.7,781.5,635,783.2,635.4,785.2z"/>
<polygon class="st5" points="766,785.2 762.7,776 756.3,612.6 741.3,561.5 665.3,563.1 663.2,603.6 713.9,785.2 "/>
<g>
	<path class="st2" d="M672.9,379.9l-77,44.5L571,338.5l-27.3,1.9c0,0,15.5,124.7,29.5,133.5C590.9,485,656,461,656,461L672.9,379.9z
		"/>
</g>
<g>
	<path class="st9" d="M733,376.3c0,0,25.4,3.2,31.4,7.6c6.7,4.9,27.4,27.8,27.4,27.8s-43.1,123.5-41.4,145.4
		c1.7,22,6.4,54.5,6.4,54.5s-83.7,5.3-115.4-7.2c0,0,10-49.8,10-62.9c0-13.1,14.7-141.9,18.7-148.8c4-6.8,30.1-17.3,30.1-17.3
		L733,376.3z"/>
</g>
<g>
	<path class="st2" d="M618,708.5c-0.5-2.6,17.2-127.2,17.6-131.6c3.6-43.9,20-177.3,35.5-195.8c1.9-1.7,6.4-3.2,11.5-3.8
		c8.5-1,17.6-1.7,17.6-1.7s-10.8,8.5-13.3,12.1c-11.5,16.3-16.2,35.1-18.7,55.2c-7.4,58.3-14.1,271-16.7,271.9
		C648.5,715.9,619.2,714.3,618,708.5z"/>
</g>
<g>
	<path class="st0" d="M726.7,263.3c0,0,15.3-10.4,21.8,7.8c-0.1-0.1,5.4-0.1,6.1,0.2c3.2,1.1,6.2,4.3,9,6.1
		c10,6.4,14.6,18.8,15.2,30.3c0.7,13.9-5.1,24-14.2,34c-2.7,3-5.6,5.8-9.1,7.7c-4.2,2.3-7.6,0.5-11.6,1.4c-3.4,0.8-4.5,4.4-8.5,3.1
		c-5.6-1.8-11.4-8.7-18.3-7.7c-6.9,1-22.8-5.2-22.8-5.2c-20.4-8-6.6-47.4-2.7-61.5C695.3,266.4,714.1,258.5,726.7,263.3z"/>
</g>
<path class="st8" d="M708.3,353l-5.3,14.5l-2.9,8.1c0,0-0.2,14.5,3.2,18.2c5.8,6.5,29.7-17.5,29.7-17.5l7.6-45.5L708.3,353z"/>
<path class="st10" d="M738.1,345.6c-9.1,14.1-24.7,20.5-35.2,22l5.4-14.6l32.3-22.2L738.1,345.6z"/>
<path class="st8" d="M734.3,284.1c-12.2-7.4-28.1-1.8-33.1,11.3c-2.2,5.7-4.6,12.9-6.5,21c-4.7,19.4,1.2,40.6,10.1,42.6
	c8.9,2,36.1-5.3,43.1-32.7C752.2,309.3,747.1,291.9,734.3,284.1z"/>
<g>
	<path class="st2" d="M733,376.3c0,0,37.2,3.7,46.6,9.9c6,4,1.3,48,1.3,48s-8.5,66.5-7.3,100.1c0.1,3.3,0.3,6.4,0.5,9.6
		c3.3,50.6,30.3,171.7,28,173.8c-15.2,8.5-98.3,8.2-99.3,1.4C694.6,662.3,733,376.3,733,376.3z"/>
</g>
<path class="st11" d="M773.5,531.6c0,0.9,0,1.8,0.1,2.7c0.1,3.2,0.3,6.3,0.5,9.4l-50.6-23.6L773.5,531.6z"/>
<path class="st8" d="M668.9,482.9c1.7,0.8,4.6,2.2,6.4,3.4c2,1.4,4.3,2,6.2,2.9c3.7,1.8,6.4,3.1,6.4,2.9s1-0.4-0.9-1.7
	c-2.2-1.5-7.7-3.8-10.8-6.3c-1.8-1.4-5.6-4.2-5.6-4.2s-5.1-5.2-4.9-5.6c1.1-2.1,5.6,0.5,7.7,2.8c2.1,0.8,6.1,3.8,6.1,3.8
	s9.4,4.4,10,3.1c0.3-0.6-5.2-3.9-10.1-8c-4.5-3.8-8.5-8.4-7.9-9.3c1-1.7,6.5,2.1,6.5,2.1s3.7,2.8,5,3.6c1.5,1,6.3,3.6,6.3,3.6
	s17,8.3,17.5,7.1c0.5-1.3,0.3-5.1-0.5-5.9c-0.9-0.9-3.2-1.9-4.2-2.5c-1.4-0.9-3.5-3.1-2.5-4.2s9,1.9,9,1.9s4.7,2.2,6.9,5.1
	c7.4,10.1,5.4,10.8,6.4,12.1c1.2,1.5,25,10.2,25,10.2s71.6,17.8,75.5,19.1l-9.5,28.9c-4.4-0.6-84.6-32.7-92.7-36.5
	c0,0-11.3-1.1-18.4-1.9c-7.1-0.9-13.5-4.8-15.4-5.4c-0.3-0.1-6.7-2.3-14-7.1c-6.2-4.1,1.5-3,1.5-3s12.9,5.6,13.2,4.6
	c0.2-0.8-7-3.5-14-8c-1.8-1.2-3.6-2.3-5.2-3.4C663.6,484,664,480.7,668.9,482.9z"/>
<g>
	<path class="st2" d="M776.4,384.7c0,0,12,1.7,22.4,16.6s33.3,79.2,40.4,103.8c7.2,24.8,3.6,38.6-12.7,42.7
		c-16.3,4.1-103.2-27.5-103.2-27.5l8.1-29.8c0,0,57.6,12.7,59.6,11.7L772.9,471C773.1,470.9,759,420.5,776.4,384.7z"/>
</g>
<g>
	<path class="st0" d="M713.2,333.8c0,0,11.7,3.8,12.6,8.1c1,4.3-0.5,10.5-6.2,15.2c-5.7,4.8-17.9,1.8-21.3-0.8
		c-3.3-2.6-5.9-13.7-2.5-19.9C699.2,330.2,713.2,333.8,713.2,333.8z"/>
</g>
<path class="st8" d="M717,342.8c0,0-0.1,4.8-1.7,5.6c-1.5,0.8-3.5,1.5-5.3,1.7c-2.9,0.3-5.6-1-7.1-3.2c-0.2-0.2-0.3-0.5-0.4-0.7
	c-1.2-2.4-1.4-6.6-1.4-6.6s4.9-1.2,7.8-0.7C711.7,339.4,717,342.8,717,342.8z"/>
<g>
	<polygon class="st2" points="847.7,206 840.1,204.7 835.7,211.1 827.3,209.1 824.7,217.4 815.1,215.6 811.8,222.9 802.3,222.6 
		802.4,219 809.5,219.3 813,211.5 822.3,213.3 824.9,204.8 834.1,207.1 838.5,200.8 845.5,201.9 847.5,197.2 850.8,198.6 	"/>
</g>
<path class="st6" d="M1279.9,332.6H951.8c-3.1,0-5.6-2.5-5.6-5.6v-48.2c0-3.1,2.5-5.6,5.6-5.6h328.1c3.1,0,5.6,2.5,5.6,5.6V327
	C1285.4,330.1,1282.9,332.6,1279.9,332.6z"/>
<g>
	<path class="st0" d="M1031.2,98.1c3.1-15.3-4.1-30.5-17.8-36.2c0.1-8.7-3.3-17.4-9.3-23.4c-11.7-11.8-35.8-16.9-44.4-1.9
		c-11.4,6.4-10.6,14.5-7.3,27.2c-11,11.4-7,30.2,9.1,39.9c-0.3,12.8-0.6,32.2,10.6,37.7c2.7,1.3,6.9,3.2,7.4,3.7
		c-0.7-0.7,8.3,24.4,36.2,13C1044.3,146.3,1049.8,113.3,1031.2,98.1z"/>
</g>
<path class="st12" d="M912.9,201.3c2.2-2.2,6.2-4.2,6-4.5c-0.9-1.3-10.7,8.8-10,5.9c0.4-1.6,7.3-9.8,9.8-10.1c2.4-0.3,18-2.8,18-2.8
	l35.9-23.9c0,0,1.8-28.3-5.8-47.3c8.3-2.5,10-3.1,18.5-2.4c4.9,19.3,10.2,51.8,3.8,61.3c-2.7,4-49.4,19.4-49.4,19.4
	s-10.1,3.8-12,3.9c-1.4,0.1-5.4-0.2-7.3,0.1c-4.4,0.7-9.8,7.2-10.1,6.4C909.9,206.9,910.6,203.6,912.9,201.3z"/>
<g>
	<path class="st2" d="M962.3,116.5c3.4-6.2,6.9-11.2,6.9-11.2c3.5-6.2,12.5-9.4,12.5-9.4s3,0.1,6.5,0.2c0.2,0.6,0.4,1,0.7,1.2
		c1.3,1,8.8-0.3,13.6,3c16.2,13.9,11.7,81.5,10.4,102.8l-40.4,0.2c0,0-2.7-45.6-12.7-57.4C952.8,137.6,957.3,125.7,962.3,116.5z"/>
</g>
<path class="st12" d="M951.2,354c-0.4-0.8-6.1-14.4-10.6-20.4c-6.7-8.8-64.3-88.2-61.9-107.5c1-8.4,26-15.6,29-16.1
	c15.9,2.1-0.8,15.8,11.1,27.1c-7.8,2.7-12.3,6-10.7,8.2c6.7,8.7,42.4,79.2,44,80.1c6.9,4.1,9.6,2.2,9.6,2.2s-1.6,39.6-4.9,38.4
	C953.4,364.7,956.1,363,951.2,354z"/>
<g>
	<path class="st2" d="M964.5,327.8l-6.7,39.9c-1.5,5.2-4,5.1-4.7,4.4c-1.3-1.4-1.9-12.1-2.1-18.1c3-9.2,2.7-26.6,0.9-28.6
		C956.5,325.5,964.5,326.9,964.5,327.8z"/>
</g>
<path class="st8" d="M940.7,230c-8.9-14.8-8.5-13-24-19.7c-6.2,2.5-27.1,15.6-29.8,18l33.2,24.1C919,249.7,930.6,236.4,940.7,230z"
	/>
<path class="st8" d="M984.5,73c0,0,2.7,19.4,4.6,24.2c1.9,4.7-10.4,14.8-20.7,17.9c-10.2,3.1,3.1-10.4,2.7-15.5
	c-0.4-5-2.3-28.9-2.3-28.9L984.5,73z"/>
<path class="st10" d="M969.4,77.5c-0.3-4-0.5-6.9-0.5-6.9l15.6,2.4c0,0,0.4,2.3,0.8,5.5C979,82.2,973.3,81.1,969.4,77.5z"/>
<path class="st8" d="M979.6,37.5c0,0,6.2,1.4,10,7.2s6.4,23-6.1,31s-22.3-3.3-22.4-14.4C960.8,50.3,963.2,35.6,979.6,37.5z"/>
<path class="st8" d="M958.1,57.9c1.1,2.7,3.2,4.3,4.7,3.7s1.9-3.3,0.9-6c-1.1-2.7-3.2-4.3-4.7-3.7C957.5,52.6,957.1,55.2,958.1,57.9
	z"/>
<path class="st8" d="M989.8,60.1c-0.9,2.9-0.1,5.7,1.9,6.3c1.9,0.6,4.2-1.2,5.1-4.1c0.9-2.9,0.1-5.7-1.9-6.3
	C993,55.4,990.7,57.2,989.8,60.1z"/>
<g>
	<path class="st0" d="M942.5,204.4c6.9-0.6,29.8-3,29.8-3l40.6-5.5c0,0,7.2,17.1,7.5,27.9c0.5,18.8-15.5,32.1-30.3,31.2
		c-8.8-0.5-55.1-1.2-69.8-1.1c-2-15.3-4.3-33.5-14.7-44.5C922.2,207.1,933.1,205.2,942.5,204.4z"/>
</g>
<path class="st8" d="M942,346.3c-1.1-1.2-10-62.1-15.4-87.7c-1.3-6.2-5.2-11.4-10.7-14.5l-29-15.8c-10,9.2,36.8,112.3,41.1,123.1
	c3,7.4,4.8,22.8,5,23.7c2.4,10.5-0.7,11.4,2.3,13.6s16.4-36.3,16.4-36.3S947.9,352.4,942,346.3z"/>
<path class="st3" d="M950.7,207L950.7,207c0,1.5-1.4,2.8-3.1,2.8l-49.2,0.1c-1.7,0-3.5-1.5-4.1-3.4l0.9,0.6c0-1.5,1.4-2.8,3.1-2.8
	l49.2-0.1C949.3,204.2,950.7,205.5,950.7,207z"/>
<g>
	<path class="st3" d="M898.9,208.9c0.3,0,0.6,0,0.9-0.1c2.5-0.3,4.2-1.9,3.7-3.6l-18.8-65c-0.5-1.7-2.9-2.8-5.5-2.5
		c-2.5,0.3-4.2,1.9-3.7,3.6l18.8,65C894.7,207.9,896.7,208.9,898.9,208.9z"/>
</g>
<path class="st8" d="M913.4,200.1c2.8-1.4,7.2-2.1,7.1-2.4c-0.5-1.5-13,6.4-11.5,3.9c0.8-1.4,10.1-8.5,12.6-8
	c2.4,0.5,17.9,2.9,17.9,2.9l40-14.5c0,0,7.6-24.9,6.3-45.3c8.7,0.2,14.8,1.6,22.8,4.9c-1.3,19.9-6.4,52.4-15.4,59.5
	c-3.8,3-53,3.1-53,3.1s-10.8,0.5-12.6,0c-1.4-0.4-5-1.9-6.9-2.2c-4.4-0.7-11.5,3.8-11.6,3C908.8,204.4,910.5,201.5,913.4,200.1z"/>
<path class="st11" d="M982.9,115c0.6-6.3,1.3-12.6,7.7-15.3c4-1.7,8.7-1.1,12.3,1.2c4.3,2.8,6,7.8,6.5,12.6
	c1.2,11.1,1.8,22.6,1.1,33.7c-7.9-3.3-18.7-1.5-27.5-1.7C981.2,135.8,982.2,123.2,982.9,115z"/>
<path class="st13" d="M919.3,194.2c-6.8,1.7-6.5,1.6-6.7,1.8c-4.8,3-4.4,4.4,3,1.2c0.2-0.1,0.4-0.1,0.6-0.1h3.5c1.4,0,2-1.7,1-2.6
	l0,0C920.3,194.2,919.8,194,919.3,194.2z"/>
<g>
	<path class="st2" d="M932.7,372.9c0,0,0.3,4.8-1.3,8.7c-1.6,3.9-7.8,5.3-6.3,7.3s13.5,0,13.5,0l13.9-34c0.6-1.3,0.2-2.7-0.8-3.7
		c-1.7-1.5-4.7-3.5-9.5-5C942.1,346.4,942.8,367.7,932.7,372.9z"/>
</g>
<g>
	<g>
		<path class="st3" d="M1230,356.2c0,4.4-3.6,7.9-7.9,7.9c-4.4,0-7.9-3.6-7.9-7.9c0-4.4,3.6-7.9,7.9-7.9
			C1226.4,348.3,1230,351.8,1230,356.2z"/>
	</g>
	<g>
		<path class="st3" d="M1254.4,356.2c0,4.4-3.6,7.9-7.9,7.9c-4.4,0-7.9-3.6-7.9-7.9c0-4.4,3.6-7.9,7.9-7.9
			C1250.8,348.3,1254.4,351.8,1254.4,356.2z"/>
	</g>
	<g>
		<path class="st3" d="M1277.9,356.2c0,4.4-3.6,7.9-7.9,7.9c-4.4,0-7.9-3.6-7.9-7.9c0-4.4,3.6-7.9,7.9-7.9
			C1274.4,348.3,1277.9,351.8,1277.9,356.2z"/>
	</g>
</g>
<g>
	<path class="st2" d="M1267.3,303c0,13.5-10.9,24.4-24.4,24.4s-24.4-10.9-24.4-24.4s10.9-24.4,24.4-24.4S1267.3,289.5,1267.3,303z"
		/>
</g>
<g>
	<path class="st3" d="M1213.1,569.6c12.7-0.7,20,14.6,11.4,24.1c-1.5,1.7-2.4,3.9-2.4,6.2l-0.2,7.9c-0.1,2.2-1.8,4-3.9,4.1l-4.8,0.3
		c-2.2,0.1-4.1-1.4-4.4-3.6c-1.1-7.9-0.9-10.9-4.2-13.8C1194.9,586.3,1200.4,570.3,1213.1,569.6z"/>
</g>
<g>
	<path class="st3" d="M1218.5,602.7c-0.6-6.4-1.1-13.5-1.2-16.1c-2.4,0.3-4.7,0.2-7-0.4c0.8,5.3,1.4,10.6,2,15.9l-0.7,0.1
		c-0.5-5.4-1.2-10.8-2-16.2c-1.4-0.4-3-0.9-3.8-2.2c-0.4-0.6-0.5-1.3-0.3-2c0.5-1.7,2.6-1.7,3.6-0.3c0.7,0.9,0.8,2.2,1.1,3.9
		c2.3,0.6,4.8,0.8,7.1,0.5c0-1.3,0.2-2.6,0.9-3.7c2.6-3.7,6.9,3.1-0.2,4.3c0.1,2.1,0.5,9.3,1.2,16.1L1218.5,602.7z M1218.8,582.6
		c-0.6,0.9-0.8,2-0.8,3.2c1.5-0.3,2.5-0.8,3-1.6C1221.8,582.8,1220.1,580.6,1218.8,582.6z M1206.7,581.3c-0.7,0.4-0.8,1.5-0.3,2.1
		c0.6,1,1.9,1.4,3.1,1.8c-0.2-1.3-0.3-2.5-0.9-3.3C1208.1,581.4,1206.8,581.3,1206.7,581.3z"/>
</g>
<g>
	<path class="st2" d="M1222.1,599.7c0,0.1,0,0.1,0,0.2l-0.2,7.9c-0.1,2.2-1.8,4-3.9,4.1l-4.8,0.3c-2.2,0.1-4.1-1.4-4.4-3.6
		c-0.5-3.5-0.7-6-1.1-8L1222.1,599.7z"/>
</g>
<g>
	<path class="st3" d="M1221,561.9l2.2-7.5c0.2-0.7-0.2-1.5-0.9-1.7c-0.7-0.2-1.5,0.2-1.7,0.9l-2.2,7.5c-0.2,0.7,0.2,1.5,0.9,1.7
		C1220,563.1,1220.7,562.7,1221,561.9z"/>
</g>
<g>
	<path class="st3" d="M1232.6,576.4l7.8-2.5c0.7-0.2,1.1-1,0.9-1.7s-1-1.1-1.7-0.9l-7.8,2.5c-0.7,0.2-1.1,1-0.9,1.7
		S1231.9,576.6,1232.6,576.4z"/>
</g>
<g>
	<path class="st3" d="M1246,599.1c0.4-0.6,0.2-1.5-0.4-1.9c-2.4-1.5-5-2.8-7.6-3.8c-0.7-0.3-1.5,0.1-1.8,0.8s0.1,1.5,0.8,1.8
		c2.5,1,4.9,2.2,7.1,3.6C1244.8,600,1245.6,599.8,1246,599.1z"/>
</g>
<g>
	<path class="st3" d="M1201.1,566c0.7-0.3,0.9-1.2,0.6-1.9c-1.7-3.2-3-6.6-4-10c-0.2-0.7-1-1.2-1.7-1s-1.2,1-1,1.7
		c1,3.6,2.4,7.2,4.2,10.6C1199.6,566.1,1200.4,566.3,1201.1,566z"/>
</g>
<g>
	<path class="st3" d="M1195.1,578.1c0.1-0.8-0.5-1.4-1.3-1.5l-8.9-0.7c-0.8-0.1-1.4,0.5-1.5,1.3s0.5,1.4,1.3,1.5l8.9,0.7
		C1194.4,579.4,1195.1,578.9,1195.1,578.1z"/>
</g>
<g>
	<path class="st3" d="M1186.4,603.3c0.1,0,0.2-0.1,0.4-0.1c2.7-1.5,5.3-3.2,7.6-5.2c0.6-0.5,0.6-1.4,0.1-1.9
		c-0.5-0.6-1.4-0.6-1.9-0.2c-2.2,1.9-4.6,3.5-7.1,4.9c-0.7,0.4-0.9,1.2-0.6,1.9C1185.2,603.2,1185.8,603.5,1186.4,603.3z"/>
</g>
<g>
	<path class="st5" d="M389.8,656.6c12.7-0.7,20,14.6,11.4,24.1c-1.5,1.7-2.4,3.9-2.4,6.2l-0.2,7.9c-0.1,2.2-1.8,4-3.9,4.1l-4.8,0.3
		c-2.2,0.1-4.1-1.4-4.4-3.6c-1.1-7.9-0.9-10.9-4.2-13.8C371.6,673.3,377,657.3,389.8,656.6z"/>
</g>
<g>
	<path class="st3" d="M395.1,689.7c-0.6-6.4-1.1-13.5-1.2-16.1c-2.4,0.3-4.7,0.2-7-0.4c0.8,5.3,1.4,10.6,2,15.9l-0.7,0.1
		c-0.5-5.4-1.2-10.8-2-16.2c-1.4-0.4-3-0.9-3.8-2.1c-0.4-0.6-0.5-1.3-0.3-2c0.5-1.7,2.6-1.7,3.6-0.3c0.7,0.9,0.8,2.2,1.1,3.9
		c2.3,0.6,4.8,0.8,7.1,0.5c0-1.3,0.2-2.6,0.9-3.7c2.6-3.7,6.9,3.1-0.2,4.3c0.1,2.1,0.5,9.3,1.2,16.1H395.1z M395.4,669.6
		c-0.6,0.9-0.8,2-0.8,3.2c1.5-0.3,2.5-0.8,3-1.6C398.4,669.8,396.8,667.6,395.4,669.6z M383.3,668.3c-0.7,0.4-0.8,1.5-0.3,2.1
		c0.6,1,1.9,1.4,3.1,1.8c-0.2-1.3-0.3-2.5-0.9-3.3C384.8,668.4,383.4,668.3,383.3,668.3z"/>
</g>
<g>
	<path class="st2" d="M398.7,686.7c0,0.1,0,0.1,0,0.2l-0.2,7.9c-0.1,2.2-1.8,4-3.9,4.1l-4.8,0.3c-2.2,0.1-4.1-1.4-4.4-3.6
		c-0.5-3.5-0.7-6-1.1-8L398.7,686.7z"/>
</g>
<g>
	<path class="st5" d="M397.6,649l2.2-7.5c0.2-0.7-0.2-1.5-0.9-1.7c-0.7-0.2-1.5,0.2-1.7,0.9l-2.2,7.5c-0.2,0.7,0.2,1.5,0.9,1.7
		C396.7,650.1,397.4,649.7,397.6,649z"/>
</g>
<g>
	<path class="st5" d="M409.3,663.4l7.8-2.5c0.7-0.2,1.1-1,0.9-1.7s-1-1.1-1.7-0.9l-7.8,2.5c-0.7,0.2-1.1,1-0.9,1.7
		S408.5,663.6,409.3,663.4z"/>
</g>
<g>
	<path class="st5" d="M422.7,686.1c0.4-0.6,0.2-1.5-0.4-1.9c-2.4-1.5-5-2.8-7.6-3.8c-0.7-0.3-1.5,0.1-1.8,0.8s0.1,1.5,0.8,1.8
		c2.5,1,4.9,2.2,7.1,3.6C421.4,687,422.3,686.8,422.7,686.1z"/>
</g>
<g>
	<path class="st5" d="M377.8,653c0.7-0.4,0.9-1.2,0.6-1.9c-1.7-3.2-3-6.6-4-10c-0.2-0.7-1-1.2-1.7-1s-1.2,1-1,1.7
		c1,3.6,2.4,7.2,4.2,10.6C376.3,653.1,377.1,653.3,377.8,653z"/>
</g>
<g>
	<path class="st5" d="M371.8,665.1c0.1-0.8-0.5-1.4-1.3-1.5l-8.9-0.7c-0.8-0.1-1.4,0.5-1.5,1.3s0.5,1.4,1.3,1.5l8.9,0.7
		C371.1,666.5,371.8,665.9,371.8,665.1z"/>
</g>
<g>
	<path class="st5" d="M363.1,690.3c0.1,0,0.2-0.1,0.4-0.1c2.7-1.5,5.3-3.2,7.6-5.2c0.6-0.5,0.6-1.4,0.2-1.9
		c-0.5-0.6-1.4-0.6-1.9-0.2c-2.2,1.9-4.6,3.5-7.1,4.9c-0.7,0.4-0.9,1.2-0.6,1.9C361.9,690.2,362.5,690.5,363.1,690.3z"/>
</g>
<g>
	<g>
		<path class="st5" d="M1313.9,979.7c0.7-1-0.4-2.2-2.1-2.2h-269.4c-21.1,0-38.2,11.5-38.2,25.6l0,0c0,14.2,17.1,25.6,38.2,25.6
			h269.5c1.7,0,2.8-1.2,2.1-2.2l0,0C1303.3,1011.6,1303.3,994.4,1313.9,979.7z"/>
		<path class="st9" d="M1311.7,982.9H1131c-13.4,0-24.2,8.8-24.2,19.6v1.5c0,10.8,10.8,19.6,24.2,19.6h181.1
			C1304,1010.6,1303.9,996,1311.7,982.9z"/>
	</g>
	<g>
		<path class="st9" d="M1047.6,975.2h141.2c12.5,0,22.7-10.9,22.7-24.5l0,0c0-13.5-10.2-24.5-22.7-24.5h-141.2l0,0
			c10.8,13.6,11.2,33.4,1,47.5L1047.6,975.2z"/>
	</g>
	<g>
		<path class="st2" d="M1209.6,950.7L1209.6,950.7c0-13.5-10.3-24.5-22.9-24.5H1045c-0.7,0-1.2-0.6-1.2-1.3l0,0
			c0-0.7,0.5-1.3,1.2-1.3h224.8c14,0,25.3,12.1,25.3,27l0,0c0,14.9-11.3,27-25.3,27H1045c-0.7,0-1.2-0.6-1.2-1.3l0,0
			c0-0.7,0.5-1.3,1.2-1.3h141.7C1199.4,975.2,1209.6,964.2,1209.6,950.7z"/>
	</g>
	<g>
		<path class="st9" d="M1084.7,921.2H1226c12.5,0,22.7-10.9,22.7-24.5l0,0c0-13.5-10.2-24.5-22.7-24.5h-141.2l0,0
			c10.8,13.6,11.2,33.4,1,47.5L1084.7,921.2z"/>
	</g>
	<g>
		<path class="st0" d="M1246.8,896.7L1246.8,896.7c0-13.5-10.3-24.5-22.9-24.5h-141.7c-0.7,0-1.2-0.6-1.2-1.3l0,0
			c0-0.7,0.5-1.3,1.2-1.3H1307c14,0,25.3,12.1,25.3,27l0,0c0,14.9-11.3,27-25.3,27h-224.8c-0.7,0-1.2-0.6-1.2-1.3l0,0
			c0-0.7,0.5-1.3,1.2-1.3h141.7C1236.5,921.2,1246.8,910.2,1246.8,896.7z"/>
	</g>
	<g>
		<g>
			<path class="st2" d="M1219.6,1003.5h-15.1c-3.3,0-5.9,1-5.9,2.3v0.2h21V1003.5z"/>
		</g>
		<g>
			<path class="st2" d="M1232.5,1009.1c0-3.1-3.9-5.6-8.8-5.6h-19.4c3.7,0,6.7,1.9,6.7,4.3l-0.1,60.5l10.7-7.8l10.9,7.8
				L1232.5,1009.1z"/>
		</g>
	</g>
</g>
<path class="st14" d="M1091.3,859.5l12.9-3c0,0,10.4,0.7,20.2-1.3c0,0,1,2.6,1.4,7.9c0.1,0.9-1.3,5.5-2.2,5.7
	c-3.3,0.5-9.2-0.1-19.5,0.2c0,0-16.3,1.9-25-1C1070.4,865.1,1091.3,859.5,1091.3,859.5z"/>
<g>
	<path class="st0" d="M1233.6,648.6c0.7,7.5,7,10.1,12.8,14.8c3.9,3.2,3.3,11.8,0.3,17.1c-7.6,13.5-1.1,15.2,5,25.1
		c14.8,23.9-31,29.2-36.4,30.9c-5.4,1.8-9.1,3.9-12.3,3.6c-9.7-1.1-18.5-14.8-23.4-27.5s7-13.4,7.6-20.7s-13.3-8.9-9.2-22.7
		c4.5-14.9,10.8-27.6,19.2-32.1c13.9-7.5,30.8,0.3,34.6,6.4C1232.9,645.3,1233.5,647,1233.6,648.6z"/>
</g>
<path class="st7" d="M1234.7,812.1c1.2,3,7.8,13.6,7.8,13.6l-92.9,0.9l-1.4-19.1c25.5-0.2,50.7-11.5,74.2-19.5
	C1223,789.4,1234.1,810.6,1234.7,812.1z"/>
<g>
	<path class="st0" d="M1168.9,739c0,0,5-35.2,13-38.9s51.5,1.4,58,5.4s-4.3,45.3-6,56.9c-0.1,0.7-0.2,1.4-0.3,2.1
		c-2.7,16.7-1.2,33.8,4.7,49.6c-23.8,7.2-29.9,11.2-55.4,10.5l-9.5-55.7C1173.3,768.8,1165.8,741.9,1168.9,739z"/>
</g>
<path class="st8" d="M1216.4,676.9c0,0,2,19.4,3.7,24.1c1.7,4.8-4.6,14.4-14.9,17.1c-10.3,2.7-2.8-10.3-3-15.4
	c-0.2-5-1.2-28.8-1.2-28.8L1216.4,676.9z"/>
<path class="st10" d="M1216.6,679.2c-1.3,1.5-2.8,2.8-4.7,3.9c-3.9,2.3-7.4,2.8-10.5,2.1c-0.3-6-0.5-11.1-0.5-11.1l15.4,2.9
	C1216.4,676.9,1216.5,677.8,1216.6,679.2z"/>
<path class="st8" d="M1212.8,641.5c0,0,6.1,1.6,9.6,7.5c3.6,5.9,5.5,23-7.2,30.5s-22-4.1-21.8-15.1
	C1193.7,653.6,1196.6,639,1212.8,641.5z"/>
<path class="st8" d="M1189.6,659.9c0.1,2.8,1.6,5.1,3.2,5s2.9-2.5,2.7-5.3c-0.1-2.8-1.6-5.1-3.2-5S1189.5,657.1,1189.6,659.9z"/>
<path class="st8" d="M1222.1,664.3c-1,2.8-0.3,5.7,1.6,6.3c1.9,0.7,4.3-1.1,5.3-3.9c1-2.8,0.3-5.7-1.6-6.3
	C1225.4,659.8,1223.1,661.5,1222.1,664.3z"/>
<g>
	<path class="st0" d="M1239.9,705.5c0,0-7.4,3.9-12,14.7c-4.5,10.8,10.9,66.2,14.2,69.7c3.3,3.5,12.4,4.1,14-4.6
		C1257.7,776.7,1252.4,708.2,1239.9,705.5z"/>
</g>
<path class="st6" d="M1195.5,698.1l12.8,76.7l-49.7,8l-15.8-71.8C1142.8,711.1,1183.7,694.5,1195.5,698.1z"/>
<path class="st6" d="M1099.6,700.5c4.8-1.9,9.9-2.3,14.9-1.4c9.3,1.8,24.1,5.6,30,12c9,9.6,17.2,73.3,17.2,73.3l-38.6-8.7
	L1099.6,700.5L1099.6,700.5z"/>
<path class="st4" d="M1232.6,831.7c-6.5-18.1-80.1-83.8-99.6-78.7l10.5,40.1c0,0,21.7,65.8,43.3,73.6c21.7,7.9,41.5-1.1,41.5-1.1
	S1239.1,849.7,1232.6,831.7z"/>
<path class="st8" d="M1206.1,726.3c-0.9,1.8,4.9,5.1,6.6,6.3s8.8,0,8.8,0S1207.1,724.2,1206.1,726.3z"/>
<path class="st8" d="M1143.2,812.1c0,0-18.7,38.9-18.8,42.9c-0.1,5.8-27.1,4.2-21.2,1.7c1.3-0.6,5.6-2.7,5.9-3
	c1.7-1.5,17.3-49.8,17.3-49.8L1143.2,812.1z"/>
<path class="st4" d="M1149.2,765.6c-0.9-1-10.4-4.8-17.7,4.3c-7.3,9.1-21.3,79.9-21.3,79.9l17.2,1.7
	C1127.4,851.5,1170.2,788.8,1149.2,765.6z"/>
<g>
	<path class="st15" d="M1093.5,712.5l22.1,64.5c0.9,2.6,3.1,4.4,5.7,4.8c20.8,2.9,31.6,4.4,31.6,4.4s4,0.2,8.3,0.3l47.5-5.1
		c4.1-0.4,7-4.4,6.2-8.7l-11.6-63.4c-0.7-3.9-4.3-6.5-8.1-5.9l-45.7,7.7c-4-0.1-8-0.2-12-0.3l-36-8.1
		C1096.2,701.7,1091.6,707.1,1093.5,712.5z"/>
</g>
<path class="st8" d="M1190.2,743.9c0,0,12.8,2.4,17.1,2.2c4.4-0.1,10,1.2,10,1.2s14.2,33.5,16.3,37.2c6.1,11.1,23,9.8,22.7,0.5
	c-0.2-7.4-29.1-53.7-36.8-53.5c-7.7,0.2-31.7-4.8-32.4-1.7c-0.4,1.6,22.1,2.4,18.6,3.8c-2.2,0.9-19.8-1.1-19.8,1
	c0.1,2.1,15.9,2.3,17.6,3.9c1.7,1.6-16.9-2-16.8,1.5c0.1,1.8,16.4,0.5,18.2,3.2C1205.7,744.4,1188.8,740.4,1190.2,743.9z"/>
<g>
	<path class="st8" d="M1104.2,738.4c-1-0.4-2.2,0.1-2.4,1.2c-0.3,1.1-0.3,2.4,0.5,3.3c1.6,1.7,12.8,3.4,12.8,1.7
		C1115.2,743.3,1107.7,739.9,1104.2,738.4z"/>
	<path class="st8" d="M1102,742.8c0,0-1.1,4.2-0.2,4.2c1,0,13,1.2,13.6-0.2C1116,745.3,1103.6,741.9,1102,742.8z"/>
	<path class="st8" d="M1101.5,747.1c0,0-0.3,1.9,0.7,2.9c1,1.1,12.2,0.4,12.6-1.4C1115.2,746.8,1101.9,745.7,1101.5,747.1z"/>
	<path class="st8" d="M1103.2,751c0,0,0,1.4,0.5,2c0.6,0.6,8.9-0.2,9.7-2C1114.3,749.3,1104.2,749.2,1103.2,751z"/>
</g>
<path class="st8" d="M1131.4,849.2c0,0-4,14.3-7.9,23.8c-2.6,6.2-3.3,12.4-5,15.5c-4.4,7.8-11.5,8.1-17.2,3.4
	c-5.7-4.7,1.9-24.6,1.9-24.6l17.9-25.2L1131.4,849.2z"/>
<path class="st14" d="M1118.4,888.5c1.5-2.8,2.2-7.9,4.2-13.4c-2.7,1.6-7.3,2.8-9.8,2.1c-9.1-2.4-9.6-9.8-9.6-9.8
	s-9.5,20.4-3.9,25.1C1105,897.1,1114.1,896.3,1118.4,888.5z"/>
<g>
	<polygon class="st2" points="1149.7,711.2 1164.3,787 1155.5,786.5 1152.9,786.3 1137.6,710.9 	"/>
</g>
<g>
	<path class="st5" d="M1200.7,862.3c5,9.2,15,7.9,24,7.9c10.3,0,20.9-4.3,23.8-15.7c3.1-12.2-1-27.3-8.2-36.9
		c-37.1-49-37.4-53.8-52.1-60.3c-15.9-7-75.1,94-75.1,94l16.2,8.3c0,0,24.4-20.4,39.9-38.2c1.8-2.1,7-13,7-13
		S1197.3,856.2,1200.7,862.3z"/>
</g>
<g>
	<path class="st2" d="M502.5,945.9c0.8-1.7-0.4-3.7-2.4-3.7H193c-24.1,0-43.6,18.8-43.6,41.9l0,0c0,23.2,19.5,41.9,43.6,41.9h307.2
		c2,0,3.2-2,2.4-3.7l0,0C490.4,998.2,490.5,970,502.5,945.9z"/>
</g>
<g>
	<path class="st9" d="M500.6,950H320.7c-12.8,0-23.1,15.7-23.1,35.1l0,0c0,19.4,10.4,35.1,23.1,35.1h180.8
		C491.1,997.9,490.8,972.5,500.6,950z"/>
</g>
<g>
	<g>
		<path class="st3" d="M399,976.7h-19.8c-4.3,0-7.7,1-7.7,2.2v0.2H399V976.7z"/>
	</g>
	<g>
		<path class="st3" d="M415.9,982.3c0-3.1-5.2-5.6-11.6-5.6h-25.4c4.8,0,8.8,1.9,8.8,4.3l-0.1,60.5l14.1-7.8l14.3,7.8L415.9,982.3z"
			/>
	</g>
</g>
<g>
	<path class="st3" d="M524.3,788.4l9.7-2.5l-6.6,87.6l-11.6,0.4l5.9-82.2C521.8,790,522.9,788.8,524.3,788.4z"/>
</g>
<g>
	<g>
		<path class="st2" d="M528.3,875.9c-0.2,0-0.4,0-0.7,0c-1.9-0.2-3.3-2.1-3.2-4.3l6.4-82.4c0.2-2.1,1.9-3.7,3.8-3.5
			c1.9,0.2,3.3,2.1,3.2,4.3l-6.4,82.4C531.3,874.3,530,875.7,528.3,875.9z"/>
	</g>
	<g>
		<path class="st2" d="M439.2,880.3c0,0.1,0,0.1,0,0.2l0,0c0.3,3.4,2.9,5.9,5.8,5.6l81.8-7.3c2.9-0.3,5-3.2,4.7-6.5
			c0-0.1,0-0.3-0.1-0.4L439.2,880.3z"/>
	</g>
</g>
<path class="st8" d="M496.1,968.7c-5.4,3-21.7-2.2-21.7-2.7c-0.2,4.5-18.3,48.3-18.3,48.3v13.5c0,0,37.3,1.8,36.8-1.5
	c-0.5-3.3-2.5-1.2-10-7.4c-0.7-0.6-11.1-3-8.3-9.2C480.3,997.3,492.4,976.5,496.1,968.7z"/>
<g>
	<path class="st3" d="M454.9,1028.3h40.8c1.5-0.2,1.8-1.3,1.3-2.1c-1.1-1.5-8.9-5-14.2-7.4c-9.2,1.1-25.3-2.5-26.7-4.5
		C452.2,1019.5,454,1028.1,454.9,1028.3z"/>
</g>
<g>
	<path class="st0" d="M445.9,937.3c-0.6-1.7,35.2-16.8,36.8-15.1c2.8,3.1-19.3,60.5-19.3,60.5l25.4,7.8c0,0,26.5-66.4,25.3-78.6
		c-1.1-12.1-14.4-26-43.1-17.1C442.3,903.7,445.9,937.3,445.9,937.3z"/>
</g>
<path class="st8" d="M519.8,976.3c-6-1.1-13.8-1.4-20.1-1.5c0.7,5.6,4.3,34.1,3.7,35.9c-2.7,7.1-8.5,10.4-8.5,10.4
	s27.7,25,29.4,22.1s-1.2-2.5-3-12c-0.2-0.8-4.2-14.2-4.4-21.3C516.3,996.2,519.6,983.9,519.8,976.3z"/>
<g>
	<path class="st0" d="M510.9,882.9c-3.9-2.1-13.9-2.1-25-1.4c-21.5,1.4-42.8,5.6-63.3,12.4l-13.7,4.5v-14c0,0-43.6-7.3-45.1,3.5
		c-2.3,16.3,0.5,49.3,15.1,56.7c45.1,22.9,108.3-36.5,108.6-28.7c0.3,10.4,9.1,49.3,11.4,66.3c6.3,0.1,17,0.1,21.7-1
		C521.5,947.8,521.9,888.8,510.9,882.9z"/>
</g>
<g>
	<path class="st3" d="M494,1021.7l31.2,24.9c1.2,0.8,2.3,0.1,2.3-0.8c0.1-1.8-3.7-9.5-6.3-14.7c-7.8-5-18-18-17.8-20.5
		C500.1,1013.4,493.5,1021,494,1021.7z"/>
</g>
<g>
	<path class="st2" d="M423.5,747.1c-1-9.6-2.1-19.2-10.1-26.2c-6.4-5.7-14.6-6.6-22.7-3.6c-22.9,8.6-11.1,28.9-40.2,49.4
		c-9.1,6.4-19,10.7-25.9,19.3c-9.5,12-5.9,26.4,2.8,36.1c41.6,46.1,88.1-16.2,91.5-31.1C421.3,779.8,424.2,753.2,423.5,747.1z"/>
</g>
<g>
	<path class="st3" d="M415,800.9c-3.4-6.3-6.9-11.2-6.9-11.2c-3.5-6.3-12.6-9.4-12.6-9.4s-3,0.1-6.5,0.2c-0.2,0.6-0.4,1-0.7,1.2
		c-1.3,1-8.9-0.3-13.7,3c-16.3,14-11.8,81.8-10.5,103.2l49.7,0.5c0,0-6.3-46.1,3.8-57.9C424.6,822.2,420.1,810.2,415,800.9z"/>
</g>
<path class="st8" d="M392.6,757.3c0,0-2.7,19.5-4.6,24.3c-1.9,4.7,10.5,14.9,20.8,18s-3.2-10.5-2.7-15.5c0.4-5.1,2.3-29.1,2.3-29.1
	L392.6,757.3z"/>
<path class="st10" d="M407.8,761.7c0.3-4,0.5-6.9,0.5-6.9l-15.8,2.4c0,0-0.4,2.3-0.8,5.5C398.2,766.5,403.9,765.3,407.8,761.7z"/>
<path class="st8" d="M397.6,721.6c0,0-6.2,1.4-10,7.2c-3.8,5.9-6.5,23.1,6.2,31.1c12.6,8,22.4-3.3,22.6-14.4
	C416.4,734.5,414.1,719.7,397.6,721.6z"/>
<path class="st8" d="M419.2,742.1c-1.1,2.7-3.2,4.3-4.8,3.7c-1.6-0.6-1.9-3.3-0.9-6c1.1-2.7,3.2-4.3,4.8-3.7
	C419.9,736.7,420.2,739.4,419.2,742.1z"/>
<path class="st16" d="M399.4,721.2c0,0-7.9,17.8-14.9,19.3c-7,1.6-6.9,10.5-6.9,10.5s0.2-20.6,6.7-25.4
	C390.9,721,399.4,721.2,399.4,721.2z"/>
<path class="st8" d="M387.3,744.3c0.9,2.9,0.1,5.7-1.9,6.3c-1.9,0.6-4.3-1.2-5.2-4.1c-0.9-2.9-0.1-5.7,1.9-6.3
	C384.1,739.6,386.4,741.4,387.3,744.3z"/>
<path class="st8" d="M476.2,872.5c-3-1.1-7.4-1.2-7.3-1.6c0.3-1.6,13.5,3.5,11.7,1.2c-1-1.3-10.9-5.9-13.3-5.1
	c-2.3,0.7-17.6,5-17.6,5l-41.7-9.8c0,0-10.5-23.9-11.6-44.5c-8.7,1.2-14.6,3.3-22.2,7.5c3.7,19.7,12.5,51.6,22.3,57.5
	c4.1,2.5,53.4-3,53.4-3s10.9-0.8,12.6-1.4c1.3-0.5,4.8-2.5,6.7-3c4.3-1.2,11.9,1.8,11.9,1C481.2,875.6,479.3,873.6,476.2,872.5z"/>
<path class="st3" d="M396.7,795.7c-0.4-6.3-2.8-12.4-9.5-14.4c-4.2-1.2-8.9-0.1-12.2,2.7c-4,3.2-5.1,8.4-5.1,13.4
	c0,11.2,0.8,22.8,2.8,33.8c7.6-4.2,16.4-6.7,25.1-7.9C397.9,823.1,397.2,804,396.7,795.7z"/>
<g>
	<g>
		<g>
			
				<rect x="638.5" y="66.2" transform="matrix(0.1982 -0.9802 0.9802 0.1982 437.2058 690.3184)" class="st3" width="4.1" height="23.5"/>
		</g>
	</g>
	<g>
		<g>
			
				<rect x="638.7" y="125.9" transform="matrix(0.8464 -0.5325 0.5325 0.8464 31.8449 366.3549)" class="st3" width="24.8" height="4.1"/>
		</g>
	</g>
	<g>
		<g>
			
				<rect x="677.9" y="25.4" transform="matrix(0.9817 -0.1904 0.1904 0.9817 5.1369 130.164)" class="st3" width="4.1" height="25.9"/>
		</g>
	</g>
	<g>
		<g>
			<polygon class="st3" points="681.3,50.1 722.2,60.6 736.3,98 732.5,99.4 719.1,64 682.6,54.6 655,82.1 664.2,120.4 660.3,121.3 
				650.6,80.8 			"/>
		</g>
	</g>
	<g>
		<g>
			<path class="st3" d="M725.4,97.4c0.9-5.3,6-8.9,11.4-7.9c5.3,0.9,8.9,6,7.9,11.4c-0.9,5.3-6,8.9-11.4,7.9
				C728,107.8,724.4,102.8,725.4,97.4z"/>
		</g>
	</g>
	<g>
		<g>
			<path class="st3" d="M711.6,59.3c0.9-5.3,6-8.9,11.3-7.9c5.3,0.9,8.9,6,7.9,11.4c-0.9,5.3-6,8.9-11.4,7.9
				C714.2,69.7,710.6,64.6,711.6,59.3z"/>
		</g>
	</g>
	<g>
		<g>
			<path class="st3" d="M672.2,50.5c0.9-5.3,6-8.9,11.4-7.9c5.3,0.9,8.9,6,7.9,11.4c-0.9,5.3-6,8.9-11.4,7.9
				C674.8,60.9,671.3,55.8,672.2,50.5z"/>
		</g>
	</g>
	<g>
		<g>
			<path class="st3" d="M666.6,20.4c0.9-5.3,6-8.9,11.4-7.9c5.3,0.9,8.9,6,7.9,11.4c-0.9,5.3-6,8.9-11.4,7.9S665.7,25.7,666.6,20.4z
				"/>
		</g>
	</g>
	<g>
		<g>
			<path class="st3" d="M613.2,71.9c0.9-5.3,6-8.9,11.4-7.9c5.3,0.9,8.9,6,7.9,11.4c-0.9,5.3-6,8.9-11.4,7.9
				C615.8,82.3,612.3,77.3,613.2,71.9z"/>
		</g>
	</g>
	<g>
		<g>
			<path class="st3" d="M625.8,134.2c0.9-5.3,6-8.9,11.4-7.9c5.3,0.9,8.9,6,7.9,11.4c-0.9,5.3-6,8.9-11.4,7.9
				C628.4,144.6,624.9,139.5,625.8,134.2z"/>
		</g>
	</g>
	<g>
		<g>
			<path class="st3" d="M641.5,79.4c0.9-5.3,6-8.9,11.4-7.9c5.3,0.9,8.9,6,7.9,11.4c-0.9,5.3-6,8.9-11.4,7.9
				C644.1,89.8,640.6,84.7,641.5,79.4z"/>
		</g>
	</g>
	<g>
		<g>
			<path class="st3" d="M652,119.6c0.9-5.3,6-8.9,11.4-7.9c5.3,0.9,8.9,6,7.9,11.4c-0.9,5.3-6,8.9-11.4,7.9
				C654.6,130,651,124.9,652,119.6z"/>
		</g>
	</g>
</g>
<g>
	<path class="st5" d="M949.2,1054.2l-115.6-32.3c-5.8-1.6-9.2-7.7-7.6-13.5l46.3-165.8c1.6-5.8,7.7-9.2,13.5-7.6l115.6,32.3
		c5.8,1.6,9.2,7.7,7.6,13.5l-46.3,165.8C961.1,1052.5,955,1055.8,949.2,1054.2z"/>
</g>
<path class="st17" d="M989.5,895.2l-103.8-29c-1.7-0.5-2.6-2.2-2.2-3.9l0,0c0.5-1.7,2.2-2.6,3.9-2.2l103.8,29
	c1.7,0.5,2.6,2.2,2.2,3.9l0,0C992.9,894.7,991.2,895.7,989.5,895.2z"/>
<path class="st17" d="M967.5,902.3l-85.3-23.8c-1.7-0.5-2.6-2.2-2.2-3.9l0,0c0.5-1.7,2.2-2.6,3.9-2.2l85.3,23.8
	c1.7,0.5,2.6,2.2,2.2,3.9l0,0C970.9,901.8,969.1,902.8,967.5,902.3z"/>
<path class="st17" d="M982.6,919.9l-103.8-29c-1.7-0.5-2.6-2.2-2.2-3.9l0,0c0.5-1.7,2.2-2.6,3.9-2.2l103.8,29
	c1.7,0.5,2.6,2.2,2.2,3.9l0,0C986,919.3,984.3,920.3,982.6,919.9z"/>
<path class="st17" d="M955.5,925.5l-80.2-22.4c-1.7-0.5-2.6-2.2-2.2-3.9l0,0c0.5-1.7,2.2-2.6,3.9-2.2l80.2,22.4
	c1.7,0.5,2.6,2.2,2.2,3.9l0,0C958.9,925,957.1,926,955.5,925.5z"/>
<g>
	<g>
		<path class="st3" d="M900.7,828.8l-2.1-0.6c-0.8-0.2-1.6,0.2-1.8,0.9l-4.4,15.7c-0.2,0.7,0.3,1.5,1,1.7l2.1,0.6
			c0.8,0.2,1.6-0.2,1.8-0.9l4.4-15.7C902,829.8,901.5,829.1,900.7,828.8z"/>
	</g>
	<g>
		<path class="st3" d="M909.7,831.3l-2.1-0.6c-0.8-0.2-1.6,0.2-1.8,0.9l-4.4,15.7c-0.2,0.7,0.3,1.5,1,1.7l2.1,0.6
			c0.8,0.2,1.6-0.2,1.8-0.9l4.4-15.7C910.9,832.3,910.4,831.6,909.7,831.3z"/>
	</g>
	<g>
		<path class="st3" d="M918.6,833.8l-2.1-0.6c-0.8-0.2-1.6,0.2-1.8,0.9l-4.4,15.7c-0.2,0.7,0.3,1.5,1,1.7l2.1,0.6
			c0.8,0.2,1.6-0.2,1.8-0.9l4.4-15.7C919.8,834.8,919.4,834.1,918.6,833.8z"/>
	</g>
	<g>
		<path class="st3" d="M927.6,836.3l-2.1-0.6c-0.8-0.2-1.6,0.2-1.8,0.9l-4.4,15.7c-0.2,0.7,0.3,1.5,1,1.7l2.1,0.6
			c0.8,0.2,1.6-0.2,1.8-0.9l4.4-15.7C928.8,837.3,928.3,836.6,927.6,836.3z"/>
	</g>
	<g>
		<path class="st3" d="M936.5,838.8l-2.1-0.6c-0.8-0.2-1.6,0.2-1.8,0.9l-4.4,15.7c-0.2,0.7,0.3,1.5,1,1.7l2.1,0.6
			c0.8,0.2,1.6-0.2,1.8-0.9l4.4-15.7C937.7,839.8,937.3,839.1,936.5,838.8z"/>
	</g>
	<g>
		<path class="st3" d="M945.4,841.3l-2.1-0.6c-0.8-0.2-1.6,0.2-1.8,0.9l-4.4,15.7c-0.2,0.7,0.3,1.5,1,1.7l2.1,0.6
			c0.8,0.2,1.6-0.2,1.8-0.9l4.4-15.7C946.7,842.3,946.2,841.6,945.4,841.3z"/>
	</g>
	<g>
		<path class="st3" d="M954.4,843.8l-2.1-0.6c-0.8-0.2-1.6,0.2-1.8,0.9l-4.4,15.7c-0.2,0.7,0.3,1.5,1,1.7l2.1,0.6
			c0.8,0.2,1.6-0.2,1.8-0.9l4.4-15.7C955.6,844.8,955.2,844.1,954.4,843.8z"/>
	</g>
	<g>
		<path class="st3" d="M963.3,846.3l-2.1-0.6c-0.8-0.2-1.6,0.2-1.8,0.9l-4.4,15.7c-0.2,0.7,0.3,1.5,1,1.7l2.1,0.6
			c0.8,0.2,1.6-0.2,1.8-0.9l4.4-15.7C964.6,847.3,964.1,846.6,963.3,846.3z"/>
	</g>
	<g>
		<path class="st3" d="M972.3,848.8l-2.1-0.6c-0.8-0.2-1.6,0.2-1.8,0.9l-4.4,15.7c-0.2,0.7,0.3,1.5,1,1.7l2.1,0.6
			c0.8,0.2,1.6-0.2,1.8-0.9l4.4-15.7C973.5,849.8,973.1,849.1,972.3,848.8z"/>
	</g>
	<g>
		<path class="st3" d="M981.2,851.3l-2.1-0.6c-0.8-0.2-1.6,0.2-1.8,0.9l-4.4,15.7c-0.2,0.7,0.3,1.5,1,1.7l2.1,0.6
			c0.8,0.2,1.6-0.2,1.8-0.9l4.4-15.7C982.5,852.3,982,851.6,981.2,851.3z"/>
	</g>
	<g>
		<path class="st3" d="M990.2,853.8l-2.1-0.6c-0.8-0.2-1.6,0.2-1.8,0.9l-4.4,15.7c-0.2,0.7,0.3,1.5,1,1.7l2.1,0.6
			c0.8,0.2,1.6-0.2,1.8-0.9l4.4-15.7C991.4,854.8,990.9,854.1,990.2,853.8z"/>
	</g>
	<g>
		<path class="st3" d="M999.1,856.3l-2.1-0.6c-0.8-0.2-1.6,0.2-1.8,0.9l-4.4,15.7c-0.2,0.7,0.3,1.5,1,1.7l2.1,0.6
			c0.8,0.2,1.6-0.2,1.8-0.9l4.4-15.7C1000.3,857.3,999.9,856.6,999.1,856.3z"/>
	</g>
</g>
<g>
	<path class="st2" d="M711.1,999.7l110.4-2.3c0.2,0,0.5,0,0.7-0.1l19.8-6.5c2.3-0.8,2.3-4-0.1-4.7l-20.4-6.1
		c-0.2-0.1-0.5-0.1-0.8-0.1L710,982.2c-1.4,0-2.5,1.2-2.4,2.6l0.8,12.6C708.6,998.8,709.7,999.8,711.1,999.7z"/>
</g>
<path class="st17" d="M820.9,979.8h0.3l19.7,5.9l0.2,5.4l-18.8,6.2C821.6,991.9,820.3,985.6,820.9,979.8z"/>
<g>
	<path class="st16" d="M886.4,1024.4c-2.3,0-4.2-0.7-5.6-2.2c-5.5-5.5-3.4-19.5-2.6-29.9c0.4-4.9,0.8-10.4-1.5-14.7
		c-2.6-4.9-13-4.3-20.6-0.8c-5.2,2.4-10,6.6-8.1,11.4c0.2,0.5,0,1.1-0.6,1.3c-0.5,0.2-1.1,0-1.3-0.6c-2-5.1,1.5-10.5,9.1-14
		c8.6-4,20-4.5,23.3,1.7c2.5,4.7,2.1,10.6,1.7,15.8c-0.7,9.9-2.7,23.6,2,28.4c1.2,1.2,2.9,1.8,5,1.6c9.6-0.9,8-20.7,9.7-27.8
		c2.4-10.5,6.2-23.5,16.8-21.9c7.9,1.2,13.7,6.7,16.7,16.1c2.3,7,2.2,13.5,2.2,13.8c0,0.6-0.5,1-1,1l0,0c-0.6,0-1-0.5-1-1
		c0-0.1,0-6.5-2.1-13.2c-2.8-8.7-7.9-13.7-15.1-14.7c-9.2-1.3-12.4,11.3-14.5,20.4C897.1,1002.5,899.2,1024.4,886.4,1024.4z"/>
</g>
<g>
	<path class="st8" d="M189.5,594.6c0.5,1.8,0.8,2.4,1.4,3.6c4.1,7.8,13.6,19,13.6,19l7.4-17.4c0,0-1.2-5.5-3.3-13.3
		C201.5,588.5,194.7,589.6,189.5,594.6z"/>
	<g>
		<path class="st18" d="M231.7,579.5c0,0-41.1,18.6-42.4,18.2c-0.9-0.2-16.9-28.3-17-54.8c-0.1-12.2,12-26.9,25.5-24
			c6.8,1.5,6.7,3.4,16.7,18.8C224.5,553,231.7,579.5,231.7,579.5z"/>
	</g>
	<path class="st13" d="M266.8,912.6c0,0-1,16.9-1,17c-0.4,2.2-1.8,7.5-1.8,9.4c0,7.3,33.2-6.2,25.8-9.5c-0.7-0.3-4.2-2.5-4.4-5
		c-0.3-3.9-1.2-11.6-1.2-11.6L266.8,912.6z"/>
	<path class="st14" d="M289.7,929.4c0,0-7.8,2.2-11.8,2.8s-9.3-4.2-12.1-2.9c-3.1,1.4-3,14.1-3,14.1s41.8,3.6,53.6-0.1
		C321.1,941.8,305.7,934.7,289.7,929.4z"/>
	<path class="st13" d="M198.8,912.6c0,0-1,16.9-1,17c-0.4,2.2-1.8,7.5-1.8,9.4c0,7.3,33.2-6.2,25.8-9.5c-0.7-0.3-5.3-4.2-5.5-6.7
		c-0.3-3.9-0.2-10-0.2-10L198.8,912.6z"/>
	<path class="st14" d="M221.8,929.4c0,0-7.8,2.2-11.8,2.8s-9.3-4.2-12.1-2.9c-3.1,1.4-3.2,14.1-3.2,14.1s42,4.2,53.9-0.1
		C253.1,941.6,237.7,934.7,221.8,929.4z"/>
	<g>
		<path class="st8" d="M209,604l29.3-43c0.1-0.4,0.4-1.1,0.8-2.3c1.5-4.3,4.5-13.2,7.2-22v-0.1c0.8-3.1,2.6-8.5,4.3-13.7
			c1.9-5.8,4.3-13,4.4-14.2c-0.1-0.2-0.2-0.6-0.4-1.1c-1.1-2.9-2.5-9.9-3-12.9c-0.3-1.9-0.7-6.6,1.5-6.6c3.4,0,1.8,4.7,3.4,7.6
			c0.6-2,1.8-5.8,2.4-9.8l0.6-9.2c0.1-0.7-0.6-5.7,1.8-5.7h0.1c2.2,0.2,2.1,5.5,3,14.6c0.3-1,0.6-2.3,0.8-3.5c0-0.6,0.4-3.3,0.7-4.8
			c-0.4-2.5-0.2-6.5,2.4-6.1c1.3,0.2,1.2,5.8,1.2,5.8c0,0.8-0.1,6.7,0,7.8c0.3-2,1.3-10.4,3.3-10.4c1.7,0,1.8,2.3,1.8,4.1
			c0,1.1-1.1,10.2-1.1,11.3c0.8-1.4,1.7-9.4,2.5-9.4c3.3,0,2.1,11.4,0.9,14.4c-0.1,0.3-0.2,0.9-0.4,1.6c-0.4,2-1.1,5.4-2.8,8.5
			c-2,3.7-4.9,9.5-5.3,10.4c-0.3,1.8-1.3,8.4-2.5,16.6c-0.5,3.5-1.1,7.4-1.7,11.4l0,0c-0.1,0.9-0.7,3.6-3,14
			c-3.2,14.2-3.5,14.8-3.6,15c-1.4,2.6-32.9,47.5-34.3,49.5l-0.8,1.1L209,604z"/>
		<path class="st19" d="M263.4,503.6c0,0-2.4-6.4-6.6-6.4c0,0,2.4-0.9,4.4,0.8C263.2,499.7,263.4,503.6,263.4,503.6z"/>
	</g>
	<g>
		<path class="st8" d="M201.9,491.3l-3.8,25c0,0,14.4,12.1,22.7,9.5c7-2.1,2.2-11.8,2.2-11.8s-3.7-13.4-2.6-20.4
			C221.6,486.7,201.9,491.3,201.9,491.3z"/>
		<path class="st19" d="M204.6,498.9c3.6,1.8,10.7,4.2,16.2,4.8c-0.5-3.5-0.8-7.2-0.4-9.9c0.5-3.2-3.4-4-7.8-3.9
			c-5.7,0.5-10.8,1.5-10.8,1.5l-0.7,4.8C202.3,497.3,203.4,498.3,204.6,498.9z"/>
		<path class="st8" d="M183.8,462.5c-0.6,0,5.7,27.9,15.4,32.8c9.7,4.8,24.2,2.3,26.9-5.2c3-8.3-7.9-36.8-21.6-40.5
			C190.8,445.9,183.8,462.5,183.8,462.5z"/>
		<g>
			<path class="st0" d="M195,436.8c-7.7,4.7-11.3,11.6-12.5,14.5c-3.6,1.8-8,5.7-10.1,16.3c-2.6,13,6.6,23,16.4,26
				c9.8,3,11.3,9.6,11.3,9.6l1.1-7.1c0,0-2.2-6.4-5.5-9.6s1.6-7.8,2-11.6c0.3-2.9-1.7-8.6-1.3-13.4c0,0,5.4-8.7,10.8-10.8
				C216.4,447.1,204.9,430.8,195,436.8z"/>
		</g>
		<path class="st8" d="M199.1,479.7c1.3,3.2,0.7,6.4-1.2,7.2c-1.9,0.7-4.5-1.3-5.7-4.5c-1.3-3.2-0.7-6.4,1.2-7.2
			C195.3,474.5,197.9,476.5,199.1,479.7z"/>
	</g>
	<path class="st8" d="M235.2,604.7l56.5-9.7c0,0-6.4-17-8.7-17c-2.3,0-42.7,18.5-42.7,18.5l-3.2,6.8L235.2,604.7z"/>
	<path class="st20" d="M206.3,645.3c0,0-5.6,28.6-3.3,50.3s2.5,98.7,2.5,98.7l-8.8,123.2l20.8,0.5c0,0,24.6-123.1,24.2-120
		c-0.5,3.2,8.3-86.7,8.3-86.7l-29.4-68.6L206.3,645.3z"/>
	<path class="st2" d="M210.9,644.2c0,0-3.7,25.7,0.9,37c4.6,11.3,39.4,122,39.8,131.1c0.5,9,12,108.8,12,108.8l24.2-0.7l5.2-111
		l-10.9-139.5l-10.6-35.3L210.9,644.2z"/>
	<path class="st19" d="M198.1,516.3c0,0,6,4.1,11.5,3.6c5.6-0.5,13.4-5.9,13.4-5.9l-1.1-3.9c0,0-14.4-2.2-14.7-2
		C206.9,508.5,198.1,516.3,198.1,516.3z"/>
	<path class="st8" d="M261.6,577.2c0,0,21.4,21.2,31,17.5c9.6-3.6,13.6-16-9.9-34C261.7,544.6,261.6,577.2,261.6,577.2z"/>
	<g>
		<path class="st5" d="M276.1,603.4c-3.2-18.1-26.2-74.5-28-84.9c-0.9-5.1-13.3-5.2-25.1-4.5c-12.5,0.7-24.9,2.4-24.9,2.4
			s-11,1.9-15.9,6.7s-6.2,18,0.8,43.1c5.5,19.8,12.4,30.7,15.7,45.1c0.7,4.8,1.3,9.6,2.1,15.2c1.2,21.6,0,50.1,0,50.1
			s60.1,13.1,82.6-6.8C283.4,669.7,279.4,621.9,276.1,603.4z"/>
	</g>
	<g>
		<path class="st18" d="M291.4,564.4c0,0-23.6,20.4-25,20.4c-0.9,0-33.7-25.3-41.2-46.1c-4.2-11.5,4.6-24.4,14.6-24.3
			c6.9,0,10,1.9,23.8,14.1C277.4,540.7,291.4,564.4,291.4,564.4z"/>
	</g>
</g>
<g>
	<g>
		<path class="st3" d="M805.6,201.6H354.5c-2.6,0-4.7-2.1-4.7-4.7v-40.5c0-2.6,2.1-4.7,4.7-4.7h451.1c2.6,0,4.7,2.1,4.7,4.7v40.5
			C810.3,199.5,808.1,201.6,805.6,201.6z"/>
	</g>
	<g>
		<g>
			<g>
				<path class="st0" d="M702.2,195h-323c-5.9,0-10.7-4.8-10.7-10.7v-15.4c0-5.9,4.8-10.7,10.7-10.7h323c5.9,0,10.7,4.8,10.7,10.7
					v15.4C712.9,190.2,708.1,195,702.2,195z M379.2,161.1c-4.3,0-7.8,3.5-7.8,7.8v15.4c0,4.3,3.5,7.8,7.8,7.8h323
					c4.3,0,7.8-3.5,7.8-7.8v-15.4c0-4.3-3.5-7.8-7.8-7.8H379.2z"/>
			</g>
		</g>
	</g>
	<g>
		<g>
			<g>
				<path class="st0" d="M758.7,181.6c-7.1,0-12.9-5.8-12.9-12.9c0-7.1,5.8-12.9,12.9-12.9c7.1,0,12.9,5.8,12.9,12.9
					C771.7,175.8,765.9,181.6,758.7,181.6z M758.7,158.7c-5.5,0-10,4.5-10,10s4.5,10,10,10s10-4.5,10-10S764.2,158.7,758.7,158.7z"
					/>
			</g>
		</g>
	</g>
	<g>
		<g>
			<path class="st0" d="M775.7,194.4l-11.6-15.5c-0.5-0.7-0.4-1.6,0.3-2.1c0.6-0.5,1.5-0.4,2,0.2l0.1,0.1l13,14.4
				c0.9,1,0.8,2.5-0.2,3.4s-2.5,0.8-3.4-0.2C775.9,194.6,775.8,194.6,775.7,194.4L775.7,194.4z"/>
		</g>
	</g>
</g>
<g>
	<g>
		<polygon class="st3" points="138.8,184.7 137.5,203.8 119.5,210.6 162.3,241.1 180.6,234 180.6,214.6 		"/>
	</g>
	<g>
		
			<ellipse transform="matrix(0.7071 -0.7071 0.7071 0.7071 -124.7942 256.916)" class="st0" cx="247.7" cy="279.1" rx="76.5" ry="76.5"/>
	</g>
	<g>
		
			<ellipse transform="matrix(0.7071 -0.7071 0.7071 0.7071 -124.8064 256.9085)" class="st3" cx="247.7" cy="279.1" rx="60.7" ry="60.7"/>
	</g>
	<g>
		<ellipse transform="matrix(0.7071 -0.7071 0.7071 0.7071 -124.7644 256.8456)" class="st0" cx="247.7" cy="279" rx="39" ry="39"/>
	</g>
	<path class="st2" d="M266.5,279.1c0,10.4-8.4,18.7-18.7,18.7c-10.4,0-18.7-8.4-18.7-18.7c0-10.4,8.4-18.7,18.7-18.7
		S266.5,268.8,266.5,279.1z"/>
	<g>
		<path class="st2" d="M246.4,280.7c-0.3,0-0.6-0.1-0.9-0.3l-106.8-73.2c-0.7-0.5-0.9-1.5-0.4-2.3c0.5-0.7,1.5-0.9,2.3-0.4
			L246.4,277C247.1,277.6,246.9,280.7,246.4,280.7z"/>
	</g>
	<polygon class="st17" points="242.1,269.9 242.5,276.1 236.5,278.1 246.9,281.6 247.5,276.6 	"/>
</g>
<g>
	<polygon class="st3" points="182.2,106 179.2,113.6 185,119.6 181,127.9 189,132.5 185,142 191.9,147.1 189.5,156.9 185.7,156 
		187.6,148.7 180.3,143.3 184.2,134.1 176,129.5 180.4,120.4 174.8,114.5 177.6,107.4 173.1,104.3 175.3,101.2 	"/>
</g>
<g>
	<polygon class="st0" points="70.2,301.3 77.7,304.4 83.8,298.7 92.1,302.8 96.7,294.7 106.2,298.9 111.3,292 121.1,294.5 
		120.2,298.2 112.9,296.4 107.4,303.6 98.3,299.6 93.6,307.8 84.5,303.3 78.6,308.9 71.6,306 68.4,310.5 65.3,308.2 	"/>
</g>
<g>
	<polygon class="st3" points="99.6,252.4 90.1,243.5 77.8,248.5 67.8,237.8 56.4,247.1 44.6,235.5 33,242.8 19.8,233.5 23.3,228.5 
		33.2,235.5 45.4,227.8 56.7,238.9 68.4,229.4 79.4,241.3 91.4,236.4 100.2,244.6 107.4,239.8 110.8,244.9 	"/>
</g>
<g>
	<path class="st3" d="M362,240.2l-6.3-5.6l-8.2,2.1c-0.9,0.2-1.7-0.7-1.4-1.6l3.3-7.8l-4.5-7.1c-0.5-0.8,0.1-1.9,1.1-1.8l8.4,0.8
		l5.4-6.5c0.6-0.7,1.8-0.5,2,0.5l1.9,8.2l7.8,3.1c0.9,0.4,1,1.6,0.2,2.1l-7.2,4.3l-0.6,8.4C363.9,240.4,362.7,240.9,362,240.2z"/>
</g>
<path class="st2" d="M325.1,130l-6.3-5.6l-8.2,2.1c-0.9,0.2-1.7-0.7-1.4-1.6l3.3-7.8L308,110c-0.5-0.8,0.1-1.9,1.1-1.8l8.4,0.8
	l5.4-6.5c0.6-0.7,1.8-0.5,2,0.5l1.9,8.2l7.8,3.1c0.9,0.4,1,1.6,0.2,2.1l-7.2,4.3l-0.6,8.4C327,130.2,325.8,130.6,325.1,130z"/>
</svg>
